M48
METRIC
T1C0.300
T2C2.380
T3C3.200
%
G90
G05
T1
X97.093Y-88.61
X98.874Y-76.298
X100.224Y-87.61
X101.752Y-58.166
X101.93Y-70.968
X102.038Y-60.706
X102.038Y-65.786
X102.057Y-73.381
X102.07Y-68.313
X102.662Y-83.61
X102.685Y-97.531
X103.242Y-102.314
X103.305Y-89.61
X105.537Y-94.175
X105.74Y-87.3
X105.842Y-92.761
X105.918Y-84.099
X106.197Y-61.595
X106.223Y-64.16
X106.344Y-69.272
X107.62Y-95.352
X109.586Y-88.61
X110.096Y-99.61
X110.392Y-95.329
X110.59Y-100.891
X110.59Y-103.61
X111.252Y-69.215
X111.288Y-76.352
X111.29Y-59.093
X111.354Y-78.867
X111.843Y-101.504
X112.265Y-94.913
X113.706Y-78.188
X113.767Y-66.192
X114.259Y-69.475
X114.476Y-80.593
X114.503Y-101.27
X114.732Y-75.997
X114.892Y-95.35
X115.646Y-83.368
X115.672Y-88.976
X116.113Y-71.434
X116.615Y-82.407
X116.942Y-94.056
X118.428Y-69.964
X119.545Y-68.675
X120.094Y-88.614
X120.394Y-101.932
X120.726Y-67.494
X121.109Y-100.047
X121.834Y-88.871
X121.92Y-93.955
X122.428Y-90.059
X122.479Y-80.264
X122.736Y-76.638
X122.796Y-82.321
X122.873Y-96.389
X123.371Y-67.688
X123.514Y-74.292
X124.876Y-89.046
X127.052Y-99.51
X128.375Y-97.606
X128.574Y-88.974
X128.762Y-75.905
X129.052Y-105.622
X129.591Y-88.316
X130.226Y-90.475
X130.899Y-86.411
X130.909Y-95.967
X134.347Y-91.405
X134.645Y-75.67
X137.163Y-85.169
X138.125Y-78.654
X138.5Y-104.172
X138.897Y-67.828
X140.398Y-95.313
X140.941Y-68.821
X141.049Y-70.066
X141.694Y-86.296
X142.072Y-83.404
X144.158Y-74.079
X144.158Y-81.397
X144.196Y-93.802
X144.755Y-101.549
X145.263Y-71.958
X147.371Y-99.339
X147.501Y-57.604
X147.879Y-60.02
X147.955Y-62.687
X148.006Y-78.842
X148.13Y-88.973
X148.879Y-83.004
X149.203Y-80.972
X150.339Y-84.744
X151.206Y-91.056
X151.359Y-85.115
X151.765Y-57.556
X151.879Y-60.134
X153.721Y-88.973
X155.3Y-89.838
X156.116Y-86.85
X158.293Y-89.459
X158.59Y-85.082
X158.613Y-82.702
X160.249Y-68.021
X160.645Y-86.912
X161.163Y-82.982
X161.236Y-66.18
X162.931Y-68.339
X163.373Y-77.959
X163.678Y-79.654
X163.887Y-86.931
X164.941Y-88.284
X165.095Y-67.008
X165.176Y-75.387
X165.76Y-81.636
X166.181Y-74.485
X166.751Y-80.645
X167.078Y-68.726
X167.221Y-90.576
X167.484Y-66.621
X167.665Y-87.62
X168.251Y-70.287
X168.481Y-67.84
X168.634Y-90.862
X169.266Y-75.667
X169.291Y-88.541
X169.802Y-69.329
X170.936Y-87.914
X171.256Y-85.601
X173.122Y-84.43
X174.32Y-63.883
X174.346Y-65.075
X174.498Y-93.249
X175.349Y-87.23
X175.793Y-66.475
X176.447Y-77.356
X177.155Y-79.61
X177.394Y-90.986
X178.102Y-78.13
X179.13Y-72.958
X179.638Y-76.26
X180.975Y-88.376
X182.804Y-90.624
X184.848Y-77.019
X185.064Y-92.329
X188.204Y-78.495
X191.795Y-74.549
X192.888Y-72.593
X196.399Y-61.409
X196.485Y-64.04
X196.545Y-71.425
X199.986Y-71.476
X203.162Y-59.703
X203.2Y-66.853
T2
X198.425Y-78.664
X198.425Y-91.464
T3
X118.491Y-60.642
X118.491Y-110.363
X139.573Y-60.642
X139.573Y-110.363
X189.357Y-60.642
M30
