%TF.GenerationSoftware,KiCad,Pcbnew,8.0.9*%
%TF.CreationDate,2025-04-11T10:46:46+01:00*%
%TF.ProjectId,Gotek,476f7465-6b2e-46b6-9963-61645f706362,rev?*%
%TF.SameCoordinates,Original*%
%TF.FileFunction,Paste,Top*%
%TF.FilePolarity,Positive*%
%FSLAX46Y46*%
G04 Gerber Fmt 4.6, Leading zero omitted, Abs format (unit mm)*
G04 Created by KiCad (PCBNEW 8.0.9) date 2025-04-11 10:46:46*
%MOMM*%
%LPD*%
G01*
G04 APERTURE LIST*
G04 Aperture macros list*
%AMRoundRect*
0 Rectangle with rounded corners*
0 $1 Rounding radius*
0 $2 $3 $4 $5 $6 $7 $8 $9 X,Y pos of 4 corners*
0 Add a 4 corners polygon primitive as box body*
4,1,4,$2,$3,$4,$5,$6,$7,$8,$9,$2,$3,0*
0 Add four circle primitives for the rounded corners*
1,1,$1+$1,$2,$3*
1,1,$1+$1,$4,$5*
1,1,$1+$1,$6,$7*
1,1,$1+$1,$8,$9*
0 Add four rect primitives between the rounded corners*
20,1,$1+$1,$2,$3,$4,$5,0*
20,1,$1+$1,$4,$5,$6,$7,0*
20,1,$1+$1,$6,$7,$8,$9,0*
20,1,$1+$1,$8,$9,$2,$3,0*%
G04 Aperture macros list end*
%ADD10R,1.000000X1.000000*%
%ADD11RoundRect,0.250000X-0.350000X-0.450000X0.350000X-0.450000X0.350000X0.450000X-0.350000X0.450000X0*%
%ADD12RoundRect,0.250000X-0.475000X0.337500X-0.475000X-0.337500X0.475000X-0.337500X0.475000X0.337500X0*%
%ADD13R,0.900000X0.600000*%
%ADD14RoundRect,0.250000X-0.337500X-0.475000X0.337500X-0.475000X0.337500X0.475000X-0.337500X0.475000X0*%
%ADD15R,1.000000X0.400000*%
%ADD16R,1.300000X2.000000*%
%ADD17R,1.650000X0.700000*%
%ADD18R,1.475000X0.300000*%
%ADD19R,0.300000X1.475000*%
%ADD20RoundRect,0.250000X0.337500X0.475000X-0.337500X0.475000X-0.337500X-0.475000X0.337500X-0.475000X0*%
%ADD21RoundRect,0.250000X-0.450000X0.350000X-0.450000X-0.350000X0.450000X-0.350000X0.450000X0.350000X0*%
%ADD22R,0.950000X1.300000*%
%ADD23R,3.250000X1.300000*%
%ADD24RoundRect,0.250000X0.350000X0.450000X-0.350000X0.450000X-0.350000X-0.450000X0.350000X-0.450000X0*%
%ADD25RoundRect,0.150000X-0.825000X-0.150000X0.825000X-0.150000X0.825000X0.150000X-0.825000X0.150000X0*%
G04 APERTURE END LIST*
D10*
%TO.C,DID1*%
X138650000Y-100933200D03*
X136350000Y-100933200D03*
%TD*%
D11*
%TO.C,PU5*%
X118000000Y-91398700D03*
X120000000Y-91398700D03*
%TD*%
D12*
%TO.C,C4*%
X147307300Y-72877200D03*
X147307300Y-74952200D03*
%TD*%
D11*
%TO.C,R20*%
X189160300Y-67027400D03*
X191160300Y-67027400D03*
%TD*%
D13*
%TO.C,Q5*%
X133680000Y-99616300D03*
X133680000Y-97716300D03*
X130880000Y-98666300D03*
%TD*%
D11*
%TO.C,RN4*%
X136500000Y-104171700D03*
X138500000Y-104171700D03*
%TD*%
D13*
%TO.C,Q6*%
X133702300Y-95685600D03*
X133702300Y-93785600D03*
X130902300Y-94735600D03*
%TD*%
D14*
%TO.C,C20*%
X140878700Y-78882900D03*
X142953700Y-78882900D03*
%TD*%
D11*
%TO.C,PU12*%
X118000000Y-103397000D03*
X120000000Y-103397000D03*
%TD*%
D14*
%TO.C,C6*%
X159165900Y-64573100D03*
X161240900Y-64573100D03*
%TD*%
D11*
%TO.C,PU13*%
X124000000Y-103432000D03*
X126000000Y-103432000D03*
%TD*%
%TO.C,PU2*%
X118500000Y-78432000D03*
X120500000Y-78432000D03*
%TD*%
%TO.C,PU11*%
X118000000Y-100466500D03*
X120000000Y-100466500D03*
%TD*%
D13*
%TO.C,Q3*%
X128901700Y-86500400D03*
X128901700Y-84600400D03*
X126101700Y-85550400D03*
%TD*%
D15*
%TO.C,P1*%
X101660000Y-80610000D03*
X101660000Y-81610000D03*
X101660000Y-82610001D03*
X101660000Y-83609999D03*
X101660000Y-84609999D03*
X101660000Y-85610000D03*
X101660000Y-86610000D03*
X101660000Y-87609998D03*
X101660000Y-88609999D03*
X101660000Y-89609999D03*
X101660000Y-90610000D03*
X101660000Y-91610000D03*
X101660000Y-92609998D03*
X101660000Y-93609999D03*
X101660000Y-94610000D03*
X101660000Y-95610000D03*
X101660000Y-96610001D03*
X101660000Y-97609999D03*
X101660000Y-98609999D03*
X101660000Y-99610000D03*
X101660000Y-100610000D03*
X101660000Y-101610001D03*
X101660000Y-102609999D03*
X101660000Y-103609999D03*
X101660000Y-104610000D03*
X101660000Y-105610000D03*
D16*
X98960001Y-77810025D03*
X98960001Y-108409975D03*
%TD*%
D11*
%TO.C,PU9*%
X118000000Y-97326400D03*
X120000000Y-97326400D03*
%TD*%
D13*
%TO.C,Q4*%
X133616500Y-103286600D03*
X133616500Y-101386600D03*
X130816500Y-102336600D03*
%TD*%
D11*
%TO.C,RN2*%
X132000000Y-81600700D03*
X134000000Y-81600700D03*
%TD*%
%TO.C,PU8*%
X124000000Y-97221700D03*
X126000000Y-97221700D03*
%TD*%
D14*
%TO.C,C18*%
X136468600Y-73745700D03*
X138543600Y-73745700D03*
%TD*%
D12*
%TO.C,C5*%
X150152100Y-73022500D03*
X150152100Y-75097500D03*
%TD*%
D17*
%TO.C,U8*%
X172063200Y-88788900D03*
X172063200Y-90058900D03*
X172063200Y-91328900D03*
X172063200Y-92598900D03*
X179263200Y-92598900D03*
X179263200Y-91328900D03*
X179263200Y-90058900D03*
X179263200Y-88788900D03*
%TD*%
D11*
%TO.C,RN1*%
X132000000Y-78705100D03*
X134000000Y-78705100D03*
%TD*%
D13*
%TO.C,Q2*%
X128901700Y-82938000D03*
X128901700Y-81038000D03*
X126101700Y-81988000D03*
%TD*%
D11*
%TO.C,RN3*%
X132000000Y-84461300D03*
X134000000Y-84461300D03*
%TD*%
%TO.C,RN5*%
X136500000Y-98142400D03*
X138500000Y-98142400D03*
%TD*%
D12*
%TO.C,C3*%
X150041000Y-67494900D03*
X150041000Y-69569900D03*
%TD*%
D18*
%TO.C,U3*%
X160606600Y-74250200D03*
X160606600Y-74750200D03*
X160606600Y-75250200D03*
X160606600Y-75750200D03*
X160606600Y-76250200D03*
X160606600Y-76750200D03*
X160606600Y-77250200D03*
X160606600Y-77750200D03*
X160606600Y-78250200D03*
X160606600Y-78750200D03*
X160606600Y-79250200D03*
X160606600Y-79750200D03*
X160606600Y-80250200D03*
X160606600Y-80750200D03*
X160606600Y-81250200D03*
X160606600Y-81750200D03*
D19*
X162594600Y-83738200D03*
X163094600Y-83738200D03*
X163594600Y-83738200D03*
X164094600Y-83738200D03*
X164594600Y-83738200D03*
X165094600Y-83738200D03*
X165594600Y-83738200D03*
X166094600Y-83738200D03*
X166594600Y-83738200D03*
X167094600Y-83738200D03*
X167594600Y-83738200D03*
X168094600Y-83738200D03*
X168594600Y-83738200D03*
X169094600Y-83738200D03*
X169594600Y-83738200D03*
X170094600Y-83738200D03*
D18*
X172082600Y-81750200D03*
X172082600Y-81250200D03*
X172082600Y-80750200D03*
X172082600Y-80250200D03*
X172082600Y-79750200D03*
X172082600Y-79250200D03*
X172082600Y-78750200D03*
X172082600Y-78250200D03*
X172082600Y-77750200D03*
X172082600Y-77250200D03*
X172082600Y-76750200D03*
X172082600Y-76250200D03*
X172082600Y-75750200D03*
X172082600Y-75250200D03*
X172082600Y-74750200D03*
X172082600Y-74250200D03*
D19*
X170094600Y-72262200D03*
X169594600Y-72262200D03*
X169094600Y-72262200D03*
X168594600Y-72262200D03*
X168094600Y-72262200D03*
X167594600Y-72262200D03*
X167094600Y-72262200D03*
X166594600Y-72262200D03*
X166094600Y-72262200D03*
X165594600Y-72262200D03*
X165094600Y-72262200D03*
X164594600Y-72262200D03*
X164094600Y-72262200D03*
X163594600Y-72262200D03*
X163094600Y-72262200D03*
X162594600Y-72262200D03*
%TD*%
D11*
%TO.C,PU1*%
X118500000Y-75638000D03*
X120500000Y-75638000D03*
%TD*%
D12*
%TO.C,C23*%
X125409300Y-58862000D03*
X125409300Y-60937000D03*
%TD*%
D11*
%TO.C,PU6*%
X124000000Y-94322900D03*
X126000000Y-94322900D03*
%TD*%
%TO.C,RN6*%
X136500000Y-95294400D03*
X138500000Y-95294400D03*
%TD*%
%TO.C,R2*%
X188061700Y-86620300D03*
X190061700Y-86620300D03*
%TD*%
D20*
%TO.C,C8*%
X162797400Y-88576100D03*
X160722400Y-88576100D03*
%TD*%
D21*
%TO.C,R10*%
X147250200Y-67532400D03*
X147250200Y-69532400D03*
%TD*%
D22*
%TO.C,U4*%
X128939900Y-64617600D03*
X131229900Y-64617600D03*
X133519900Y-64617600D03*
D23*
X131229900Y-57917600D03*
%TD*%
D11*
%TO.C,PU10*%
X124000000Y-100396700D03*
X126000000Y-100396700D03*
%TD*%
D24*
%TO.C,R13*%
X120500000Y-73091700D03*
X118500000Y-73091700D03*
%TD*%
D13*
%TO.C,Q1*%
X128920700Y-79137500D03*
X128920700Y-77237500D03*
X126120700Y-78187500D03*
%TD*%
D11*
%TO.C,PU14*%
X118500000Y-83734300D03*
X120500000Y-83734300D03*
%TD*%
D25*
%TO.C,U1*%
X139984100Y-83127800D03*
X139984100Y-84397800D03*
X139984100Y-85667800D03*
X139984100Y-86937800D03*
X139984100Y-88207800D03*
X139984100Y-89477800D03*
X139984100Y-90747800D03*
X144934100Y-90747800D03*
X144934100Y-89477800D03*
X144934100Y-88207800D03*
X144934100Y-86937800D03*
X144934100Y-85667800D03*
X144934100Y-84397800D03*
X144934100Y-83127800D03*
%TD*%
D11*
%TO.C,R1*%
X188169600Y-83883500D03*
X190169600Y-83883500D03*
%TD*%
%TO.C,R21*%
X189477800Y-69757900D03*
X191477800Y-69757900D03*
%TD*%
D12*
%TO.C,C9*%
X154774900Y-79794800D03*
X154774900Y-81869800D03*
%TD*%
D11*
%TO.C,PU4*%
X124000000Y-91287600D03*
X126000000Y-91287600D03*
%TD*%
%TO.C,PU3*%
X118500000Y-80978400D03*
X120500000Y-80978400D03*
%TD*%
%TO.C,PU7*%
X118000000Y-94246700D03*
X120000000Y-94246700D03*
%TD*%
D14*
%TO.C,C16*%
X175463900Y-85613900D03*
X177538900Y-85613900D03*
%TD*%
M02*
