%TF.GenerationSoftware,KiCad,Pcbnew,8.0.9*%
%TF.CreationDate,2025-04-11T10:46:46+01:00*%
%TF.ProjectId,Gotek,476f7465-6b2e-46b6-9963-61645f706362,rev?*%
%TF.SameCoordinates,Original*%
%TF.FileFunction,Copper,L2,Bot*%
%TF.FilePolarity,Positive*%
%FSLAX46Y46*%
G04 Gerber Fmt 4.6, Leading zero omitted, Abs format (unit mm)*
G04 Created by KiCad (PCBNEW 8.0.9) date 2025-04-11 10:46:46*
%MOMM*%
%LPD*%
G01*
G04 APERTURE LIST*
%TA.AperFunction,ComponentPad*%
%ADD10C,5.000000*%
%TD*%
%TA.AperFunction,ComponentPad*%
%ADD11R,1.700000X1.700000*%
%TD*%
%TA.AperFunction,ComponentPad*%
%ADD12O,1.700000X1.700000*%
%TD*%
%TA.AperFunction,ComponentPad*%
%ADD13R,1.600000X1.600000*%
%TD*%
%TA.AperFunction,ComponentPad*%
%ADD14C,1.600000*%
%TD*%
%TA.AperFunction,ComponentPad*%
%ADD15C,1.575000*%
%TD*%
%TA.AperFunction,ComponentPad*%
%ADD16C,2.025000*%
%TD*%
%TA.AperFunction,ComponentPad*%
%ADD17R,1.800000X1.800000*%
%TD*%
%TA.AperFunction,ComponentPad*%
%ADD18C,1.800000*%
%TD*%
%TA.AperFunction,ComponentPad*%
%ADD19R,1.500000X1.600000*%
%TD*%
%TA.AperFunction,ComponentPad*%
%ADD20C,3.000000*%
%TD*%
%TA.AperFunction,ComponentPad*%
%ADD21C,1.500000*%
%TD*%
%TA.AperFunction,ViaPad*%
%ADD22C,0.600000*%
%TD*%
%TA.AperFunction,Conductor*%
%ADD23C,0.200000*%
%TD*%
%TA.AperFunction,Conductor*%
%ADD24C,0.500000*%
%TD*%
%TA.AperFunction,Conductor*%
%ADD25C,1.000000*%
%TD*%
G04 APERTURE END LIST*
D10*
%TO.P,H1,1,1*%
%TO.N,GND*%
X118491000Y-60642500D03*
%TD*%
%TO.P,H2,1,1*%
%TO.N,GND*%
X139573000Y-60642500D03*
%TD*%
%TO.P,H3,1,1*%
%TO.N,GND*%
X118491000Y-110363000D03*
%TD*%
%TO.P,H4,1,1*%
%TO.N,GND*%
X139573000Y-110363000D03*
%TD*%
%TO.P,H5,1,1*%
%TO.N,GND*%
X189357000Y-60642500D03*
%TD*%
D11*
%TO.P,J10,1,Pin_1*%
%TO.N,GND*%
X104502000Y-68633500D03*
D12*
%TO.P,J10,2,Pin_2*%
%TO.N,5V*%
X104502000Y-66093500D03*
%TO.P,J10,3,Pin_3*%
%TO.N,SWCLK*%
X104502000Y-63553500D03*
%TO.P,J10,4,Pin_4*%
%TO.N,SWDIO*%
X104502000Y-61013500D03*
%TD*%
D11*
%TO.P,J7,1,Pin_1*%
%TO.N,/I2C2_CLK*%
X144360900Y-97291500D03*
D12*
%TO.P,J7,2,Pin_2*%
%TO.N,/I2C2_DTA*%
X146900900Y-97291500D03*
%TO.P,J7,3,Pin_3*%
%TO.N,GND*%
X144360900Y-99831500D03*
%TO.P,J7,4,Pin_4*%
%TO.N,+3.3V*%
X146900900Y-99831500D03*
%TD*%
D13*
%TO.P,C1,1*%
%TO.N,5V*%
X187587100Y-92313100D03*
D14*
%TO.P,C1,2*%
%TO.N,GND*%
X185087100Y-92313100D03*
%TD*%
D11*
%TO.P,JK1,1,Pin_1*%
%TO.N,ENCSW*%
X146888200Y-56991200D03*
D12*
%TO.P,JK1,2,Pin_2*%
%TO.N,U3-40-PC9*%
X149428200Y-56991200D03*
%TD*%
D11*
%TO.P,JA1,1,Pin_1*%
%TO.N,JA*%
X104500000Y-77080000D03*
D12*
%TO.P,JA1,2,Pin_2*%
%TO.N,GND*%
X107040000Y-77080000D03*
%TD*%
D15*
%TO.P,S4,1,1*%
%TO.N,GND*%
X202485600Y-70133600D03*
%TO.P,S4,2,2*%
%TO.N,BUT_L*%
X202485600Y-65633600D03*
D16*
%TO.P,S4,3,3*%
%TO.N,GND*%
X199985600Y-71383600D03*
%TO.P,S4,4,4*%
X199985600Y-64383600D03*
%TD*%
D17*
%TO.P,L5,1,K*%
%TO.N,/I2C2_DTA*%
X196472200Y-69119700D03*
D18*
%TO.P,L5,2,A*%
%TO.N,Net-(L3-A)*%
X196472200Y-66579700D03*
%TD*%
D13*
%TO.P,C17,1*%
%TO.N,+3.3V*%
X138863100Y-67862400D03*
D14*
%TO.P,C17,2*%
%TO.N,GND*%
X136363100Y-67862400D03*
%TD*%
D15*
%TO.P,S3,1,1*%
%TO.N,GND*%
X202345900Y-62915800D03*
%TO.P,S3,2,2*%
%TO.N,BUT_R*%
X202345900Y-58415800D03*
D16*
%TO.P,S3,3,3*%
%TO.N,GND*%
X199845900Y-64165800D03*
%TO.P,S3,4,4*%
X199845900Y-57165800D03*
%TD*%
D11*
%TO.P,J5,1,Pin_1*%
%TO.N,MTRON*%
X104500000Y-74400000D03*
D12*
%TO.P,J5,2,Pin_2*%
%TO.N,GND*%
X107040000Y-74400000D03*
%TD*%
D11*
%TO.P,JKA1,1,Pin_1*%
%TO.N,JKA1-1*%
X144460700Y-94351500D03*
D12*
%TO.P,JKA1,2,Pin_2*%
%TO.N,JKA1-2*%
X147000700Y-94351500D03*
%TD*%
D11*
%TO.P,JE1,1,Pin_1*%
%TO.N,GND*%
X99450000Y-59350000D03*
D12*
%TO.P,JE1,2,Pin_2*%
%TO.N,HDOUT*%
X99450000Y-56810000D03*
%TD*%
D11*
%TO.P,J3,1,Pin_1*%
%TO.N,J3_BOOT0*%
X107362600Y-58394600D03*
D12*
%TO.P,J3,2,Pin_2*%
%TO.N,+3.3V*%
X107362600Y-60934600D03*
%TO.P,J3,3,Pin_3*%
%TO.N,USART1_TX*%
X107362600Y-63474600D03*
%TD*%
D11*
%TO.P,J8,1,Pin_1*%
%TO.N,ENC1*%
X146900000Y-59329400D03*
D12*
%TO.P,J8,2,Pin_2*%
%TO.N,ENC2*%
X149440000Y-59329400D03*
%TO.P,J8,3,Pin_3*%
%TO.N,GND*%
X146900000Y-61869400D03*
%TO.P,J8,4,Pin_4*%
%TO.N,5V*%
X149440000Y-61869400D03*
%TD*%
D19*
%TO.P,P3,1,VBUS*%
%TO.N,5V*%
X196706500Y-88456600D03*
D14*
%TO.P,P3,2,D-*%
%TO.N,Net-(P3-D-)*%
X196706500Y-85956600D03*
%TO.P,P3,3,D+*%
%TO.N,Net-(P3-D+)*%
X196706500Y-83956600D03*
%TO.P,P3,4,GND*%
%TO.N,GND*%
X196706500Y-81456600D03*
D20*
%TO.P,P3,5,Shield*%
X199416500Y-91526600D03*
X199416500Y-78386600D03*
%TD*%
D17*
%TO.P,L3,1,K*%
%TO.N,/I2C2_CLK*%
X196484900Y-64039700D03*
D18*
%TO.P,L3,2,A*%
%TO.N,Net-(L3-A)*%
X196484900Y-66579700D03*
%TD*%
D11*
%TO.P,JC1,1,Pin_1*%
%TO.N,JC*%
X104500000Y-79629000D03*
D12*
%TO.P,JC1,2,Pin_2*%
%TO.N,GND*%
X107040000Y-79629000D03*
%TD*%
D11*
%TO.P,JD1,1,Pin_1*%
%TO.N,GND*%
X99450000Y-64470000D03*
D12*
%TO.P,JD1,2,Pin_2*%
%TO.N,DINST*%
X99450000Y-61930000D03*
%TD*%
D11*
%TO.P,JB1,1,Pin_1*%
%TO.N,JB*%
X104497000Y-82397600D03*
D12*
%TO.P,JB1,2,Pin_2*%
%TO.N,GND*%
X107037000Y-82397600D03*
%TD*%
D21*
%TO.P,Y1,1,1*%
%TO.N,Net-(U3-PH1)*%
X153838300Y-73662100D03*
%TO.P,Y1,2,2*%
%TO.N,Net-(U3-PH0)*%
X153838300Y-68762100D03*
%TD*%
D11*
%TO.P,J4,1,Pin_1*%
%TO.N,USART1_RX*%
X107362600Y-66209600D03*
D12*
%TO.P,J4,2,Pin_2*%
%TO.N,NRST*%
X107362600Y-68749600D03*
%TD*%
D17*
%TO.P,L4,1,K*%
%TO.N,SEL*%
X196399200Y-61409500D03*
D18*
%TO.P,L4,2,A*%
%TO.N,Net-(L4-A)*%
X196399200Y-58869500D03*
%TD*%
D13*
%TO.P,C19,1*%
%TO.N,5V*%
X125871500Y-67687800D03*
D14*
%TO.P,C19,2*%
%TO.N,GND*%
X123371500Y-67687800D03*
%TD*%
D11*
%TO.P,MO1,1,Pin_1*%
%TO.N,DRVSEL*%
X99450000Y-72000000D03*
D12*
%TO.P,MO1,2,Pin_2*%
%TO.N,SEL*%
X99450000Y-69460000D03*
%TO.P,MO1,3,Pin_3*%
%TO.N,MTRON*%
X99450000Y-66920000D03*
%TD*%
D22*
%TO.N,GND*%
X145262600Y-71958200D03*
X110134400Y-84734400D03*
X101981000Y-56642000D03*
X185648600Y-79730600D03*
X115951000Y-89255600D03*
X147491000Y-78184400D03*
X170205400Y-75336400D03*
X128762000Y-75904700D03*
X169113200Y-77165200D03*
X174523400Y-72034400D03*
X124876000Y-89046100D03*
X107467400Y-95326200D03*
X168046400Y-73812400D03*
X161163000Y-82981800D03*
X138125000Y-78654300D03*
X106349800Y-92303600D03*
X175349000Y-87229900D03*
X114300000Y-101396800D03*
X134347000Y-91405100D03*
X166979600Y-76885800D03*
X122580400Y-80645000D03*
X134645000Y-75669800D03*
X112627000Y-73977500D03*
X140941000Y-68821300D03*
X174498000Y-93248900D03*
X174294800Y-79222600D03*
X163372800Y-77958900D03*
X174574200Y-82473800D03*
X116865400Y-67132200D03*
X98874200Y-76297900D03*
X160249000Y-68021200D03*
X167665000Y-87620500D03*
X181813200Y-83388200D03*
X108102400Y-86512400D03*
X116113000Y-71434300D03*
X169291000Y-88541200D03*
X144158000Y-74079100D03*
X110169000Y-66611500D03*
X158292800Y-89458800D03*
%TO.N,NRST*%
X141049000Y-70065900D03*
%TO.N,+3.3V*%
X188204000Y-78495500D03*
X148130000Y-88973000D03*
X191795000Y-74549000D03*
X154226000Y-89081000D03*
X120726000Y-67494100D03*
X180975000Y-88376100D03*
X171256000Y-85601200D03*
%TO.N,J3_BOOT0*%
X114259000Y-69475400D03*
X123514000Y-74291800D03*
X161236000Y-66179700D03*
X112414000Y-66640100D03*
%TO.N,USART1_TX*%
X178102000Y-78130400D03*
X119545000Y-68675200D03*
%TO.N,USART1_RX*%
X118428000Y-69964300D03*
X176447000Y-77355700D03*
%TO.N,/I2C2_CLK*%
X168634000Y-90862100D03*
X148859100Y-99171900D03*
%TO.N,/I2C2_DTA*%
X167221000Y-90576400D03*
%TO.N,SWDIO*%
X179638000Y-76260300D03*
%TO.N,SWCLK*%
X175793000Y-66475000D03*
%TO.N,MTRON*%
X103305000Y-89610000D03*
%TO.N,ENC1*%
X173463000Y-64004800D03*
X184848000Y-77019100D03*
X164941000Y-88284100D03*
%TO.N,DIR*%
X110392000Y-95329400D03*
X151206200Y-91055800D03*
%TO.N,ENCSW*%
X179130000Y-72958300D03*
%TO.N,READY*%
X103242000Y-102314000D03*
X100224000Y-87610000D03*
%TO.N,JA*%
X112697000Y-76815900D03*
X165760400Y-81635600D03*
%TO.N,JB*%
X163677600Y-79654400D03*
X114476000Y-80592600D03*
%TO.N,JC*%
X166751000Y-80645000D03*
X113706000Y-78187600D03*
%TO.N,DINST*%
X99616800Y-90610000D03*
%TO.N,SPI2_MISO*%
X182804000Y-90624000D03*
X177393600Y-90986000D03*
%TO.N,ENC2*%
X174454000Y-65147800D03*
%TO.N,U3-40-PC9*%
X177155000Y-79609900D03*
%TO.N,JKA1-1*%
X150339000Y-84743900D03*
X169802000Y-69329300D03*
%TO.N,JKA1-2*%
X152121000Y-84750300D03*
X168251000Y-70286600D03*
%TO.N,WPROT_3V3*%
X141694000Y-86296500D03*
X167078000Y-68726100D03*
%TO.N,SEL*%
X158112000Y-82616700D03*
X128375000Y-97605900D03*
X105537000Y-94175200D03*
X112265000Y-94913400D03*
%TO.N,STEP*%
X156696000Y-85858400D03*
X114892000Y-95350000D03*
%TO.N,WGATE*%
X130909000Y-95967400D03*
X128574000Y-88974300D03*
X102685000Y-97531000D03*
X165176200Y-75387200D03*
X122873000Y-96389400D03*
%TO.N,INDEX*%
X109919000Y-81243300D03*
X122796000Y-82321400D03*
X116615000Y-82407100D03*
%TO.N,WPROT*%
X121834000Y-88871400D03*
X121109000Y-100047000D03*
X111843000Y-101504000D03*
%TO.N,RDATA*%
X120394000Y-101932000D03*
X110590000Y-103610000D03*
X127052000Y-99510500D03*
X110590000Y-100891000D03*
%TO.N,TRK0*%
X110096000Y-99610000D03*
X120094000Y-88614200D03*
%TO.N,SIDE1*%
X155300000Y-89838200D03*
X166180556Y-74484517D03*
X129052000Y-105622000D03*
X155300000Y-86467000D03*
%TO.N,WDATA*%
X129590800Y-88315800D03*
X116941600Y-94056200D03*
X169265600Y-75666600D03*
X122428000Y-90059000D03*
%TO.N,BUT_L*%
X160645000Y-86912400D03*
%TO.N,BUT_R*%
X163887000Y-86931500D03*
%TO.N,INDEX_3V3*%
X142072000Y-83404100D03*
X162931000Y-68338700D03*
%TO.N,TRK0_3V3*%
X144158000Y-81397400D03*
X167484000Y-66621000D03*
%TO.N,READY_3V3*%
X168481000Y-67840200D03*
X148879000Y-83004000D03*
%TO.N,CHNG*%
X130899000Y-86410800D03*
X122736000Y-76638000D03*
%TO.N,HDOUT*%
X110363000Y-87833200D03*
X97093200Y-88610000D03*
X113106200Y-84429600D03*
%TO.N,CHNG_3V3*%
X149203000Y-80971900D03*
X165095000Y-67008400D03*
%TO.N,DRVSEL*%
X102662000Y-83610000D03*
%TO.N,SPI2_SS*%
X173122000Y-84429700D03*
X170936000Y-87914000D03*
%TD*%
D23*
%TO.N,GND*%
X99666100Y-60501700D02*
X99450000Y-60501700D01*
X134312000Y-91440000D02*
X127000000Y-91440000D01*
X199416500Y-91526600D02*
X199416500Y-91526700D01*
X169291000Y-88541200D02*
X168392000Y-88541200D01*
X110338000Y-62255400D02*
X110392000Y-62309400D01*
X137846000Y-78654300D02*
X134861000Y-75669800D01*
X124606000Y-89046100D02*
X124876000Y-89046100D01*
X199986000Y-75630400D02*
X199986000Y-73444100D01*
X100602000Y-61437300D02*
X99666100Y-60501700D01*
X199986000Y-73444100D02*
X199986000Y-71383600D01*
X104502000Y-67481800D02*
X104502000Y-68633500D01*
X146900000Y-61869400D02*
X140800000Y-61869400D01*
X104502000Y-71861900D02*
X107040000Y-74400000D01*
X104502000Y-68633500D02*
X104502000Y-71861900D01*
X128324000Y-65957400D02*
X130229000Y-67862400D01*
X107040000Y-77080000D02*
X107040000Y-79629000D01*
X99450000Y-59350000D02*
X100593800Y-59350000D01*
X99074900Y-65621700D02*
X99450000Y-65621700D01*
X199845900Y-64165800D02*
X199846000Y-64165800D01*
X113570000Y-73977500D02*
X116113000Y-71434300D01*
X138106000Y-78673300D02*
X138001000Y-78673300D01*
X144361000Y-99831500D02*
X144361000Y-101168200D01*
X140800000Y-61869400D02*
X139573000Y-60642500D01*
X162082900Y-93248900D02*
X158292800Y-89458800D01*
X123372000Y-67687800D02*
X123371500Y-67687800D01*
X119294000Y-66351100D02*
X122035000Y-66351100D01*
X110392000Y-62309400D02*
X110392000Y-64265200D01*
X167942000Y-88090400D02*
X167942000Y-87896700D01*
X124814000Y-66245800D02*
X125102000Y-65957400D01*
X97896600Y-66800000D02*
X99074900Y-65621700D01*
X174498000Y-93248900D02*
X162082900Y-93248900D01*
X143075000Y-99831500D02*
X144360900Y-99831500D01*
X137020000Y-79480300D02*
X137846000Y-78654300D01*
X138106000Y-78673300D02*
X138106000Y-84226200D01*
X161163000Y-81257200D02*
X163372800Y-79047400D01*
X199417000Y-78386600D02*
X199986000Y-77817600D01*
X199986000Y-75630800D02*
X199986000Y-75630400D01*
X123371500Y-67687800D02*
X123371000Y-67687800D01*
X138106000Y-84226200D02*
X137020000Y-85312200D01*
X134347000Y-91405100D02*
X134312000Y-91440000D01*
X163372800Y-79047400D02*
X163372800Y-77958900D01*
X116113000Y-71434300D02*
X116113000Y-69532500D01*
X196707000Y-81456600D02*
X199417000Y-84166600D01*
X124814000Y-66245800D02*
X123372000Y-67687800D01*
X112627000Y-73977500D02*
X113570000Y-73977500D01*
X103614000Y-67481800D02*
X104502000Y-67481800D01*
X139573000Y-60642500D02*
X118491000Y-60642500D01*
X174038000Y-88541200D02*
X169291000Y-88541200D01*
X145262600Y-75498300D02*
X145034000Y-75726900D01*
X138125000Y-78654300D02*
X137846000Y-78654300D01*
X199416500Y-78386600D02*
X199417000Y-78386600D01*
X138125000Y-78654300D02*
X138106000Y-78673300D01*
X136363000Y-67862400D02*
X136363100Y-67862400D01*
X129115000Y-75552300D02*
X134528000Y-75552300D01*
X125102000Y-65957400D02*
X128324000Y-65957400D01*
X127000000Y-91440000D02*
X124876000Y-89315900D01*
X140941000Y-68821300D02*
X140941000Y-67855200D01*
X109296200Y-63119000D02*
X109296200Y-65738700D01*
X145262600Y-71958200D02*
X145262600Y-75498300D01*
X199986000Y-64305500D02*
X199986000Y-64383600D01*
X138967000Y-65881200D02*
X138344300Y-65881200D01*
X144158000Y-74850600D02*
X145034000Y-75726900D01*
X99450000Y-60501700D02*
X99450000Y-59350000D01*
X156312000Y-71958200D02*
X145262600Y-71958200D01*
X97896600Y-75320300D02*
X97896600Y-66800000D01*
X160249000Y-68021200D02*
X156312000Y-71958200D01*
X196706000Y-81456600D02*
X196706500Y-81456600D01*
X199417000Y-84166600D02*
X199417000Y-91526800D01*
X138125000Y-78654300D02*
X141691000Y-75088800D01*
X100602000Y-64470000D02*
X100602000Y-61437300D01*
X144361000Y-101168200D02*
X144361000Y-105575000D01*
X199985600Y-64383600D02*
X199986000Y-64383600D01*
X123371000Y-67687800D02*
X124814000Y-66245800D01*
X110392000Y-66388500D02*
X110392000Y-64265200D01*
X100602000Y-64470000D02*
X103614000Y-67481800D01*
X197530000Y-93413100D02*
X186187000Y-93413100D01*
X199416000Y-78386600D02*
X199416500Y-78386600D01*
X143075000Y-99882200D02*
X144361000Y-101168200D01*
X144104000Y-74079100D02*
X144158000Y-74079100D01*
X199416500Y-91526700D02*
X199416000Y-91526700D01*
X107040000Y-79629000D02*
X107040000Y-82394600D01*
X196706500Y-81456600D02*
X196707000Y-81456600D01*
X144360900Y-99831500D02*
X144361000Y-99831500D01*
X144361000Y-105575000D02*
X139573000Y-110363000D01*
X99450000Y-65621700D02*
X99450000Y-64470000D01*
X199846000Y-64165800D02*
X199986000Y-64305500D01*
X122035000Y-66351100D02*
X123371000Y-67687800D01*
X199985600Y-71383600D02*
X199986000Y-71383600D01*
X134528000Y-75552300D02*
X134645000Y-75669800D01*
X98874200Y-76297900D02*
X97896600Y-75320300D01*
X186187000Y-93413100D02*
X185087000Y-92313200D01*
X199417000Y-91526800D02*
X199416500Y-91526700D01*
X128762000Y-75904700D02*
X129115000Y-75552300D01*
X109296200Y-65738700D02*
X110169000Y-66611500D01*
X141691000Y-75088800D02*
X143094000Y-75088800D01*
X100593800Y-59350000D02*
X100609400Y-59334400D01*
X168392000Y-88541200D02*
X167942000Y-88090400D01*
X110159800Y-62255400D02*
X109296200Y-63119000D01*
X118491000Y-110363000D02*
X139573000Y-110363000D01*
X143094000Y-75088800D02*
X144104000Y-74079100D01*
X134861000Y-75669800D02*
X134645000Y-75669800D01*
X175349000Y-87229900D02*
X174038000Y-88541200D01*
X107040000Y-82394600D02*
X107037000Y-82397600D01*
X99450000Y-64470000D02*
X100602000Y-64470000D01*
X110338000Y-62255400D02*
X110159800Y-62255400D01*
X107040000Y-74400000D02*
X107040000Y-77080000D01*
X199986000Y-75630800D02*
X199986000Y-75630400D01*
X130229000Y-67862400D02*
X136363000Y-67862400D01*
X167942000Y-87896700D02*
X167665000Y-87620500D01*
X124876000Y-89315900D02*
X124876000Y-89046100D01*
X116113000Y-69532500D02*
X119294000Y-66351100D01*
X145034000Y-75726900D02*
X147491000Y-78184400D01*
X110169000Y-66611500D02*
X110392000Y-66388500D01*
X199417000Y-91526800D02*
X197530000Y-93413100D01*
X138344300Y-65881200D02*
X136363100Y-67862400D01*
X137020000Y-85312200D02*
X137020000Y-79480300D01*
X161163000Y-82981800D02*
X161163000Y-81257200D01*
X199986000Y-75630400D02*
X199986000Y-73444100D01*
X144158000Y-74079100D02*
X144158000Y-74850600D01*
X199986000Y-77817600D02*
X199986000Y-75630800D01*
X140941000Y-67855200D02*
X138967000Y-65881200D01*
%TO.N,NRST*%
X112140000Y-68749600D02*
X107363000Y-68749600D01*
X141049000Y-70065900D02*
X141707000Y-69408700D01*
X112335000Y-68554600D02*
X112140000Y-68749600D01*
X138830000Y-64611200D02*
X116268000Y-64611200D01*
X141707000Y-69408700D02*
X141707000Y-67487800D01*
X141707000Y-67487800D02*
X138830000Y-64611200D01*
X116268000Y-64611200D02*
X112335000Y-68545100D01*
X107362600Y-68749600D02*
X107363000Y-68749600D01*
X112335000Y-68545100D02*
X112335000Y-68554600D01*
D24*
%TO.N,+3.3V*%
X136590000Y-70135800D02*
X137536000Y-69189700D01*
D23*
X149632051Y-96186695D02*
X149632051Y-95232599D01*
X138863000Y-68413200D02*
X138863000Y-68413100D01*
X156445000Y-89544100D02*
X156445000Y-89081000D01*
D24*
X120726000Y-67494100D02*
X123368000Y-70135800D01*
D23*
X138863000Y-67862400D02*
X138863000Y-68137700D01*
D24*
X159287000Y-86125100D02*
X170732000Y-86125100D01*
X156331000Y-89081000D02*
X159287000Y-86125100D01*
D23*
X156445000Y-89081000D02*
X156331000Y-89081000D01*
D24*
X154226000Y-89081000D02*
X156331000Y-89081000D01*
D23*
X138863100Y-68137600D02*
X138863100Y-67862400D01*
X138863000Y-68413100D02*
X138863000Y-68137700D01*
X138863000Y-68964100D02*
X137762000Y-68964100D01*
X138863000Y-68137700D02*
X138863000Y-68413100D01*
D24*
X148130000Y-88973000D02*
X154118000Y-88973000D01*
D23*
X138863000Y-68413100D02*
X138863000Y-68413200D01*
X180975000Y-87991900D02*
X180975000Y-88376100D01*
X156331000Y-89081000D02*
X154226000Y-89081000D01*
X147370800Y-99361600D02*
X147370800Y-98441500D01*
X155461129Y-90525600D02*
X156331000Y-89655729D01*
X146900900Y-99831500D02*
X147370800Y-99361600D01*
D24*
X170732000Y-86125100D02*
X171256000Y-85601200D01*
D25*
X180975000Y-87991900D02*
X180975000Y-86680700D01*
X180975000Y-86680700D02*
X188338000Y-79317900D01*
D23*
X138863000Y-68413200D02*
X138863000Y-68964100D01*
X147370800Y-98441500D02*
X147377246Y-98441500D01*
X154339050Y-90525600D02*
X155461129Y-90525600D01*
X138863000Y-68137700D02*
X138863100Y-68137600D01*
D25*
X188338000Y-79317900D02*
X188338000Y-78628900D01*
D24*
X123368000Y-70135800D02*
X136590000Y-70135800D01*
D23*
X137762000Y-68964100D02*
X137536000Y-69189700D01*
D24*
X154118000Y-88973000D02*
X154226000Y-89081000D01*
D23*
X138863000Y-68137700D02*
X138863000Y-67862400D01*
D24*
X137536000Y-69189700D02*
X138863000Y-67862400D01*
D25*
X191795000Y-74904600D02*
X191795000Y-74549000D01*
D23*
X188204000Y-78495500D02*
X188338000Y-78628900D01*
X149632051Y-95232599D02*
X154339050Y-90525600D01*
X147377246Y-98441500D02*
X149632051Y-96186695D01*
D25*
X188204000Y-78495500D02*
X191795000Y-74904600D01*
D23*
%TO.N,J3_BOOT0*%
X141602000Y-74295000D02*
X141453000Y-74295000D01*
X112424000Y-62852300D02*
X107966000Y-58394600D01*
X114097000Y-69475400D02*
X110534000Y-73037700D01*
X145690000Y-70206700D02*
X141602000Y-74295000D01*
X161214000Y-66157500D02*
X153562000Y-66157500D01*
X107966000Y-58394600D02*
X107363000Y-58394600D01*
X110534000Y-73037700D02*
X110534000Y-80187800D01*
X153562000Y-66157500D02*
X149513000Y-70206700D01*
X149513000Y-70206700D02*
X145690000Y-70206700D01*
X114259000Y-69475400D02*
X114097000Y-69475400D01*
X110534000Y-80187800D02*
X112560000Y-82213400D01*
X112424000Y-66630600D02*
X112424000Y-62852300D01*
X141453000Y-74295000D02*
X141449000Y-74291800D01*
X115037000Y-82213400D02*
X115141000Y-82318200D01*
X123168000Y-74291800D02*
X123514000Y-74291800D01*
X107363000Y-58394600D02*
X107362600Y-58394600D01*
X112560000Y-82213400D02*
X115037000Y-82213400D01*
X161236000Y-66179700D02*
X161214000Y-66157500D01*
X112414000Y-66640100D02*
X112424000Y-66630600D01*
X141449000Y-74291800D02*
X123514000Y-74291800D01*
X115141000Y-82318200D02*
X123168000Y-74291800D01*
%TO.N,USART1_TX*%
X177879000Y-77908100D02*
X177324000Y-77908100D01*
X177276000Y-74942700D02*
X176441000Y-74107700D01*
X149653600Y-66398800D02*
X145612000Y-66398800D01*
X177302000Y-74942700D02*
X177276000Y-74942700D01*
X176441000Y-70285000D02*
X168754000Y-62598300D01*
X140932000Y-71078700D02*
X121949000Y-71078700D01*
X145612000Y-66398800D02*
X140932000Y-71078700D01*
X178102000Y-78130400D02*
X177879000Y-77908100D01*
X176441000Y-74107700D02*
X176441000Y-70285000D01*
X177324000Y-77908100D02*
X177302000Y-77885900D01*
X177302000Y-77885900D02*
X177302000Y-74942700D01*
X168754000Y-62598300D02*
X153454100Y-62598300D01*
X121949000Y-71078700D02*
X119545000Y-68675200D01*
X153454100Y-62598300D02*
X149653600Y-66398800D01*
%TO.N,USART1_RX*%
X175819000Y-70228400D02*
X168598000Y-63007900D01*
X176447000Y-77355700D02*
X175819000Y-76727100D01*
X145850000Y-66849600D02*
X141170000Y-71529600D01*
X119993000Y-71529600D02*
X118428000Y-69964300D01*
X168598000Y-63007900D02*
X153781100Y-63007900D01*
X141170000Y-71529600D02*
X119993000Y-71529600D01*
X149939400Y-66849600D02*
X145850000Y-66849600D01*
X153781100Y-63007900D02*
X149939400Y-66849600D01*
X175819000Y-76727100D02*
X175819000Y-70228400D01*
%TO.N,/I2C2_CLK*%
X195180000Y-64039800D02*
X195199000Y-64039800D01*
X148859100Y-99600900D02*
X147425000Y-101035000D01*
X196484900Y-64039700D02*
X195199000Y-64039700D01*
X148859100Y-99171900D02*
X148859100Y-99600900D01*
X195199000Y-64039700D02*
X195199000Y-64039800D01*
X146446000Y-101035000D02*
X145513000Y-100102000D01*
X196485000Y-64039700D02*
X196484900Y-64039700D01*
X144649000Y-98443200D02*
X144361000Y-98443200D01*
X174282100Y-90766900D02*
X177387000Y-87662000D01*
X195199000Y-64039800D02*
X196485000Y-64039800D01*
X147425000Y-101035000D02*
X146446000Y-101035000D01*
X185448000Y-73809100D02*
X185430000Y-73790200D01*
X185430000Y-73790200D02*
X195180000Y-64039800D01*
X168729000Y-90766900D02*
X174282100Y-90766900D01*
X145513000Y-99306900D02*
X144649000Y-98443200D01*
X177387000Y-85328900D02*
X185448000Y-77267700D01*
X185448000Y-77267700D02*
X185448000Y-73809100D01*
X177387000Y-87662000D02*
X177387000Y-85328900D01*
X145513000Y-100102000D02*
X145513000Y-99306900D01*
X144361000Y-98443200D02*
X144361000Y-97291500D01*
X168634000Y-90862100D02*
X168729000Y-90766900D01*
X144361000Y-97291500D02*
X144360900Y-97291500D01*
%TO.N,/I2C2_DTA*%
X177933000Y-85699600D02*
X186433000Y-77200100D01*
X168205000Y-91713100D02*
X174072500Y-91713100D01*
X167221000Y-90576400D02*
X167221000Y-90728800D01*
X191986000Y-69148300D02*
X191986000Y-69103900D01*
X191986000Y-69103900D02*
X192002000Y-69119800D01*
X196472000Y-69119700D02*
X196472200Y-69119700D01*
X174072500Y-91713100D02*
X177933000Y-87852600D01*
X196472000Y-69119800D02*
X196472000Y-69119700D01*
X167221000Y-90728800D02*
X168205000Y-91713100D01*
X186433000Y-74701400D02*
X191986000Y-69148300D01*
X177933000Y-87852600D02*
X177933000Y-85699600D01*
X192002000Y-69119800D02*
X196472000Y-69119800D01*
X186433000Y-77200100D02*
X186433000Y-74701400D01*
%TO.N,SWDIO*%
X177209000Y-73218700D02*
X179638000Y-75647600D01*
X177209000Y-69999200D02*
X177209000Y-73218700D01*
X169285000Y-62074400D02*
X177209000Y-69999200D01*
X143615000Y-65176400D02*
X143789000Y-65176400D01*
X143789000Y-65176400D02*
X143812000Y-65198600D01*
X114967000Y-63973100D02*
X142411000Y-63973100D01*
X104886000Y-57216700D02*
X108991000Y-57216700D01*
X179638000Y-75647600D02*
X179638000Y-76260300D01*
X142411000Y-63973100D02*
X143615000Y-65176400D01*
X143812000Y-65198600D02*
X150136000Y-65198600D01*
X153260000Y-62074400D02*
X169285000Y-62074400D01*
X108991000Y-57216700D02*
X111449000Y-59674100D01*
X111449000Y-59674100D02*
X111449000Y-60455200D01*
X111449000Y-60455200D02*
X114967000Y-63973100D01*
X104080000Y-58023100D02*
X104886000Y-57216700D01*
X104080000Y-60591200D02*
X104080000Y-58023100D01*
X150136000Y-65198600D02*
X153260000Y-62074400D01*
X104502000Y-61013500D02*
X104080000Y-60591200D01*
%TO.N,SWCLK*%
X168694000Y-61039400D02*
X168558000Y-61175900D01*
X102718000Y-58318400D02*
X102648000Y-58388200D01*
X143796000Y-64525500D02*
X142742000Y-63471400D01*
X115103000Y-63166600D02*
X115033000Y-63166600D01*
X168815000Y-61039400D02*
X168694000Y-61039400D01*
X102648000Y-58388200D02*
X102648000Y-61699300D01*
X104394000Y-56537200D02*
X102718000Y-58213600D01*
X115408000Y-63471400D02*
X115103000Y-63166600D01*
X173629000Y-65852700D02*
X168815000Y-61039400D01*
X150031000Y-64525500D02*
X143796000Y-64525500D01*
X102648000Y-61699300D02*
X104502000Y-63553500D01*
X168558000Y-61175900D02*
X153381000Y-61175900D01*
X115033000Y-63166600D02*
X112278000Y-60410700D01*
X112278000Y-60410700D02*
X112278000Y-59293100D01*
X102718000Y-58213600D02*
X102718000Y-58318400D01*
X175171000Y-65852700D02*
X173629000Y-65852700D01*
X112278000Y-59293100D02*
X109487000Y-56502300D01*
X175793000Y-66475000D02*
X175171000Y-65852700D01*
X109487000Y-56502300D02*
X109452000Y-56537200D01*
X142742000Y-63471400D02*
X115408000Y-63471400D01*
X153381000Y-61175900D02*
X150031000Y-64525500D01*
X109452000Y-56537200D02*
X104394000Y-56537200D01*
%TO.N,MTRON*%
X99718500Y-68071700D02*
X104500000Y-72853200D01*
X99450000Y-68071700D02*
X99718500Y-68071700D01*
X104500000Y-74400000D02*
X104500000Y-75551700D01*
X103852000Y-75551700D02*
X103305000Y-76099300D01*
X99450000Y-66920000D02*
X99450000Y-68071700D01*
X104500000Y-75551700D02*
X103852000Y-75551700D01*
X103305000Y-76099300D02*
X103305000Y-89610000D01*
X104500000Y-72853200D02*
X104500000Y-74400000D01*
%TO.N,ENC1*%
X176476000Y-87903100D02*
X174904400Y-89474700D01*
X173463000Y-64004800D02*
X173057000Y-64004800D01*
X174904400Y-89474700D02*
X165729000Y-89474700D01*
X153500000Y-60479400D02*
X148050000Y-60479400D01*
X165729000Y-89474700D02*
X164941000Y-88687300D01*
X169516000Y-60464800D02*
X153514000Y-60464800D01*
X148050000Y-60479400D02*
X146900000Y-59329400D01*
X184499000Y-77054100D02*
X176476000Y-85077300D01*
X173057000Y-64004800D02*
X169516000Y-60464800D01*
X176476000Y-85077300D02*
X176476000Y-87903100D01*
X153514000Y-60464800D02*
X153500000Y-60479400D01*
X184814000Y-77054100D02*
X184499000Y-77054100D01*
X184848000Y-77019100D02*
X184814000Y-77054100D01*
X164941000Y-88687300D02*
X164941000Y-88284100D01*
%TO.N,DIR*%
X113313000Y-98907600D02*
X110392000Y-95986600D01*
X134947000Y-98907600D02*
X113313000Y-98907600D01*
X142799000Y-91055800D02*
X134947000Y-98907600D01*
X110392000Y-95986600D02*
X110392000Y-95329400D01*
X151206200Y-91055800D02*
X142799000Y-91055800D01*
%TO.N,ENCSW*%
X147463000Y-57566300D02*
X146888000Y-56991400D01*
X150514000Y-58073900D02*
X150447000Y-58141200D01*
X177660000Y-71488300D02*
X177660000Y-65497100D01*
X147463000Y-57566300D02*
X146888000Y-56991500D01*
X146888000Y-56991500D02*
X146888000Y-56991400D01*
X146888000Y-56991400D02*
X146888000Y-56991300D01*
X179130000Y-72958300D02*
X177660000Y-71488300D01*
X171561000Y-59397900D02*
X151806000Y-59397900D01*
X146888000Y-56991300D02*
X146888100Y-56991300D01*
X148038000Y-58141200D02*
X147463000Y-57566300D01*
X177660000Y-65497100D02*
X171561000Y-59397900D01*
X146888000Y-56991300D02*
X146888000Y-56991200D01*
X150447000Y-58141200D02*
X148038000Y-58141200D01*
X151806000Y-59397900D02*
X151806000Y-59366200D01*
X146888100Y-56991300D02*
X146888200Y-56991200D01*
X151806000Y-59366200D02*
X150514000Y-58073900D01*
%TO.N,READY*%
X100224000Y-99296300D02*
X100224000Y-87610000D01*
X103242000Y-102314000D02*
X100224000Y-99296300D01*
%TO.N,JA*%
X166424000Y-82299200D02*
X167373000Y-82299200D01*
X146349000Y-67297300D02*
X141571000Y-72075700D01*
X150182000Y-67297300D02*
X146349000Y-67297300D01*
X154066000Y-63413200D02*
X150182000Y-67297300D01*
X165760400Y-81635600D02*
X166424000Y-82299200D01*
X172152000Y-77520800D02*
X172152000Y-67126900D01*
X117059000Y-72075700D02*
X112697000Y-76438100D01*
X167373000Y-82299200D02*
X172152000Y-77520800D01*
X172152000Y-67126900D02*
X168438000Y-63413200D01*
X141571000Y-72075700D02*
X117059000Y-72075700D01*
X168438000Y-63413200D02*
X154066000Y-63413200D01*
X112697000Y-76438100D02*
X112697000Y-76815900D01*
%TO.N,JB*%
X150601000Y-68319600D02*
X146609000Y-68319600D01*
X114513000Y-79769500D02*
X114476000Y-79806000D01*
X163677600Y-79654400D02*
X163896700Y-79873500D01*
X163896700Y-79873500D02*
X168396000Y-79873500D01*
X171298000Y-76971500D02*
X171298000Y-67686300D01*
X114513000Y-76301600D02*
X114513000Y-79769500D01*
X168050000Y-64438200D02*
X154483000Y-64438200D01*
X171298000Y-67686300D02*
X168050000Y-64438200D01*
X117415000Y-73399600D02*
X114513000Y-76301600D01*
X141529000Y-73399600D02*
X117415000Y-73399600D01*
X146609000Y-68319600D02*
X141529000Y-73399600D01*
X114476000Y-79806000D02*
X114476000Y-80592600D01*
X154483000Y-64438200D02*
X150601000Y-68319600D01*
X168396000Y-79873500D02*
X171298000Y-76971500D01*
%TO.N,JC*%
X113706000Y-76092100D02*
X113706000Y-78187600D01*
X150293000Y-67751300D02*
X146612000Y-67751300D01*
X168397000Y-64038200D02*
X154007000Y-64038200D01*
X168332500Y-80645000D02*
X171698000Y-77279500D01*
X166751000Y-80645000D02*
X168332500Y-80645000D01*
X168447000Y-63988200D02*
X168397000Y-64038200D01*
X141659000Y-72704300D02*
X117094000Y-72704300D01*
X146612000Y-67751300D02*
X141659000Y-72704300D01*
X171698000Y-77279500D02*
X171698000Y-67238600D01*
X117094000Y-72704300D02*
X113706000Y-76092100D01*
X171698000Y-67238600D02*
X168447000Y-63988200D01*
X154007000Y-64038200D02*
X150293000Y-67751300D01*
%TO.N,DINST*%
X97494900Y-76290400D02*
X99616800Y-78412300D01*
X99616800Y-78412300D02*
X99616800Y-90610000D01*
X99450000Y-61930000D02*
X99450000Y-63081700D01*
X99450000Y-63081700D02*
X98658200Y-63081700D01*
X97494900Y-64245000D02*
X97494900Y-76290400D01*
X98658200Y-63081700D02*
X97494900Y-64245000D01*
%TO.N,SPI2_MISO*%
X177393600Y-90986000D02*
X182442000Y-90986000D01*
X182442000Y-90986000D02*
X182804000Y-90624000D01*
%TO.N,ENC2*%
X150273000Y-59991600D02*
X150203000Y-59921800D01*
X174454000Y-63690500D02*
X170894000Y-60131300D01*
X150098000Y-59921800D02*
X149506000Y-59329400D01*
X149506000Y-59329400D02*
X149440000Y-59329400D01*
X174454000Y-65147800D02*
X174454000Y-63690500D01*
X150203000Y-59921800D02*
X150098000Y-59921800D01*
X170894000Y-60131300D02*
X170894000Y-59991600D01*
X170894000Y-59991600D02*
X150273000Y-59991600D01*
%TO.N,U3-40-PC9*%
X151771000Y-58629600D02*
X150133000Y-56991200D01*
X171701000Y-58629600D02*
X151771000Y-58629600D01*
X179889000Y-72167800D02*
X178286000Y-70564400D01*
X177471000Y-79609900D02*
X180102000Y-76978700D01*
X180238000Y-72501100D02*
X179905000Y-72167800D01*
X150133000Y-56991200D02*
X149428200Y-56991200D01*
X179905000Y-72167800D02*
X179889000Y-72167800D01*
X180238000Y-76812900D02*
X180238000Y-72501100D01*
X177155000Y-79609900D02*
X177471000Y-79609900D01*
X180102000Y-76949300D02*
X180238000Y-76812900D01*
X180102000Y-76978700D02*
X180102000Y-76949300D01*
X178286000Y-65214000D02*
X171701000Y-58629600D01*
X178286000Y-70564400D02*
X178286000Y-65214000D01*
X149428200Y-56991200D02*
X149428000Y-56991200D01*
%TO.N,JKA1-1*%
X150339000Y-84588400D02*
X150339000Y-84743900D01*
X161754000Y-73174200D02*
X150339000Y-84588400D01*
X169802000Y-69329300D02*
X167323300Y-69329300D01*
X163449000Y-73218700D02*
X163405000Y-73174200D01*
X163449000Y-73203600D02*
X163449000Y-73218700D01*
X169800500Y-69330800D02*
X169802000Y-69329300D01*
X167323300Y-69329300D02*
X163449000Y-73203600D01*
X163405000Y-73174200D02*
X161754000Y-73174200D01*
%TO.N,JKA1-2*%
X167022000Y-70286600D02*
X168251000Y-70286600D01*
X154972000Y-81902200D02*
X154972000Y-81857300D01*
X152124000Y-84750300D02*
X154972000Y-81902200D01*
X163230000Y-74079100D02*
X167022000Y-70286600D01*
X152121000Y-84750300D02*
X152124000Y-84750300D01*
X154972000Y-81857300D02*
X162750000Y-74079100D01*
X162750000Y-74079100D02*
X163230000Y-74079100D01*
%TO.N,WPROT_3V3*%
X141694000Y-86296500D02*
X142919000Y-85070900D01*
X165522000Y-68691100D02*
X164684000Y-68691100D01*
X142919000Y-85070900D02*
X148304000Y-85070900D01*
X148908000Y-84467700D02*
X149184000Y-84191500D01*
X164684000Y-68691100D02*
X149184000Y-84190800D01*
X167078000Y-68726100D02*
X165557000Y-68726100D01*
X149184000Y-84190800D02*
X149184000Y-84191500D01*
X165557000Y-68726100D02*
X165522000Y-68691100D01*
X148304000Y-85070900D02*
X148908000Y-84467700D01*
%TO.N,SEL*%
X98658200Y-70611700D02*
X98298300Y-70971600D01*
X175260000Y-83820000D02*
X159315000Y-83820000D01*
X182880000Y-73660000D02*
X182880000Y-76200000D01*
X128470000Y-97701100D02*
X134763000Y-97701100D01*
X157445000Y-87128400D02*
X157445000Y-83283400D01*
X144161000Y-88303100D02*
X144272000Y-88303100D01*
X144272000Y-88303100D02*
X144551000Y-88023700D01*
X134763000Y-97701100D02*
X144161000Y-88303100D01*
X128283000Y-97697900D02*
X114078000Y-97697900D01*
X98298300Y-72975000D02*
X101875000Y-76551500D01*
X159315000Y-83820000D02*
X158112000Y-82616700D01*
X99450000Y-70611700D02*
X98658200Y-70611700D01*
X112265000Y-95885000D02*
X112265000Y-94913400D01*
X128375000Y-97605900D02*
X128470000Y-97701100D01*
X99450000Y-69460000D02*
X99450000Y-70611700D01*
X195130000Y-61409500D02*
X182880000Y-73660000D01*
X156550000Y-88023700D02*
X157445000Y-87128400D01*
X114078000Y-97697900D02*
X112265000Y-95885000D01*
X98298300Y-70971600D02*
X98298300Y-72975000D01*
X196399000Y-61409500D02*
X196399200Y-61409500D01*
X128375000Y-97605900D02*
X128283000Y-97697900D01*
X196399000Y-61409500D02*
X195130000Y-61409500D01*
X101875000Y-90538800D02*
X105511000Y-94175200D01*
X144551000Y-88023700D02*
X156550000Y-88023700D01*
X182880000Y-76200000D02*
X175260000Y-83820000D01*
X157445000Y-83283400D02*
X158112000Y-82616700D01*
X101875000Y-76551500D02*
X101875000Y-90538800D01*
%TO.N,STEP*%
X144104000Y-87576000D02*
X155051000Y-87576000D01*
X114892000Y-95350000D02*
X136330000Y-95350000D01*
X136330000Y-95350000D02*
X144104000Y-87576000D01*
X156696000Y-85931400D02*
X156696000Y-85858400D01*
X155051000Y-87576000D02*
X156696000Y-85931400D01*
%TO.N,WGATE*%
X112538000Y-88401400D02*
X112538000Y-86874400D01*
X163338000Y-76546100D02*
X161880000Y-76546100D01*
X130909000Y-95967400D02*
X130909000Y-95967500D01*
X125145000Y-85545300D02*
X128574000Y-88974300D01*
X102685000Y-97531000D02*
X103408400Y-97531000D01*
X164490400Y-75387200D02*
X164173000Y-75704600D01*
X112538000Y-86874400D02*
X113867000Y-85545300D01*
X164109000Y-75774600D02*
X163338000Y-76546100D01*
X155922000Y-82503700D02*
X155922000Y-83967400D01*
X113867000Y-85545300D02*
X125145000Y-85545300D01*
X143415000Y-86658500D02*
X141099200Y-88974300D01*
X141099200Y-88974300D02*
X128574000Y-88974300D01*
X155922000Y-83967400D02*
X153231000Y-86658500D01*
X130909000Y-95967500D02*
X123295000Y-95967500D01*
X153231000Y-86658500D02*
X143415000Y-86658500D01*
X123295000Y-95967500D02*
X122873000Y-96389400D01*
X103408400Y-97531000D02*
X112538000Y-88401400D01*
X161880000Y-76546100D02*
X155922000Y-82503700D01*
X165176200Y-75387200D02*
X164490400Y-75387200D01*
%TO.N,INDEX*%
X116615000Y-82407100D02*
X122711000Y-82407100D01*
X111444000Y-82767800D02*
X109919000Y-81243300D01*
X116615000Y-82407100D02*
X116254000Y-82767800D01*
X122711000Y-82407100D02*
X122796000Y-82321400D01*
X116254000Y-82767800D02*
X111444000Y-82767800D01*
%TO.N,WPROT*%
X111001000Y-92521200D02*
X118384770Y-92521200D01*
X118384770Y-92521200D02*
X118737185Y-92168785D01*
X111843000Y-100047000D02*
X121109000Y-100047000D01*
X111843000Y-100047000D02*
X111843000Y-101504000D01*
X111843000Y-100047000D02*
X110951000Y-99154500D01*
X110951000Y-98586600D02*
X109374000Y-97009600D01*
X109374000Y-97009600D02*
X109374000Y-94148100D01*
X121834000Y-88871400D02*
X121834000Y-89071400D01*
X110951000Y-99154500D02*
X110951000Y-98586600D01*
X121834000Y-89071400D02*
X118577000Y-92329000D01*
X109374000Y-94148100D02*
X111001000Y-92521200D01*
%TO.N,RDATA*%
X127052000Y-99510500D02*
X124631000Y-101932000D01*
X124631000Y-101932000D02*
X120394000Y-101932000D01*
X110590000Y-100891000D02*
X110590000Y-103610000D01*
%TO.N,TRK0*%
X120094000Y-88614200D02*
X120094000Y-88550800D01*
X108918000Y-98431400D02*
X108918000Y-93998500D01*
X110096000Y-99610000D02*
X108918000Y-98431400D01*
X108918000Y-93998500D02*
X110825000Y-92090900D01*
X116618000Y-92090900D02*
X120094000Y-88614200D01*
X110825000Y-92090900D02*
X116618000Y-92090900D01*
%TO.N,SIDE1*%
X147232700Y-96073900D02*
X153468400Y-89838200D01*
X153468400Y-89838200D02*
X155300000Y-89838200D01*
X156362000Y-84232800D02*
X156359000Y-84232800D01*
X164182000Y-77358900D02*
X161633000Y-77358900D01*
X156359000Y-84232800D02*
X155300000Y-85292000D01*
X155300000Y-85292000D02*
X155300000Y-86467000D01*
X166180556Y-75360344D02*
X164182000Y-77358900D01*
X161633000Y-77358900D02*
X156362000Y-82629400D01*
X156362000Y-82629400D02*
X156362000Y-84232800D01*
X129052000Y-105622000D02*
X138600000Y-96073900D01*
X138600000Y-96073900D02*
X147232700Y-96073900D01*
X166180556Y-74484517D02*
X166180556Y-75360344D01*
%TO.N,WDATA*%
X163985600Y-74571200D02*
X163097000Y-74571200D01*
X168469000Y-75923800D02*
X166106000Y-73561600D01*
X155372000Y-82296000D02*
X155372000Y-83781900D01*
X116687600Y-94056200D02*
X116941600Y-94056200D01*
X165001600Y-73561600D02*
X164998400Y-73558400D01*
X143211000Y-86258500D02*
X141153700Y-88315800D01*
X163097000Y-74571200D02*
X155372000Y-82296000D01*
X122428000Y-90059000D02*
X118430800Y-94056200D01*
X152895400Y-86258500D02*
X143211000Y-86258500D01*
X166106000Y-73561600D02*
X165001600Y-73561600D01*
X129581600Y-88315800D02*
X129590800Y-88315800D01*
X164998400Y-73558400D02*
X163985600Y-74571200D01*
X141153700Y-88315800D02*
X129590800Y-88315800D01*
X118430800Y-94056200D02*
X116941600Y-94056200D01*
X169008400Y-75923800D02*
X168469000Y-75923800D01*
X155372000Y-83781900D02*
X152895400Y-86258500D01*
X169265600Y-75666600D02*
X169008400Y-75923800D01*
%TO.N,BUT_L*%
X201574400Y-67538600D02*
X202486000Y-66627000D01*
X198475600Y-72856500D02*
X198475600Y-70612000D01*
X202485600Y-66436400D02*
X202485600Y-65633600D01*
X177196700Y-90189100D02*
X181143000Y-90189100D01*
X202486000Y-66627000D02*
X202486000Y-66436800D01*
X202486000Y-66436800D02*
X202486000Y-65633600D01*
X174872700Y-92513100D02*
X177196700Y-90189100D01*
X160645000Y-86912400D02*
X166246000Y-92513100D01*
X198475600Y-70612000D02*
X201549000Y-67538600D01*
X181143000Y-90189100D02*
X198475600Y-72856500D01*
X201549000Y-67538600D02*
X201574400Y-67538600D01*
X166246000Y-92513100D02*
X174872700Y-92513100D01*
X202486000Y-66436800D02*
X202485600Y-66436400D01*
%TO.N,BUT_R*%
X201298000Y-63839900D02*
X201258000Y-63800200D01*
X197672000Y-69129400D02*
X201298000Y-65503500D01*
X201258000Y-63800200D02*
X201258000Y-59566400D01*
X180727000Y-89738200D02*
X197672000Y-72793400D01*
X202346000Y-58415800D02*
X202346000Y-58478500D01*
X176834800Y-89738200D02*
X180727000Y-89738200D01*
X201258000Y-59503300D02*
X202346000Y-58415800D01*
X167801000Y-92113100D02*
X174459900Y-92113100D01*
X201298000Y-65503500D02*
X201298000Y-63839900D01*
X202345900Y-58415800D02*
X202346000Y-58415800D01*
X163887000Y-86931500D02*
X163887000Y-88198900D01*
X202346000Y-58478500D02*
X201258000Y-59566400D01*
X202346000Y-58415800D02*
X202346000Y-58478500D01*
X174459900Y-92113100D02*
X176834800Y-89738200D01*
X163887000Y-88198900D02*
X167801000Y-92113100D01*
X202346000Y-58478500D02*
X201258000Y-59566400D01*
X201258000Y-59566400D02*
X201258000Y-59503300D01*
X197672000Y-72793400D02*
X197672000Y-69129400D01*
%TO.N,INDEX_3V3*%
X151086000Y-80333900D02*
X162931000Y-68487900D01*
X162931000Y-68487900D02*
X162931000Y-68338700D01*
X148387000Y-80333900D02*
X151086000Y-80333900D01*
X145386000Y-83404100D02*
X145386000Y-83334200D01*
X142072000Y-83404100D02*
X145386000Y-83404100D01*
X145386000Y-83334200D02*
X148387000Y-80333900D01*
%TO.N,TRK0_3V3*%
X146415000Y-81397400D02*
X148142000Y-79670300D01*
X144158000Y-81397400D02*
X146415000Y-81397400D01*
X163379000Y-65852700D02*
X166697000Y-65852700D01*
X161785000Y-68922900D02*
X161785000Y-67446500D01*
X161785000Y-67446500D02*
X163379000Y-65852700D01*
X151038000Y-79670300D02*
X161785000Y-68922900D01*
X166697000Y-65852700D02*
X167465000Y-66621000D01*
X167465000Y-66621000D02*
X167484000Y-66621000D01*
X148142000Y-79670300D02*
X151038000Y-79670300D01*
%TO.N,READY_3V3*%
X168481000Y-67840200D02*
X168446000Y-67875100D01*
X164932000Y-67875100D02*
X149803000Y-83004000D01*
X149803000Y-83004000D02*
X148879000Y-83004000D01*
X168446000Y-67875100D02*
X164932000Y-67875100D01*
%TO.N,CHNG*%
X122736000Y-78247900D02*
X130899000Y-86410800D01*
X122736000Y-76638000D02*
X122736000Y-78247900D01*
%TO.N,HDOUT*%
X113106200Y-85090000D02*
X110363000Y-87833200D01*
X98658200Y-57961700D02*
X97093200Y-59526700D01*
X99450000Y-57961700D02*
X98658200Y-57961700D01*
X99450000Y-56810000D02*
X99450000Y-57961700D01*
X113106200Y-84429600D02*
X113106200Y-85090000D01*
X97093200Y-59526700D02*
X97093200Y-88610000D01*
%TO.N,CHNG_3V3*%
X151270000Y-80971900D02*
X165095000Y-67147100D01*
X149203000Y-80971900D02*
X151270000Y-80971900D01*
X165095000Y-67147100D02*
X165095000Y-67008400D01*
%TO.N,DRVSEL*%
X102662000Y-76363600D02*
X102662000Y-83610000D01*
X99450000Y-72000000D02*
X99450000Y-73151700D01*
X99450000Y-73151700D02*
X102662000Y-76363600D01*
%TO.N,SPI2_SS*%
X170936000Y-87914000D02*
X173122000Y-85728700D01*
X173122000Y-85728700D02*
X173122000Y-84429700D01*
%TD*%
%TA.AperFunction,Conductor*%
%TO.N,GND*%
G36*
X98281024Y-55900185D02*
G01*
X98326779Y-55952989D01*
X98336723Y-56022147D01*
X98315560Y-56075623D01*
X98275965Y-56132169D01*
X98275964Y-56132171D01*
X98176098Y-56346335D01*
X98176094Y-56346344D01*
X98114938Y-56574586D01*
X98114936Y-56574596D01*
X98094341Y-56809999D01*
X98094341Y-56810000D01*
X98114936Y-57045403D01*
X98114938Y-57045413D01*
X98176094Y-57273655D01*
X98176099Y-57273669D01*
X98241454Y-57413823D01*
X98251946Y-57482900D01*
X98223426Y-57546684D01*
X98216755Y-57553906D01*
X98177681Y-57592982D01*
X98177678Y-57592986D01*
X96612681Y-59157982D01*
X96612680Y-59157984D01*
X96570606Y-59230859D01*
X96533623Y-59294915D01*
X96492699Y-59447643D01*
X96492699Y-59447645D01*
X96492699Y-59615746D01*
X96492700Y-59615759D01*
X96492700Y-88027587D01*
X96473015Y-88094626D01*
X96465650Y-88104896D01*
X96463386Y-88107734D01*
X96367411Y-88260476D01*
X96307831Y-88430745D01*
X96307830Y-88430750D01*
X96287635Y-88609996D01*
X96287635Y-88610003D01*
X96307830Y-88789249D01*
X96307831Y-88789254D01*
X96367411Y-88959523D01*
X96433820Y-89065211D01*
X96463384Y-89112262D01*
X96590938Y-89239816D01*
X96631260Y-89265152D01*
X96739573Y-89333210D01*
X96743678Y-89335789D01*
X96848801Y-89372573D01*
X96913945Y-89395368D01*
X96913950Y-89395369D01*
X97093196Y-89415565D01*
X97093200Y-89415565D01*
X97093204Y-89415565D01*
X97272449Y-89395369D01*
X97272452Y-89395368D01*
X97272455Y-89395368D01*
X97442722Y-89335789D01*
X97595462Y-89239816D01*
X97723016Y-89112262D01*
X97818989Y-88959522D01*
X97878568Y-88789255D01*
X97879221Y-88783463D01*
X97898765Y-88610003D01*
X97898765Y-88609996D01*
X97878569Y-88430750D01*
X97878568Y-88430745D01*
X97844408Y-88333121D01*
X97818989Y-88260478D01*
X97794382Y-88221317D01*
X97770132Y-88182723D01*
X97723016Y-88107738D01*
X97723014Y-88107736D01*
X97723013Y-88107734D01*
X97720750Y-88104896D01*
X97719859Y-88102715D01*
X97719311Y-88101842D01*
X97719464Y-88101745D01*
X97694344Y-88040209D01*
X97693700Y-88027587D01*
X97693700Y-77637797D01*
X97713385Y-77570758D01*
X97766189Y-77525003D01*
X97835347Y-77515059D01*
X97898903Y-77544084D01*
X97905381Y-77550116D01*
X98979981Y-78624716D01*
X99013466Y-78686039D01*
X99016300Y-78712397D01*
X99016300Y-90027587D01*
X98996615Y-90094626D01*
X98989250Y-90104896D01*
X98986986Y-90107734D01*
X98891011Y-90260476D01*
X98831431Y-90430745D01*
X98831430Y-90430750D01*
X98811235Y-90609996D01*
X98811235Y-90610003D01*
X98831430Y-90789249D01*
X98831431Y-90789254D01*
X98891011Y-90959523D01*
X98971007Y-91086835D01*
X98986984Y-91112262D01*
X99114538Y-91239816D01*
X99267278Y-91335789D01*
X99307288Y-91349789D01*
X99437545Y-91395368D01*
X99437549Y-91395369D01*
X99513383Y-91403913D01*
X99577797Y-91430979D01*
X99617352Y-91488574D01*
X99623500Y-91527133D01*
X99623500Y-99209155D01*
X99623496Y-99209217D01*
X99623500Y-99305478D01*
X99623500Y-99375375D01*
X99644351Y-99453175D01*
X99644351Y-99453182D01*
X99644353Y-99453182D01*
X99660715Y-99514247D01*
X99664428Y-99528102D01*
X99695261Y-99581500D01*
X99699813Y-99589383D01*
X99734664Y-99649747D01*
X99743481Y-99665017D01*
X99743488Y-99665026D01*
X99743499Y-99665040D01*
X99789647Y-99711183D01*
X99861095Y-99782631D01*
X99861148Y-99782678D01*
X102411299Y-102332574D01*
X102444787Y-102393896D01*
X102446842Y-102406376D01*
X102456630Y-102493249D01*
X102516210Y-102663521D01*
X102550045Y-102717369D01*
X102612184Y-102816262D01*
X102739738Y-102943816D01*
X102830080Y-103000582D01*
X102873058Y-103027587D01*
X102892478Y-103039789D01*
X103002885Y-103078422D01*
X103062745Y-103099368D01*
X103062750Y-103099369D01*
X103241996Y-103119565D01*
X103242000Y-103119565D01*
X103242004Y-103119565D01*
X103421249Y-103099369D01*
X103421252Y-103099368D01*
X103421255Y-103099368D01*
X103591522Y-103039789D01*
X103744262Y-102943816D01*
X103871816Y-102816262D01*
X103967789Y-102663522D01*
X104027368Y-102493255D01*
X104027558Y-102491568D01*
X104047565Y-102314003D01*
X104047565Y-102313996D01*
X104027369Y-102134750D01*
X104027368Y-102134745D01*
X103967788Y-101964476D01*
X103898071Y-101853523D01*
X103871816Y-101811738D01*
X103744262Y-101684184D01*
X103666782Y-101635500D01*
X103591521Y-101588210D01*
X103421249Y-101528630D01*
X103334286Y-101518832D01*
X103269872Y-101491765D01*
X103260493Y-101483298D01*
X100860823Y-99083865D01*
X100827335Y-99022543D01*
X100824500Y-98996179D01*
X100824500Y-88192412D01*
X100844185Y-88125373D01*
X100851555Y-88115097D01*
X100853810Y-88112267D01*
X100853816Y-88112262D01*
X100949789Y-87959522D01*
X101009368Y-87789255D01*
X101010204Y-87781837D01*
X101027280Y-87630284D01*
X101033916Y-87614490D01*
X101031523Y-87610767D01*
X101027280Y-87589715D01*
X101009369Y-87430750D01*
X101009368Y-87430745D01*
X100978008Y-87341123D01*
X100949789Y-87260478D01*
X100853816Y-87107738D01*
X100726262Y-86980184D01*
X100573523Y-86884211D01*
X100403254Y-86824631D01*
X100403250Y-86824630D01*
X100327416Y-86816086D01*
X100263002Y-86789019D01*
X100223447Y-86731424D01*
X100217300Y-86692866D01*
X100217300Y-78501360D01*
X100217301Y-78501347D01*
X100217301Y-78333244D01*
X100217301Y-78333243D01*
X100176377Y-78180516D01*
X100176373Y-78180509D01*
X100097324Y-78043590D01*
X100097318Y-78043582D01*
X98131719Y-76077983D01*
X98098234Y-76016660D01*
X98095400Y-75990302D01*
X98095400Y-73920673D01*
X98115085Y-73853634D01*
X98167889Y-73807879D01*
X98237047Y-73797935D01*
X98300603Y-73826960D01*
X98307075Y-73832986D01*
X101024576Y-76550335D01*
X101238179Y-76763926D01*
X101271665Y-76825249D01*
X101274500Y-76851610D01*
X101274500Y-87575832D01*
X101265160Y-87607638D01*
X101272640Y-87622773D01*
X101274500Y-87644167D01*
X101274500Y-90529988D01*
X101274495Y-90617831D01*
X101274498Y-90617854D01*
X101274536Y-90617992D01*
X101293578Y-90689057D01*
X101293579Y-90689062D01*
X101315411Y-90770559D01*
X101315420Y-90770580D01*
X101334282Y-90803249D01*
X101356526Y-90841778D01*
X101356528Y-90841783D01*
X101356529Y-90841783D01*
X101366479Y-90859019D01*
X101380964Y-90884111D01*
X101394465Y-90907497D01*
X101394478Y-90907514D01*
X101457986Y-90971022D01*
X104709599Y-94222994D01*
X104743081Y-94284319D01*
X104745133Y-94296785D01*
X104751630Y-94354449D01*
X104811210Y-94524721D01*
X104850242Y-94586839D01*
X104907184Y-94677462D01*
X105034738Y-94805016D01*
X105056862Y-94818918D01*
X105103153Y-94871251D01*
X105113802Y-94940305D01*
X105085427Y-95004153D01*
X105078571Y-95011592D01*
X103258240Y-96831923D01*
X103196917Y-96865408D01*
X103127225Y-96860424D01*
X103104586Y-96849235D01*
X103034524Y-96805211D01*
X102864254Y-96745631D01*
X102864249Y-96745630D01*
X102685004Y-96725435D01*
X102684996Y-96725435D01*
X102505750Y-96745630D01*
X102505745Y-96745631D01*
X102335476Y-96805211D01*
X102182737Y-96901184D01*
X102055184Y-97028737D01*
X101959211Y-97181476D01*
X101899631Y-97351745D01*
X101899630Y-97351750D01*
X101879435Y-97530996D01*
X101879435Y-97531003D01*
X101899630Y-97710249D01*
X101899631Y-97710254D01*
X101959211Y-97880523D01*
X102055184Y-98033262D01*
X102182738Y-98160816D01*
X102335478Y-98256789D01*
X102479259Y-98307100D01*
X102505745Y-98316368D01*
X102505750Y-98316369D01*
X102684996Y-98336565D01*
X102685000Y-98336565D01*
X102685004Y-98336565D01*
X102864249Y-98316369D01*
X102864252Y-98316368D01*
X102864255Y-98316368D01*
X103034522Y-98256789D01*
X103187262Y-98160816D01*
X103187267Y-98160810D01*
X103190097Y-98158555D01*
X103192275Y-98157665D01*
X103193158Y-98157111D01*
X103193255Y-98157265D01*
X103254783Y-98132145D01*
X103267412Y-98131500D01*
X103321731Y-98131500D01*
X103321747Y-98131501D01*
X103329343Y-98131501D01*
X103487454Y-98131501D01*
X103487457Y-98131501D01*
X103640185Y-98090577D01*
X103690304Y-98061639D01*
X103777116Y-98011520D01*
X103888920Y-97899716D01*
X103888920Y-97899714D01*
X103899128Y-97889507D01*
X103899130Y-97889504D01*
X108155526Y-93633107D01*
X108216847Y-93599624D01*
X108286539Y-93604608D01*
X108342472Y-93646480D01*
X108366889Y-93711944D01*
X108359013Y-93759116D01*
X108360495Y-93759545D01*
X108360135Y-93760789D01*
X108359514Y-93762592D01*
X108356332Y-93774475D01*
X108337524Y-93844708D01*
X108337524Y-93844709D01*
X108317498Y-93919447D01*
X108317487Y-93919532D01*
X108317500Y-94001757D01*
X108317500Y-98429350D01*
X108317479Y-98510303D01*
X108317498Y-98510450D01*
X108337436Y-98584862D01*
X108337439Y-98584892D01*
X108337444Y-98584891D01*
X108358363Y-98663040D01*
X108358402Y-98663133D01*
X108358423Y-98663185D01*
X108375826Y-98693327D01*
X108398223Y-98732121D01*
X108398231Y-98732152D01*
X108398239Y-98732148D01*
X108437389Y-98799998D01*
X108437481Y-98800117D01*
X108494294Y-98856930D01*
X108494310Y-98856959D01*
X108494317Y-98856953D01*
X109246625Y-99609645D01*
X109265295Y-99628324D01*
X109298764Y-99689656D01*
X109300811Y-99702099D01*
X109310630Y-99789249D01*
X109370210Y-99959521D01*
X109425177Y-100047000D01*
X109466184Y-100112262D01*
X109593738Y-100239816D01*
X109627745Y-100261184D01*
X109746479Y-100335790D01*
X109802172Y-100355277D01*
X109858949Y-100395998D01*
X109884697Y-100460950D01*
X109871241Y-100529512D01*
X109866217Y-100538284D01*
X109864210Y-100541477D01*
X109864210Y-100541478D01*
X109804633Y-100711737D01*
X109804630Y-100711750D01*
X109784435Y-100890996D01*
X109784435Y-100891003D01*
X109804630Y-101070249D01*
X109804631Y-101070254D01*
X109864211Y-101240523D01*
X109960185Y-101393263D01*
X109962445Y-101396097D01*
X109963334Y-101398275D01*
X109963889Y-101399158D01*
X109963734Y-101399255D01*
X109988855Y-101460783D01*
X109989500Y-101473412D01*
X109989500Y-103027587D01*
X109969815Y-103094626D01*
X109962450Y-103104896D01*
X109960186Y-103107734D01*
X109864211Y-103260476D01*
X109804631Y-103430745D01*
X109804630Y-103430750D01*
X109784435Y-103609996D01*
X109784435Y-103610003D01*
X109804630Y-103789249D01*
X109804631Y-103789254D01*
X109864211Y-103959523D01*
X109960184Y-104112262D01*
X110087738Y-104239816D01*
X110240478Y-104335789D01*
X110410745Y-104395368D01*
X110410750Y-104395369D01*
X110589996Y-104415565D01*
X110590000Y-104415565D01*
X110590004Y-104415565D01*
X110769249Y-104395369D01*
X110769252Y-104395368D01*
X110769255Y-104395368D01*
X110939522Y-104335789D01*
X111092262Y-104239816D01*
X111219816Y-104112262D01*
X111315789Y-103959522D01*
X111375368Y-103789255D01*
X111395565Y-103610000D01*
X111375368Y-103430745D01*
X111315789Y-103260478D01*
X111219816Y-103107738D01*
X111219814Y-103107736D01*
X111219813Y-103107734D01*
X111217550Y-103104896D01*
X111216659Y-103102715D01*
X111216111Y-103101842D01*
X111216264Y-103101745D01*
X111191144Y-103040209D01*
X111190500Y-103027587D01*
X111190500Y-102263776D01*
X111210185Y-102196737D01*
X111262989Y-102150982D01*
X111332147Y-102141038D01*
X111380473Y-102158783D01*
X111493475Y-102229788D01*
X111663745Y-102289368D01*
X111663750Y-102289369D01*
X111842996Y-102309565D01*
X111843000Y-102309565D01*
X111843004Y-102309565D01*
X112022249Y-102289369D01*
X112022252Y-102289368D01*
X112022255Y-102289368D01*
X112192522Y-102229789D01*
X112345262Y-102133816D01*
X112472816Y-102006262D01*
X112568789Y-101853522D01*
X112628368Y-101683255D01*
X112647267Y-101515520D01*
X112648565Y-101504003D01*
X112648565Y-101503996D01*
X112628369Y-101324750D01*
X112628368Y-101324745D01*
X112571468Y-101162134D01*
X112568789Y-101154478D01*
X112563858Y-101146631D01*
X112472813Y-101001734D01*
X112470550Y-100998896D01*
X112469659Y-100996715D01*
X112469111Y-100995842D01*
X112469264Y-100995745D01*
X112444144Y-100934209D01*
X112443500Y-100921587D01*
X112443500Y-100771500D01*
X112463185Y-100704461D01*
X112515989Y-100658706D01*
X112567500Y-100647500D01*
X120526588Y-100647500D01*
X120593627Y-100667185D01*
X120603903Y-100674555D01*
X120606736Y-100676814D01*
X120606738Y-100676816D01*
X120720270Y-100748152D01*
X120757426Y-100771500D01*
X120759478Y-100772789D01*
X120906139Y-100824108D01*
X120929745Y-100832368D01*
X120929750Y-100832369D01*
X121108996Y-100852565D01*
X121109000Y-100852565D01*
X121109004Y-100852565D01*
X121288249Y-100832369D01*
X121288252Y-100832368D01*
X121288255Y-100832368D01*
X121458522Y-100772789D01*
X121611262Y-100676816D01*
X121738816Y-100549262D01*
X121834789Y-100396522D01*
X121894368Y-100226255D01*
X121907959Y-100105632D01*
X121914565Y-100047003D01*
X121914565Y-100046996D01*
X121894369Y-99867750D01*
X121894368Y-99867745D01*
X121840326Y-99713303D01*
X121834789Y-99697478D01*
X121834788Y-99697477D01*
X121834786Y-99697470D01*
X121831769Y-99691205D01*
X121833047Y-99690589D01*
X121816164Y-99630827D01*
X121836535Y-99563993D01*
X121889806Y-99518783D01*
X121940157Y-99508100D01*
X125905934Y-99508100D01*
X125972973Y-99527785D01*
X126018728Y-99580589D01*
X126028672Y-99649747D01*
X125999647Y-99713303D01*
X125993627Y-99719768D01*
X125631971Y-100081500D01*
X124418549Y-101295172D01*
X124357230Y-101328663D01*
X124330859Y-101331500D01*
X120976412Y-101331500D01*
X120909373Y-101311815D01*
X120899097Y-101304445D01*
X120896263Y-101302185D01*
X120896262Y-101302184D01*
X120839496Y-101266515D01*
X120743523Y-101206211D01*
X120573254Y-101146631D01*
X120573249Y-101146630D01*
X120394004Y-101126435D01*
X120393996Y-101126435D01*
X120214750Y-101146630D01*
X120214745Y-101146631D01*
X120044476Y-101206211D01*
X119891737Y-101302184D01*
X119764184Y-101429737D01*
X119668211Y-101582476D01*
X119608631Y-101752745D01*
X119608630Y-101752750D01*
X119588435Y-101931996D01*
X119588435Y-101932003D01*
X119608630Y-102111249D01*
X119608631Y-102111254D01*
X119668211Y-102281523D01*
X119764184Y-102434262D01*
X119891738Y-102561816D01*
X120044478Y-102657789D01*
X120214745Y-102717368D01*
X120214750Y-102717369D01*
X120393996Y-102737565D01*
X120394000Y-102737565D01*
X120394004Y-102737565D01*
X120573249Y-102717369D01*
X120573252Y-102717368D01*
X120573255Y-102717368D01*
X120743522Y-102657789D01*
X120896262Y-102561816D01*
X120896267Y-102561810D01*
X120899097Y-102559555D01*
X120901275Y-102558665D01*
X120902158Y-102558111D01*
X120902255Y-102558265D01*
X120963783Y-102533145D01*
X120976412Y-102532500D01*
X124543905Y-102532500D01*
X124544059Y-102532509D01*
X124552002Y-102532508D01*
X124552005Y-102532509D01*
X124635712Y-102532500D01*
X124710057Y-102532500D01*
X124710062Y-102532500D01*
X124710113Y-102532493D01*
X124710117Y-102532492D01*
X124710119Y-102532492D01*
X124787157Y-102511841D01*
X124787167Y-102511841D01*
X124787167Y-102511838D01*
X124787168Y-102511838D01*
X124862784Y-102491577D01*
X124862790Y-102491573D01*
X124862810Y-102491568D01*
X124862819Y-102491565D01*
X124862837Y-102491554D01*
X124862842Y-102491553D01*
X124927143Y-102454419D01*
X124927155Y-102454416D01*
X124927154Y-102454413D01*
X124998630Y-102413147D01*
X124999713Y-102412541D01*
X124999724Y-102412532D01*
X125000301Y-102411945D01*
X125005869Y-102406376D01*
X125048275Y-102363959D01*
X125048287Y-102363953D01*
X125048285Y-102363951D01*
X125081372Y-102330862D01*
X125111520Y-102300716D01*
X125111521Y-102300713D01*
X125117687Y-102294548D01*
X125117776Y-102294444D01*
X127070620Y-100341196D01*
X127131937Y-100307707D01*
X127144400Y-100305653D01*
X127231255Y-100295868D01*
X127401522Y-100236289D01*
X127554262Y-100140316D01*
X127681816Y-100012762D01*
X127777789Y-99860022D01*
X127837368Y-99689755D01*
X127839125Y-99674162D01*
X127845429Y-99618217D01*
X127872495Y-99553803D01*
X127930090Y-99514247D01*
X127968649Y-99508100D01*
X134017244Y-99508100D01*
X134084283Y-99527785D01*
X134130038Y-99580589D01*
X134139982Y-99649747D01*
X134110957Y-99713303D01*
X134104926Y-99719781D01*
X129033460Y-104791299D01*
X128972137Y-104824784D01*
X128959662Y-104826838D01*
X128872750Y-104836630D01*
X128702478Y-104896210D01*
X128549737Y-104992184D01*
X128422184Y-105119737D01*
X128326211Y-105272476D01*
X128266631Y-105442745D01*
X128266630Y-105442750D01*
X128246435Y-105621996D01*
X128246435Y-105622003D01*
X128266630Y-105801249D01*
X128266631Y-105801254D01*
X128326211Y-105971523D01*
X128422184Y-106124262D01*
X128549738Y-106251816D01*
X128702478Y-106347789D01*
X128872745Y-106407368D01*
X128872750Y-106407369D01*
X129051996Y-106427565D01*
X129052000Y-106427565D01*
X129052004Y-106427565D01*
X129231249Y-106407369D01*
X129231252Y-106407368D01*
X129231255Y-106407368D01*
X129401522Y-106347789D01*
X129554262Y-106251816D01*
X129681816Y-106124262D01*
X129777789Y-105971522D01*
X129837368Y-105801255D01*
X129847162Y-105714328D01*
X129874228Y-105649914D01*
X129882693Y-105640535D01*
X138812417Y-96710718D01*
X138873740Y-96677234D01*
X138900099Y-96674400D01*
X142886400Y-96674400D01*
X142953439Y-96694085D01*
X142999194Y-96746889D01*
X143010400Y-96798400D01*
X143010400Y-98189370D01*
X143010401Y-98189376D01*
X143016808Y-98248983D01*
X143067102Y-98383828D01*
X143067106Y-98383835D01*
X143153352Y-98499044D01*
X143153355Y-98499047D01*
X143268564Y-98585293D01*
X143268571Y-98585297D01*
X143330802Y-98608507D01*
X143400498Y-98634502D01*
X143456431Y-98676373D01*
X143480849Y-98741837D01*
X143465998Y-98810110D01*
X143444847Y-98838365D01*
X143322786Y-98960426D01*
X143187300Y-99153920D01*
X143187299Y-99153922D01*
X143087470Y-99368007D01*
X143087467Y-99368013D01*
X143030264Y-99581499D01*
X143030264Y-99581500D01*
X143927888Y-99581500D01*
X143894975Y-99638507D01*
X143860900Y-99765674D01*
X143860900Y-99897326D01*
X143894975Y-100024493D01*
X143927888Y-100081500D01*
X143030264Y-100081500D01*
X143087467Y-100294986D01*
X143087470Y-100294992D01*
X143187299Y-100509078D01*
X143322794Y-100702582D01*
X143489817Y-100869605D01*
X143683321Y-101005100D01*
X143897407Y-101104929D01*
X143897416Y-101104933D01*
X144110900Y-101162134D01*
X144110900Y-100264512D01*
X144167907Y-100297425D01*
X144295074Y-100331500D01*
X144426726Y-100331500D01*
X144553893Y-100297425D01*
X144610900Y-100264512D01*
X144610900Y-101162133D01*
X144824383Y-101104933D01*
X144824392Y-101104929D01*
X145038478Y-101005100D01*
X145231978Y-100869609D01*
X145243992Y-100857595D01*
X145305314Y-100824108D01*
X145375006Y-100829090D01*
X145419357Y-100857592D01*
X145961139Y-101399374D01*
X145961149Y-101399385D01*
X145965479Y-101403715D01*
X145965480Y-101403716D01*
X146077284Y-101515520D01*
X146160101Y-101563334D01*
X146160102Y-101563335D01*
X146214209Y-101594574D01*
X146214210Y-101594574D01*
X146214215Y-101594577D01*
X146366942Y-101635500D01*
X146366943Y-101635500D01*
X147338331Y-101635500D01*
X147338347Y-101635501D01*
X147345943Y-101635501D01*
X147504054Y-101635501D01*
X147504057Y-101635501D01*
X147656785Y-101594577D01*
X147656787Y-101594575D01*
X147656789Y-101594575D01*
X147656790Y-101594574D01*
X147710898Y-101563335D01*
X147710899Y-101563334D01*
X147793716Y-101515520D01*
X147905520Y-101403716D01*
X147905520Y-101403714D01*
X147915724Y-101393511D01*
X147915727Y-101393506D01*
X149339620Y-99969616D01*
X149418677Y-99832684D01*
X149442391Y-99744178D01*
X149474486Y-99688590D01*
X149488916Y-99674162D01*
X149492767Y-99668034D01*
X149511506Y-99638211D01*
X149563840Y-99591919D01*
X149632893Y-99581270D01*
X149696742Y-99609645D01*
X149735114Y-99668034D01*
X149740500Y-99704182D01*
X149740500Y-113531907D01*
X149739903Y-113544062D01*
X149726911Y-113675967D01*
X149722169Y-113699807D01*
X149685469Y-113820790D01*
X149676166Y-113843248D01*
X149616573Y-113954738D01*
X149603069Y-113974949D01*
X149522867Y-114072677D01*
X149505677Y-114089867D01*
X149407949Y-114170069D01*
X149387738Y-114183573D01*
X149276248Y-114243166D01*
X149253790Y-114252469D01*
X149132807Y-114289169D01*
X149108967Y-114293911D01*
X149011698Y-114303491D01*
X148977060Y-114306903D01*
X148964907Y-114307500D01*
X96526093Y-114307500D01*
X96513939Y-114306903D01*
X96382033Y-114293911D01*
X96358192Y-114289169D01*
X96237209Y-114252469D01*
X96214751Y-114243166D01*
X96103261Y-114183573D01*
X96083050Y-114170069D01*
X95985322Y-114089867D01*
X95968132Y-114072677D01*
X95887930Y-113974949D01*
X95874426Y-113954738D01*
X95814833Y-113843248D01*
X95805530Y-113820790D01*
X95768828Y-113699801D01*
X95764089Y-113675973D01*
X95751097Y-113544061D01*
X95750500Y-113531907D01*
X95750500Y-56715784D01*
X95750811Y-56710860D01*
X95750787Y-56705665D01*
X95750789Y-56705661D01*
X95750522Y-56645919D01*
X95751075Y-56633664D01*
X95763473Y-56503092D01*
X95768200Y-56479010D01*
X95768801Y-56477019D01*
X95804284Y-56359372D01*
X95813657Y-56336701D01*
X95872604Y-56226504D01*
X95886259Y-56206125D01*
X95965752Y-56109702D01*
X95983152Y-56092412D01*
X96080083Y-56013532D01*
X96100552Y-56000005D01*
X96211114Y-55941765D01*
X96233848Y-55932534D01*
X96353718Y-55897212D01*
X96377825Y-55892640D01*
X96509074Y-55881019D01*
X96521339Y-55880544D01*
X96580471Y-55881184D01*
X96580471Y-55881183D01*
X96581951Y-55881200D01*
X96593596Y-55880500D01*
X98213985Y-55880500D01*
X98281024Y-55900185D01*
G37*
%TD.AperFunction*%
%TA.AperFunction,Conductor*%
G36*
X124911942Y-86165485D02*
G01*
X124932584Y-86182119D01*
X127743298Y-88992833D01*
X127776783Y-89054156D01*
X127778837Y-89066630D01*
X127788630Y-89153549D01*
X127848210Y-89323821D01*
X127905857Y-89415565D01*
X127944184Y-89476562D01*
X128071738Y-89604116D01*
X128224478Y-89700089D01*
X128369090Y-89750691D01*
X128394745Y-89759668D01*
X128394750Y-89759669D01*
X128573996Y-89779865D01*
X128574000Y-89779865D01*
X128574004Y-89779865D01*
X128753249Y-89759669D01*
X128753252Y-89759668D01*
X128753255Y-89759668D01*
X128923522Y-89700089D01*
X129076262Y-89604116D01*
X129076267Y-89604110D01*
X129079097Y-89601855D01*
X129081275Y-89600965D01*
X129082158Y-89600411D01*
X129082255Y-89600565D01*
X129143783Y-89575445D01*
X129156412Y-89574800D01*
X140956602Y-89574800D01*
X141023641Y-89594485D01*
X141069396Y-89647289D01*
X141079340Y-89716447D01*
X141050315Y-89780003D01*
X141044283Y-89786481D01*
X136117584Y-94713181D01*
X136056261Y-94746666D01*
X136029903Y-94749500D01*
X118886099Y-94749500D01*
X118819060Y-94729815D01*
X118773305Y-94677011D01*
X118763361Y-94607853D01*
X118792386Y-94544297D01*
X118798417Y-94537819D01*
X118859720Y-94476516D01*
X118911320Y-94424916D01*
X118911320Y-94424914D01*
X118921528Y-94414707D01*
X118921530Y-94414704D01*
X122446535Y-90889698D01*
X122507856Y-90856215D01*
X122520311Y-90854163D01*
X122607255Y-90844368D01*
X122777522Y-90784789D01*
X122930262Y-90688816D01*
X123057816Y-90561262D01*
X123153789Y-90408522D01*
X123213368Y-90238255D01*
X123221464Y-90166400D01*
X123233565Y-90059003D01*
X123233565Y-90058996D01*
X123213369Y-89879750D01*
X123213368Y-89879745D01*
X123191915Y-89818435D01*
X123153789Y-89709478D01*
X123149524Y-89702691D01*
X123099549Y-89623155D01*
X123057816Y-89556738D01*
X122930262Y-89429184D01*
X122901970Y-89411407D01*
X122777521Y-89333210D01*
X122719283Y-89312832D01*
X122665574Y-89294038D01*
X122608800Y-89253319D01*
X122583052Y-89188366D01*
X122589488Y-89136045D01*
X122619368Y-89050655D01*
X122626502Y-88987342D01*
X122639565Y-88871403D01*
X122639565Y-88871396D01*
X122619369Y-88692150D01*
X122619368Y-88692145D01*
X122601048Y-88639789D01*
X122559789Y-88521878D01*
X122533762Y-88480457D01*
X122502488Y-88430684D01*
X122463816Y-88369138D01*
X122336262Y-88241584D01*
X122277258Y-88204509D01*
X122183523Y-88145611D01*
X122013254Y-88086031D01*
X122013249Y-88086030D01*
X121834004Y-88065835D01*
X121833996Y-88065835D01*
X121654750Y-88086030D01*
X121654745Y-88086031D01*
X121484476Y-88145611D01*
X121331737Y-88241584D01*
X121204182Y-88369139D01*
X121111006Y-88517428D01*
X121058672Y-88563718D01*
X120989618Y-88574366D01*
X120925770Y-88545991D01*
X120887398Y-88487601D01*
X120882793Y-88465338D01*
X120879369Y-88434950D01*
X120879368Y-88434945D01*
X120826585Y-88284100D01*
X120819789Y-88264678D01*
X120819063Y-88263523D01*
X120768293Y-88182723D01*
X120723816Y-88111938D01*
X120596262Y-87984384D01*
X120443523Y-87888411D01*
X120273254Y-87828831D01*
X120273249Y-87828830D01*
X120094004Y-87808635D01*
X120093996Y-87808635D01*
X119914750Y-87828830D01*
X119914745Y-87828831D01*
X119744476Y-87888411D01*
X119591737Y-87984384D01*
X119464184Y-88111937D01*
X119368210Y-88264678D01*
X119308630Y-88434950D01*
X119298827Y-88521960D01*
X119271760Y-88586374D01*
X119263297Y-88595748D01*
X118431340Y-89427873D01*
X116412781Y-91446840D01*
X116405550Y-91454072D01*
X116344230Y-91487564D01*
X116317860Y-91490400D01*
X110912106Y-91490400D01*
X110911891Y-91490386D01*
X110903963Y-91490387D01*
X110821798Y-91490399D01*
X110821742Y-91490400D01*
X110745892Y-91490400D01*
X110666452Y-91511699D01*
X110666434Y-91511704D01*
X110587252Y-91532921D01*
X110586275Y-91533254D01*
X110585663Y-91533424D01*
X110585076Y-91531310D01*
X110526764Y-91537814D01*
X110464161Y-91506787D01*
X110428271Y-91446840D01*
X110430488Y-91377005D01*
X110460614Y-91328019D01*
X112896506Y-88892128D01*
X112896511Y-88892124D01*
X112906714Y-88881920D01*
X112906716Y-88881920D01*
X113018520Y-88770116D01*
X113070883Y-88679420D01*
X113075274Y-88671816D01*
X113097574Y-88633190D01*
X113097573Y-88633190D01*
X113097577Y-88633185D01*
X113138500Y-88480457D01*
X113138500Y-88322343D01*
X113138500Y-87174481D01*
X113158185Y-87107442D01*
X113174816Y-87086803D01*
X114079430Y-86182122D01*
X114140751Y-86148635D01*
X114167114Y-86145800D01*
X124844903Y-86145800D01*
X124911942Y-86165485D01*
G37*
%TD.AperFunction*%
%TA.AperFunction,Conductor*%
G36*
X205586061Y-55881097D02*
G01*
X205587107Y-55881200D01*
X205717973Y-55894089D01*
X205741801Y-55898828D01*
X205862793Y-55935531D01*
X205885245Y-55944832D01*
X205915814Y-55961171D01*
X205996738Y-56004426D01*
X206016949Y-56017930D01*
X206083530Y-56072571D01*
X206108808Y-56093316D01*
X206114677Y-56098132D01*
X206131867Y-56115322D01*
X206212069Y-56213050D01*
X206225573Y-56233261D01*
X206285166Y-56344751D01*
X206294469Y-56367209D01*
X206331169Y-56488192D01*
X206335911Y-56512032D01*
X206348903Y-56643937D01*
X206349500Y-56656092D01*
X206349500Y-93473907D01*
X206348903Y-93486062D01*
X206335911Y-93617967D01*
X206331169Y-93641807D01*
X206294469Y-93762790D01*
X206285166Y-93785248D01*
X206225573Y-93896738D01*
X206212069Y-93916949D01*
X206131867Y-94014677D01*
X206114677Y-94031867D01*
X206016949Y-94112069D01*
X205996738Y-94125573D01*
X205885248Y-94185166D01*
X205862790Y-94194469D01*
X205741807Y-94231169D01*
X205717967Y-94235911D01*
X205620698Y-94245491D01*
X205586060Y-94248903D01*
X205573907Y-94249500D01*
X151763747Y-94249500D01*
X151696708Y-94229815D01*
X151650953Y-94177011D01*
X151641009Y-94107853D01*
X151670034Y-94044297D01*
X151676066Y-94037819D01*
X154551466Y-91162419D01*
X154612789Y-91128934D01*
X154639147Y-91126100D01*
X155374460Y-91126100D01*
X155374476Y-91126101D01*
X155382072Y-91126101D01*
X155540183Y-91126101D01*
X155540186Y-91126101D01*
X155692914Y-91085177D01*
X155763316Y-91044530D01*
X155792017Y-91027960D01*
X155829838Y-91006124D01*
X155829837Y-91006124D01*
X155829845Y-91006120D01*
X155941649Y-90894316D01*
X155941649Y-90894314D01*
X155951853Y-90884111D01*
X155951857Y-90884106D01*
X156797777Y-90038185D01*
X156809971Y-90027493D01*
X156813710Y-90024623D01*
X156813716Y-90024620D01*
X156925520Y-89912816D01*
X157004577Y-89775884D01*
X157045500Y-89623157D01*
X157045500Y-89479237D01*
X157065185Y-89412198D01*
X157081820Y-89391554D01*
X157149555Y-89323822D01*
X158378792Y-88094626D01*
X159561542Y-86911917D01*
X159622866Y-86878433D01*
X159649222Y-86875600D01*
X159724475Y-86875600D01*
X159791514Y-86895285D01*
X159837269Y-86948089D01*
X159847695Y-86985716D01*
X159859630Y-87091650D01*
X159859631Y-87091654D01*
X159919211Y-87261923D01*
X159974534Y-87349968D01*
X160015184Y-87414662D01*
X160142738Y-87542216D01*
X160153721Y-87549117D01*
X160270943Y-87622773D01*
X160295478Y-87638189D01*
X160386509Y-87670042D01*
X160465745Y-87697768D01*
X160465750Y-87697769D01*
X160552690Y-87707564D01*
X160617104Y-87734630D01*
X160626483Y-87743096D01*
X165802619Y-92918955D01*
X165877284Y-92993620D01*
X165877286Y-92993621D01*
X165877295Y-92993630D01*
X165877325Y-92993654D01*
X165878109Y-92994098D01*
X165890066Y-93001001D01*
X165934503Y-93026655D01*
X166012422Y-93071641D01*
X166014712Y-93073017D01*
X166015066Y-93073158D01*
X166019972Y-93074221D01*
X166111360Y-93098706D01*
X166166943Y-93113600D01*
X166166944Y-93113600D01*
X166166952Y-93113602D01*
X166166955Y-93113601D01*
X166166959Y-93113603D01*
X166261827Y-93113600D01*
X174786031Y-93113600D01*
X174786047Y-93113601D01*
X174793643Y-93113601D01*
X174951754Y-93113601D01*
X174951757Y-93113601D01*
X175104485Y-93072677D01*
X175154604Y-93043739D01*
X175241416Y-92993620D01*
X175353220Y-92881816D01*
X175353220Y-92881814D01*
X175363428Y-92871607D01*
X175363430Y-92871604D01*
X175921937Y-92313097D01*
X183782134Y-92313097D01*
X183782134Y-92313102D01*
X183801958Y-92539699D01*
X183801960Y-92539710D01*
X183860830Y-92759417D01*
X183860835Y-92759431D01*
X183956963Y-92965578D01*
X184008074Y-93038572D01*
X184687100Y-92359546D01*
X184687100Y-92365761D01*
X184714359Y-92467494D01*
X184767020Y-92558706D01*
X184841494Y-92633180D01*
X184932706Y-92685841D01*
X185034439Y-92713100D01*
X185040653Y-92713100D01*
X184361626Y-93392125D01*
X184434613Y-93443232D01*
X184434621Y-93443236D01*
X184640768Y-93539364D01*
X184640782Y-93539369D01*
X184860489Y-93598239D01*
X184860500Y-93598241D01*
X185087098Y-93618066D01*
X185087102Y-93618066D01*
X185313699Y-93598241D01*
X185313710Y-93598239D01*
X185533417Y-93539369D01*
X185533431Y-93539364D01*
X185739578Y-93443236D01*
X185812571Y-93392124D01*
X185133547Y-92713100D01*
X185139761Y-92713100D01*
X185241494Y-92685841D01*
X185332706Y-92633180D01*
X185407180Y-92558706D01*
X185459841Y-92467494D01*
X185487100Y-92365761D01*
X185487100Y-92359547D01*
X186171297Y-93043744D01*
X186220292Y-93053591D01*
X186270475Y-93102206D01*
X186285149Y-93157732D01*
X186286199Y-93157676D01*
X186286246Y-93157671D01*
X186286246Y-93157673D01*
X186286424Y-93157664D01*
X186286601Y-93160976D01*
X186293008Y-93220583D01*
X186343302Y-93355428D01*
X186343306Y-93355435D01*
X186429552Y-93470644D01*
X186429555Y-93470647D01*
X186544764Y-93556893D01*
X186544771Y-93556897D01*
X186679617Y-93607191D01*
X186679616Y-93607191D01*
X186686544Y-93607935D01*
X186739227Y-93613600D01*
X188434972Y-93613599D01*
X188494583Y-93607191D01*
X188629431Y-93556896D01*
X188744646Y-93470646D01*
X188830896Y-93355431D01*
X188881191Y-93220583D01*
X188887600Y-93160973D01*
X188887599Y-91526598D01*
X197411391Y-91526598D01*
X197411391Y-91526601D01*
X197431800Y-91811962D01*
X197492609Y-92091495D01*
X197592591Y-92359558D01*
X197729691Y-92610638D01*
X197729696Y-92610646D01*
X197836382Y-92753162D01*
X197836383Y-92753163D01*
X198444413Y-92145133D01*
X198539329Y-92275775D01*
X198667325Y-92403771D01*
X198797965Y-92498686D01*
X198189935Y-93106715D01*
X198189936Y-93106716D01*
X198332453Y-93213403D01*
X198332461Y-93213408D01*
X198583542Y-93350508D01*
X198583541Y-93350508D01*
X198851604Y-93450490D01*
X199131137Y-93511299D01*
X199416499Y-93531709D01*
X199416501Y-93531709D01*
X199701862Y-93511299D01*
X199981395Y-93450490D01*
X200249458Y-93350508D01*
X200500538Y-93213408D01*
X200500539Y-93213407D01*
X200643063Y-93106715D01*
X200035034Y-92498686D01*
X200165675Y-92403771D01*
X200293671Y-92275775D01*
X200388586Y-92145134D01*
X200996615Y-92753163D01*
X201103307Y-92610639D01*
X201103308Y-92610638D01*
X201240408Y-92359558D01*
X201340390Y-92091495D01*
X201401199Y-91811962D01*
X201421609Y-91526601D01*
X201421609Y-91526598D01*
X201401199Y-91241237D01*
X201340390Y-90961704D01*
X201240408Y-90693641D01*
X201103308Y-90442561D01*
X201103303Y-90442553D01*
X200996616Y-90300036D01*
X200996615Y-90300035D01*
X200388585Y-90908065D01*
X200293671Y-90777425D01*
X200165675Y-90649429D01*
X200035033Y-90554512D01*
X200643063Y-89946483D01*
X200643062Y-89946482D01*
X200500546Y-89839796D01*
X200500538Y-89839791D01*
X200249457Y-89702691D01*
X200249458Y-89702691D01*
X199981395Y-89602709D01*
X199701862Y-89541900D01*
X199416501Y-89521491D01*
X199416499Y-89521491D01*
X199131137Y-89541900D01*
X198851604Y-89602709D01*
X198583541Y-89702691D01*
X198332461Y-89839791D01*
X198332453Y-89839796D01*
X198189935Y-89946482D01*
X198797966Y-90554513D01*
X198667325Y-90649429D01*
X198539329Y-90777425D01*
X198444413Y-90908066D01*
X197836382Y-90300035D01*
X197729696Y-90442553D01*
X197729691Y-90442561D01*
X197592591Y-90693641D01*
X197492609Y-90961704D01*
X197431800Y-91241237D01*
X197411391Y-91526598D01*
X188887599Y-91526598D01*
X188887599Y-91465228D01*
X188881191Y-91405617D01*
X188880555Y-91403913D01*
X188830897Y-91270771D01*
X188830893Y-91270764D01*
X188744647Y-91155555D01*
X188744644Y-91155552D01*
X188629435Y-91069306D01*
X188629428Y-91069302D01*
X188494582Y-91019008D01*
X188494583Y-91019008D01*
X188434983Y-91012601D01*
X188434981Y-91012600D01*
X188434973Y-91012600D01*
X188434964Y-91012600D01*
X186739229Y-91012600D01*
X186739223Y-91012601D01*
X186679616Y-91019008D01*
X186544771Y-91069302D01*
X186544764Y-91069306D01*
X186429555Y-91155552D01*
X186429552Y-91155555D01*
X186343306Y-91270764D01*
X186343302Y-91270771D01*
X186293008Y-91405617D01*
X186286601Y-91465216D01*
X186286601Y-91465223D01*
X186286422Y-91468552D01*
X186284947Y-91468472D01*
X186266915Y-91529884D01*
X186214111Y-91575639D01*
X186170622Y-91583129D01*
X185487100Y-92266651D01*
X185487100Y-92260439D01*
X185459841Y-92158706D01*
X185407180Y-92067494D01*
X185332706Y-91993020D01*
X185241494Y-91940359D01*
X185139761Y-91913100D01*
X185133545Y-91913100D01*
X185812572Y-91234074D01*
X185739578Y-91182963D01*
X185533431Y-91086835D01*
X185533417Y-91086830D01*
X185313710Y-91027960D01*
X185313699Y-91027958D01*
X185087102Y-91008134D01*
X185087098Y-91008134D01*
X184860500Y-91027958D01*
X184860489Y-91027960D01*
X184640782Y-91086830D01*
X184640773Y-91086834D01*
X184434616Y-91182966D01*
X184434612Y-91182968D01*
X184361626Y-91234073D01*
X184361626Y-91234074D01*
X185040653Y-91913100D01*
X185034439Y-91913100D01*
X184932706Y-91940359D01*
X184841494Y-91993020D01*
X184767020Y-92067494D01*
X184714359Y-92158706D01*
X184687100Y-92260439D01*
X184687100Y-92266652D01*
X184008074Y-91587626D01*
X184008073Y-91587626D01*
X183956968Y-91660612D01*
X183956966Y-91660616D01*
X183860834Y-91866773D01*
X183860830Y-91866782D01*
X183801960Y-92086489D01*
X183801958Y-92086500D01*
X183782134Y-92313097D01*
X175921937Y-92313097D01*
X176667597Y-91567437D01*
X176728920Y-91533952D01*
X176798612Y-91538936D01*
X176842959Y-91567437D01*
X176891338Y-91615816D01*
X176893393Y-91617107D01*
X177044066Y-91711782D01*
X177044078Y-91711789D01*
X177134097Y-91743288D01*
X177214345Y-91771368D01*
X177214350Y-91771369D01*
X177393596Y-91791565D01*
X177393600Y-91791565D01*
X177393604Y-91791565D01*
X177572849Y-91771369D01*
X177572852Y-91771368D01*
X177572855Y-91771368D01*
X177743122Y-91711789D01*
X177895862Y-91615816D01*
X177895867Y-91615810D01*
X177898697Y-91613555D01*
X177900875Y-91612665D01*
X177901758Y-91612111D01*
X177901855Y-91612265D01*
X177963383Y-91587145D01*
X177976012Y-91586500D01*
X182355331Y-91586500D01*
X182355347Y-91586501D01*
X182362943Y-91586501D01*
X182521054Y-91586501D01*
X182521057Y-91586501D01*
X182673785Y-91545577D01*
X182769333Y-91490412D01*
X182810716Y-91466520D01*
X182822534Y-91454701D01*
X182883855Y-91421216D01*
X182896316Y-91419162D01*
X182983255Y-91409368D01*
X183153522Y-91349789D01*
X183306262Y-91253816D01*
X183433816Y-91126262D01*
X183529789Y-90973522D01*
X183589368Y-90803255D01*
X183589369Y-90803249D01*
X183609565Y-90624003D01*
X183609565Y-90623996D01*
X183589369Y-90444750D01*
X183589368Y-90444745D01*
X183559658Y-90359838D01*
X183529789Y-90274478D01*
X183527245Y-90270430D01*
X183433815Y-90121737D01*
X183306262Y-89994184D01*
X183153523Y-89898211D01*
X182983254Y-89838631D01*
X182983249Y-89838630D01*
X182804004Y-89818435D01*
X182803996Y-89818435D01*
X182659031Y-89834768D01*
X182590209Y-89822713D01*
X182538830Y-89775364D01*
X182521206Y-89707754D01*
X182542933Y-89641348D01*
X182557462Y-89623872D01*
X188224736Y-83956598D01*
X195401032Y-83956598D01*
X195401032Y-83956601D01*
X195420864Y-84183286D01*
X195420866Y-84183297D01*
X195479758Y-84403088D01*
X195479761Y-84403097D01*
X195575931Y-84609332D01*
X195575932Y-84609334D01*
X195706454Y-84795741D01*
X195779632Y-84868919D01*
X195813117Y-84930242D01*
X195808133Y-84999934D01*
X195779632Y-85044281D01*
X195706454Y-85117458D01*
X195575932Y-85303865D01*
X195575931Y-85303867D01*
X195479761Y-85510102D01*
X195479758Y-85510111D01*
X195420866Y-85729902D01*
X195420864Y-85729913D01*
X195401874Y-85946976D01*
X195401032Y-85956600D01*
X195401377Y-85960545D01*
X195420864Y-86183286D01*
X195420866Y-86183297D01*
X195479758Y-86403088D01*
X195479761Y-86403097D01*
X195575931Y-86609332D01*
X195575932Y-86609334D01*
X195706454Y-86795741D01*
X195867356Y-86956643D01*
X195868517Y-86957617D01*
X195868889Y-86958176D01*
X195871189Y-86960476D01*
X195870727Y-86960937D01*
X195907226Y-87015784D01*
X195908342Y-87085645D01*
X195871511Y-87145019D01*
X195832156Y-87168797D01*
X195714169Y-87212803D01*
X195714164Y-87212806D01*
X195598955Y-87299052D01*
X195598952Y-87299055D01*
X195512706Y-87414264D01*
X195512702Y-87414271D01*
X195462408Y-87549117D01*
X195458044Y-87589715D01*
X195456001Y-87608723D01*
X195456000Y-87608735D01*
X195456000Y-89304470D01*
X195456001Y-89304476D01*
X195462408Y-89364083D01*
X195512702Y-89498928D01*
X195512706Y-89498935D01*
X195598952Y-89614144D01*
X195598955Y-89614147D01*
X195714164Y-89700393D01*
X195714171Y-89700397D01*
X195849017Y-89750691D01*
X195849016Y-89750691D01*
X195855944Y-89751435D01*
X195908627Y-89757100D01*
X197504372Y-89757099D01*
X197563983Y-89750691D01*
X197698831Y-89700396D01*
X197814046Y-89614146D01*
X197900296Y-89498931D01*
X197950591Y-89364083D01*
X197957000Y-89304473D01*
X197956999Y-87608728D01*
X197950591Y-87549117D01*
X197943621Y-87530430D01*
X197900297Y-87414271D01*
X197900293Y-87414264D01*
X197814047Y-87299055D01*
X197814044Y-87299052D01*
X197698835Y-87212806D01*
X197698828Y-87212802D01*
X197580844Y-87168797D01*
X197524910Y-87126926D01*
X197500493Y-87061461D01*
X197515345Y-86993188D01*
X197541993Y-86960658D01*
X197541811Y-86960476D01*
X197543642Y-86958644D01*
X197544490Y-86957610D01*
X197545627Y-86956655D01*
X197545639Y-86956647D01*
X197706547Y-86795739D01*
X197837068Y-86609334D01*
X197933239Y-86403096D01*
X197992135Y-86183292D01*
X198011968Y-85956600D01*
X198009874Y-85932671D01*
X198005843Y-85886593D01*
X197992135Y-85729908D01*
X197938374Y-85529268D01*
X197933241Y-85510111D01*
X197933238Y-85510102D01*
X197932667Y-85508878D01*
X197837068Y-85303866D01*
X197706547Y-85117461D01*
X197633365Y-85044279D01*
X197599882Y-84982959D01*
X197604866Y-84913267D01*
X197633365Y-84868920D01*
X197706547Y-84795739D01*
X197837068Y-84609334D01*
X197933239Y-84403096D01*
X197992135Y-84183292D01*
X198011968Y-83956600D01*
X197992135Y-83729908D01*
X197933239Y-83510104D01*
X197837068Y-83303866D01*
X197706547Y-83117461D01*
X197706545Y-83117458D01*
X197545641Y-82956554D01*
X197359234Y-82826032D01*
X197359230Y-82826030D01*
X197343522Y-82818705D01*
X197291083Y-82772531D01*
X197271933Y-82705337D01*
X197292150Y-82638457D01*
X197343528Y-82593940D01*
X197358981Y-82586734D01*
X197431971Y-82535624D01*
X196815497Y-81919150D01*
X196889843Y-81899230D01*
X196998157Y-81836695D01*
X197086595Y-81748257D01*
X197149130Y-81639943D01*
X197169050Y-81565597D01*
X197785524Y-82182071D01*
X197836636Y-82109078D01*
X197932764Y-81902931D01*
X197932769Y-81902917D01*
X197991639Y-81683210D01*
X197991641Y-81683199D01*
X198011466Y-81456602D01*
X198011466Y-81456597D01*
X197991641Y-81230000D01*
X197991639Y-81229989D01*
X197932769Y-81010282D01*
X197932764Y-81010268D01*
X197836636Y-80804121D01*
X197836632Y-80804113D01*
X197785525Y-80731126D01*
X197169050Y-81347601D01*
X197149130Y-81273257D01*
X197086595Y-81164943D01*
X196998157Y-81076505D01*
X196889843Y-81013970D01*
X196815496Y-80994049D01*
X197431972Y-80377574D01*
X197358978Y-80326463D01*
X197152831Y-80230335D01*
X197152817Y-80230330D01*
X196933110Y-80171460D01*
X196933099Y-80171458D01*
X196706502Y-80151634D01*
X196706498Y-80151634D01*
X196479900Y-80171458D01*
X196479889Y-80171460D01*
X196260182Y-80230330D01*
X196260173Y-80230334D01*
X196054016Y-80326466D01*
X196054012Y-80326468D01*
X195981026Y-80377573D01*
X195981026Y-80377574D01*
X196597502Y-80994049D01*
X196523157Y-81013970D01*
X196414843Y-81076505D01*
X196326405Y-81164943D01*
X196263870Y-81273257D01*
X196243949Y-81347602D01*
X195627474Y-80731126D01*
X195627473Y-80731126D01*
X195576368Y-80804112D01*
X195576366Y-80804116D01*
X195480234Y-81010273D01*
X195480230Y-81010282D01*
X195421360Y-81229989D01*
X195421358Y-81230000D01*
X195401534Y-81456597D01*
X195401534Y-81456602D01*
X195421358Y-81683199D01*
X195421360Y-81683210D01*
X195480230Y-81902917D01*
X195480235Y-81902931D01*
X195576363Y-82109078D01*
X195627474Y-82182072D01*
X196243949Y-81565597D01*
X196263870Y-81639943D01*
X196326405Y-81748257D01*
X196414843Y-81836695D01*
X196523157Y-81899230D01*
X196597502Y-81919150D01*
X195981026Y-82535625D01*
X196054013Y-82586732D01*
X196054015Y-82586733D01*
X196069473Y-82593941D01*
X196121913Y-82640113D01*
X196141066Y-82707306D01*
X196120851Y-82774187D01*
X196069479Y-82818704D01*
X196053770Y-82826029D01*
X196053765Y-82826032D01*
X195867358Y-82956554D01*
X195706454Y-83117458D01*
X195575932Y-83303865D01*
X195575931Y-83303867D01*
X195479761Y-83510102D01*
X195479758Y-83510111D01*
X195420866Y-83729902D01*
X195420864Y-83729913D01*
X195401032Y-83956598D01*
X188224736Y-83956598D01*
X193794735Y-78386598D01*
X197411391Y-78386598D01*
X197411391Y-78386601D01*
X197431800Y-78671962D01*
X197492609Y-78951495D01*
X197592591Y-79219558D01*
X197729691Y-79470638D01*
X197729696Y-79470646D01*
X197836382Y-79613162D01*
X197836383Y-79613163D01*
X198444413Y-79005133D01*
X198539329Y-79135775D01*
X198667325Y-79263771D01*
X198797965Y-79358686D01*
X198189935Y-79966715D01*
X198189936Y-79966716D01*
X198332453Y-80073403D01*
X198332461Y-80073408D01*
X198583542Y-80210508D01*
X198583541Y-80210508D01*
X198851604Y-80310490D01*
X199131137Y-80371299D01*
X199416499Y-80391709D01*
X199416501Y-80391709D01*
X199701862Y-80371299D01*
X199981395Y-80310490D01*
X200249458Y-80210508D01*
X200500538Y-80073408D01*
X200500539Y-80073407D01*
X200643063Y-79966715D01*
X200035034Y-79358686D01*
X200165675Y-79263771D01*
X200293671Y-79135775D01*
X200388586Y-79005134D01*
X200996615Y-79613163D01*
X201103307Y-79470639D01*
X201103308Y-79470638D01*
X201240408Y-79219558D01*
X201340390Y-78951495D01*
X201401199Y-78671962D01*
X201421609Y-78386601D01*
X201421609Y-78386598D01*
X201401199Y-78101237D01*
X201340390Y-77821704D01*
X201240408Y-77553641D01*
X201103308Y-77302561D01*
X201103303Y-77302553D01*
X200996616Y-77160036D01*
X200996615Y-77160035D01*
X200388585Y-77768065D01*
X200293671Y-77637425D01*
X200165675Y-77509429D01*
X200035033Y-77414512D01*
X200643063Y-76806483D01*
X200643062Y-76806482D01*
X200500546Y-76699796D01*
X200500538Y-76699791D01*
X200249457Y-76562691D01*
X200249458Y-76562691D01*
X199981395Y-76462709D01*
X199701862Y-76401900D01*
X199416501Y-76381491D01*
X199416499Y-76381491D01*
X199131137Y-76401900D01*
X198851604Y-76462709D01*
X198583541Y-76562691D01*
X198332461Y-76699791D01*
X198332453Y-76699796D01*
X198189935Y-76806482D01*
X198797966Y-77414513D01*
X198667325Y-77509429D01*
X198539329Y-77637425D01*
X198444413Y-77768066D01*
X197836382Y-77160035D01*
X197729696Y-77302553D01*
X197729691Y-77302561D01*
X197592591Y-77553641D01*
X197492609Y-77821704D01*
X197431800Y-78101237D01*
X197411391Y-78386598D01*
X193794735Y-78386598D01*
X198834106Y-73347227D01*
X198834111Y-73347224D01*
X198844314Y-73337020D01*
X198844316Y-73337020D01*
X198956120Y-73225216D01*
X199014243Y-73124543D01*
X199035177Y-73088285D01*
X199076101Y-72935557D01*
X199076101Y-72821578D01*
X199095786Y-72754539D01*
X199148590Y-72708784D01*
X199217748Y-72698840D01*
X199264892Y-72715852D01*
X199296813Y-72735414D01*
X199296819Y-72735417D01*
X199516766Y-72826521D01*
X199748257Y-72882097D01*
X199985600Y-72900776D01*
X200222942Y-72882097D01*
X200454433Y-72826521D01*
X200454434Y-72826521D01*
X200674380Y-72735417D01*
X200674383Y-72735415D01*
X200866270Y-72617825D01*
X200866271Y-72617824D01*
X200252222Y-72003775D01*
X200305332Y-71981777D01*
X200415887Y-71907907D01*
X200509907Y-71813887D01*
X200583777Y-71703332D01*
X200605775Y-71650222D01*
X201219824Y-72264271D01*
X201219825Y-72264270D01*
X201337415Y-72072383D01*
X201337417Y-72072380D01*
X201428521Y-71852434D01*
X201428521Y-71852433D01*
X201484097Y-71620942D01*
X201502776Y-71383600D01*
X201492883Y-71257904D01*
X201507247Y-71189527D01*
X201556298Y-71139769D01*
X201624463Y-71124430D01*
X201687624Y-71146599D01*
X201839386Y-71252864D01*
X201839390Y-71252866D01*
X202043565Y-71348074D01*
X202043574Y-71348078D01*
X202261168Y-71406381D01*
X202261178Y-71406383D01*
X202485599Y-71426018D01*
X202485601Y-71426018D01*
X202710021Y-71406383D01*
X202710031Y-71406381D01*
X202927625Y-71348078D01*
X202927634Y-71348074D01*
X203131806Y-71252868D01*
X203202095Y-71203649D01*
X202635421Y-70636975D01*
X202688242Y-70622822D01*
X202807957Y-70553704D01*
X202905704Y-70455957D01*
X202974822Y-70336242D01*
X202988975Y-70283421D01*
X203555649Y-70850095D01*
X203604868Y-70779806D01*
X203700074Y-70575634D01*
X203700078Y-70575625D01*
X203758381Y-70358031D01*
X203758383Y-70358021D01*
X203778018Y-70133600D01*
X203778018Y-70133599D01*
X203758383Y-69909178D01*
X203758381Y-69909168D01*
X203700078Y-69691574D01*
X203700074Y-69691565D01*
X203604867Y-69487391D01*
X203604865Y-69487387D01*
X203555650Y-69417102D01*
X202988975Y-69983777D01*
X202974822Y-69930958D01*
X202905704Y-69811243D01*
X202807957Y-69713496D01*
X202688242Y-69644378D01*
X202635421Y-69630224D01*
X203202096Y-69063549D01*
X203131806Y-69014331D01*
X202927634Y-68919125D01*
X202927625Y-68919121D01*
X202710031Y-68860818D01*
X202710021Y-68860816D01*
X202485601Y-68841182D01*
X202485599Y-68841182D01*
X202261178Y-68860816D01*
X202261168Y-68860818D01*
X202043574Y-68919121D01*
X202043565Y-68919125D01*
X201839392Y-69014332D01*
X201839390Y-69014333D01*
X201769102Y-69063548D01*
X201769102Y-69063549D01*
X202335778Y-69630224D01*
X202282958Y-69644378D01*
X202163243Y-69713496D01*
X202065496Y-69811243D01*
X201996378Y-69930958D01*
X201982224Y-69983778D01*
X201415549Y-69417102D01*
X201415548Y-69417102D01*
X201366333Y-69487390D01*
X201366332Y-69487392D01*
X201271125Y-69691565D01*
X201271121Y-69691574D01*
X201212818Y-69909168D01*
X201212816Y-69909178D01*
X201193182Y-70133599D01*
X201193182Y-70133602D01*
X201206099Y-70281253D01*
X201206099Y-70281254D01*
X201236117Y-70311272D01*
X201269602Y-70372595D01*
X201264618Y-70442287D01*
X201236117Y-70486634D01*
X200605775Y-71116976D01*
X200583777Y-71063868D01*
X200509907Y-70953313D01*
X200415887Y-70859293D01*
X200305332Y-70785423D01*
X200252221Y-70763423D01*
X200866271Y-70149374D01*
X200674383Y-70031784D01*
X200674380Y-70031782D01*
X200454433Y-69940678D01*
X200300176Y-69903645D01*
X200239584Y-69868854D01*
X200207420Y-69806828D01*
X200213896Y-69737259D01*
X200241437Y-69695397D01*
X201871476Y-68065357D01*
X201897146Y-68045659D01*
X201943116Y-68019120D01*
X202054920Y-67907316D01*
X202054920Y-67907314D01*
X202065124Y-67897111D01*
X202065128Y-67897106D01*
X202844506Y-67117728D01*
X202844511Y-67117724D01*
X202854714Y-67107520D01*
X202854716Y-67107520D01*
X202966520Y-66995716D01*
X203027678Y-66889787D01*
X203045577Y-66858785D01*
X203050562Y-66840177D01*
X203086926Y-66780518D01*
X203117930Y-66759890D01*
X203132060Y-66753302D01*
X203316673Y-66624034D01*
X203476034Y-66464673D01*
X203605302Y-66280060D01*
X203700547Y-66075805D01*
X203758878Y-65858113D01*
X203778520Y-65633600D01*
X203778191Y-65629844D01*
X203765923Y-65489611D01*
X203758878Y-65409087D01*
X203700547Y-65191395D01*
X203696182Y-65182035D01*
X203646277Y-65075012D01*
X203605302Y-64987140D01*
X203476034Y-64802527D01*
X203316673Y-64643166D01*
X203278193Y-64616222D01*
X203132066Y-64513902D01*
X203132063Y-64513900D01*
X203132060Y-64513898D01*
X203132056Y-64513896D01*
X202927811Y-64418655D01*
X202927800Y-64418651D01*
X202827193Y-64391694D01*
X202766754Y-64375499D01*
X202707096Y-64339135D01*
X202676567Y-64276288D01*
X202684862Y-64206912D01*
X202729347Y-64153035D01*
X202766758Y-64135950D01*
X202787923Y-64130279D01*
X202787934Y-64130274D01*
X202992106Y-64035068D01*
X203062395Y-63985849D01*
X202495721Y-63419175D01*
X202548542Y-63405022D01*
X202668257Y-63335904D01*
X202766004Y-63238157D01*
X202835122Y-63118442D01*
X202849275Y-63065621D01*
X203415949Y-63632295D01*
X203465168Y-63562006D01*
X203560374Y-63357834D01*
X203560378Y-63357825D01*
X203618681Y-63140231D01*
X203618683Y-63140221D01*
X203638318Y-62915800D01*
X203638318Y-62915799D01*
X203618683Y-62691378D01*
X203618681Y-62691368D01*
X203560378Y-62473774D01*
X203560374Y-62473765D01*
X203465167Y-62269591D01*
X203465165Y-62269587D01*
X203415950Y-62199302D01*
X202849275Y-62765977D01*
X202835122Y-62713158D01*
X202766004Y-62593443D01*
X202668257Y-62495696D01*
X202548542Y-62426578D01*
X202495721Y-62412424D01*
X203062396Y-61845749D01*
X202992106Y-61796531D01*
X202787934Y-61701325D01*
X202787925Y-61701321D01*
X202570331Y-61643018D01*
X202570321Y-61643016D01*
X202345901Y-61623382D01*
X202345899Y-61623382D01*
X202121478Y-61643016D01*
X202121468Y-61643018D01*
X202014593Y-61671655D01*
X201944743Y-61669992D01*
X201886881Y-61630829D01*
X201859377Y-61566600D01*
X201858500Y-61551880D01*
X201858500Y-59866516D01*
X201878185Y-59799477D01*
X201894822Y-59778832D01*
X201962875Y-59710785D01*
X202024196Y-59677304D01*
X202082645Y-59678697D01*
X202121379Y-59689076D01*
X202121380Y-59689076D01*
X202121387Y-59689078D01*
X202312464Y-59705794D01*
X202345898Y-59708720D01*
X202345900Y-59708720D01*
X202345902Y-59708720D01*
X202402028Y-59703809D01*
X202570413Y-59689078D01*
X202788105Y-59630747D01*
X202992360Y-59535502D01*
X203176973Y-59406234D01*
X203336334Y-59246873D01*
X203465602Y-59062260D01*
X203560847Y-58858005D01*
X203619178Y-58640313D01*
X203636509Y-58442220D01*
X203638820Y-58415802D01*
X203638820Y-58415797D01*
X203623534Y-58241077D01*
X203619178Y-58191287D01*
X203560847Y-57973595D01*
X203549230Y-57948683D01*
X203498924Y-57840800D01*
X203465602Y-57769340D01*
X203336334Y-57584727D01*
X203176973Y-57425366D01*
X202992360Y-57296098D01*
X202944248Y-57273663D01*
X202788111Y-57200855D01*
X202788100Y-57200851D01*
X202570414Y-57142522D01*
X202570407Y-57142521D01*
X202345902Y-57122880D01*
X202345898Y-57122880D01*
X202121392Y-57142521D01*
X202121385Y-57142522D01*
X201903699Y-57200851D01*
X201903688Y-57200855D01*
X201699443Y-57296096D01*
X201699441Y-57296097D01*
X201547976Y-57402155D01*
X201481770Y-57424482D01*
X201414002Y-57407472D01*
X201366189Y-57356524D01*
X201353234Y-57290850D01*
X201363076Y-57165799D01*
X201344397Y-56928457D01*
X201288821Y-56696966D01*
X201288821Y-56696965D01*
X201197717Y-56477019D01*
X201197715Y-56477016D01*
X201080124Y-56285127D01*
X200466075Y-56899176D01*
X200444077Y-56846068D01*
X200370207Y-56735513D01*
X200276187Y-56641493D01*
X200165632Y-56567623D01*
X200112522Y-56545624D01*
X200741327Y-55916819D01*
X200802650Y-55883334D01*
X200829008Y-55880500D01*
X205514108Y-55880500D01*
X205573907Y-55880500D01*
X205586061Y-55881097D01*
G37*
%TD.AperFunction*%
%TA.AperFunction,Conductor*%
G36*
X103969135Y-55900185D02*
G01*
X104014890Y-55952989D01*
X104024834Y-56022147D01*
X103995809Y-56085703D01*
X103989786Y-56092172D01*
X103970796Y-56111166D01*
X103970789Y-56111174D01*
X103908065Y-56173899D01*
X103907965Y-56174012D01*
X102296053Y-57786310D01*
X102237455Y-57844908D01*
X102201233Y-57907666D01*
X102201225Y-57907680D01*
X102158404Y-57981847D01*
X102138683Y-58055484D01*
X102138680Y-58055497D01*
X102136286Y-58064428D01*
X102135982Y-58065566D01*
X102123507Y-58095621D01*
X102088743Y-58155635D01*
X102088689Y-58155768D01*
X102088516Y-58156185D01*
X102088430Y-58156390D01*
X102088423Y-58156415D01*
X102088423Y-58156416D01*
X102069348Y-58227607D01*
X102068212Y-58231845D01*
X102068166Y-58232016D01*
X102047610Y-58308294D01*
X102047599Y-58308379D01*
X102047564Y-58308646D01*
X102047500Y-58309125D01*
X102047500Y-58309143D01*
X102047500Y-58387341D01*
X102047459Y-58415802D01*
X102047377Y-58473415D01*
X102047500Y-58475303D01*
X102047500Y-61686757D01*
X102047495Y-61778331D01*
X102047498Y-61778357D01*
X102047524Y-61778449D01*
X102054905Y-61805995D01*
X102066901Y-61850765D01*
X102088413Y-61931062D01*
X102088426Y-61931091D01*
X102116753Y-61980154D01*
X102133584Y-62009306D01*
X102133586Y-62009313D01*
X102133588Y-62009313D01*
X102167462Y-62067992D01*
X102167482Y-62068018D01*
X102232364Y-62132900D01*
X102232367Y-62132906D01*
X102232369Y-62132905D01*
X103169259Y-63069896D01*
X103202741Y-63131220D01*
X103201348Y-63189665D01*
X103166938Y-63318086D01*
X103166936Y-63318096D01*
X103146341Y-63553499D01*
X103146341Y-63553500D01*
X103166936Y-63788903D01*
X103166938Y-63788913D01*
X103228094Y-64017155D01*
X103228096Y-64017159D01*
X103228097Y-64017163D01*
X103296099Y-64162993D01*
X103327965Y-64231330D01*
X103327967Y-64231334D01*
X103408259Y-64346002D01*
X103459131Y-64418655D01*
X103463501Y-64424895D01*
X103463506Y-64424902D01*
X103630597Y-64591993D01*
X103630603Y-64591998D01*
X103816158Y-64721925D01*
X103859783Y-64776502D01*
X103866977Y-64846000D01*
X103835454Y-64908355D01*
X103816158Y-64925075D01*
X103630597Y-65055005D01*
X103463505Y-65222097D01*
X103327965Y-65415669D01*
X103327964Y-65415671D01*
X103228098Y-65629835D01*
X103228094Y-65629844D01*
X103166938Y-65858086D01*
X103166936Y-65858096D01*
X103146341Y-66093499D01*
X103146341Y-66093500D01*
X103166936Y-66328903D01*
X103166938Y-66328913D01*
X103228094Y-66557155D01*
X103228096Y-66557159D01*
X103228097Y-66557163D01*
X103287520Y-66684596D01*
X103327965Y-66771330D01*
X103327967Y-66771334D01*
X103421904Y-66905489D01*
X103463501Y-66964896D01*
X103463506Y-66964902D01*
X103585818Y-67087214D01*
X103619303Y-67148537D01*
X103614319Y-67218229D01*
X103572447Y-67274162D01*
X103541471Y-67291077D01*
X103409912Y-67340146D01*
X103409906Y-67340149D01*
X103294812Y-67426309D01*
X103294809Y-67426312D01*
X103208649Y-67541406D01*
X103208645Y-67541413D01*
X103158403Y-67676120D01*
X103158401Y-67676127D01*
X103152000Y-67735655D01*
X103152000Y-68383500D01*
X104068988Y-68383500D01*
X104036075Y-68440507D01*
X104002000Y-68567674D01*
X104002000Y-68699326D01*
X104036075Y-68826493D01*
X104068988Y-68883500D01*
X103152000Y-68883500D01*
X103152000Y-69531344D01*
X103158401Y-69590872D01*
X103158403Y-69590879D01*
X103208645Y-69725586D01*
X103208649Y-69725593D01*
X103294809Y-69840687D01*
X103294812Y-69840690D01*
X103409906Y-69926850D01*
X103409913Y-69926854D01*
X103544620Y-69977096D01*
X103544627Y-69977098D01*
X103604155Y-69983499D01*
X103604172Y-69983500D01*
X104252000Y-69983500D01*
X104252000Y-69066512D01*
X104309007Y-69099425D01*
X104436174Y-69133500D01*
X104567826Y-69133500D01*
X104694993Y-69099425D01*
X104752000Y-69066512D01*
X104752000Y-69983500D01*
X105399828Y-69983500D01*
X105399844Y-69983499D01*
X105459372Y-69977098D01*
X105459379Y-69977096D01*
X105594086Y-69926854D01*
X105594093Y-69926850D01*
X105709187Y-69840690D01*
X105709190Y-69840687D01*
X105795350Y-69725593D01*
X105795354Y-69725586D01*
X105845596Y-69590879D01*
X105845598Y-69590872D01*
X105851999Y-69531344D01*
X105852000Y-69531327D01*
X105852000Y-69264992D01*
X105871685Y-69197953D01*
X105924489Y-69152198D01*
X105993647Y-69142254D01*
X106057203Y-69171279D01*
X106088382Y-69212587D01*
X106088696Y-69213261D01*
X106088697Y-69213263D01*
X106147847Y-69340110D01*
X106188565Y-69427430D01*
X106188567Y-69427434D01*
X106286599Y-69567437D01*
X106324105Y-69621001D01*
X106491199Y-69788095D01*
X106571468Y-69844300D01*
X106684765Y-69923632D01*
X106684767Y-69923633D01*
X106684770Y-69923635D01*
X106898937Y-70023503D01*
X107127192Y-70084663D01*
X107315518Y-70101139D01*
X107362599Y-70105259D01*
X107362600Y-70105259D01*
X107362601Y-70105259D01*
X107401834Y-70101826D01*
X107598008Y-70084663D01*
X107826263Y-70023503D01*
X108040430Y-69923635D01*
X108234001Y-69788095D01*
X108401095Y-69621001D01*
X108536635Y-69427430D01*
X108539307Y-69421697D01*
X108585478Y-69369258D01*
X108651691Y-69350100D01*
X112053331Y-69350100D01*
X112053347Y-69350101D01*
X112060943Y-69350101D01*
X112219054Y-69350101D01*
X112219057Y-69350101D01*
X112371785Y-69309177D01*
X112421904Y-69280239D01*
X112508716Y-69230120D01*
X112620520Y-69118316D01*
X112620520Y-69118314D01*
X112815520Y-68923316D01*
X112820360Y-68914931D01*
X112840060Y-68889255D01*
X112842819Y-68886496D01*
X116480454Y-65248028D01*
X116541773Y-65214537D01*
X116568145Y-65211700D01*
X138529932Y-65211700D01*
X138596971Y-65231385D01*
X138617607Y-65248013D01*
X139719960Y-66350213D01*
X139753449Y-66411533D01*
X139748470Y-66481225D01*
X139706602Y-66537162D01*
X139641140Y-66561583D01*
X139632285Y-66561900D01*
X138015229Y-66561900D01*
X138015223Y-66561901D01*
X137955616Y-66568308D01*
X137820771Y-66618602D01*
X137820764Y-66618606D01*
X137705555Y-66704852D01*
X137705552Y-66704855D01*
X137619306Y-66820064D01*
X137619302Y-66820071D01*
X137569008Y-66954917D01*
X137562601Y-67014516D01*
X137562422Y-67017852D01*
X137560947Y-67017772D01*
X137542915Y-67079184D01*
X137490111Y-67124939D01*
X137446622Y-67132429D01*
X136763100Y-67815953D01*
X136763100Y-67809739D01*
X136735841Y-67708006D01*
X136683180Y-67616794D01*
X136608706Y-67542320D01*
X136517494Y-67489659D01*
X136415761Y-67462400D01*
X136409545Y-67462400D01*
X137088572Y-66783374D01*
X137015578Y-66732263D01*
X136809431Y-66636135D01*
X136809417Y-66636130D01*
X136589710Y-66577260D01*
X136589699Y-66577258D01*
X136363102Y-66557434D01*
X136363098Y-66557434D01*
X136136500Y-66577258D01*
X136136489Y-66577260D01*
X135916782Y-66636130D01*
X135916773Y-66636134D01*
X135710616Y-66732266D01*
X135710612Y-66732268D01*
X135637626Y-66783373D01*
X135637626Y-66783374D01*
X136316653Y-67462400D01*
X136310439Y-67462400D01*
X136208706Y-67489659D01*
X136117494Y-67542320D01*
X136043020Y-67616794D01*
X135990359Y-67708006D01*
X135963100Y-67809739D01*
X135963100Y-67815952D01*
X135284074Y-67136926D01*
X135284073Y-67136926D01*
X135232968Y-67209912D01*
X135232966Y-67209916D01*
X135136834Y-67416073D01*
X135136830Y-67416082D01*
X135077960Y-67635789D01*
X135077958Y-67635800D01*
X135058134Y-67862397D01*
X135058134Y-67862402D01*
X135077958Y-68088999D01*
X135077960Y-68089010D01*
X135136830Y-68308717D01*
X135136835Y-68308731D01*
X135232963Y-68514878D01*
X135284074Y-68587872D01*
X135963100Y-67908846D01*
X135963100Y-67915061D01*
X135990359Y-68016794D01*
X136043020Y-68108006D01*
X136117494Y-68182480D01*
X136208706Y-68235141D01*
X136310439Y-68262400D01*
X136316653Y-68262400D01*
X135637626Y-68941425D01*
X135710613Y-68992532D01*
X135710621Y-68992536D01*
X135916768Y-69088664D01*
X135916782Y-69088669D01*
X136114043Y-69141525D01*
X136173704Y-69177890D01*
X136204233Y-69240737D01*
X136195938Y-69310113D01*
X136151453Y-69363990D01*
X136084901Y-69385265D01*
X136081950Y-69385300D01*
X123730200Y-69385300D01*
X123663161Y-69365615D01*
X123642524Y-69348986D01*
X123481179Y-69187659D01*
X123447690Y-69126338D01*
X123452671Y-69056646D01*
X123494539Y-69000710D01*
X123558049Y-68976445D01*
X123598099Y-68972941D01*
X123598110Y-68972939D01*
X123817817Y-68914069D01*
X123817831Y-68914064D01*
X124023978Y-68817936D01*
X124096971Y-68766824D01*
X123417946Y-68087800D01*
X123424161Y-68087800D01*
X123525894Y-68060541D01*
X123617106Y-68007880D01*
X123691580Y-67933406D01*
X123744241Y-67842194D01*
X123771500Y-67740461D01*
X123771500Y-67734247D01*
X124455697Y-68418444D01*
X124504692Y-68428291D01*
X124554875Y-68476906D01*
X124569549Y-68532432D01*
X124570599Y-68532376D01*
X124570646Y-68532371D01*
X124570646Y-68532373D01*
X124570824Y-68532364D01*
X124571001Y-68535676D01*
X124577408Y-68595283D01*
X124627702Y-68730128D01*
X124627706Y-68730135D01*
X124713952Y-68845344D01*
X124713955Y-68845347D01*
X124829164Y-68931593D01*
X124829171Y-68931597D01*
X124964017Y-68981891D01*
X124964016Y-68981891D01*
X124970944Y-68982635D01*
X125023627Y-68988300D01*
X126719372Y-68988299D01*
X126778983Y-68981891D01*
X126913831Y-68931596D01*
X127029046Y-68845346D01*
X127115296Y-68730131D01*
X127165591Y-68595283D01*
X127172000Y-68535673D01*
X127171999Y-66839928D01*
X127165591Y-66780317D01*
X127164609Y-66777685D01*
X127115297Y-66645471D01*
X127115293Y-66645464D01*
X127029047Y-66530255D01*
X127029044Y-66530252D01*
X126913835Y-66444006D01*
X126913828Y-66444002D01*
X126778982Y-66393708D01*
X126778983Y-66393708D01*
X126719383Y-66387301D01*
X126719381Y-66387300D01*
X126719373Y-66387300D01*
X126719364Y-66387300D01*
X125023629Y-66387300D01*
X125023623Y-66387301D01*
X124964016Y-66393708D01*
X124829171Y-66444002D01*
X124829164Y-66444006D01*
X124713955Y-66530252D01*
X124713952Y-66530255D01*
X124627706Y-66645464D01*
X124627702Y-66645471D01*
X124577408Y-66780317D01*
X124571252Y-66837580D01*
X124571001Y-66839923D01*
X124570822Y-66843252D01*
X124569347Y-66843172D01*
X124551315Y-66904584D01*
X124498511Y-66950339D01*
X124455022Y-66957829D01*
X123771500Y-67641351D01*
X123771500Y-67635139D01*
X123744241Y-67533406D01*
X123691580Y-67442194D01*
X123617106Y-67367720D01*
X123525894Y-67315059D01*
X123424161Y-67287800D01*
X123417945Y-67287800D01*
X124096972Y-66608774D01*
X124023978Y-66557663D01*
X123817831Y-66461535D01*
X123817817Y-66461530D01*
X123598110Y-66402660D01*
X123598099Y-66402658D01*
X123371502Y-66382834D01*
X123371498Y-66382834D01*
X123144900Y-66402658D01*
X123144889Y-66402660D01*
X122925182Y-66461530D01*
X122925173Y-66461534D01*
X122719016Y-66557666D01*
X122719012Y-66557668D01*
X122646026Y-66608773D01*
X122646026Y-66608774D01*
X123325053Y-67287800D01*
X123318839Y-67287800D01*
X123217106Y-67315059D01*
X123125894Y-67367720D01*
X123051420Y-67442194D01*
X122998759Y-67533406D01*
X122971500Y-67635139D01*
X122971500Y-67641353D01*
X122292474Y-66962326D01*
X122292473Y-66962326D01*
X122241368Y-67035312D01*
X122241366Y-67035316D01*
X122145234Y-67241473D01*
X122145230Y-67241482D01*
X122086360Y-67461189D01*
X122086358Y-67461198D01*
X122082839Y-67501422D01*
X122057385Y-67566490D01*
X122000793Y-67607468D01*
X121931031Y-67611344D01*
X121871636Y-67578298D01*
X121479297Y-67186004D01*
X121456656Y-67149962D01*
X121454810Y-67150852D01*
X121451791Y-67144585D01*
X121451789Y-67144578D01*
X121355816Y-66991838D01*
X121228262Y-66864284D01*
X121194790Y-66843252D01*
X121075523Y-66768311D01*
X120905254Y-66708731D01*
X120905249Y-66708730D01*
X120726004Y-66688535D01*
X120725996Y-66688535D01*
X120546750Y-66708730D01*
X120546745Y-66708731D01*
X120376476Y-66768311D01*
X120223737Y-66864284D01*
X120096184Y-66991837D01*
X120000211Y-67144576D01*
X119940631Y-67314845D01*
X119940630Y-67314850D01*
X119920435Y-67494096D01*
X119920435Y-67494103D01*
X119940630Y-67673349D01*
X119940632Y-67673357D01*
X119972095Y-67763273D01*
X119975656Y-67833052D01*
X119940927Y-67893679D01*
X119878934Y-67925906D01*
X119814099Y-67921269D01*
X119724257Y-67889832D01*
X119724249Y-67889830D01*
X119545004Y-67869635D01*
X119544996Y-67869635D01*
X119365750Y-67889830D01*
X119365745Y-67889831D01*
X119195476Y-67949411D01*
X119042737Y-68045384D01*
X118915184Y-68172937D01*
X118819211Y-68325676D01*
X118759631Y-68495945D01*
X118759630Y-68495950D01*
X118739435Y-68675196D01*
X118739435Y-68675203D01*
X118759630Y-68854449D01*
X118759631Y-68854454D01*
X118819211Y-69024722D01*
X118821590Y-69029662D01*
X118832942Y-69098603D01*
X118805221Y-69162738D01*
X118747226Y-69201704D01*
X118677371Y-69203130D01*
X118668917Y-69200507D01*
X118607260Y-69178933D01*
X118607249Y-69178930D01*
X118428004Y-69158735D01*
X118427996Y-69158735D01*
X118248750Y-69178930D01*
X118248745Y-69178931D01*
X118078476Y-69238511D01*
X117925737Y-69334484D01*
X117798184Y-69462037D01*
X117702211Y-69614776D01*
X117642631Y-69785045D01*
X117642630Y-69785050D01*
X117622435Y-69964296D01*
X117622435Y-69964303D01*
X117642630Y-70143549D01*
X117642631Y-70143554D01*
X117702211Y-70313823D01*
X117796258Y-70463497D01*
X117798184Y-70466562D01*
X117925738Y-70594116D01*
X118005445Y-70644199D01*
X118078170Y-70689896D01*
X118078478Y-70690089D01*
X118248745Y-70749668D01*
X118335580Y-70759451D01*
X118399991Y-70786516D01*
X118409385Y-70794998D01*
X118817957Y-71203649D01*
X118877824Y-71263527D01*
X118911303Y-71324854D01*
X118906312Y-71394545D01*
X118864435Y-71450474D01*
X118798968Y-71474885D01*
X118790134Y-71475200D01*
X117146147Y-71475200D01*
X117146084Y-71475196D01*
X117138031Y-71475196D01*
X117138030Y-71475196D01*
X117047679Y-71475200D01*
X116979931Y-71475200D01*
X116979914Y-71475202D01*
X116896748Y-71497491D01*
X116896743Y-71497493D01*
X116827200Y-71516127D01*
X116763645Y-71552824D01*
X116763642Y-71552825D01*
X116690277Y-71595183D01*
X116690262Y-71595197D01*
X116690262Y-71595198D01*
X116647211Y-71638253D01*
X116573812Y-71711651D01*
X116573764Y-71711704D01*
X112285972Y-75999892D01*
X112285968Y-75999896D01*
X112216473Y-76069390D01*
X112209745Y-76081045D01*
X112185804Y-76122517D01*
X112183427Y-76126634D01*
X112183425Y-76126637D01*
X112137415Y-76206330D01*
X112132445Y-76224880D01*
X112100352Y-76280468D01*
X112067186Y-76313634D01*
X111971211Y-76466376D01*
X111911631Y-76636645D01*
X111911630Y-76636650D01*
X111891435Y-76815896D01*
X111891435Y-76815903D01*
X111911630Y-76995149D01*
X111911631Y-76995154D01*
X111971211Y-77165423D01*
X112060523Y-77307561D01*
X112067184Y-77318162D01*
X112194738Y-77445716D01*
X112279776Y-77499149D01*
X112301867Y-77513030D01*
X112347478Y-77541689D01*
X112456965Y-77580000D01*
X112517745Y-77601268D01*
X112517750Y-77601269D01*
X112696996Y-77621465D01*
X112697000Y-77621465D01*
X112697004Y-77621465D01*
X112876255Y-77601268D01*
X112879470Y-77600535D01*
X112881605Y-77600665D01*
X112883175Y-77600489D01*
X112883205Y-77600763D01*
X112949209Y-77604809D01*
X113005566Y-77646108D01*
X113030649Y-77711320D01*
X113016493Y-77779741D01*
X113012055Y-77787398D01*
X112980211Y-77838076D01*
X112920631Y-78008345D01*
X112920630Y-78008350D01*
X112900435Y-78187596D01*
X112900435Y-78187603D01*
X112920630Y-78366849D01*
X112920631Y-78366854D01*
X112980211Y-78537123D01*
X113013994Y-78590888D01*
X113076184Y-78689862D01*
X113203738Y-78817416D01*
X113356478Y-78913389D01*
X113526745Y-78972968D01*
X113526750Y-78972969D01*
X113705996Y-78993165D01*
X113706000Y-78993165D01*
X113706003Y-78993165D01*
X113774616Y-78985434D01*
X113843438Y-78997488D01*
X113894818Y-79044837D01*
X113912500Y-79108654D01*
X113912500Y-79572529D01*
X113908274Y-79604626D01*
X113896600Y-79648189D01*
X113896380Y-79648997D01*
X113876021Y-79722964D01*
X113875827Y-79724446D01*
X113875711Y-79725306D01*
X113875500Y-79726827D01*
X113875500Y-79803499D01*
X113875497Y-79804342D01*
X113874954Y-79884096D01*
X113875500Y-79892874D01*
X113875500Y-80010187D01*
X113855815Y-80077226D01*
X113848450Y-80087496D01*
X113846186Y-80090334D01*
X113750211Y-80243076D01*
X113690631Y-80413345D01*
X113690630Y-80413350D01*
X113670435Y-80592596D01*
X113670435Y-80592603D01*
X113690630Y-80771849D01*
X113690631Y-80771854D01*
X113750211Y-80942123D01*
X113836977Y-81080209D01*
X113846184Y-81094862D01*
X113973738Y-81222416D01*
X114010476Y-81245500D01*
X114122115Y-81315648D01*
X114126478Y-81318389D01*
X114250311Y-81361720D01*
X114279284Y-81371858D01*
X114336060Y-81412580D01*
X114361807Y-81477533D01*
X114348351Y-81546094D01*
X114299964Y-81596497D01*
X114238329Y-81612900D01*
X112860056Y-81612900D01*
X112793017Y-81593215D01*
X112772383Y-81576590D01*
X111170827Y-79975349D01*
X111137336Y-79914029D01*
X111134500Y-79887659D01*
X111134500Y-73337840D01*
X111154185Y-73270801D01*
X111170827Y-73250150D01*
X114110364Y-70311189D01*
X114171690Y-70277711D01*
X114211918Y-70275660D01*
X114248873Y-70279823D01*
X114258999Y-70280965D01*
X114259000Y-70280965D01*
X114259004Y-70280965D01*
X114438249Y-70260769D01*
X114438252Y-70260768D01*
X114438255Y-70260768D01*
X114608522Y-70201189D01*
X114761262Y-70105216D01*
X114888816Y-69977662D01*
X114984789Y-69824922D01*
X115044368Y-69654655D01*
X115048861Y-69614778D01*
X115064565Y-69475403D01*
X115064565Y-69475396D01*
X115044369Y-69296150D01*
X115044368Y-69296145D01*
X115035456Y-69270675D01*
X114984789Y-69125878D01*
X114980037Y-69118316D01*
X114918226Y-69019944D01*
X114888816Y-68973138D01*
X114761262Y-68845584D01*
X114752759Y-68840241D01*
X114608523Y-68749611D01*
X114438254Y-68690031D01*
X114438249Y-68690030D01*
X114259004Y-68669835D01*
X114258996Y-68669835D01*
X114079750Y-68690030D01*
X114079745Y-68690031D01*
X113909476Y-68749611D01*
X113756737Y-68845584D01*
X113629184Y-68973137D01*
X113533212Y-69125875D01*
X113533211Y-69125876D01*
X113508090Y-69197668D01*
X113478722Y-69244402D01*
X110170592Y-72551883D01*
X110170477Y-72551985D01*
X110106530Y-72615933D01*
X110106523Y-72615941D01*
X110053493Y-72668961D01*
X110012882Y-72739301D01*
X110012877Y-72739309D01*
X109974431Y-72805884D01*
X109961211Y-72855223D01*
X109954968Y-72878522D01*
X109933803Y-72957482D01*
X109933500Y-72958611D01*
X109933500Y-73030896D01*
X109933491Y-73124979D01*
X109933500Y-73125112D01*
X109933500Y-80100652D01*
X109933491Y-80100790D01*
X109933500Y-80193130D01*
X109933500Y-80266890D01*
X109940217Y-80291949D01*
X109938561Y-80361799D01*
X109899404Y-80419665D01*
X109835178Y-80447176D01*
X109834329Y-80447274D01*
X109739749Y-80457930D01*
X109739745Y-80457931D01*
X109569476Y-80517511D01*
X109416737Y-80613484D01*
X109289184Y-80741037D01*
X109193211Y-80893776D01*
X109133631Y-81064045D01*
X109133630Y-81064050D01*
X109113435Y-81243296D01*
X109113435Y-81243303D01*
X109133630Y-81422549D01*
X109133631Y-81422554D01*
X109193211Y-81592823D01*
X109269382Y-81714047D01*
X109289184Y-81745562D01*
X109416738Y-81873116D01*
X109507080Y-81929882D01*
X109513804Y-81934107D01*
X109569478Y-81969089D01*
X109708072Y-82017585D01*
X109739745Y-82028668D01*
X109739750Y-82028669D01*
X109826814Y-82038478D01*
X109891228Y-82065544D01*
X109900599Y-82074002D01*
X111015930Y-83188966D01*
X111015929Y-83188966D01*
X111015944Y-83188980D01*
X111075284Y-83248320D01*
X111075286Y-83248321D01*
X111075362Y-83248379D01*
X111075363Y-83248380D01*
X111143466Y-83287684D01*
X111143480Y-83287698D01*
X111143483Y-83287694D01*
X111212219Y-83327379D01*
X111212304Y-83327414D01*
X111212306Y-83327414D01*
X111212307Y-83327415D01*
X111289670Y-83348130D01*
X111289687Y-83348141D01*
X111289689Y-83348136D01*
X111306545Y-83352652D01*
X111364943Y-83368300D01*
X111364954Y-83368300D01*
X111365030Y-83368310D01*
X111365041Y-83368313D01*
X111444099Y-83368300D01*
X116252533Y-83368300D01*
X116252566Y-83368300D01*
X116332808Y-83368333D01*
X116332815Y-83368330D01*
X116332972Y-83368311D01*
X116332988Y-83368309D01*
X116333054Y-83368300D01*
X116333057Y-83368300D01*
X116390050Y-83353028D01*
X116409049Y-83347938D01*
X116409051Y-83347946D01*
X116409092Y-83347926D01*
X116485552Y-83327473D01*
X116485555Y-83327470D01*
X116485559Y-83327470D01*
X116485779Y-83327379D01*
X116485781Y-83327377D01*
X116485784Y-83327377D01*
X116527346Y-83303380D01*
X116554409Y-83287756D01*
X116554409Y-83287757D01*
X116554434Y-83287740D01*
X116622516Y-83248473D01*
X116622522Y-83248466D01*
X116622712Y-83248322D01*
X116622711Y-83248322D01*
X116622716Y-83248320D01*
X116633198Y-83237837D01*
X116694520Y-83204353D01*
X116706975Y-83202301D01*
X116794255Y-83192468D01*
X116964522Y-83132889D01*
X117117262Y-83036916D01*
X117117267Y-83036910D01*
X117120097Y-83034655D01*
X117122275Y-83033765D01*
X117123158Y-83033211D01*
X117123255Y-83033365D01*
X117184783Y-83008245D01*
X117197412Y-83007600D01*
X122347748Y-83007600D01*
X122413720Y-83026606D01*
X122446476Y-83047188D01*
X122446478Y-83047189D01*
X122467595Y-83054578D01*
X122616745Y-83106768D01*
X122616750Y-83106769D01*
X122795996Y-83126965D01*
X122796000Y-83126965D01*
X122796004Y-83126965D01*
X122975249Y-83106769D01*
X122975252Y-83106768D01*
X122975255Y-83106768D01*
X123145522Y-83047189D01*
X123298262Y-82951216D01*
X123425816Y-82823662D01*
X123521789Y-82670922D01*
X123581368Y-82500655D01*
X123588490Y-82437445D01*
X123601565Y-82321403D01*
X123601565Y-82321396D01*
X123581369Y-82142150D01*
X123581368Y-82142145D01*
X123541661Y-82028669D01*
X123521789Y-81971878D01*
X123425816Y-81819138D01*
X123298262Y-81691584D01*
X123275244Y-81677121D01*
X123145523Y-81595611D01*
X122975254Y-81536031D01*
X122975249Y-81536030D01*
X122796004Y-81515835D01*
X122795996Y-81515835D01*
X122616750Y-81536030D01*
X122616745Y-81536031D01*
X122446476Y-81595611D01*
X122293737Y-81691584D01*
X122215041Y-81770281D01*
X122153718Y-81803766D01*
X122127360Y-81806600D01*
X117197412Y-81806600D01*
X117130373Y-81786915D01*
X117120097Y-81779545D01*
X117117263Y-81777285D01*
X117117262Y-81777284D01*
X117016621Y-81714047D01*
X116964521Y-81681310D01*
X116900924Y-81659057D01*
X116844148Y-81618335D01*
X116818400Y-81553383D01*
X116831856Y-81484821D01*
X116854198Y-81454332D01*
X121722085Y-76586808D01*
X121783408Y-76553328D01*
X121853100Y-76558315D01*
X121909032Y-76600188D01*
X121932982Y-76660611D01*
X121950630Y-76817250D01*
X121950631Y-76817254D01*
X122010211Y-76987523D01*
X122070515Y-77083496D01*
X122089327Y-77113435D01*
X122106185Y-77140263D01*
X122108445Y-77143097D01*
X122109334Y-77145275D01*
X122109889Y-77146158D01*
X122109734Y-77146255D01*
X122134855Y-77207783D01*
X122135500Y-77220412D01*
X122135500Y-78161234D01*
X122135499Y-78161252D01*
X122135499Y-78326961D01*
X122135500Y-78326964D01*
X122152467Y-78390281D01*
X122152467Y-78390283D01*
X122152468Y-78390283D01*
X122176423Y-78479685D01*
X122176464Y-78479808D01*
X122177356Y-78481301D01*
X122185553Y-78495498D01*
X122185554Y-78495500D01*
X122255477Y-78616612D01*
X122255481Y-78616617D01*
X122377487Y-78738623D01*
X122377495Y-78738629D01*
X123923100Y-80284215D01*
X130054375Y-86415417D01*
X130068299Y-86429340D01*
X130101784Y-86490663D01*
X130103838Y-86503138D01*
X130113630Y-86590049D01*
X130173210Y-86760321D01*
X130236563Y-86861146D01*
X130269184Y-86913062D01*
X130396738Y-87040616D01*
X130460719Y-87080818D01*
X130536814Y-87128632D01*
X130549478Y-87136589D01*
X130657767Y-87174481D01*
X130719745Y-87196168D01*
X130719750Y-87196169D01*
X130898996Y-87216365D01*
X130899000Y-87216365D01*
X130899004Y-87216365D01*
X131078249Y-87196169D01*
X131078252Y-87196168D01*
X131078255Y-87196168D01*
X131248522Y-87136589D01*
X131401262Y-87040616D01*
X131528816Y-86913062D01*
X131624789Y-86760322D01*
X131684368Y-86590055D01*
X131685258Y-86582159D01*
X131704565Y-86410803D01*
X131704565Y-86410796D01*
X131684369Y-86231550D01*
X131684368Y-86231545D01*
X131667485Y-86183297D01*
X131624789Y-86061278D01*
X131613246Y-86042908D01*
X131561494Y-85960545D01*
X131528816Y-85908538D01*
X131401262Y-85780984D01*
X131319966Y-85729902D01*
X131248521Y-85685010D01*
X131078249Y-85625430D01*
X130991325Y-85615636D01*
X130926912Y-85588569D01*
X130917529Y-85580098D01*
X123372819Y-78035480D01*
X123339334Y-77974157D01*
X123336500Y-77947798D01*
X123336500Y-77220412D01*
X123356185Y-77153373D01*
X123363555Y-77143097D01*
X123365810Y-77140267D01*
X123365816Y-77140262D01*
X123461789Y-76987522D01*
X123521368Y-76817255D01*
X123521369Y-76817249D01*
X123541565Y-76638003D01*
X123541565Y-76637996D01*
X123521369Y-76458750D01*
X123521368Y-76458745D01*
X123502346Y-76404384D01*
X123461789Y-76288478D01*
X123444085Y-76260303D01*
X123394965Y-76182128D01*
X123365816Y-76135738D01*
X123238262Y-76008184D01*
X123205605Y-75987664D01*
X123085523Y-75912211D01*
X122915254Y-75852631D01*
X122915250Y-75852630D01*
X122758676Y-75834989D01*
X122694262Y-75807922D01*
X122654707Y-75750327D01*
X122652570Y-75680490D01*
X122684880Y-75624086D01*
X123203423Y-75105581D01*
X123264746Y-75072101D01*
X123327883Y-75075969D01*
X123327963Y-75075620D01*
X123330085Y-75076104D01*
X123332049Y-75076224D01*
X123334745Y-75077168D01*
X123334749Y-75077168D01*
X123334751Y-75077169D01*
X123513996Y-75097365D01*
X123514000Y-75097365D01*
X123514004Y-75097365D01*
X123693249Y-75077169D01*
X123693252Y-75077168D01*
X123693255Y-75077168D01*
X123863522Y-75017589D01*
X124016262Y-74921616D01*
X124016267Y-74921610D01*
X124019097Y-74919355D01*
X124021275Y-74918465D01*
X124022158Y-74917911D01*
X124022255Y-74918065D01*
X124083783Y-74892945D01*
X124096412Y-74892300D01*
X141345677Y-74892300D01*
X141365821Y-74894951D01*
X141365889Y-74894439D01*
X141373940Y-74895499D01*
X141373943Y-74895500D01*
X141398144Y-74895500D01*
X141416815Y-74896913D01*
X141440740Y-74900558D01*
X141475922Y-74896648D01*
X141479441Y-74896258D01*
X141493133Y-74895500D01*
X141514680Y-74895500D01*
X141514724Y-74895502D01*
X141522960Y-74895501D01*
X141522965Y-74895503D01*
X141617833Y-74895500D01*
X141681057Y-74895500D01*
X141681073Y-74895500D01*
X141681107Y-74895495D01*
X141681642Y-74895347D01*
X141762924Y-74873563D01*
X141828957Y-74855870D01*
X141833936Y-74854753D01*
X141833967Y-74854739D01*
X141838420Y-74851903D01*
X141897351Y-74817876D01*
X141967581Y-74777329D01*
X141970773Y-74775612D01*
X141970786Y-74775602D01*
X141973231Y-74773007D01*
X142025100Y-74721135D01*
X142082520Y-74663716D01*
X142082521Y-74663713D01*
X142089569Y-74656666D01*
X142089593Y-74656637D01*
X143084060Y-73662097D01*
X152583023Y-73662097D01*
X152583023Y-73662102D01*
X152588300Y-73722420D01*
X152601147Y-73869269D01*
X152602093Y-73880075D01*
X152602093Y-73880079D01*
X152658722Y-74091422D01*
X152658724Y-74091426D01*
X152658725Y-74091430D01*
X152659454Y-74092993D01*
X152751197Y-74289738D01*
X152751198Y-74289739D01*
X152876702Y-74468977D01*
X153031423Y-74623698D01*
X153210661Y-74749202D01*
X153408970Y-74841675D01*
X153620323Y-74898307D01*
X153797551Y-74913812D01*
X153838298Y-74917377D01*
X153838300Y-74917377D01*
X153838302Y-74917377D01*
X153866554Y-74914905D01*
X154056277Y-74898307D01*
X154267630Y-74841675D01*
X154465939Y-74749202D01*
X154645177Y-74623698D01*
X154799898Y-74468977D01*
X154925402Y-74289739D01*
X155017875Y-74091430D01*
X155074507Y-73880077D01*
X155093577Y-73662100D01*
X155074507Y-73444123D01*
X155033558Y-73291299D01*
X155017877Y-73232777D01*
X155017876Y-73232776D01*
X155017875Y-73232770D01*
X154925402Y-73034462D01*
X154925400Y-73034459D01*
X154925399Y-73034457D01*
X154799899Y-72855224D01*
X154731072Y-72786397D01*
X154645177Y-72700502D01*
X154465939Y-72574998D01*
X154465940Y-72574998D01*
X154465938Y-72574997D01*
X154366784Y-72528761D01*
X154267630Y-72482525D01*
X154267626Y-72482524D01*
X154267622Y-72482522D01*
X154056277Y-72425893D01*
X153838302Y-72406823D01*
X153838298Y-72406823D01*
X153692982Y-72419536D01*
X153620323Y-72425893D01*
X153620320Y-72425893D01*
X153408977Y-72482522D01*
X153408968Y-72482526D01*
X153210661Y-72574998D01*
X153210657Y-72575000D01*
X153031421Y-72700502D01*
X152876702Y-72855221D01*
X152751200Y-73034457D01*
X152751198Y-73034461D01*
X152658726Y-73232768D01*
X152658722Y-73232777D01*
X152602093Y-73444120D01*
X152602093Y-73444124D01*
X152583023Y-73662097D01*
X143084060Y-73662097D01*
X145421132Y-71324854D01*
X145902429Y-70843522D01*
X145963750Y-70810035D01*
X145990113Y-70807200D01*
X149425304Y-70807200D01*
X149425332Y-70807201D01*
X149433953Y-70807200D01*
X149433957Y-70807202D01*
X149539367Y-70807200D01*
X149592057Y-70807200D01*
X149592252Y-70807200D01*
X149592632Y-70807143D01*
X149595565Y-70806262D01*
X149679604Y-70783741D01*
X149737630Y-70768194D01*
X149741923Y-70767315D01*
X149745141Y-70766329D01*
X149745662Y-70766056D01*
X149749961Y-70763290D01*
X149773555Y-70749667D01*
X149800858Y-70733903D01*
X149874059Y-70691640D01*
X149877652Y-70689896D01*
X149878608Y-70689266D01*
X149881884Y-70687242D01*
X149884625Y-70684313D01*
X149925552Y-70643384D01*
X149925554Y-70643382D01*
X149953618Y-70615318D01*
X149993520Y-70575416D01*
X149993520Y-70575414D01*
X150001574Y-70567361D01*
X150001593Y-70567337D01*
X152530781Y-68038024D01*
X152592101Y-68004539D01*
X152661793Y-68009522D01*
X152717727Y-68051392D01*
X152742146Y-68116856D01*
X152730844Y-68178109D01*
X152658727Y-68332763D01*
X152658722Y-68332777D01*
X152602093Y-68544120D01*
X152602093Y-68544123D01*
X152600399Y-68563490D01*
X152583023Y-68762097D01*
X152583023Y-68762102D01*
X152588704Y-68827037D01*
X152598711Y-68941425D01*
X152602093Y-68980075D01*
X152602093Y-68980079D01*
X152658722Y-69191422D01*
X152658724Y-69191426D01*
X152658725Y-69191430D01*
X152681717Y-69240737D01*
X152751197Y-69389738D01*
X152751198Y-69389739D01*
X152876702Y-69568977D01*
X153031423Y-69723698D01*
X153210661Y-69849202D01*
X153408970Y-69941675D01*
X153620323Y-69998307D01*
X153803226Y-70014308D01*
X153838298Y-70017377D01*
X153838300Y-70017377D01*
X153838302Y-70017377D01*
X153872408Y-70014393D01*
X154056277Y-69998307D01*
X154267630Y-69941675D01*
X154465939Y-69849202D01*
X154645177Y-69723698D01*
X154799898Y-69568977D01*
X154925402Y-69389739D01*
X155017875Y-69191430D01*
X155074507Y-68980077D01*
X155093577Y-68762100D01*
X155092484Y-68749611D01*
X155089042Y-68710264D01*
X155074507Y-68544123D01*
X155019273Y-68337987D01*
X155017877Y-68332777D01*
X155017876Y-68332776D01*
X155017875Y-68332770D01*
X154925402Y-68134462D01*
X154925400Y-68134459D01*
X154925399Y-68134457D01*
X154799899Y-67955224D01*
X154722874Y-67878199D01*
X154645177Y-67800502D01*
X154484221Y-67687799D01*
X154465938Y-67674997D01*
X154332793Y-67612911D01*
X154267630Y-67582525D01*
X154267626Y-67582524D01*
X154267622Y-67582522D01*
X154056277Y-67525893D01*
X153838302Y-67506823D01*
X153838298Y-67506823D01*
X153701147Y-67518822D01*
X153620323Y-67525893D01*
X153620320Y-67525893D01*
X153408977Y-67582522D01*
X153408963Y-67582527D01*
X153254255Y-67654669D01*
X153185178Y-67665161D01*
X153121394Y-67636641D01*
X153083155Y-67578164D01*
X153082601Y-67508297D01*
X153114166Y-67454611D01*
X153774424Y-66794321D01*
X153835746Y-66760834D01*
X153862107Y-66758000D01*
X160630860Y-66758000D01*
X160697899Y-66777685D01*
X160718541Y-66794319D01*
X160733738Y-66809516D01*
X160812146Y-66858783D01*
X160885037Y-66904584D01*
X160886478Y-66905489D01*
X161014652Y-66950339D01*
X161056745Y-66965068D01*
X161056750Y-66965069D01*
X161162251Y-66976956D01*
X161226665Y-67004022D01*
X161266220Y-67061617D01*
X161268358Y-67131454D01*
X161255752Y-67162182D01*
X161225427Y-67214698D01*
X161214356Y-67256016D01*
X161206440Y-67285560D01*
X161184911Y-67365889D01*
X161184500Y-67367421D01*
X161184500Y-67367443D01*
X161184500Y-67435853D01*
X161184496Y-67518822D01*
X161184495Y-67533890D01*
X161184500Y-67533963D01*
X161184500Y-68622808D01*
X161164815Y-68689847D01*
X161148183Y-68710488D01*
X156373984Y-73484866D01*
X150834473Y-79024584D01*
X150825577Y-79033480D01*
X150764254Y-79066966D01*
X150737894Y-79069800D01*
X148229326Y-79069800D01*
X148229281Y-79069797D01*
X148221040Y-79069797D01*
X148102454Y-79069800D01*
X148062943Y-79069800D01*
X148062939Y-79069800D01*
X148062926Y-79069801D01*
X148062922Y-79069801D01*
X148062921Y-79069802D01*
X147972435Y-79094051D01*
X147972432Y-79094052D01*
X147910207Y-79110725D01*
X147885925Y-79124745D01*
X147849114Y-79146000D01*
X147838483Y-79152138D01*
X147773283Y-79189780D01*
X147773274Y-79189787D01*
X147748092Y-79214972D01*
X147743691Y-79219373D01*
X147709749Y-79253315D01*
X147655387Y-79307676D01*
X147655358Y-79307709D01*
X146202574Y-80760579D01*
X146141252Y-80794065D01*
X146114890Y-80796900D01*
X144740412Y-80796900D01*
X144673373Y-80777215D01*
X144663097Y-80769845D01*
X144660263Y-80767585D01*
X144660262Y-80767584D01*
X144551140Y-80699018D01*
X144507523Y-80671611D01*
X144337254Y-80612031D01*
X144337249Y-80612030D01*
X144158004Y-80591835D01*
X144157996Y-80591835D01*
X143978750Y-80612030D01*
X143978745Y-80612031D01*
X143808476Y-80671611D01*
X143655737Y-80767584D01*
X143528184Y-80895137D01*
X143432211Y-81047876D01*
X143372631Y-81218145D01*
X143372630Y-81218150D01*
X143352435Y-81397396D01*
X143352435Y-81397403D01*
X143372630Y-81576649D01*
X143372631Y-81576654D01*
X143432211Y-81746923D01*
X143485249Y-81831332D01*
X143528184Y-81899662D01*
X143655738Y-82027216D01*
X143808478Y-82123189D01*
X143878238Y-82147599D01*
X143978745Y-82182768D01*
X143978750Y-82182769D01*
X144157996Y-82202965D01*
X144158000Y-82202965D01*
X144158004Y-82202965D01*
X144337249Y-82182769D01*
X144337252Y-82182768D01*
X144337255Y-82182768D01*
X144507522Y-82123189D01*
X144660262Y-82027216D01*
X144660267Y-82027210D01*
X144663097Y-82024955D01*
X144665275Y-82024065D01*
X144666158Y-82023511D01*
X144666255Y-82023665D01*
X144727783Y-81998545D01*
X144740412Y-81997900D01*
X145573867Y-81997900D01*
X145640906Y-82017585D01*
X145686661Y-82070389D01*
X145696605Y-82139547D01*
X145667580Y-82203103D01*
X145661556Y-82209571D01*
X145103705Y-82767292D01*
X145042380Y-82800769D01*
X145016036Y-82803600D01*
X142654412Y-82803600D01*
X142587373Y-82783915D01*
X142577097Y-82776545D01*
X142574263Y-82774285D01*
X142574262Y-82774284D01*
X142503563Y-82729861D01*
X142421523Y-82678311D01*
X142251254Y-82618731D01*
X142251249Y-82618730D01*
X142072004Y-82598535D01*
X142071996Y-82598535D01*
X141892750Y-82618730D01*
X141892745Y-82618731D01*
X141722476Y-82678311D01*
X141569737Y-82774284D01*
X141442184Y-82901837D01*
X141346211Y-83054576D01*
X141286631Y-83224845D01*
X141286630Y-83224850D01*
X141266435Y-83404096D01*
X141266435Y-83404103D01*
X141286630Y-83583349D01*
X141286631Y-83583354D01*
X141346211Y-83753623D01*
X141428525Y-83884624D01*
X141442184Y-83906362D01*
X141569738Y-84033916D01*
X141722478Y-84129889D01*
X141861403Y-84178501D01*
X141892745Y-84189468D01*
X141892750Y-84189469D01*
X142071996Y-84209665D01*
X142072000Y-84209665D01*
X142072004Y-84209665D01*
X142251249Y-84189469D01*
X142251252Y-84189468D01*
X142251255Y-84189468D01*
X142421522Y-84129889D01*
X142574262Y-84033916D01*
X142574267Y-84033910D01*
X142577097Y-84031655D01*
X142579275Y-84030765D01*
X142580158Y-84030211D01*
X142580255Y-84030365D01*
X142641783Y-84005245D01*
X142654412Y-84004600D01*
X145465055Y-84004600D01*
X145465057Y-84004600D01*
X145617784Y-83963677D01*
X145754716Y-83884620D01*
X145866520Y-83772816D01*
X145945577Y-83635884D01*
X145945577Y-83635882D01*
X145949641Y-83628844D01*
X145950530Y-83629357D01*
X145971503Y-83597967D01*
X148279334Y-81290675D01*
X148340660Y-81257198D01*
X148410351Y-81262190D01*
X148466280Y-81304068D01*
X148473310Y-81315648D01*
X148473506Y-81315526D01*
X148540757Y-81422555D01*
X148573184Y-81474162D01*
X148700738Y-81601716D01*
X148791080Y-81658482D01*
X148827412Y-81681311D01*
X148853478Y-81697689D01*
X148990291Y-81745562D01*
X149023745Y-81757268D01*
X149023750Y-81757269D01*
X149202996Y-81777465D01*
X149203000Y-81777465D01*
X149203004Y-81777465D01*
X149382249Y-81757269D01*
X149382252Y-81757268D01*
X149382255Y-81757268D01*
X149552522Y-81697689D01*
X149705262Y-81601716D01*
X149705267Y-81601710D01*
X149708097Y-81599455D01*
X149710275Y-81598565D01*
X149711158Y-81598011D01*
X149711255Y-81598165D01*
X149772783Y-81573045D01*
X149785412Y-81572400D01*
X150086008Y-81572400D01*
X150153047Y-81592085D01*
X150198802Y-81644889D01*
X150208746Y-81714047D01*
X150179721Y-81777603D01*
X150173692Y-81784078D01*
X149940184Y-82017585D01*
X149590585Y-82367182D01*
X149529262Y-82400666D01*
X149502904Y-82403500D01*
X149461412Y-82403500D01*
X149394373Y-82383815D01*
X149384097Y-82376445D01*
X149381263Y-82374185D01*
X149381262Y-82374184D01*
X149297257Y-82321400D01*
X149228523Y-82278211D01*
X149058254Y-82218631D01*
X149058249Y-82218630D01*
X148879004Y-82198435D01*
X148878996Y-82198435D01*
X148699750Y-82218630D01*
X148699745Y-82218631D01*
X148529476Y-82278211D01*
X148376737Y-82374184D01*
X148249184Y-82501737D01*
X148153211Y-82654476D01*
X148093631Y-82824745D01*
X148093630Y-82824750D01*
X148073435Y-83003996D01*
X148073435Y-83004003D01*
X148093630Y-83183249D01*
X148093631Y-83183254D01*
X148153211Y-83353523D01*
X148238925Y-83489935D01*
X148249184Y-83506262D01*
X148376738Y-83633816D01*
X148468371Y-83691393D01*
X148529478Y-83729789D01*
X148541086Y-83733851D01*
X148597862Y-83774572D01*
X148623610Y-83839525D01*
X148610154Y-83908087D01*
X148587846Y-83938540D01*
X148483305Y-84043159D01*
X148091807Y-84434139D01*
X148030462Y-84467584D01*
X148004184Y-84470400D01*
X143006145Y-84470400D01*
X143005808Y-84470378D01*
X142916826Y-84470400D01*
X142839893Y-84470400D01*
X142839842Y-84470406D01*
X142762745Y-84491084D01*
X142762719Y-84491091D01*
X142687199Y-84511327D01*
X142687092Y-84511371D01*
X142621205Y-84549432D01*
X142619775Y-84550259D01*
X142583773Y-84571045D01*
X142550258Y-84590395D01*
X142550187Y-84590450D01*
X142497021Y-84643641D01*
X142497002Y-84643661D01*
X142433195Y-84707468D01*
X142432971Y-84707722D01*
X141675262Y-85465802D01*
X141613947Y-85499302D01*
X141601444Y-85501362D01*
X141514750Y-85511130D01*
X141344478Y-85570710D01*
X141191737Y-85666684D01*
X141064184Y-85794237D01*
X140968211Y-85946976D01*
X140908631Y-86117245D01*
X140908630Y-86117250D01*
X140888435Y-86296496D01*
X140888435Y-86296503D01*
X140908630Y-86475749D01*
X140908631Y-86475754D01*
X140968211Y-86646023D01*
X141040031Y-86760323D01*
X141064184Y-86798762D01*
X141191738Y-86926316D01*
X141241542Y-86957610D01*
X141344477Y-87022289D01*
X141345984Y-87022816D01*
X141346830Y-87023422D01*
X141350753Y-87025312D01*
X141350422Y-87025998D01*
X141402764Y-87063532D01*
X141428517Y-87128483D01*
X141415067Y-87197046D01*
X141392721Y-87227542D01*
X140941284Y-87678981D01*
X140879961Y-87712466D01*
X140853603Y-87715300D01*
X130173212Y-87715300D01*
X130106173Y-87695615D01*
X130095897Y-87688245D01*
X130093063Y-87685985D01*
X130093062Y-87685984D01*
X129993849Y-87623644D01*
X129940323Y-87590011D01*
X129770054Y-87530431D01*
X129770049Y-87530430D01*
X129590804Y-87510235D01*
X129590796Y-87510235D01*
X129411550Y-87530430D01*
X129411545Y-87530431D01*
X129241276Y-87590011D01*
X129088537Y-87685984D01*
X128960984Y-87813537D01*
X128865010Y-87966278D01*
X128843558Y-88027587D01*
X128821565Y-88090441D01*
X128818478Y-88099262D01*
X128777756Y-88156038D01*
X128712804Y-88181786D01*
X128687553Y-88181528D01*
X128666331Y-88179137D01*
X128601917Y-88152071D01*
X128592533Y-88143598D01*
X125632590Y-85183655D01*
X125632588Y-85183652D01*
X125513717Y-85064781D01*
X125513709Y-85064775D01*
X125398483Y-84998250D01*
X125398482Y-84998249D01*
X125383231Y-84989444D01*
X125376785Y-84985723D01*
X125224057Y-84944799D01*
X125065943Y-84944799D01*
X125058347Y-84944799D01*
X125058331Y-84944800D01*
X113954153Y-84944800D01*
X113954091Y-84944796D01*
X113948779Y-84944796D01*
X113947290Y-84944358D01*
X113938285Y-84943780D01*
X113938254Y-84943776D01*
X113938511Y-84941781D01*
X113881740Y-84925111D01*
X113835985Y-84872307D01*
X113826041Y-84803149D01*
X113831738Y-84779841D01*
X113891566Y-84608862D01*
X113891566Y-84608858D01*
X113891568Y-84608855D01*
X113892395Y-84601516D01*
X113911765Y-84429603D01*
X113911765Y-84429596D01*
X113891569Y-84250350D01*
X113891568Y-84250345D01*
X113877333Y-84209665D01*
X113831989Y-84080078D01*
X113802983Y-84033916D01*
X113758849Y-83963677D01*
X113736016Y-83927338D01*
X113608462Y-83799784D01*
X113591885Y-83789368D01*
X113455723Y-83703811D01*
X113285454Y-83644231D01*
X113285449Y-83644230D01*
X113106204Y-83624035D01*
X113106196Y-83624035D01*
X112926950Y-83644230D01*
X112926945Y-83644231D01*
X112756676Y-83703811D01*
X112603937Y-83799784D01*
X112476384Y-83927337D01*
X112380411Y-84080076D01*
X112320831Y-84250345D01*
X112320830Y-84250350D01*
X112300635Y-84429596D01*
X112300635Y-84429603D01*
X112320830Y-84608849D01*
X112320833Y-84608862D01*
X112380409Y-84779118D01*
X112380410Y-84779122D01*
X112400125Y-84810497D01*
X112419125Y-84877734D01*
X112398757Y-84944569D01*
X112382812Y-84964150D01*
X110344465Y-87002498D01*
X110283142Y-87035983D01*
X110270668Y-87038037D01*
X110183750Y-87047830D01*
X110013478Y-87107410D01*
X109860737Y-87203384D01*
X109733184Y-87330937D01*
X109637211Y-87483676D01*
X109577631Y-87653945D01*
X109577630Y-87653950D01*
X109557435Y-87833196D01*
X109557435Y-87833203D01*
X109577630Y-88012449D01*
X109577631Y-88012454D01*
X109637211Y-88182723D01*
X109720831Y-88315802D01*
X109733184Y-88335462D01*
X109860738Y-88463016D01*
X109899865Y-88487601D01*
X110010821Y-88557320D01*
X110013478Y-88558989D01*
X110159248Y-88609996D01*
X110183745Y-88618568D01*
X110183750Y-88618569D01*
X110362996Y-88638765D01*
X110363000Y-88638765D01*
X110363004Y-88638765D01*
X110542249Y-88618569D01*
X110542252Y-88618568D01*
X110542255Y-88618568D01*
X110712522Y-88558989D01*
X110865262Y-88463016D01*
X110992816Y-88335462D01*
X111088789Y-88182722D01*
X111148368Y-88012455D01*
X111158161Y-87925529D01*
X111185226Y-87861118D01*
X111193690Y-87851743D01*
X111725820Y-87319614D01*
X111787142Y-87286130D01*
X111856834Y-87291114D01*
X111912767Y-87332986D01*
X111937184Y-87398450D01*
X111937500Y-87407296D01*
X111937500Y-88101302D01*
X111917815Y-88168341D01*
X111901181Y-88188983D01*
X106373392Y-93716771D01*
X106312069Y-93750256D01*
X106242377Y-93745272D01*
X106186444Y-93703400D01*
X106180717Y-93695062D01*
X106175955Y-93687484D01*
X106166816Y-93672938D01*
X106039262Y-93545384D01*
X106029681Y-93539364D01*
X105886523Y-93449411D01*
X105716254Y-93389831D01*
X105716249Y-93389830D01*
X105600080Y-93376742D01*
X105535666Y-93349676D01*
X105526277Y-93341198D01*
X105515491Y-93330411D01*
X102511814Y-90326402D01*
X102478332Y-90265077D01*
X102475500Y-90238726D01*
X102475500Y-90211940D01*
X102495185Y-90144901D01*
X102547989Y-90099146D01*
X102617147Y-90089202D01*
X102680703Y-90118227D01*
X102687181Y-90124259D01*
X102802738Y-90239816D01*
X102851463Y-90270432D01*
X102940538Y-90326402D01*
X102955478Y-90335789D01*
X103055960Y-90370949D01*
X103125745Y-90395368D01*
X103125750Y-90395369D01*
X103304996Y-90415565D01*
X103305000Y-90415565D01*
X103305004Y-90415565D01*
X103484249Y-90395369D01*
X103484252Y-90395368D01*
X103484255Y-90395368D01*
X103654522Y-90335789D01*
X103807262Y-90239816D01*
X103934816Y-90112262D01*
X104030789Y-89959522D01*
X104090368Y-89789255D01*
X104090681Y-89786481D01*
X104110565Y-89610003D01*
X104110565Y-89609996D01*
X104090369Y-89430750D01*
X104090368Y-89430745D01*
X104067042Y-89364083D01*
X104030789Y-89260478D01*
X103934816Y-89107738D01*
X103934814Y-89107736D01*
X103934813Y-89107734D01*
X103932550Y-89104896D01*
X103931659Y-89102715D01*
X103931111Y-89101842D01*
X103931264Y-89101745D01*
X103906144Y-89040209D01*
X103905500Y-89027587D01*
X103905500Y-83872099D01*
X103925185Y-83805060D01*
X103977989Y-83759305D01*
X104029500Y-83748099D01*
X105394871Y-83748099D01*
X105394872Y-83748099D01*
X105454483Y-83741691D01*
X105589331Y-83691396D01*
X105704546Y-83605146D01*
X105790796Y-83489931D01*
X105840002Y-83358001D01*
X105881872Y-83302068D01*
X105947337Y-83277650D01*
X106015610Y-83292501D01*
X106043865Y-83313653D01*
X106165917Y-83435705D01*
X106359421Y-83571200D01*
X106573507Y-83671029D01*
X106573516Y-83671033D01*
X106787000Y-83728234D01*
X106787000Y-82830612D01*
X106844007Y-82863525D01*
X106971174Y-82897600D01*
X107102826Y-82897600D01*
X107229993Y-82863525D01*
X107287000Y-82830612D01*
X107287000Y-83728233D01*
X107500483Y-83671033D01*
X107500492Y-83671029D01*
X107714578Y-83571200D01*
X107908082Y-83435705D01*
X108075105Y-83268682D01*
X108210600Y-83075178D01*
X108310429Y-82861092D01*
X108310432Y-82861086D01*
X108367636Y-82647600D01*
X107470012Y-82647600D01*
X107502925Y-82590593D01*
X107537000Y-82463426D01*
X107537000Y-82331774D01*
X107502925Y-82204607D01*
X107470012Y-82147600D01*
X108367636Y-82147600D01*
X108367635Y-82147599D01*
X108310432Y-81934113D01*
X108310429Y-81934107D01*
X108210600Y-81720022D01*
X108210599Y-81720020D01*
X108075113Y-81526526D01*
X108075108Y-81526520D01*
X107908082Y-81359494D01*
X107714578Y-81223999D01*
X107505235Y-81126381D01*
X107452796Y-81080209D01*
X107433644Y-81013015D01*
X107453860Y-80946134D01*
X107505235Y-80901617D01*
X107717578Y-80802599D01*
X107911082Y-80667105D01*
X108078105Y-80500082D01*
X108213600Y-80306578D01*
X108313429Y-80092492D01*
X108313432Y-80092486D01*
X108370636Y-79879000D01*
X107473012Y-79879000D01*
X107505925Y-79821993D01*
X107540000Y-79694826D01*
X107540000Y-79563174D01*
X107505925Y-79436007D01*
X107473012Y-79379000D01*
X108370636Y-79379000D01*
X108370635Y-79378999D01*
X108313432Y-79165513D01*
X108313429Y-79165507D01*
X108213600Y-78951422D01*
X108213599Y-78951420D01*
X108078113Y-78757926D01*
X108078108Y-78757920D01*
X107911082Y-78590894D01*
X107718542Y-78456075D01*
X107674917Y-78401498D01*
X107667725Y-78331999D01*
X107699247Y-78269645D01*
X107718542Y-78252925D01*
X107911082Y-78118105D01*
X108078105Y-77951082D01*
X108213600Y-77757578D01*
X108313429Y-77543492D01*
X108313432Y-77543486D01*
X108370636Y-77330000D01*
X107473012Y-77330000D01*
X107505925Y-77272993D01*
X107540000Y-77145826D01*
X107540000Y-77014174D01*
X107505925Y-76887007D01*
X107473012Y-76830000D01*
X108370636Y-76830000D01*
X108370635Y-76829999D01*
X108313432Y-76616513D01*
X108313429Y-76616507D01*
X108213600Y-76402422D01*
X108213599Y-76402420D01*
X108078113Y-76208926D01*
X108078108Y-76208920D01*
X107911082Y-76041894D01*
X107717578Y-75906400D01*
X107601736Y-75852382D01*
X107549297Y-75806210D01*
X107530145Y-75739016D01*
X107550361Y-75672135D01*
X107601736Y-75627618D01*
X107717578Y-75573599D01*
X107911082Y-75438105D01*
X108078105Y-75271082D01*
X108213600Y-75077578D01*
X108313429Y-74863492D01*
X108313432Y-74863486D01*
X108370636Y-74650000D01*
X107473012Y-74650000D01*
X107505925Y-74592993D01*
X107540000Y-74465826D01*
X107540000Y-74334174D01*
X107505925Y-74207007D01*
X107473012Y-74150000D01*
X108370636Y-74150000D01*
X108370635Y-74149999D01*
X108313432Y-73936513D01*
X108313429Y-73936507D01*
X108213600Y-73722422D01*
X108213599Y-73722420D01*
X108078113Y-73528926D01*
X108078108Y-73528920D01*
X107911082Y-73361894D01*
X107717578Y-73226399D01*
X107503492Y-73126570D01*
X107503486Y-73126567D01*
X107290000Y-73069364D01*
X107290000Y-73966988D01*
X107232993Y-73934075D01*
X107105826Y-73900000D01*
X106974174Y-73900000D01*
X106847007Y-73934075D01*
X106790000Y-73966988D01*
X106790000Y-73069364D01*
X106789999Y-73069364D01*
X106576513Y-73126567D01*
X106576507Y-73126570D01*
X106362422Y-73226399D01*
X106362420Y-73226400D01*
X106168926Y-73361886D01*
X106046865Y-73483947D01*
X105985542Y-73517431D01*
X105915850Y-73512447D01*
X105859917Y-73470575D01*
X105843002Y-73439598D01*
X105838805Y-73428346D01*
X105798853Y-73321228D01*
X105793797Y-73307671D01*
X105793793Y-73307664D01*
X105707547Y-73192455D01*
X105707544Y-73192452D01*
X105592335Y-73106206D01*
X105592328Y-73106202D01*
X105457482Y-73055908D01*
X105457483Y-73055908D01*
X105397883Y-73049501D01*
X105397881Y-73049500D01*
X105397873Y-73049500D01*
X105397865Y-73049500D01*
X105224500Y-73049500D01*
X105157461Y-73029815D01*
X105111706Y-72977011D01*
X105100500Y-72925500D01*
X105100500Y-72774145D01*
X105100499Y-72774141D01*
X105086818Y-72723080D01*
X105059577Y-72621415D01*
X105030639Y-72571295D01*
X104980520Y-72484484D01*
X104868716Y-72372680D01*
X104868715Y-72372679D01*
X104864385Y-72368349D01*
X104864374Y-72368339D01*
X100475646Y-67979611D01*
X100442161Y-67918288D01*
X100447145Y-67848596D01*
X100475644Y-67804251D01*
X100488495Y-67791401D01*
X100624035Y-67597830D01*
X100723903Y-67383663D01*
X100785063Y-67155408D01*
X100805659Y-66920000D01*
X100785063Y-66684592D01*
X100730572Y-66481225D01*
X100723905Y-66456344D01*
X100723904Y-66456343D01*
X100723903Y-66456337D01*
X100624035Y-66242171D01*
X100614609Y-66228708D01*
X100488494Y-66048597D01*
X100431732Y-65991835D01*
X100398247Y-65930512D01*
X100403231Y-65860820D01*
X100445103Y-65804887D01*
X100476082Y-65787971D01*
X100542088Y-65763353D01*
X100542093Y-65763350D01*
X100657187Y-65677190D01*
X100657190Y-65677187D01*
X100743350Y-65562093D01*
X100743354Y-65562086D01*
X100793596Y-65427379D01*
X100793598Y-65427372D01*
X100799999Y-65367844D01*
X100800000Y-65367827D01*
X100800000Y-64720000D01*
X99883012Y-64720000D01*
X99915925Y-64662993D01*
X99950000Y-64535826D01*
X99950000Y-64404174D01*
X99915925Y-64277007D01*
X99883012Y-64220000D01*
X100800000Y-64220000D01*
X100800000Y-63572172D01*
X100799999Y-63572155D01*
X100793598Y-63512627D01*
X100793596Y-63512620D01*
X100743354Y-63377913D01*
X100743350Y-63377906D01*
X100657190Y-63262812D01*
X100657187Y-63262809D01*
X100542093Y-63176649D01*
X100542088Y-63176646D01*
X100410528Y-63127577D01*
X100354595Y-63085705D01*
X100330178Y-63020241D01*
X100345030Y-62951968D01*
X100366175Y-62923720D01*
X100488495Y-62801401D01*
X100624035Y-62607830D01*
X100723903Y-62393663D01*
X100785063Y-62165408D01*
X100805659Y-61930000D01*
X100785063Y-61694592D01*
X100723903Y-61466337D01*
X100624035Y-61252171D01*
X100621750Y-61248908D01*
X100488496Y-61058600D01*
X100428222Y-60998326D01*
X100334315Y-60904419D01*
X100300832Y-60843098D01*
X100305816Y-60773407D01*
X100347687Y-60717473D01*
X100400172Y-60696822D01*
X100399832Y-60695380D01*
X100407379Y-60693596D01*
X100542086Y-60643354D01*
X100542093Y-60643350D01*
X100657187Y-60557190D01*
X100657190Y-60557187D01*
X100743350Y-60442093D01*
X100743354Y-60442086D01*
X100793596Y-60307379D01*
X100793598Y-60307372D01*
X100799999Y-60247844D01*
X100800000Y-60247827D01*
X100800000Y-59600000D01*
X99883012Y-59600000D01*
X99915925Y-59542993D01*
X99950000Y-59415826D01*
X99950000Y-59284174D01*
X99915925Y-59157007D01*
X99883012Y-59100000D01*
X100800000Y-59100000D01*
X100800000Y-58452172D01*
X100799999Y-58452155D01*
X100793598Y-58392627D01*
X100793596Y-58392620D01*
X100743354Y-58257913D01*
X100743350Y-58257906D01*
X100657190Y-58142812D01*
X100657187Y-58142809D01*
X100542093Y-58056649D01*
X100542088Y-58056646D01*
X100410528Y-58007577D01*
X100354595Y-57965705D01*
X100330178Y-57900241D01*
X100345030Y-57831968D01*
X100366175Y-57803720D01*
X100488495Y-57681401D01*
X100624035Y-57487830D01*
X100723903Y-57273663D01*
X100785063Y-57045408D01*
X100805659Y-56810000D01*
X100785063Y-56574592D01*
X100723903Y-56346337D01*
X100624035Y-56132171D01*
X100612237Y-56115322D01*
X100584440Y-56075623D01*
X100562113Y-56009417D01*
X100579123Y-55941650D01*
X100630071Y-55893837D01*
X100686015Y-55880500D01*
X103902096Y-55880500D01*
X103969135Y-55900185D01*
G37*
%TD.AperFunction*%
%TA.AperFunction,Conductor*%
G36*
X195014740Y-69739985D02*
G01*
X195060495Y-69792789D01*
X195071701Y-69844300D01*
X195071701Y-70067576D01*
X195078108Y-70127183D01*
X195128402Y-70262028D01*
X195128406Y-70262035D01*
X195214652Y-70377244D01*
X195214655Y-70377247D01*
X195329864Y-70463493D01*
X195329871Y-70463497D01*
X195464717Y-70513791D01*
X195464716Y-70513791D01*
X195471644Y-70514535D01*
X195524327Y-70520200D01*
X196947500Y-70520199D01*
X197014539Y-70539884D01*
X197060294Y-70592687D01*
X197071500Y-70644199D01*
X197071500Y-72493299D01*
X197051815Y-72560338D01*
X197035181Y-72580981D01*
X182187181Y-87428805D01*
X182125857Y-87462289D01*
X182056166Y-87457305D01*
X182000232Y-87415433D01*
X181975816Y-87349968D01*
X181975500Y-87341123D01*
X181975500Y-87146490D01*
X181995185Y-87079451D01*
X182011815Y-87058813D01*
X188968709Y-80102108D01*
X188968719Y-80102100D01*
X188975778Y-80095041D01*
X188975782Y-80095039D01*
X189055637Y-80015184D01*
X189108915Y-79961906D01*
X189110751Y-79960315D01*
X189113954Y-79956933D01*
X189115568Y-79955273D01*
X189117532Y-79952100D01*
X189128285Y-79936007D01*
X189183523Y-79853338D01*
X189220519Y-79797969D01*
X189222261Y-79795673D01*
X189223365Y-79793876D01*
X189224530Y-79792057D01*
X189224629Y-79791816D01*
X189224632Y-79791814D01*
X189226444Y-79787438D01*
X189229257Y-79780659D01*
X189229267Y-79780622D01*
X189267227Y-79688980D01*
X189296550Y-79618190D01*
X189297563Y-79616179D01*
X189299488Y-79611194D01*
X189300249Y-79609287D01*
X189300559Y-79607930D01*
X189301082Y-79604554D01*
X189316728Y-79525894D01*
X189316728Y-79525891D01*
X189338499Y-79416454D01*
X189338499Y-79416452D01*
X189338500Y-79416444D01*
X189338500Y-79325480D01*
X189338500Y-79301584D01*
X189338502Y-79219373D01*
X189338500Y-79219367D01*
X189338501Y-79213819D01*
X189338500Y-79213773D01*
X189338500Y-78827294D01*
X189358185Y-78760255D01*
X189374815Y-78739617D01*
X192426663Y-75687853D01*
X192426685Y-75687835D01*
X192432779Y-75681740D01*
X192432782Y-75681739D01*
X192548066Y-75566455D01*
X192568787Y-75545734D01*
X192571498Y-75543224D01*
X192571884Y-75542814D01*
X192573458Y-75540548D01*
X192575047Y-75538343D01*
X192576441Y-75535943D01*
X192644013Y-75434815D01*
X192678004Y-75383945D01*
X192679792Y-75381553D01*
X192680149Y-75380964D01*
X192681645Y-75378610D01*
X192682710Y-75376183D01*
X192683367Y-75374764D01*
X192684333Y-75371992D01*
X192718261Y-75290082D01*
X192721905Y-75281287D01*
X192753546Y-75204901D01*
X192754558Y-75202891D01*
X192756477Y-75197920D01*
X192757249Y-75195988D01*
X192757559Y-75194627D01*
X192758081Y-75191256D01*
X192774836Y-75107023D01*
X192795499Y-75003154D01*
X192795500Y-75003148D01*
X192795500Y-74841673D01*
X192795501Y-74806074D01*
X192795500Y-74806068D01*
X192795500Y-74450459D01*
X192795500Y-74450456D01*
X192757052Y-74257170D01*
X192757051Y-74257169D01*
X192757051Y-74257165D01*
X192709244Y-74141747D01*
X192681635Y-74075092D01*
X192681628Y-74075079D01*
X192572139Y-73911218D01*
X192572136Y-73911214D01*
X192432785Y-73771863D01*
X192432781Y-73771860D01*
X192268920Y-73662371D01*
X192268907Y-73662364D01*
X192086839Y-73586950D01*
X192086829Y-73586947D01*
X191893543Y-73548500D01*
X191893541Y-73548500D01*
X191696459Y-73548500D01*
X191696457Y-73548500D01*
X191503170Y-73586947D01*
X191503160Y-73586950D01*
X191321092Y-73662364D01*
X191321079Y-73662371D01*
X191157218Y-73771860D01*
X191157214Y-73771863D01*
X191017863Y-73911214D01*
X191017860Y-73911218D01*
X190908371Y-74075079D01*
X190908364Y-74075092D01*
X190832950Y-74257160D01*
X190832947Y-74257170D01*
X190793311Y-74456434D01*
X190792148Y-74456202D01*
X190768345Y-74515145D01*
X190758787Y-74525881D01*
X187426873Y-77857703D01*
X187426868Y-77857710D01*
X187317380Y-78021564D01*
X187317371Y-78021580D01*
X187241955Y-78203643D01*
X187241954Y-78203647D01*
X187203500Y-78396945D01*
X187203499Y-78495498D01*
X187203498Y-78594026D01*
X187211183Y-78632662D01*
X187241945Y-78787323D01*
X187241948Y-78787330D01*
X187272243Y-78860473D01*
X187279710Y-78929942D01*
X187248434Y-78992421D01*
X187245361Y-78995605D01*
X180339662Y-85901117D01*
X180339624Y-85901153D01*
X180284181Y-85956598D01*
X180284179Y-85956600D01*
X180197871Y-86042905D01*
X180197869Y-86042907D01*
X180197861Y-86042917D01*
X180197860Y-86042918D01*
X180197853Y-86042928D01*
X180148042Y-86117477D01*
X180088368Y-86206783D01*
X180053987Y-86289790D01*
X180053986Y-86289793D01*
X180012949Y-86388858D01*
X179997407Y-86466998D01*
X179997407Y-86467000D01*
X179974500Y-86582152D01*
X179974500Y-86623820D01*
X179974498Y-86785329D01*
X179974500Y-86785370D01*
X179974500Y-88090441D01*
X179974500Y-88090443D01*
X179974499Y-88090443D01*
X180012947Y-88283729D01*
X180012950Y-88283739D01*
X180088364Y-88465807D01*
X180088371Y-88465820D01*
X180197860Y-88629681D01*
X180197863Y-88629685D01*
X180205196Y-88637018D01*
X180234556Y-88683742D01*
X180249212Y-88725624D01*
X180345184Y-88878362D01*
X180392841Y-88926019D01*
X180426326Y-88987342D01*
X180421342Y-89057034D01*
X180379470Y-89112967D01*
X180314006Y-89137384D01*
X180305160Y-89137700D01*
X177796497Y-89137700D01*
X177729458Y-89118015D01*
X177683703Y-89065211D01*
X177673759Y-88996053D01*
X177702784Y-88932497D01*
X177708816Y-88926019D01*
X177851480Y-88783355D01*
X178291506Y-88343327D01*
X178291511Y-88343324D01*
X178301714Y-88333120D01*
X178301716Y-88333120D01*
X178413520Y-88221316D01*
X178492577Y-88084384D01*
X178528505Y-87950300D01*
X178533500Y-87931658D01*
X178533500Y-87773543D01*
X178533500Y-85999710D01*
X178553185Y-85932671D01*
X178569821Y-85912026D01*
X178573310Y-85908537D01*
X186793639Y-77688690D01*
X186793663Y-77688672D01*
X186801714Y-77680620D01*
X186801716Y-77680620D01*
X186868659Y-77613677D01*
X186910183Y-77572155D01*
X186913482Y-77569100D01*
X186913508Y-77569066D01*
X186915327Y-77565685D01*
X186953745Y-77499143D01*
X186989601Y-77437042D01*
X186992358Y-77432759D01*
X186992618Y-77432263D01*
X186993596Y-77428080D01*
X186999912Y-77404511D01*
X187012225Y-77358557D01*
X187033319Y-77279840D01*
X187033493Y-77279211D01*
X187033500Y-77279166D01*
X187033500Y-77200443D01*
X187033500Y-77197564D01*
X187033503Y-77121060D01*
X187033501Y-77121055D01*
X187033502Y-77113485D01*
X187033500Y-77113435D01*
X187033500Y-75001492D01*
X187053185Y-74934453D01*
X187069818Y-74913812D01*
X187102398Y-74881232D01*
X190658713Y-71324854D01*
X192226919Y-69756620D01*
X192288242Y-69723134D01*
X192314601Y-69720300D01*
X194947701Y-69720300D01*
X195014740Y-69739985D01*
G37*
%TD.AperFunction*%
%TA.AperFunction,Conductor*%
G36*
X170794393Y-86875606D02*
G01*
X170861430Y-86895297D01*
X170907180Y-86948105D01*
X170917117Y-87017265D01*
X170888086Y-87080818D01*
X170829304Y-87118586D01*
X170808265Y-87122826D01*
X170756750Y-87128630D01*
X170586478Y-87188210D01*
X170433737Y-87284184D01*
X170306184Y-87411737D01*
X170210211Y-87564476D01*
X170150631Y-87734745D01*
X170150630Y-87734750D01*
X170130435Y-87913996D01*
X170130435Y-87914003D01*
X170150630Y-88093249D01*
X170150631Y-88093254D01*
X170210211Y-88263523D01*
X170304570Y-88413694D01*
X170306184Y-88416262D01*
X170433738Y-88543816D01*
X170473672Y-88568908D01*
X170592374Y-88643494D01*
X170591265Y-88645257D01*
X170635618Y-88685302D01*
X170653931Y-88752729D01*
X170632883Y-88819353D01*
X170579157Y-88864022D01*
X170529957Y-88874200D01*
X166028937Y-88874200D01*
X165961898Y-88854515D01*
X165941289Y-88837915D01*
X165886952Y-88783620D01*
X165740073Y-88636853D01*
X165706566Y-88575543D01*
X165710680Y-88508185D01*
X165726368Y-88463355D01*
X165726369Y-88463349D01*
X165746565Y-88284103D01*
X165746565Y-88284096D01*
X165726369Y-88104850D01*
X165726368Y-88104845D01*
X165722310Y-88093249D01*
X165666789Y-87934578D01*
X165653856Y-87913996D01*
X165590734Y-87813537D01*
X165570816Y-87781838D01*
X165443262Y-87654284D01*
X165427161Y-87644167D01*
X165290523Y-87558311D01*
X165120254Y-87498731D01*
X165120249Y-87498730D01*
X164941004Y-87478535D01*
X164940996Y-87478535D01*
X164761750Y-87498730D01*
X164761742Y-87498732D01*
X164729944Y-87509859D01*
X164660165Y-87513420D01*
X164599538Y-87478691D01*
X164567311Y-87416697D01*
X164573717Y-87347122D01*
X164583997Y-87326844D01*
X164612788Y-87281024D01*
X164619472Y-87261922D01*
X164672368Y-87110755D01*
X164672708Y-87107737D01*
X164686457Y-86985716D01*
X164713523Y-86921303D01*
X164771118Y-86881747D01*
X164809677Y-86875600D01*
X170731928Y-86875600D01*
X170794393Y-86875606D01*
G37*
%TD.AperFunction*%
%TA.AperFunction,Conductor*%
G36*
X194992125Y-62499146D02*
G01*
X195048060Y-62541017D01*
X195052625Y-62548121D01*
X195141652Y-62667044D01*
X195141653Y-62667044D01*
X195141654Y-62667046D01*
X195152531Y-62675188D01*
X195194402Y-62731120D01*
X195199388Y-62800811D01*
X195177488Y-62848766D01*
X195141104Y-62897368D01*
X195141102Y-62897371D01*
X195090808Y-63032217D01*
X195087129Y-63066441D01*
X195084401Y-63091823D01*
X195084400Y-63091835D01*
X195084400Y-63348583D01*
X195064715Y-63415622D01*
X195011911Y-63461377D01*
X194992495Y-63468357D01*
X194948212Y-63480223D01*
X194884655Y-63516917D01*
X194884656Y-63516918D01*
X194811282Y-63559280D01*
X194811274Y-63559287D01*
X194788732Y-63581830D01*
X194766186Y-63604378D01*
X194729287Y-63641277D01*
X194695149Y-63675415D01*
X194695136Y-63675429D01*
X185011651Y-73359312D01*
X185009487Y-73361425D01*
X184958613Y-73409877D01*
X184953980Y-73415619D01*
X184949470Y-73421497D01*
X184914387Y-73482266D01*
X184912844Y-73484866D01*
X184876241Y-73544840D01*
X184873245Y-73551599D01*
X184870419Y-73558423D01*
X184852254Y-73626221D01*
X184851436Y-73629130D01*
X184831606Y-73696521D01*
X184830461Y-73703834D01*
X184829498Y-73711155D01*
X184829498Y-73781374D01*
X184829461Y-73784396D01*
X184827773Y-73853634D01*
X184827750Y-73854592D01*
X184827751Y-73854596D01*
X184828539Y-73861973D01*
X184829500Y-73869269D01*
X184843274Y-73920666D01*
X184847500Y-73952763D01*
X184847500Y-76102777D01*
X184827815Y-76169816D01*
X184775011Y-76215571D01*
X184737384Y-76225997D01*
X184668750Y-76233730D01*
X184498478Y-76293310D01*
X184345739Y-76389283D01*
X184215546Y-76519475D01*
X184189866Y-76539180D01*
X184130284Y-76573580D01*
X184130279Y-76573583D01*
X184130279Y-76573584D01*
X184130278Y-76573585D01*
X184108488Y-76595376D01*
X184043253Y-76660611D01*
X184015368Y-76688496D01*
X184015355Y-76688509D01*
X176269921Y-84434139D01*
X176095209Y-84608855D01*
X176060647Y-84643417D01*
X175995478Y-84708585D01*
X175994494Y-84710177D01*
X175993615Y-84711812D01*
X175953107Y-84781974D01*
X175953107Y-84781976D01*
X175920333Y-84838745D01*
X175916420Y-84845520D01*
X175875498Y-84998247D01*
X175875498Y-84998248D01*
X175875500Y-85117461D01*
X175875500Y-87603003D01*
X175855815Y-87670042D01*
X175839181Y-87690684D01*
X174691984Y-88837881D01*
X174630661Y-88871366D01*
X174604303Y-88874200D01*
X171342043Y-88874200D01*
X171275004Y-88854515D01*
X171229249Y-88801711D01*
X171219305Y-88732553D01*
X171248330Y-88668997D01*
X171280293Y-88644556D01*
X171279626Y-88643494D01*
X171320987Y-88617505D01*
X171438262Y-88543816D01*
X171565816Y-88416262D01*
X171661789Y-88263522D01*
X171721368Y-88093255D01*
X171722368Y-88084385D01*
X171731145Y-88006478D01*
X171758210Y-87942064D01*
X171766690Y-87932673D01*
X173484534Y-86215379D01*
X173484696Y-86215239D01*
X173490713Y-86209221D01*
X173490716Y-86209220D01*
X173549385Y-86150550D01*
X173602460Y-86097493D01*
X173602462Y-86097488D01*
X173602485Y-86097466D01*
X173602505Y-86097440D01*
X173602517Y-86097418D01*
X173602520Y-86097416D01*
X173633984Y-86042918D01*
X173642757Y-86027723D01*
X173642759Y-86027717D01*
X173681135Y-85961274D01*
X173681567Y-85960545D01*
X173681746Y-85959852D01*
X173682618Y-85956600D01*
X173701368Y-85886619D01*
X173701372Y-85886620D01*
X173701372Y-85886601D01*
X173722488Y-85807853D01*
X173722488Y-85807842D01*
X173722500Y-85807755D01*
X173722500Y-85729908D01*
X173722507Y-85685010D01*
X173722513Y-85649739D01*
X173722511Y-85649734D01*
X173722513Y-85641811D01*
X173722500Y-85641595D01*
X173722500Y-85012112D01*
X173742185Y-84945073D01*
X173749555Y-84934797D01*
X173751810Y-84931967D01*
X173751816Y-84931962D01*
X173847789Y-84779222D01*
X173907368Y-84608955D01*
X173907369Y-84608949D01*
X173916195Y-84530617D01*
X173943261Y-84466203D01*
X174000856Y-84426648D01*
X174039415Y-84420500D01*
X175173331Y-84420500D01*
X175173347Y-84420501D01*
X175180943Y-84420501D01*
X175339054Y-84420501D01*
X175339057Y-84420501D01*
X175491785Y-84379577D01*
X175491787Y-84379575D01*
X175491789Y-84379575D01*
X175491790Y-84379574D01*
X175491820Y-84379557D01*
X175502414Y-84373440D01*
X175542072Y-84350544D01*
X175542073Y-84350543D01*
X175628716Y-84300520D01*
X175740520Y-84188716D01*
X175740520Y-84188714D01*
X175750724Y-84178511D01*
X175750728Y-84178506D01*
X183238506Y-76690728D01*
X183238511Y-76690724D01*
X183248714Y-76680520D01*
X183248716Y-76680520D01*
X183360520Y-76568716D01*
X183439577Y-76431784D01*
X183476894Y-76292516D01*
X183480500Y-76279058D01*
X183480500Y-76120943D01*
X183480500Y-73960088D01*
X183500185Y-73893049D01*
X183516814Y-73872411D01*
X194861114Y-62527647D01*
X194922433Y-62494163D01*
X194992125Y-62499146D01*
G37*
%TD.AperFunction*%
%TA.AperFunction,Conductor*%
G36*
X172957703Y-68216952D02*
G01*
X172964173Y-68222976D01*
X175182178Y-70440828D01*
X175215665Y-70502149D01*
X175218500Y-70528511D01*
X175218500Y-76725818D01*
X175218461Y-76805873D01*
X175218497Y-76806147D01*
X175238934Y-76882418D01*
X175238949Y-76882474D01*
X175259316Y-76958628D01*
X175259341Y-76958688D01*
X175259421Y-76958881D01*
X175299666Y-77028588D01*
X175299681Y-77028646D01*
X175299695Y-77028639D01*
X175338310Y-77095594D01*
X175338478Y-77095814D01*
X175338480Y-77095816D01*
X175395771Y-77153107D01*
X175616291Y-77373839D01*
X175649747Y-77435177D01*
X175651788Y-77447593D01*
X175661630Y-77534949D01*
X175721210Y-77705221D01*
X175804689Y-77838076D01*
X175817184Y-77857962D01*
X175944738Y-77985516D01*
X176097478Y-78081489D01*
X176202121Y-78118105D01*
X176267745Y-78141068D01*
X176267750Y-78141069D01*
X176446996Y-78161265D01*
X176447000Y-78161265D01*
X176447004Y-78161265D01*
X176626247Y-78141069D01*
X176626247Y-78141068D01*
X176626255Y-78141068D01*
X176637118Y-78137266D01*
X176706892Y-78133702D01*
X176767521Y-78168429D01*
X176785739Y-78192793D01*
X176819841Y-78252482D01*
X176820541Y-78253393D01*
X176820891Y-78253851D01*
X176821450Y-78254587D01*
X176837082Y-78270218D01*
X176838511Y-78271847D01*
X176898165Y-78331501D01*
X176898561Y-78331898D01*
X176953147Y-78386981D01*
X176953983Y-78387622D01*
X176954408Y-78387949D01*
X176955246Y-78388598D01*
X176955283Y-78388619D01*
X176955284Y-78388620D01*
X176958164Y-78390283D01*
X177022259Y-78427288D01*
X177022720Y-78427555D01*
X177071606Y-78456075D01*
X177089723Y-78466644D01*
X177090717Y-78467056D01*
X177091163Y-78467242D01*
X177092176Y-78467666D01*
X177092215Y-78467676D01*
X177092216Y-78467677D01*
X177137039Y-78479687D01*
X177167038Y-78487725D01*
X177167397Y-78487822D01*
X177216974Y-78501347D01*
X177242262Y-78508246D01*
X177243365Y-78508391D01*
X177243929Y-78508467D01*
X177244905Y-78508600D01*
X177244943Y-78508600D01*
X177322267Y-78508600D01*
X177322808Y-78508601D01*
X177323358Y-78508603D01*
X177326249Y-78508616D01*
X177393201Y-78528593D01*
X177430700Y-78566642D01*
X177468496Y-78626793D01*
X177487497Y-78694030D01*
X177467130Y-78760865D01*
X177451189Y-78780442D01*
X177441954Y-78789678D01*
X177380633Y-78823167D01*
X177340385Y-78825222D01*
X177155004Y-78804335D01*
X177154996Y-78804335D01*
X176975750Y-78824530D01*
X176975745Y-78824531D01*
X176805476Y-78884111D01*
X176652737Y-78980084D01*
X176525184Y-79107637D01*
X176429211Y-79260376D01*
X176369631Y-79430645D01*
X176369630Y-79430650D01*
X176349435Y-79609896D01*
X176349435Y-79609903D01*
X176369630Y-79789149D01*
X176369631Y-79789154D01*
X176429211Y-79959423D01*
X176514353Y-80094925D01*
X176525184Y-80112162D01*
X176652738Y-80239716D01*
X176695933Y-80266857D01*
X176790799Y-80326466D01*
X176805478Y-80335689D01*
X176932649Y-80380188D01*
X176975745Y-80395268D01*
X176975750Y-80395269D01*
X177154996Y-80415465D01*
X177155000Y-80415465D01*
X177155004Y-80415465D01*
X177334249Y-80395269D01*
X177334252Y-80395268D01*
X177334255Y-80395268D01*
X177504522Y-80335689D01*
X177519201Y-80326466D01*
X177574134Y-80291949D01*
X177623518Y-80260918D01*
X177690754Y-80241918D01*
X177757589Y-80262285D01*
X177802804Y-80315553D01*
X177812042Y-80384809D01*
X177782370Y-80448066D01*
X177777171Y-80453593D01*
X175047584Y-83183181D01*
X174986261Y-83216666D01*
X174959903Y-83219500D01*
X159615150Y-83219500D01*
X159548111Y-83199815D01*
X159527458Y-83183170D01*
X158942702Y-82598268D01*
X158909224Y-82536941D01*
X158907175Y-82524498D01*
X158897368Y-82437445D01*
X158837789Y-82267178D01*
X158807285Y-82218632D01*
X158762652Y-82147599D01*
X158741816Y-82114438D01*
X158614262Y-81986884D01*
X158590377Y-81971876D01*
X158461523Y-81890911D01*
X158291254Y-81831331D01*
X158284468Y-81829783D01*
X158284905Y-81827867D01*
X158229428Y-81804554D01*
X158189874Y-81746958D01*
X158187739Y-81677121D01*
X158220049Y-81620720D01*
X160877589Y-78963434D01*
X161845401Y-77995715D01*
X161906726Y-77962233D01*
X161933078Y-77959400D01*
X164095331Y-77959400D01*
X164095347Y-77959401D01*
X164102943Y-77959401D01*
X164261054Y-77959401D01*
X164261057Y-77959401D01*
X164413785Y-77918477D01*
X164475572Y-77882804D01*
X164550716Y-77839420D01*
X164662520Y-77727616D01*
X164662520Y-77727614D01*
X164672724Y-77717411D01*
X164672728Y-77717406D01*
X166539062Y-75851072D01*
X166539067Y-75851068D01*
X166549270Y-75840864D01*
X166549272Y-75840864D01*
X166661076Y-75729060D01*
X166720841Y-75625543D01*
X166740133Y-75592129D01*
X166781057Y-75439401D01*
X166781057Y-75384810D01*
X166800742Y-75317771D01*
X166853546Y-75272016D01*
X166922704Y-75262072D01*
X166986260Y-75291097D01*
X166992716Y-75297107D01*
X168044186Y-76348222D01*
X168100284Y-76404320D01*
X168100287Y-76404321D01*
X168100324Y-76404350D01*
X168100360Y-76404377D01*
X168100365Y-76404382D01*
X168139910Y-76427204D01*
X168168110Y-76443479D01*
X168168129Y-76443490D01*
X168237214Y-76483376D01*
X168237307Y-76483414D01*
X168237310Y-76483416D01*
X168315788Y-76504429D01*
X168315806Y-76504440D01*
X168315808Y-76504435D01*
X168389943Y-76524300D01*
X168389951Y-76524300D01*
X168390031Y-76524310D01*
X168390044Y-76524314D01*
X168472030Y-76524300D01*
X168921731Y-76524300D01*
X168921747Y-76524301D01*
X168929343Y-76524301D01*
X169087454Y-76524301D01*
X169087457Y-76524301D01*
X169240185Y-76483377D01*
X169240192Y-76483372D01*
X169247691Y-76480267D01*
X169248327Y-76481804D01*
X169283860Y-76470107D01*
X169359391Y-76461597D01*
X169444850Y-76451969D01*
X169444853Y-76451968D01*
X169444855Y-76451968D01*
X169615122Y-76392389D01*
X169767862Y-76296416D01*
X169895416Y-76168862D01*
X169991389Y-76016122D01*
X170050968Y-75845855D01*
X170050969Y-75845849D01*
X170071165Y-75666603D01*
X170071165Y-75666596D01*
X170050969Y-75487350D01*
X170050968Y-75487345D01*
X170014791Y-75383958D01*
X169991389Y-75317078D01*
X169968897Y-75281283D01*
X169916517Y-75197920D01*
X169895416Y-75164338D01*
X169767862Y-75036784D01*
X169767860Y-75036783D01*
X169615123Y-74940811D01*
X169444854Y-74881231D01*
X169444849Y-74881230D01*
X169265604Y-74861035D01*
X169265596Y-74861035D01*
X169086350Y-74881230D01*
X169086345Y-74881231D01*
X168916076Y-74940811D01*
X168763339Y-75036783D01*
X168684894Y-75115228D01*
X168623570Y-75148712D01*
X168553879Y-75143728D01*
X168509547Y-75115242D01*
X168501327Y-75107025D01*
X166530813Y-73137177D01*
X166474716Y-73081080D01*
X166474713Y-73081078D01*
X166474634Y-73081017D01*
X166406240Y-73041545D01*
X166406224Y-73041536D01*
X166365237Y-73017872D01*
X166337784Y-73002023D01*
X166337783Y-73002022D01*
X166337763Y-73002011D01*
X166337713Y-73001990D01*
X166259191Y-72980964D01*
X166259172Y-72980959D01*
X166185047Y-72961097D01*
X166184961Y-72961086D01*
X166184956Y-72961086D01*
X166102970Y-72961100D01*
X165496366Y-72961100D01*
X165429327Y-72941415D01*
X165383572Y-72888611D01*
X165373628Y-72819453D01*
X165402653Y-72755897D01*
X165408679Y-72749425D01*
X165586786Y-72571295D01*
X166305553Y-71852433D01*
X167234438Y-70923425D01*
X167295759Y-70889936D01*
X167322125Y-70887100D01*
X167668588Y-70887100D01*
X167735627Y-70906785D01*
X167745903Y-70914155D01*
X167748736Y-70916414D01*
X167748738Y-70916416D01*
X167901478Y-71012389D01*
X167987576Y-71042516D01*
X168071745Y-71071968D01*
X168071750Y-71071969D01*
X168250996Y-71092165D01*
X168251000Y-71092165D01*
X168251004Y-71092165D01*
X168430249Y-71071969D01*
X168430252Y-71071968D01*
X168430255Y-71071968D01*
X168600522Y-71012389D01*
X168753262Y-70916416D01*
X168880816Y-70788862D01*
X168976789Y-70636122D01*
X169036368Y-70465855D01*
X169037195Y-70458515D01*
X169056565Y-70286603D01*
X169056565Y-70286596D01*
X169036369Y-70107350D01*
X169036365Y-70107335D01*
X169031963Y-70094752D01*
X169028402Y-70024973D01*
X169063132Y-69964347D01*
X169125126Y-69932121D01*
X169149005Y-69929800D01*
X169219588Y-69929800D01*
X169286627Y-69949485D01*
X169296903Y-69956855D01*
X169299736Y-69959114D01*
X169299738Y-69959116D01*
X169404549Y-70024973D01*
X169445505Y-70050708D01*
X169452478Y-70055089D01*
X169601817Y-70107345D01*
X169622745Y-70114668D01*
X169622750Y-70114669D01*
X169801996Y-70134865D01*
X169802000Y-70134865D01*
X169802004Y-70134865D01*
X169981249Y-70114669D01*
X169981252Y-70114668D01*
X169981255Y-70114668D01*
X170151522Y-70055089D01*
X170304262Y-69959116D01*
X170431816Y-69831562D01*
X170468506Y-69773169D01*
X170520841Y-69726879D01*
X170589894Y-69716231D01*
X170653743Y-69744606D01*
X170692115Y-69802996D01*
X170697500Y-69839142D01*
X170697500Y-76671402D01*
X170677815Y-76738441D01*
X170661181Y-76759083D01*
X168183584Y-79236681D01*
X168122261Y-79270166D01*
X168095903Y-79273000D01*
X164451891Y-79273000D01*
X164384852Y-79253315D01*
X164346897Y-79214972D01*
X164331072Y-79189787D01*
X164307416Y-79152138D01*
X164179862Y-79024584D01*
X164136739Y-78997488D01*
X164027123Y-78928611D01*
X163856854Y-78869031D01*
X163856849Y-78869030D01*
X163677604Y-78848835D01*
X163677596Y-78848835D01*
X163498350Y-78869030D01*
X163498345Y-78869031D01*
X163328076Y-78928611D01*
X163175337Y-79024584D01*
X163047784Y-79152137D01*
X162951811Y-79304876D01*
X162892231Y-79475145D01*
X162892230Y-79475150D01*
X162872035Y-79654396D01*
X162872035Y-79654403D01*
X162892230Y-79833649D01*
X162892231Y-79833654D01*
X162951811Y-80003923D01*
X163019823Y-80112162D01*
X163047784Y-80156662D01*
X163175338Y-80284216D01*
X163242582Y-80326468D01*
X163323914Y-80377573D01*
X163328078Y-80380189D01*
X163440894Y-80419665D01*
X163498345Y-80439768D01*
X163498350Y-80439769D01*
X163677597Y-80459965D01*
X163677599Y-80459965D01*
X163677599Y-80459964D01*
X163677600Y-80459965D01*
X163715996Y-80455638D01*
X163761971Y-80459082D01*
X163817642Y-80474000D01*
X163817643Y-80474000D01*
X165825946Y-80474000D01*
X165892985Y-80493685D01*
X165938740Y-80546489D01*
X165949166Y-80611884D01*
X165945435Y-80644997D01*
X165951521Y-80699018D01*
X165939465Y-80767840D01*
X165892115Y-80819219D01*
X165824505Y-80836842D01*
X165814418Y-80836121D01*
X165788563Y-80833208D01*
X165760400Y-80830035D01*
X165760398Y-80830035D01*
X165760397Y-80830035D01*
X165760396Y-80830035D01*
X165581150Y-80850230D01*
X165581145Y-80850231D01*
X165410876Y-80909811D01*
X165258137Y-81005784D01*
X165130584Y-81133337D01*
X165034611Y-81286076D01*
X164975031Y-81456345D01*
X164975030Y-81456350D01*
X164954835Y-81635596D01*
X164954835Y-81635603D01*
X164975030Y-81814849D01*
X164975031Y-81814854D01*
X165034611Y-81985123D01*
X165088188Y-82070389D01*
X165130584Y-82137862D01*
X165258138Y-82265416D01*
X165410878Y-82361389D01*
X165581145Y-82420968D01*
X165668069Y-82430761D01*
X165732480Y-82457826D01*
X165741865Y-82466300D01*
X165939139Y-82663574D01*
X165939149Y-82663585D01*
X165943479Y-82667915D01*
X165943480Y-82667916D01*
X166055284Y-82779720D01*
X166135501Y-82826032D01*
X166142095Y-82829839D01*
X166142097Y-82829841D01*
X166180151Y-82851811D01*
X166192215Y-82858777D01*
X166344943Y-82899700D01*
X166503057Y-82899700D01*
X167364177Y-82899700D01*
X167364182Y-82899700D01*
X167452020Y-82899705D01*
X167452027Y-82899703D01*
X167452047Y-82899701D01*
X167452051Y-82899700D01*
X167452057Y-82899700D01*
X167530576Y-82878661D01*
X167601631Y-82859626D01*
X167604903Y-82858844D01*
X167604930Y-82858832D01*
X167608146Y-82856836D01*
X167672907Y-82819446D01*
X167672915Y-82819441D01*
X167739877Y-82780787D01*
X167741725Y-82779765D01*
X167741730Y-82779761D01*
X167743208Y-82778228D01*
X167754144Y-82767292D01*
X167797608Y-82723827D01*
X167797614Y-82723824D01*
X167797613Y-82723823D01*
X168120810Y-82400666D01*
X172514083Y-78007942D01*
X172514152Y-78007884D01*
X172547879Y-77974157D01*
X172586627Y-77935409D01*
X172586630Y-77935407D01*
X172610991Y-77911047D01*
X172631217Y-77890824D01*
X172632538Y-77889545D01*
X172632540Y-77889542D01*
X172633426Y-77887945D01*
X172677386Y-77811803D01*
X172677389Y-77811801D01*
X172711565Y-77752614D01*
X172711573Y-77752593D01*
X172711574Y-77752588D01*
X172711577Y-77752584D01*
X172724974Y-77702584D01*
X172732361Y-77675019D01*
X172732362Y-77675014D01*
X172742436Y-77637425D01*
X172752495Y-77599895D01*
X172752495Y-77599890D01*
X172752500Y-77599859D01*
X172752500Y-77515013D01*
X172752502Y-77479543D01*
X172752505Y-77441781D01*
X172752504Y-77441779D01*
X172752505Y-77433846D01*
X172752500Y-77433752D01*
X172752500Y-68310665D01*
X172772185Y-68243626D01*
X172824989Y-68197871D01*
X172894147Y-68187927D01*
X172957703Y-68216952D01*
G37*
%TD.AperFunction*%
%TA.AperFunction,Conductor*%
G36*
X107290000Y-81054638D02*
G01*
X107287000Y-81064854D01*
X107287000Y-81964588D01*
X107229993Y-81931675D01*
X107102826Y-81897600D01*
X106971174Y-81897600D01*
X106844007Y-81931675D01*
X106787000Y-81964588D01*
X106787000Y-80971962D01*
X106790000Y-80961745D01*
X106790000Y-80062012D01*
X106847007Y-80094925D01*
X106974174Y-80129000D01*
X107105826Y-80129000D01*
X107232993Y-80094925D01*
X107290000Y-80062012D01*
X107290000Y-81054638D01*
G37*
%TD.AperFunction*%
%TA.AperFunction,Conductor*%
G36*
X107290000Y-79195988D02*
G01*
X107232993Y-79163075D01*
X107105826Y-79129000D01*
X106974174Y-79129000D01*
X106847007Y-79163075D01*
X106790000Y-79195988D01*
X106790000Y-77513012D01*
X106847007Y-77545925D01*
X106974174Y-77580000D01*
X107105826Y-77580000D01*
X107232993Y-77545925D01*
X107290000Y-77513012D01*
X107290000Y-79195988D01*
G37*
%TD.AperFunction*%
%TA.AperFunction,Conductor*%
G36*
X198929830Y-55900185D02*
G01*
X198950472Y-55916819D01*
X199579277Y-56545624D01*
X199526168Y-56567623D01*
X199415613Y-56641493D01*
X199321593Y-56735513D01*
X199247723Y-56846068D01*
X199225724Y-56899177D01*
X198611674Y-56285127D01*
X198494084Y-56477016D01*
X198494082Y-56477019D01*
X198402978Y-56696965D01*
X198402978Y-56696966D01*
X198347402Y-56928457D01*
X198328723Y-57165800D01*
X198347402Y-57403142D01*
X198402978Y-57634633D01*
X198402978Y-57634634D01*
X198494082Y-57854580D01*
X198494084Y-57854583D01*
X198611674Y-58046471D01*
X199225723Y-57432421D01*
X199247723Y-57485532D01*
X199321593Y-57596087D01*
X199415613Y-57690107D01*
X199526168Y-57763977D01*
X199579277Y-57785975D01*
X198965227Y-58400024D01*
X198965227Y-58400025D01*
X199157116Y-58517615D01*
X199157119Y-58517617D01*
X199377066Y-58608721D01*
X199608557Y-58664297D01*
X199845900Y-58682976D01*
X200083242Y-58664297D01*
X200314733Y-58608721D01*
X200314734Y-58608721D01*
X200534680Y-58517617D01*
X200534683Y-58517615D01*
X200726570Y-58400025D01*
X200726571Y-58400024D01*
X200112522Y-57785975D01*
X200165632Y-57763977D01*
X200276187Y-57690107D01*
X200370207Y-57596087D01*
X200444077Y-57485532D01*
X200466075Y-57432422D01*
X201054187Y-58020534D01*
X201087672Y-58081857D01*
X201086281Y-58140307D01*
X201072624Y-58191278D01*
X201072621Y-58191292D01*
X201053207Y-58413200D01*
X201052980Y-58415800D01*
X201072621Y-58640307D01*
X201072622Y-58640311D01*
X201072622Y-58640315D01*
X201096196Y-58728293D01*
X201094533Y-58798143D01*
X201064082Y-58848088D01*
X200894821Y-59017270D01*
X200894578Y-59017485D01*
X200831924Y-59080139D01*
X200831905Y-59080157D01*
X200777544Y-59134494D01*
X200777493Y-59134560D01*
X200764534Y-59157007D01*
X200737065Y-59204585D01*
X200698469Y-59271398D01*
X200698424Y-59271508D01*
X200677759Y-59348629D01*
X200677753Y-59348653D01*
X200657500Y-59424172D01*
X200657500Y-59501054D01*
X200657479Y-59589876D01*
X200657497Y-59590173D01*
X200657496Y-59654039D01*
X200657500Y-59654096D01*
X200657500Y-62679277D01*
X200637815Y-62746316D01*
X200585011Y-62792071D01*
X200515853Y-62802015D01*
X200486048Y-62793838D01*
X200314734Y-62722878D01*
X200083242Y-62667302D01*
X199845900Y-62648623D01*
X199608557Y-62667302D01*
X199377066Y-62722878D01*
X199377065Y-62722878D01*
X199157119Y-62813982D01*
X199157116Y-62813984D01*
X198965227Y-62931574D01*
X199579277Y-63545624D01*
X199526168Y-63567623D01*
X199415613Y-63641493D01*
X199321593Y-63735513D01*
X199247723Y-63846068D01*
X199225724Y-63899177D01*
X198611674Y-63285127D01*
X198494084Y-63477016D01*
X198494082Y-63477019D01*
X198402978Y-63696965D01*
X198402978Y-63696966D01*
X198347402Y-63928457D01*
X198328723Y-64165800D01*
X198347402Y-64403142D01*
X198402978Y-64634633D01*
X198402978Y-64634634D01*
X198494082Y-64854580D01*
X198494084Y-64854583D01*
X198611674Y-65046471D01*
X199225723Y-64432421D01*
X199247723Y-64485532D01*
X199321593Y-64596087D01*
X199358137Y-64632631D01*
X199387423Y-64703332D01*
X199461293Y-64813887D01*
X199555313Y-64907907D01*
X199665868Y-64981777D01*
X199718976Y-65003775D01*
X199104927Y-65617824D01*
X199104927Y-65617825D01*
X199296816Y-65735415D01*
X199296819Y-65735417D01*
X199516766Y-65826521D01*
X199748259Y-65882097D01*
X199748257Y-65882097D01*
X199778503Y-65884477D01*
X199843792Y-65909360D01*
X199885264Y-65965590D01*
X199889751Y-66035316D01*
X199856456Y-66095777D01*
X197985176Y-67967007D01*
X197923852Y-68000492D01*
X197854161Y-67995506D01*
X197798229Y-67953636D01*
X197729746Y-67862154D01*
X197659729Y-67809739D01*
X197614535Y-67775906D01*
X197614528Y-67775902D01*
X197543748Y-67749503D01*
X197487814Y-67707632D01*
X197463397Y-67642167D01*
X197478249Y-67573894D01*
X197495843Y-67549348D01*
X197593879Y-67442853D01*
X197720824Y-67248549D01*
X197814057Y-67036000D01*
X197871034Y-66811005D01*
X197871035Y-66810997D01*
X197890200Y-66579706D01*
X197890200Y-66579693D01*
X197871035Y-66348402D01*
X197871033Y-66348391D01*
X197814057Y-66123399D01*
X197720824Y-65910851D01*
X197593883Y-65716552D01*
X197593880Y-65716549D01*
X197593879Y-65716547D01*
X197499095Y-65613584D01*
X197468175Y-65550932D01*
X197476035Y-65481506D01*
X197520183Y-65427351D01*
X197546995Y-65413422D01*
X197558605Y-65409092D01*
X197627231Y-65383496D01*
X197742446Y-65297246D01*
X197828696Y-65182031D01*
X197878991Y-65047183D01*
X197885400Y-64987573D01*
X197885399Y-63091828D01*
X197878991Y-63032217D01*
X197874524Y-63020241D01*
X197828697Y-62897371D01*
X197828693Y-62897364D01*
X197742448Y-62782156D01*
X197742446Y-62782155D01*
X197742446Y-62782154D01*
X197731564Y-62774008D01*
X197689696Y-62718075D01*
X197684713Y-62648383D01*
X197706613Y-62600432D01*
X197721142Y-62581024D01*
X197742996Y-62551831D01*
X197793291Y-62416983D01*
X197799700Y-62357373D01*
X197799699Y-60461628D01*
X197793291Y-60402017D01*
X197757993Y-60307379D01*
X197742997Y-60267171D01*
X197742993Y-60267164D01*
X197656747Y-60151955D01*
X197656744Y-60151952D01*
X197541535Y-60065706D01*
X197541528Y-60065702D01*
X197461294Y-60035777D01*
X197405360Y-59993906D01*
X197380943Y-59928441D01*
X197395795Y-59860168D01*
X197413390Y-59835621D01*
X197508179Y-59732653D01*
X197635124Y-59538349D01*
X197728357Y-59325800D01*
X197785334Y-59100805D01*
X197787045Y-59080157D01*
X197804500Y-58869506D01*
X197804500Y-58869493D01*
X197785335Y-58638202D01*
X197785333Y-58638191D01*
X197728357Y-58413199D01*
X197635124Y-58200651D01*
X197508183Y-58006352D01*
X197508180Y-58006349D01*
X197508179Y-58006347D01*
X197350984Y-57835587D01*
X197350979Y-57835583D01*
X197350977Y-57835581D01*
X197167834Y-57693035D01*
X197167828Y-57693031D01*
X196963704Y-57582564D01*
X196963695Y-57582561D01*
X196744184Y-57507202D01*
X196572482Y-57478550D01*
X196515249Y-57469000D01*
X196283151Y-57469000D01*
X196237364Y-57476640D01*
X196054215Y-57507202D01*
X195834704Y-57582561D01*
X195834695Y-57582564D01*
X195630571Y-57693031D01*
X195630565Y-57693035D01*
X195447422Y-57835581D01*
X195447419Y-57835584D01*
X195447416Y-57835586D01*
X195447416Y-57835587D01*
X195430889Y-57853540D01*
X195290216Y-58006352D01*
X195163275Y-58200651D01*
X195070042Y-58413199D01*
X195013066Y-58638191D01*
X195013064Y-58638202D01*
X194993900Y-58869493D01*
X194993900Y-58869506D01*
X195013064Y-59100797D01*
X195013066Y-59100808D01*
X195070042Y-59325800D01*
X195163275Y-59538348D01*
X195290216Y-59732647D01*
X195290219Y-59732651D01*
X195290221Y-59732653D01*
X195385003Y-59835614D01*
X195415924Y-59898267D01*
X195408064Y-59967693D01*
X195363916Y-60021848D01*
X195337106Y-60035777D01*
X195256869Y-60065703D01*
X195256864Y-60065706D01*
X195141655Y-60151952D01*
X195141652Y-60151955D01*
X195055406Y-60267164D01*
X195055402Y-60267171D01*
X195005108Y-60402017D01*
X195000801Y-60442086D01*
X194998701Y-60461623D01*
X194998700Y-60461635D01*
X194998700Y-60727849D01*
X194979015Y-60794888D01*
X194926211Y-60840643D01*
X194906799Y-60847622D01*
X194898213Y-60849922D01*
X194869013Y-60866781D01*
X194842410Y-60882142D01*
X194761285Y-60928978D01*
X194761282Y-60928981D01*
X194761277Y-60928986D01*
X194761275Y-60928988D01*
X194761255Y-60929006D01*
X194761247Y-60929015D01*
X194746154Y-60944110D01*
X194746148Y-60944116D01*
X194644519Y-61045744D01*
X194644492Y-61045774D01*
X182483982Y-73206782D01*
X182483980Y-73206784D01*
X182399480Y-73291283D01*
X182399478Y-73291285D01*
X182399470Y-73291299D01*
X182382589Y-73320540D01*
X182382588Y-73320542D01*
X182320427Y-73428207D01*
X182320423Y-73428215D01*
X182320417Y-73428229D01*
X182320378Y-73428346D01*
X182320142Y-73429257D01*
X182305866Y-73482540D01*
X182305866Y-73482542D01*
X182279498Y-73580951D01*
X182279500Y-73661984D01*
X182279500Y-75899903D01*
X182259815Y-75966942D01*
X182243181Y-75987584D01*
X180933037Y-77297727D01*
X180871714Y-77331212D01*
X180802022Y-77326228D01*
X180746089Y-77284356D01*
X180721672Y-77218892D01*
X180736524Y-77150619D01*
X180737841Y-77148267D01*
X180758024Y-77113190D01*
X180758103Y-77113055D01*
X180774122Y-77085308D01*
X180797577Y-77044684D01*
X180797579Y-77044676D01*
X180797732Y-77044307D01*
X180797783Y-77044183D01*
X180797912Y-77043869D01*
X180797916Y-77043863D01*
X180818176Y-76967804D01*
X180818218Y-76967815D01*
X180818222Y-76967629D01*
X180838500Y-76891957D01*
X180838500Y-76891948D01*
X180838598Y-76891204D01*
X180838614Y-76891083D01*
X180838616Y-76891076D01*
X180838500Y-76812018D01*
X180838500Y-72502483D01*
X180838536Y-72422313D01*
X180838535Y-72422311D01*
X180838501Y-72422051D01*
X180838500Y-72422047D01*
X180838500Y-72422043D01*
X180818219Y-72346356D01*
X180818219Y-72346355D01*
X180818222Y-72346353D01*
X180818206Y-72346307D01*
X180797681Y-72269567D01*
X180797680Y-72269565D01*
X180797622Y-72269425D01*
X180797575Y-72269311D01*
X180757881Y-72200560D01*
X180757853Y-72200512D01*
X180718685Y-72132600D01*
X180718682Y-72132597D01*
X180718680Y-72132593D01*
X180718520Y-72132384D01*
X180662017Y-72075881D01*
X180661989Y-72075830D01*
X180661978Y-72075842D01*
X180391384Y-71805004D01*
X180390990Y-71804554D01*
X180328453Y-71742017D01*
X180328425Y-71741966D01*
X180328414Y-71741978D01*
X180273932Y-71687447D01*
X180273931Y-71687446D01*
X180273927Y-71687442D01*
X180273712Y-71687277D01*
X180250045Y-71673613D01*
X180224353Y-71653896D01*
X178922808Y-70352025D01*
X178889330Y-70290698D01*
X178886500Y-70264355D01*
X178886500Y-65301696D01*
X178886503Y-65301639D01*
X178886502Y-65293034D01*
X178886504Y-65293030D01*
X178886500Y-65191395D01*
X178886500Y-65134943D01*
X178886500Y-65134931D01*
X178886499Y-65134924D01*
X178881767Y-65117269D01*
X178864906Y-65054354D01*
X178845779Y-64982971D01*
X178845595Y-64982259D01*
X178845568Y-64982194D01*
X178845566Y-64982190D01*
X178807236Y-64915807D01*
X178807235Y-64915803D01*
X178807234Y-64915804D01*
X178767180Y-64846427D01*
X178766575Y-64845350D01*
X178766528Y-64845288D01*
X178766504Y-64845264D01*
X178766503Y-64845262D01*
X178711404Y-64790168D01*
X178654716Y-64733480D01*
X178654715Y-64733479D01*
X178649609Y-64728373D01*
X178649560Y-64728329D01*
X172135456Y-58214820D01*
X172069716Y-58149080D01*
X172069715Y-58149079D01*
X172069707Y-58149071D01*
X172011278Y-58115341D01*
X172011278Y-58115339D01*
X172011273Y-58115338D01*
X171956176Y-58083528D01*
X171933436Y-58070399D01*
X171932813Y-58070032D01*
X171932778Y-58070018D01*
X171855615Y-58049345D01*
X171855615Y-58049344D01*
X171855612Y-58049344D01*
X171811973Y-58037651D01*
X171780057Y-58029100D01*
X171780056Y-58029100D01*
X171780049Y-58029098D01*
X171780034Y-58029096D01*
X171780030Y-58029096D01*
X171689679Y-58029100D01*
X152071151Y-58029100D01*
X152004112Y-58009415D01*
X151983459Y-57992771D01*
X150837035Y-56846068D01*
X150792781Y-56801803D01*
X150760700Y-56746228D01*
X150702103Y-56527537D01*
X150602235Y-56313371D01*
X150582459Y-56285127D01*
X150466694Y-56119797D01*
X150439078Y-56092181D01*
X150405593Y-56030858D01*
X150410577Y-55961166D01*
X150452449Y-55905233D01*
X150517913Y-55880816D01*
X150526759Y-55880500D01*
X198862791Y-55880500D01*
X198929830Y-55900185D01*
G37*
%TD.AperFunction*%
%TA.AperFunction,Conductor*%
G36*
X107290000Y-76646988D02*
G01*
X107232993Y-76614075D01*
X107105826Y-76580000D01*
X106974174Y-76580000D01*
X106847007Y-76614075D01*
X106790000Y-76646988D01*
X106790000Y-74833012D01*
X106847007Y-74865925D01*
X106974174Y-74900000D01*
X107105826Y-74900000D01*
X107232993Y-74865925D01*
X107290000Y-74833012D01*
X107290000Y-76646988D01*
G37*
%TD.AperFunction*%
%TA.AperFunction,Conductor*%
G36*
X140368802Y-66999408D02*
G01*
X140375260Y-67005421D01*
X141046053Y-67676120D01*
X141070175Y-67700239D01*
X141103664Y-67761560D01*
X141106500Y-67787926D01*
X141106500Y-69108342D01*
X141086815Y-69175381D01*
X141070127Y-69196077D01*
X141030966Y-69235190D01*
X140969623Y-69268637D01*
X140957222Y-69270675D01*
X140869750Y-69280530D01*
X140699478Y-69340110D01*
X140546737Y-69436084D01*
X140419184Y-69563637D01*
X140323211Y-69716376D01*
X140263631Y-69886645D01*
X140263630Y-69886650D01*
X140243435Y-70065896D01*
X140243435Y-70065903D01*
X140263630Y-70245149D01*
X140263633Y-70245162D01*
X140287457Y-70313245D01*
X140291019Y-70383024D01*
X140256291Y-70443651D01*
X140194297Y-70475879D01*
X140170416Y-70478200D01*
X137608289Y-70478200D01*
X137541250Y-70458515D01*
X137495495Y-70405711D01*
X137485551Y-70336553D01*
X137514576Y-70272997D01*
X137520603Y-70266524D01*
X138010124Y-69776950D01*
X138010183Y-69776896D01*
X138014479Y-69772598D01*
X138014482Y-69772597D01*
X138042466Y-69744606D01*
X138064152Y-69722916D01*
X138064155Y-69722911D01*
X138118977Y-69668085D01*
X138118978Y-69668083D01*
X138123518Y-69663543D01*
X138123582Y-69663471D01*
X138186112Y-69600927D01*
X138247431Y-69567437D01*
X138273802Y-69564600D01*
X138942055Y-69564600D01*
X138942057Y-69564600D01*
X139094784Y-69523677D01*
X139231716Y-69444620D01*
X139343520Y-69332816D01*
X139405825Y-69224898D01*
X139456391Y-69176684D01*
X139513212Y-69162899D01*
X139710971Y-69162899D01*
X139710972Y-69162899D01*
X139770583Y-69156491D01*
X139905431Y-69106196D01*
X140020646Y-69019946D01*
X140106896Y-68904731D01*
X140157191Y-68769883D01*
X140163600Y-68710273D01*
X140163599Y-67093120D01*
X140183284Y-67026082D01*
X140236087Y-66980327D01*
X140305246Y-66970383D01*
X140368802Y-66999408D01*
G37*
%TD.AperFunction*%
%TA.AperFunction,Conductor*%
G36*
X108479005Y-59756777D02*
G01*
X111765884Y-63043435D01*
X111787178Y-63064727D01*
X111820665Y-63126049D01*
X111823500Y-63152411D01*
X111823500Y-66047160D01*
X111803815Y-66114199D01*
X111787181Y-66134841D01*
X111784184Y-66137837D01*
X111688211Y-66290576D01*
X111628631Y-66460845D01*
X111628630Y-66460850D01*
X111608435Y-66640096D01*
X111608435Y-66640103D01*
X111628630Y-66819349D01*
X111628631Y-66819354D01*
X111688211Y-66989623D01*
X111760592Y-67104816D01*
X111784184Y-67142362D01*
X111911738Y-67269916D01*
X111945416Y-67291077D01*
X112014118Y-67334246D01*
X112064478Y-67365889D01*
X112205161Y-67415116D01*
X112234745Y-67425468D01*
X112234750Y-67425469D01*
X112311894Y-67434161D01*
X112376308Y-67461227D01*
X112415863Y-67518822D01*
X112418001Y-67588659D01*
X112385702Y-67645052D01*
X112097415Y-67933406D01*
X111918646Y-68112217D01*
X111918092Y-68112771D01*
X111856773Y-68146263D01*
X111830401Y-68149100D01*
X108651691Y-68149100D01*
X108584652Y-68129415D01*
X108539311Y-68077509D01*
X108536637Y-68071775D01*
X108536634Y-68071770D01*
X108536633Y-68071769D01*
X108415457Y-67898710D01*
X108401096Y-67878200D01*
X108355948Y-67833052D01*
X108279167Y-67756271D01*
X108245684Y-67694951D01*
X108250668Y-67625259D01*
X108292539Y-67569325D01*
X108323515Y-67552410D01*
X108454931Y-67503396D01*
X108570146Y-67417146D01*
X108656396Y-67301931D01*
X108706691Y-67167083D01*
X108713100Y-67107473D01*
X108713099Y-65311728D01*
X108706702Y-65252215D01*
X108706691Y-65252116D01*
X108656397Y-65117271D01*
X108656393Y-65117264D01*
X108570147Y-65002055D01*
X108570144Y-65002052D01*
X108454935Y-64915806D01*
X108454928Y-64915802D01*
X108320082Y-64865508D01*
X108320083Y-64865508D01*
X108260483Y-64859101D01*
X108260481Y-64859100D01*
X108260473Y-64859100D01*
X108260465Y-64859100D01*
X108133132Y-64859100D01*
X108066093Y-64839415D01*
X108020338Y-64786611D01*
X108010394Y-64717453D01*
X108039419Y-64653897D01*
X108062009Y-64633525D01*
X108234001Y-64513095D01*
X108401095Y-64346001D01*
X108536635Y-64152430D01*
X108636503Y-63938263D01*
X108697663Y-63710008D01*
X108718259Y-63474600D01*
X108697663Y-63239192D01*
X108636503Y-63010937D01*
X108536635Y-62796771D01*
X108534582Y-62793838D01*
X108401094Y-62603197D01*
X108234002Y-62436106D01*
X108233996Y-62436101D01*
X108048442Y-62306175D01*
X108004817Y-62251598D01*
X107997623Y-62182100D01*
X108029146Y-62119745D01*
X108048442Y-62103025D01*
X108182276Y-62009313D01*
X108234001Y-61973095D01*
X108401095Y-61806001D01*
X108536635Y-61612430D01*
X108636503Y-61398263D01*
X108697663Y-61170008D01*
X108718259Y-60934600D01*
X108697663Y-60699192D01*
X108636503Y-60470937D01*
X108536635Y-60256771D01*
X108532657Y-60251090D01*
X108401096Y-60063200D01*
X108346896Y-60009000D01*
X108279167Y-59941271D01*
X108245684Y-59879951D01*
X108250668Y-59810259D01*
X108292539Y-59754325D01*
X108323516Y-59737411D01*
X108347994Y-59728281D01*
X108417685Y-59723296D01*
X108479005Y-59756777D01*
G37*
%TD.AperFunction*%
%TA.AperFunction,Conductor*%
G36*
X145490637Y-55900185D02*
G01*
X145536392Y-55952989D01*
X145546336Y-56022147D01*
X145544275Y-56033013D01*
X145544108Y-56033716D01*
X145537701Y-56093316D01*
X145537700Y-56093335D01*
X145537700Y-57889070D01*
X145537701Y-57889076D01*
X145544108Y-57948683D01*
X145594402Y-58083528D01*
X145594404Y-58083531D01*
X145602143Y-58093869D01*
X145626561Y-58159333D01*
X145611710Y-58227607D01*
X145609451Y-58231121D01*
X145606202Y-58237071D01*
X145555908Y-58371917D01*
X145549501Y-58431516D01*
X145549500Y-58431535D01*
X145549500Y-60227270D01*
X145549501Y-60227276D01*
X145555908Y-60286883D01*
X145606202Y-60421728D01*
X145606206Y-60421735D01*
X145692452Y-60536944D01*
X145692455Y-60536947D01*
X145807664Y-60623193D01*
X145807671Y-60623197D01*
X145861705Y-60643350D01*
X145939598Y-60672402D01*
X145995531Y-60714273D01*
X146019949Y-60779737D01*
X146005098Y-60848010D01*
X145983947Y-60876265D01*
X145861886Y-60998326D01*
X145726400Y-61191820D01*
X145726399Y-61191822D01*
X145626570Y-61405907D01*
X145626567Y-61405913D01*
X145569364Y-61619399D01*
X145569364Y-61619400D01*
X146466988Y-61619400D01*
X146434075Y-61676407D01*
X146400000Y-61803574D01*
X146400000Y-61935226D01*
X146434075Y-62062393D01*
X146466988Y-62119400D01*
X145569364Y-62119400D01*
X145626567Y-62332886D01*
X145626570Y-62332892D01*
X145726399Y-62546978D01*
X145861894Y-62740482D01*
X146028917Y-62907505D01*
X146222421Y-63043000D01*
X146436507Y-63142829D01*
X146436516Y-63142833D01*
X146650000Y-63200034D01*
X146650000Y-62302412D01*
X146707007Y-62335325D01*
X146834174Y-62369400D01*
X146965826Y-62369400D01*
X147092993Y-62335325D01*
X147150000Y-62302412D01*
X147150000Y-63200033D01*
X147363483Y-63142833D01*
X147363492Y-63142829D01*
X147577578Y-63043000D01*
X147771082Y-62907505D01*
X147938105Y-62740482D01*
X148068119Y-62554805D01*
X148122696Y-62511181D01*
X148192195Y-62503988D01*
X148254549Y-62535510D01*
X148271269Y-62554805D01*
X148401505Y-62740801D01*
X148568599Y-62907895D01*
X148629882Y-62950806D01*
X148762165Y-63043432D01*
X148762167Y-63043433D01*
X148762170Y-63043435D01*
X148976337Y-63143303D01*
X149204592Y-63204463D01*
X149392918Y-63220939D01*
X149439999Y-63225059D01*
X149440000Y-63225059D01*
X149440001Y-63225059D01*
X149479234Y-63221626D01*
X149675408Y-63204463D01*
X149903663Y-63143303D01*
X150117830Y-63043435D01*
X150311401Y-62907895D01*
X150478495Y-62740801D01*
X150614035Y-62547230D01*
X150713903Y-62333063D01*
X150775063Y-62104808D01*
X150795659Y-61869400D01*
X150775063Y-61633992D01*
X150713903Y-61405737D01*
X150644220Y-61256304D01*
X150633729Y-61187228D01*
X150662249Y-61123444D01*
X150720725Y-61085204D01*
X150756603Y-61079900D01*
X152328338Y-61079900D01*
X152395377Y-61099585D01*
X152441132Y-61152389D01*
X152451076Y-61221547D01*
X152422051Y-61285103D01*
X152416017Y-61291582D01*
X151861785Y-61845749D01*
X149818604Y-63888686D01*
X149757279Y-63922168D01*
X149730928Y-63925000D01*
X144096117Y-63925000D01*
X144029078Y-63905315D01*
X144008432Y-63888677D01*
X143923388Y-63803625D01*
X143600017Y-63480223D01*
X143228935Y-63109105D01*
X143228893Y-63109057D01*
X143163252Y-63043416D01*
X143110739Y-62990898D01*
X143110738Y-62990897D01*
X143110735Y-62990894D01*
X143110714Y-62990878D01*
X143068235Y-62966354D01*
X143041303Y-62950804D01*
X143041297Y-62950798D01*
X143041296Y-62950801D01*
X142973816Y-62911836D01*
X142973797Y-62911828D01*
X142973785Y-62911823D01*
X142906440Y-62893778D01*
X142906440Y-62893776D01*
X142906433Y-62893776D01*
X142821076Y-62870900D01*
X142821057Y-62870900D01*
X142753322Y-62870900D01*
X142662971Y-62870896D01*
X142662969Y-62870896D01*
X142654916Y-62870896D01*
X142654854Y-62870900D01*
X115707958Y-62870900D01*
X115640919Y-62851215D01*
X115620306Y-62834610D01*
X115529368Y-62743732D01*
X115471715Y-62686079D01*
X115471567Y-62685965D01*
X115459974Y-62679277D01*
X115403228Y-62646539D01*
X115387815Y-62637640D01*
X115328692Y-62603505D01*
X115328172Y-62603250D01*
X115328035Y-62603172D01*
X115328054Y-62603137D01*
X115327818Y-62603001D01*
X115328323Y-62602125D01*
X115296713Y-62581024D01*
X112914804Y-60198337D01*
X112881329Y-60137008D01*
X112878500Y-60110670D01*
X112878500Y-59380802D01*
X112878503Y-59380745D01*
X112878502Y-59372140D01*
X112878504Y-59372136D01*
X112878500Y-59266726D01*
X112878500Y-59214043D01*
X112878500Y-59214027D01*
X112857209Y-59134584D01*
X112854107Y-59123009D01*
X112837577Y-59061316D01*
X112837574Y-59061311D01*
X112837572Y-59061302D01*
X112815308Y-59022743D01*
X112800724Y-58997484D01*
X112758520Y-58924384D01*
X112758519Y-58924383D01*
X112758513Y-58924375D01*
X112758507Y-58924369D01*
X112758506Y-58924367D01*
X112712113Y-58877977D01*
X112646716Y-58812580D01*
X112646715Y-58812579D01*
X112641087Y-58806951D01*
X112641043Y-58806912D01*
X109926121Y-56092184D01*
X109892634Y-56030862D01*
X109897616Y-55961171D01*
X109939485Y-55905236D01*
X110004949Y-55880816D01*
X110013799Y-55880500D01*
X145423598Y-55880500D01*
X145490637Y-55900185D01*
G37*
%TD.AperFunction*%
%TD*%
M02*
