%TF.GenerationSoftware,KiCad,Pcbnew,8.0.9*%
%TF.CreationDate,2025-04-11T10:46:46+01:00*%
%TF.ProjectId,Gotek,476f7465-6b2e-46b6-9963-61645f706362,rev?*%
%TF.SameCoordinates,Original*%
%TF.FileFunction,Soldermask,Top*%
%TF.FilePolarity,Negative*%
%FSLAX46Y46*%
G04 Gerber Fmt 4.6, Leading zero omitted, Abs format (unit mm)*
G04 Created by KiCad (PCBNEW 8.0.9) date 2025-04-11 10:46:46*
%MOMM*%
%LPD*%
G01*
G04 APERTURE LIST*
G04 Aperture macros list*
%AMRoundRect*
0 Rectangle with rounded corners*
0 $1 Rounding radius*
0 $2 $3 $4 $5 $6 $7 $8 $9 X,Y pos of 4 corners*
0 Add a 4 corners polygon primitive as box body*
4,1,4,$2,$3,$4,$5,$6,$7,$8,$9,$2,$3,0*
0 Add four circle primitives for the rounded corners*
1,1,$1+$1,$2,$3*
1,1,$1+$1,$4,$5*
1,1,$1+$1,$6,$7*
1,1,$1+$1,$8,$9*
0 Add four rect primitives between the rounded corners*
20,1,$1+$1,$2,$3,$4,$5,0*
20,1,$1+$1,$4,$5,$6,$7,0*
20,1,$1+$1,$6,$7,$8,$9,0*
20,1,$1+$1,$8,$9,$2,$3,0*%
G04 Aperture macros list end*
%ADD10R,1.000000X1.000000*%
%ADD11C,5.000000*%
%ADD12R,1.700000X1.700000*%
%ADD13O,1.700000X1.700000*%
%ADD14RoundRect,0.250000X-0.350000X-0.450000X0.350000X-0.450000X0.350000X0.450000X-0.350000X0.450000X0*%
%ADD15RoundRect,0.250000X-0.475000X0.337500X-0.475000X-0.337500X0.475000X-0.337500X0.475000X0.337500X0*%
%ADD16R,1.600000X1.600000*%
%ADD17C,1.600000*%
%ADD18C,1.575000*%
%ADD19C,2.025000*%
%ADD20R,0.900000X0.600000*%
%ADD21R,1.800000X1.800000*%
%ADD22C,1.800000*%
%ADD23RoundRect,0.250000X-0.337500X-0.475000X0.337500X-0.475000X0.337500X0.475000X-0.337500X0.475000X0*%
%ADD24R,1.000000X0.400000*%
%ADD25R,1.300000X2.000000*%
%ADD26R,1.650000X0.700000*%
%ADD27R,1.500000X1.600000*%
%ADD28C,3.000000*%
%ADD29R,1.475000X0.300000*%
%ADD30R,0.300000X1.475000*%
%ADD31RoundRect,0.250000X0.337500X0.475000X-0.337500X0.475000X-0.337500X-0.475000X0.337500X-0.475000X0*%
%ADD32RoundRect,0.250000X-0.450000X0.350000X-0.450000X-0.350000X0.450000X-0.350000X0.450000X0.350000X0*%
%ADD33C,1.500000*%
%ADD34R,0.950000X1.300000*%
%ADD35R,3.250000X1.300000*%
%ADD36RoundRect,0.250000X0.350000X0.450000X-0.350000X0.450000X-0.350000X-0.450000X0.350000X-0.450000X0*%
%ADD37RoundRect,0.150000X-0.825000X-0.150000X0.825000X-0.150000X0.825000X0.150000X-0.825000X0.150000X0*%
G04 APERTURE END LIST*
D10*
%TO.C,DID1*%
X138650000Y-100933200D03*
X136350000Y-100933200D03*
%TD*%
D11*
%TO.C,H1*%
X118491000Y-60642500D03*
%TD*%
%TO.C,H2*%
X139573000Y-60642500D03*
%TD*%
%TO.C,H3*%
X118491000Y-110363000D03*
%TD*%
%TO.C,H4*%
X139573000Y-110363000D03*
%TD*%
%TO.C,H5*%
X189357000Y-60642500D03*
%TD*%
D12*
%TO.C,J10*%
X104502000Y-68633500D03*
D13*
X104502000Y-66093500D03*
X104502000Y-63553500D03*
X104502000Y-61013500D03*
%TD*%
D14*
%TO.C,PU5*%
X118000000Y-91398700D03*
X120000000Y-91398700D03*
%TD*%
D15*
%TO.C,C4*%
X147307300Y-72877200D03*
X147307300Y-74952200D03*
%TD*%
D14*
%TO.C,R20*%
X189160300Y-67027400D03*
X191160300Y-67027400D03*
%TD*%
D12*
%TO.C,J7*%
X144360900Y-97291500D03*
D13*
X146900900Y-97291500D03*
X144360900Y-99831500D03*
X146900900Y-99831500D03*
%TD*%
D16*
%TO.C,C1*%
X187587100Y-92313100D03*
D17*
X185087100Y-92313100D03*
%TD*%
D12*
%TO.C,JK1*%
X146888200Y-56991200D03*
D13*
X149428200Y-56991200D03*
%TD*%
D12*
%TO.C,JA1*%
X104500000Y-77080000D03*
D13*
X107040000Y-77080000D03*
%TD*%
D18*
%TO.C,S4*%
X202485600Y-70133600D03*
X202485600Y-65633600D03*
D19*
X199985600Y-71383600D03*
X199985600Y-64383600D03*
%TD*%
D20*
%TO.C,Q5*%
X133680000Y-99616300D03*
X133680000Y-97716300D03*
X130880000Y-98666300D03*
%TD*%
D14*
%TO.C,RN4*%
X136500000Y-104171700D03*
X138500000Y-104171700D03*
%TD*%
D20*
%TO.C,Q6*%
X133702300Y-95685600D03*
X133702300Y-93785600D03*
X130902300Y-94735600D03*
%TD*%
D21*
%TO.C,L5*%
X196472200Y-69119700D03*
D22*
X196472200Y-66579700D03*
%TD*%
D23*
%TO.C,C20*%
X140878700Y-78882900D03*
X142953700Y-78882900D03*
%TD*%
D16*
%TO.C,C17*%
X138863100Y-67862400D03*
D17*
X136363100Y-67862400D03*
%TD*%
D14*
%TO.C,PU12*%
X118000000Y-103397000D03*
X120000000Y-103397000D03*
%TD*%
D23*
%TO.C,C6*%
X159165900Y-64573100D03*
X161240900Y-64573100D03*
%TD*%
D18*
%TO.C,S3*%
X202345900Y-62915800D03*
X202345900Y-58415800D03*
D19*
X199845900Y-64165800D03*
X199845900Y-57165800D03*
%TD*%
D14*
%TO.C,PU13*%
X124000000Y-103432000D03*
X126000000Y-103432000D03*
%TD*%
%TO.C,PU2*%
X118500000Y-78432000D03*
X120500000Y-78432000D03*
%TD*%
%TO.C,PU11*%
X118000000Y-100466500D03*
X120000000Y-100466500D03*
%TD*%
D20*
%TO.C,Q3*%
X128901700Y-86500400D03*
X128901700Y-84600400D03*
X126101700Y-85550400D03*
%TD*%
D24*
%TO.C,P1*%
X101660000Y-80610000D03*
X101660000Y-81610000D03*
X101660000Y-82610001D03*
X101660000Y-83609999D03*
X101660000Y-84609999D03*
X101660000Y-85610000D03*
X101660000Y-86610000D03*
X101660000Y-87609998D03*
X101660000Y-88609999D03*
X101660000Y-89609999D03*
X101660000Y-90610000D03*
X101660000Y-91610000D03*
X101660000Y-92609998D03*
X101660000Y-93609999D03*
X101660000Y-94610000D03*
X101660000Y-95610000D03*
X101660000Y-96610001D03*
X101660000Y-97609999D03*
X101660000Y-98609999D03*
X101660000Y-99610000D03*
X101660000Y-100610000D03*
X101660000Y-101610001D03*
X101660000Y-102609999D03*
X101660000Y-103609999D03*
X101660000Y-104610000D03*
X101660000Y-105610000D03*
D25*
X98960001Y-77810025D03*
X98960001Y-108409975D03*
%TD*%
D12*
%TO.C,J5*%
X104500000Y-74400000D03*
D13*
X107040000Y-74400000D03*
%TD*%
D12*
%TO.C,JKA1*%
X144460700Y-94351500D03*
D13*
X147000700Y-94351500D03*
%TD*%
D14*
%TO.C,PU9*%
X118000000Y-97326400D03*
X120000000Y-97326400D03*
%TD*%
D12*
%TO.C,JE1*%
X99450000Y-59350000D03*
D13*
X99450000Y-56810000D03*
%TD*%
D20*
%TO.C,Q4*%
X133616500Y-103286600D03*
X133616500Y-101386600D03*
X130816500Y-102336600D03*
%TD*%
D14*
%TO.C,RN2*%
X132000000Y-81600700D03*
X134000000Y-81600700D03*
%TD*%
%TO.C,PU8*%
X124000000Y-97221700D03*
X126000000Y-97221700D03*
%TD*%
D23*
%TO.C,C18*%
X136468600Y-73745700D03*
X138543600Y-73745700D03*
%TD*%
D15*
%TO.C,C5*%
X150152100Y-73022500D03*
X150152100Y-75097500D03*
%TD*%
D26*
%TO.C,U8*%
X172063200Y-88788900D03*
X172063200Y-90058900D03*
X172063200Y-91328900D03*
X172063200Y-92598900D03*
X179263200Y-92598900D03*
X179263200Y-91328900D03*
X179263200Y-90058900D03*
X179263200Y-88788900D03*
%TD*%
D12*
%TO.C,J3*%
X107362600Y-58394600D03*
D13*
X107362600Y-60934600D03*
X107362600Y-63474600D03*
%TD*%
D12*
%TO.C,J8*%
X146900000Y-59329400D03*
D13*
X149440000Y-59329400D03*
X146900000Y-61869400D03*
X149440000Y-61869400D03*
%TD*%
D14*
%TO.C,RN1*%
X132000000Y-78705100D03*
X134000000Y-78705100D03*
%TD*%
D27*
%TO.C,P3*%
X196706500Y-88456600D03*
D17*
X196706500Y-85956600D03*
X196706500Y-83956600D03*
X196706500Y-81456600D03*
D28*
X199416500Y-91526600D03*
X199416500Y-78386600D03*
%TD*%
D20*
%TO.C,Q2*%
X128901700Y-82938000D03*
X128901700Y-81038000D03*
X126101700Y-81988000D03*
%TD*%
D14*
%TO.C,RN3*%
X132000000Y-84461300D03*
X134000000Y-84461300D03*
%TD*%
%TO.C,RN5*%
X136500000Y-98142400D03*
X138500000Y-98142400D03*
%TD*%
D21*
%TO.C,L3*%
X196484900Y-64039700D03*
D22*
X196484900Y-66579700D03*
%TD*%
D15*
%TO.C,C3*%
X150041000Y-67494900D03*
X150041000Y-69569900D03*
%TD*%
D29*
%TO.C,U3*%
X160606600Y-74250200D03*
X160606600Y-74750200D03*
X160606600Y-75250200D03*
X160606600Y-75750200D03*
X160606600Y-76250200D03*
X160606600Y-76750200D03*
X160606600Y-77250200D03*
X160606600Y-77750200D03*
X160606600Y-78250200D03*
X160606600Y-78750200D03*
X160606600Y-79250200D03*
X160606600Y-79750200D03*
X160606600Y-80250200D03*
X160606600Y-80750200D03*
X160606600Y-81250200D03*
X160606600Y-81750200D03*
D30*
X162594600Y-83738200D03*
X163094600Y-83738200D03*
X163594600Y-83738200D03*
X164094600Y-83738200D03*
X164594600Y-83738200D03*
X165094600Y-83738200D03*
X165594600Y-83738200D03*
X166094600Y-83738200D03*
X166594600Y-83738200D03*
X167094600Y-83738200D03*
X167594600Y-83738200D03*
X168094600Y-83738200D03*
X168594600Y-83738200D03*
X169094600Y-83738200D03*
X169594600Y-83738200D03*
X170094600Y-83738200D03*
D29*
X172082600Y-81750200D03*
X172082600Y-81250200D03*
X172082600Y-80750200D03*
X172082600Y-80250200D03*
X172082600Y-79750200D03*
X172082600Y-79250200D03*
X172082600Y-78750200D03*
X172082600Y-78250200D03*
X172082600Y-77750200D03*
X172082600Y-77250200D03*
X172082600Y-76750200D03*
X172082600Y-76250200D03*
X172082600Y-75750200D03*
X172082600Y-75250200D03*
X172082600Y-74750200D03*
X172082600Y-74250200D03*
D30*
X170094600Y-72262200D03*
X169594600Y-72262200D03*
X169094600Y-72262200D03*
X168594600Y-72262200D03*
X168094600Y-72262200D03*
X167594600Y-72262200D03*
X167094600Y-72262200D03*
X166594600Y-72262200D03*
X166094600Y-72262200D03*
X165594600Y-72262200D03*
X165094600Y-72262200D03*
X164594600Y-72262200D03*
X164094600Y-72262200D03*
X163594600Y-72262200D03*
X163094600Y-72262200D03*
X162594600Y-72262200D03*
%TD*%
D12*
%TO.C,JC1*%
X104500000Y-79629000D03*
D13*
X107040000Y-79629000D03*
%TD*%
D14*
%TO.C,PU1*%
X118500000Y-75638000D03*
X120500000Y-75638000D03*
%TD*%
D12*
%TO.C,JD1*%
X99450000Y-64470000D03*
D13*
X99450000Y-61930000D03*
%TD*%
D15*
%TO.C,C23*%
X125409300Y-58862000D03*
X125409300Y-60937000D03*
%TD*%
D14*
%TO.C,PU6*%
X124000000Y-94322900D03*
X126000000Y-94322900D03*
%TD*%
%TO.C,RN6*%
X136500000Y-95294400D03*
X138500000Y-95294400D03*
%TD*%
D12*
%TO.C,JB1*%
X104497000Y-82397600D03*
D13*
X107037000Y-82397600D03*
%TD*%
D14*
%TO.C,R2*%
X188061700Y-86620300D03*
X190061700Y-86620300D03*
%TD*%
D31*
%TO.C,C8*%
X162797400Y-88576100D03*
X160722400Y-88576100D03*
%TD*%
D32*
%TO.C,R10*%
X147250200Y-67532400D03*
X147250200Y-69532400D03*
%TD*%
D33*
%TO.C,Y1*%
X153838300Y-73662100D03*
X153838300Y-68762100D03*
%TD*%
D12*
%TO.C,J4*%
X107362600Y-66209600D03*
D13*
X107362600Y-68749600D03*
%TD*%
D34*
%TO.C,U4*%
X128939900Y-64617600D03*
X131229900Y-64617600D03*
X133519900Y-64617600D03*
D35*
X131229900Y-57917600D03*
%TD*%
D14*
%TO.C,PU10*%
X124000000Y-100396700D03*
X126000000Y-100396700D03*
%TD*%
D36*
%TO.C,R13*%
X120500000Y-73091700D03*
X118500000Y-73091700D03*
%TD*%
D20*
%TO.C,Q1*%
X128920700Y-79137500D03*
X128920700Y-77237500D03*
X126120700Y-78187500D03*
%TD*%
D21*
%TO.C,L4*%
X196399200Y-61409500D03*
D22*
X196399200Y-58869500D03*
%TD*%
D14*
%TO.C,PU14*%
X118500000Y-83734300D03*
X120500000Y-83734300D03*
%TD*%
D37*
%TO.C,U1*%
X139984100Y-83127800D03*
X139984100Y-84397800D03*
X139984100Y-85667800D03*
X139984100Y-86937800D03*
X139984100Y-88207800D03*
X139984100Y-89477800D03*
X139984100Y-90747800D03*
X144934100Y-90747800D03*
X144934100Y-89477800D03*
X144934100Y-88207800D03*
X144934100Y-86937800D03*
X144934100Y-85667800D03*
X144934100Y-84397800D03*
X144934100Y-83127800D03*
%TD*%
D14*
%TO.C,R1*%
X188169600Y-83883500D03*
X190169600Y-83883500D03*
%TD*%
%TO.C,R21*%
X189477800Y-69757900D03*
X191477800Y-69757900D03*
%TD*%
D15*
%TO.C,C9*%
X154774900Y-79794800D03*
X154774900Y-81869800D03*
%TD*%
D14*
%TO.C,PU4*%
X124000000Y-91287600D03*
X126000000Y-91287600D03*
%TD*%
D16*
%TO.C,C19*%
X125871500Y-67687800D03*
D17*
X123371500Y-67687800D03*
%TD*%
D14*
%TO.C,PU3*%
X118500000Y-80978400D03*
X120500000Y-80978400D03*
%TD*%
%TO.C,PU7*%
X118000000Y-94246700D03*
X120000000Y-94246700D03*
%TD*%
D12*
%TO.C,MO1*%
X99450000Y-72000000D03*
D13*
X99450000Y-69460000D03*
X99450000Y-66920000D03*
%TD*%
D23*
%TO.C,C16*%
X175463900Y-85613900D03*
X177538900Y-85613900D03*
%TD*%
M02*
