%TF.GenerationSoftware,KiCad,Pcbnew,8.0.9*%
%TF.CreationDate,2025-03-06T10:33:29+00:00*%
%TF.ProjectId,Gotek,476f7465-6b2e-46b6-9963-61645f706362,rev?*%
%TF.SameCoordinates,Original*%
%TF.FileFunction,Paste,Top*%
%TF.FilePolarity,Positive*%
%FSLAX46Y46*%
G04 Gerber Fmt 4.6, Leading zero omitted, Abs format (unit mm)*
G04 Created by KiCad (PCBNEW 8.0.9) date 2025-03-06 10:33:29*
%MOMM*%
%LPD*%
G01*
G04 APERTURE LIST*
G04 Aperture macros list*
%AMRoundRect*
0 Rectangle with rounded corners*
0 $1 Rounding radius*
0 $2 $3 $4 $5 $6 $7 $8 $9 X,Y pos of 4 corners*
0 Add a 4 corners polygon primitive as box body*
4,1,4,$2,$3,$4,$5,$6,$7,$8,$9,$2,$3,0*
0 Add four circle primitives for the rounded corners*
1,1,$1+$1,$2,$3*
1,1,$1+$1,$4,$5*
1,1,$1+$1,$6,$7*
1,1,$1+$1,$8,$9*
0 Add four rect primitives between the rounded corners*
20,1,$1+$1,$2,$3,$4,$5,0*
20,1,$1+$1,$4,$5,$6,$7,0*
20,1,$1+$1,$6,$7,$8,$9,0*
20,1,$1+$1,$8,$9,$2,$3,0*%
G04 Aperture macros list end*
%ADD10R,3.150000X1.000000*%
%ADD11RoundRect,0.250000X-0.350000X-0.450000X0.350000X-0.450000X0.350000X0.450000X-0.350000X0.450000X0*%
%ADD12RoundRect,0.250000X-0.475000X0.337500X-0.475000X-0.337500X0.475000X-0.337500X0.475000X0.337500X0*%
%ADD13R,2.500000X1.000000*%
%ADD14RoundRect,0.250001X0.499999X0.924999X-0.499999X0.924999X-0.499999X-0.924999X0.499999X-0.924999X0*%
%ADD15R,1.800000X0.750000*%
%ADD16R,1.800000X0.600000*%
%ADD17R,0.900000X1.300000*%
%ADD18R,0.900000X0.600000*%
%ADD19R,1.200000X1.200000*%
%ADD20RoundRect,0.250000X-0.337500X-0.475000X0.337500X-0.475000X0.337500X0.475000X-0.337500X0.475000X0*%
%ADD21R,1.000000X0.400000*%
%ADD22R,1.300000X2.000000*%
%ADD23R,1.650000X0.700000*%
%ADD24R,3.000000X1.300000*%
%ADD25R,0.820000X0.420000*%
%ADD26R,1.100000X1.250000*%
%ADD27R,1.475000X0.300000*%
%ADD28R,0.300000X1.475000*%
%ADD29RoundRect,0.250000X0.337500X0.475000X-0.337500X0.475000X-0.337500X-0.475000X0.337500X-0.475000X0*%
%ADD30RoundRect,0.250000X-0.450000X0.350000X-0.450000X-0.350000X0.450000X-0.350000X0.450000X0.350000X0*%
%ADD31R,2.000000X5.500000*%
%ADD32R,3.100000X0.900000*%
%ADD33R,0.950000X1.300000*%
%ADD34R,3.250000X1.300000*%
%ADD35RoundRect,0.250000X0.350000X0.450000X-0.350000X0.450000X-0.350000X-0.450000X0.350000X-0.450000X0*%
%ADD36RoundRect,0.150000X-0.825000X-0.150000X0.825000X-0.150000X0.825000X0.150000X-0.825000X0.150000X0*%
G04 APERTURE END LIST*
D10*
%TO.C,J5*%
X106237800Y-73812400D03*
X111287800Y-73812400D03*
X106237800Y-76352400D03*
X111287800Y-76352400D03*
X106237800Y-78892400D03*
X111287800Y-78892400D03*
X106237800Y-81432400D03*
X111287800Y-81432400D03*
%TD*%
D11*
%TO.C,PU5*%
X118000000Y-91398700D03*
X120000000Y-91398700D03*
%TD*%
D12*
%TO.C,C4*%
X147307300Y-72877200D03*
X147307300Y-74952200D03*
%TD*%
D11*
%TO.C,R20*%
X189160300Y-67027400D03*
X191160300Y-67027400D03*
%TD*%
D13*
%TO.C,J7*%
X144754600Y-96520000D03*
X141054600Y-96520000D03*
X144754600Y-99060000D03*
X141054600Y-99060000D03*
X144754600Y-101600000D03*
X141054600Y-101600000D03*
%TD*%
D14*
%TO.C,C1*%
X187984800Y-92024200D03*
X184734800Y-92024200D03*
%TD*%
D15*
%TO.C,S4*%
X203347000Y-68052400D03*
D16*
X203347000Y-66827400D03*
D15*
X203347000Y-65602400D03*
D17*
X205297000Y-68677400D03*
X205297000Y-64977400D03*
%TD*%
D18*
%TO.C,Q5*%
X133680000Y-99616300D03*
X133680000Y-97716300D03*
X130880000Y-98666300D03*
%TD*%
D11*
%TO.C,RN4*%
X136500000Y-104171700D03*
X138500000Y-104171700D03*
%TD*%
D18*
%TO.C,Q6*%
X133702300Y-95685600D03*
X133702300Y-93785600D03*
X130902300Y-94735600D03*
%TD*%
D19*
%TO.C,L5*%
X196519800Y-71357200D03*
X196519800Y-69257200D03*
%TD*%
D20*
%TO.C,C20*%
X140878700Y-78882900D03*
X142953700Y-78882900D03*
%TD*%
D14*
%TO.C,C17*%
X138708800Y-68072000D03*
X135458800Y-68072000D03*
%TD*%
D11*
%TO.C,PU12*%
X118000000Y-103397000D03*
X120000000Y-103397000D03*
%TD*%
D20*
%TO.C,C6*%
X159165900Y-64573100D03*
X161240900Y-64573100D03*
%TD*%
D15*
%TO.C,S3*%
X203347000Y-60965800D03*
D16*
X203347000Y-59740800D03*
D15*
X203347000Y-58515800D03*
D17*
X205297000Y-61590800D03*
X205297000Y-57890800D03*
%TD*%
D11*
%TO.C,PU13*%
X124000000Y-103432000D03*
X126000000Y-103432000D03*
%TD*%
%TO.C,PU2*%
X118500000Y-78432000D03*
X120500000Y-78432000D03*
%TD*%
%TO.C,PU11*%
X118000000Y-100466500D03*
X120000000Y-100466500D03*
%TD*%
D18*
%TO.C,Q3*%
X128901700Y-86500400D03*
X128901700Y-84600400D03*
X126101700Y-85550400D03*
%TD*%
D21*
%TO.C,P1*%
X101660000Y-80610000D03*
X101660000Y-81610000D03*
X101660000Y-82610001D03*
X101660000Y-83609999D03*
X101660000Y-84609999D03*
X101660000Y-85610000D03*
X101660000Y-86610000D03*
X101660000Y-87609998D03*
X101660000Y-88609999D03*
X101660000Y-89609999D03*
X101660000Y-90610000D03*
X101660000Y-91610000D03*
X101660000Y-92609998D03*
X101660000Y-93609999D03*
X101660000Y-94610000D03*
X101660000Y-95610000D03*
X101660000Y-96610001D03*
X101660000Y-97609999D03*
X101660000Y-98609999D03*
X101660000Y-99610000D03*
X101660000Y-100610000D03*
X101660000Y-101610001D03*
X101660000Y-102609999D03*
X101660000Y-103609999D03*
X101660000Y-104610000D03*
X101660000Y-105610000D03*
D22*
X98960001Y-77810025D03*
X98960001Y-108409975D03*
%TD*%
D11*
%TO.C,PU9*%
X118000000Y-97326400D03*
X120000000Y-97326400D03*
%TD*%
D18*
%TO.C,Q4*%
X133616500Y-103286600D03*
X133616500Y-101386600D03*
X130816500Y-102336600D03*
%TD*%
D11*
%TO.C,RN2*%
X132000000Y-81600700D03*
X134000000Y-81600700D03*
%TD*%
%TO.C,PU8*%
X124000000Y-97221700D03*
X126000000Y-97221700D03*
%TD*%
D20*
%TO.C,C18*%
X136468600Y-73745700D03*
X138543600Y-73745700D03*
%TD*%
D12*
%TO.C,C5*%
X150152100Y-73022500D03*
X150152100Y-75097500D03*
%TD*%
D23*
%TO.C,U8*%
X172063200Y-88788900D03*
X172063200Y-90058900D03*
X172063200Y-91328900D03*
X172063200Y-92598900D03*
X179263200Y-92598900D03*
X179263200Y-91328900D03*
X179263200Y-90058900D03*
X179263200Y-88788900D03*
%TD*%
D13*
%TO.C,J8*%
X151683800Y-57531000D03*
X147983800Y-57531000D03*
X151683800Y-60071000D03*
X147983800Y-60071000D03*
X151683800Y-62611000D03*
X147983800Y-62611000D03*
%TD*%
D11*
%TO.C,RN1*%
X132000000Y-78705100D03*
X134000000Y-78705100D03*
%TD*%
D24*
%TO.C,P3*%
X194724800Y-88563800D03*
X194724800Y-86063800D03*
X194724800Y-84063800D03*
X194724800Y-81563800D03*
%TD*%
D18*
%TO.C,Q2*%
X128901700Y-82938000D03*
X128901700Y-81038000D03*
X126101700Y-81988000D03*
%TD*%
D25*
%TO.C,DID1*%
X138650000Y-100933200D03*
X136350000Y-100933200D03*
%TD*%
D11*
%TO.C,RN3*%
X132000000Y-84461300D03*
X134000000Y-84461300D03*
%TD*%
%TO.C,RN5*%
X136500000Y-98142400D03*
X138500000Y-98142400D03*
%TD*%
D26*
%TO.C,L3*%
X196545200Y-66649600D03*
X196545200Y-64299600D03*
%TD*%
D12*
%TO.C,C3*%
X150041000Y-67494900D03*
X150041000Y-69569900D03*
%TD*%
D27*
%TO.C,U3*%
X160606600Y-74250200D03*
X160606600Y-74750200D03*
X160606600Y-75250200D03*
X160606600Y-75750200D03*
X160606600Y-76250200D03*
X160606600Y-76750200D03*
X160606600Y-77250200D03*
X160606600Y-77750200D03*
X160606600Y-78250200D03*
X160606600Y-78750200D03*
X160606600Y-79250200D03*
X160606600Y-79750200D03*
X160606600Y-80250200D03*
X160606600Y-80750200D03*
X160606600Y-81250200D03*
X160606600Y-81750200D03*
D28*
X162594600Y-83738200D03*
X163094600Y-83738200D03*
X163594600Y-83738200D03*
X164094600Y-83738200D03*
X164594600Y-83738200D03*
X165094600Y-83738200D03*
X165594600Y-83738200D03*
X166094600Y-83738200D03*
X166594600Y-83738200D03*
X167094600Y-83738200D03*
X167594600Y-83738200D03*
X168094600Y-83738200D03*
X168594600Y-83738200D03*
X169094600Y-83738200D03*
X169594600Y-83738200D03*
X170094600Y-83738200D03*
D27*
X172082600Y-81750200D03*
X172082600Y-81250200D03*
X172082600Y-80750200D03*
X172082600Y-80250200D03*
X172082600Y-79750200D03*
X172082600Y-79250200D03*
X172082600Y-78750200D03*
X172082600Y-78250200D03*
X172082600Y-77750200D03*
X172082600Y-77250200D03*
X172082600Y-76750200D03*
X172082600Y-76250200D03*
X172082600Y-75750200D03*
X172082600Y-75250200D03*
X172082600Y-74750200D03*
X172082600Y-74250200D03*
D28*
X170094600Y-72262200D03*
X169594600Y-72262200D03*
X169094600Y-72262200D03*
X168594600Y-72262200D03*
X168094600Y-72262200D03*
X167594600Y-72262200D03*
X167094600Y-72262200D03*
X166594600Y-72262200D03*
X166094600Y-72262200D03*
X165594600Y-72262200D03*
X165094600Y-72262200D03*
X164594600Y-72262200D03*
X164094600Y-72262200D03*
X163594600Y-72262200D03*
X163094600Y-72262200D03*
X162594600Y-72262200D03*
%TD*%
D11*
%TO.C,PU1*%
X118500000Y-75638000D03*
X120500000Y-75638000D03*
%TD*%
D12*
%TO.C,C23*%
X125409300Y-58862000D03*
X125409300Y-60937000D03*
%TD*%
D11*
%TO.C,PU6*%
X124000000Y-94322900D03*
X126000000Y-94322900D03*
%TD*%
%TO.C,RN6*%
X136500000Y-95294400D03*
X138500000Y-95294400D03*
%TD*%
%TO.C,R2*%
X188061700Y-86620300D03*
X190061700Y-86620300D03*
%TD*%
D29*
%TO.C,C8*%
X162797400Y-88576100D03*
X160722400Y-88576100D03*
%TD*%
D30*
%TO.C,R10*%
X147250200Y-67532400D03*
X147250200Y-69532400D03*
%TD*%
D31*
%TO.C,Y1*%
X155194000Y-77470200D03*
X155194000Y-67970200D03*
%TD*%
D32*
%TO.C,J4*%
X106337800Y-59105800D03*
X111187800Y-59105800D03*
X106337800Y-61645800D03*
X111187800Y-61645800D03*
X106337800Y-64185800D03*
X111187800Y-64185800D03*
X106337800Y-66725800D03*
X111187800Y-66725800D03*
X106337800Y-69265800D03*
X111187800Y-69265800D03*
%TD*%
D33*
%TO.C,U4*%
X128939900Y-64617600D03*
X131229900Y-64617600D03*
X133519900Y-64617600D03*
D34*
X131229900Y-57917600D03*
%TD*%
D11*
%TO.C,PU10*%
X124000000Y-100396700D03*
X126000000Y-100396700D03*
%TD*%
D35*
%TO.C,R13*%
X120500000Y-73091700D03*
X118500000Y-73091700D03*
%TD*%
D18*
%TO.C,Q1*%
X128920700Y-79137500D03*
X128920700Y-77237500D03*
X126120700Y-78187500D03*
%TD*%
D26*
%TO.C,L4*%
X196621400Y-59277000D03*
X196621400Y-61627000D03*
%TD*%
D11*
%TO.C,PU14*%
X118500000Y-83734300D03*
X120500000Y-83734300D03*
%TD*%
D36*
%TO.C,U1*%
X139984100Y-83127800D03*
X139984100Y-84397800D03*
X139984100Y-85667800D03*
X139984100Y-86937800D03*
X139984100Y-88207800D03*
X139984100Y-89477800D03*
X139984100Y-90747800D03*
X144934100Y-90747800D03*
X144934100Y-89477800D03*
X144934100Y-88207800D03*
X144934100Y-86937800D03*
X144934100Y-85667800D03*
X144934100Y-84397800D03*
X144934100Y-83127800D03*
%TD*%
D11*
%TO.C,R1*%
X188169600Y-83883500D03*
X190169600Y-83883500D03*
%TD*%
%TO.C,R21*%
X189477800Y-69757900D03*
X191477800Y-69757900D03*
%TD*%
D12*
%TO.C,C9*%
X155321000Y-82253000D03*
X155321000Y-84328000D03*
%TD*%
D11*
%TO.C,PU4*%
X124000000Y-91287600D03*
X126000000Y-91287600D03*
%TD*%
D14*
%TO.C,C19*%
X126136400Y-68072000D03*
X122886400Y-68072000D03*
%TD*%
D11*
%TO.C,PU3*%
X118500000Y-80978400D03*
X120500000Y-80978400D03*
%TD*%
%TO.C,PU7*%
X118000000Y-94246700D03*
X120000000Y-94246700D03*
%TD*%
D13*
%TO.C,MO1*%
X102037800Y-58166000D03*
X102037800Y-60706000D03*
X102037800Y-63246000D03*
X102037800Y-65786000D03*
X102037800Y-68326000D03*
X102037800Y-70866000D03*
X102037800Y-73406000D03*
%TD*%
D20*
%TO.C,C16*%
X175463900Y-85613900D03*
X177538900Y-85613900D03*
%TD*%
M02*
