%TF.GenerationSoftware,KiCad,Pcbnew,8.0.9*%
%TF.CreationDate,2025-04-11T10:46:46+01:00*%
%TF.ProjectId,Gotek,476f7465-6b2e-46b6-9963-61645f706362,rev?*%
%TF.SameCoordinates,Original*%
%TF.FileFunction,Soldermask,Bot*%
%TF.FilePolarity,Negative*%
%FSLAX46Y46*%
G04 Gerber Fmt 4.6, Leading zero omitted, Abs format (unit mm)*
G04 Created by KiCad (PCBNEW 8.0.9) date 2025-04-11 10:46:46*
%MOMM*%
%LPD*%
G01*
G04 APERTURE LIST*
%ADD10C,5.000000*%
%ADD11R,1.700000X1.700000*%
%ADD12O,1.700000X1.700000*%
%ADD13R,1.600000X1.600000*%
%ADD14C,1.600000*%
%ADD15C,1.575000*%
%ADD16C,2.025000*%
%ADD17R,1.800000X1.800000*%
%ADD18C,1.800000*%
%ADD19R,1.500000X1.600000*%
%ADD20C,3.000000*%
%ADD21C,1.500000*%
G04 APERTURE END LIST*
D10*
%TO.C,H1*%
X118491000Y-60642500D03*
%TD*%
%TO.C,H2*%
X139573000Y-60642500D03*
%TD*%
%TO.C,H3*%
X118491000Y-110363000D03*
%TD*%
%TO.C,H4*%
X139573000Y-110363000D03*
%TD*%
%TO.C,H5*%
X189357000Y-60642500D03*
%TD*%
D11*
%TO.C,J10*%
X104502000Y-68633500D03*
D12*
X104502000Y-66093500D03*
X104502000Y-63553500D03*
X104502000Y-61013500D03*
%TD*%
D11*
%TO.C,J7*%
X144360900Y-97291500D03*
D12*
X146900900Y-97291500D03*
X144360900Y-99831500D03*
X146900900Y-99831500D03*
%TD*%
D13*
%TO.C,C1*%
X187587100Y-92313100D03*
D14*
X185087100Y-92313100D03*
%TD*%
D11*
%TO.C,JK1*%
X146888200Y-56991200D03*
D12*
X149428200Y-56991200D03*
%TD*%
D11*
%TO.C,JA1*%
X104500000Y-77080000D03*
D12*
X107040000Y-77080000D03*
%TD*%
D15*
%TO.C,S4*%
X202485600Y-70133600D03*
X202485600Y-65633600D03*
D16*
X199985600Y-71383600D03*
X199985600Y-64383600D03*
%TD*%
D17*
%TO.C,L5*%
X196472200Y-69119700D03*
D18*
X196472200Y-66579700D03*
%TD*%
D13*
%TO.C,C17*%
X138863100Y-67862400D03*
D14*
X136363100Y-67862400D03*
%TD*%
D15*
%TO.C,S3*%
X202345900Y-62915800D03*
X202345900Y-58415800D03*
D16*
X199845900Y-64165800D03*
X199845900Y-57165800D03*
%TD*%
D11*
%TO.C,J5*%
X104500000Y-74400000D03*
D12*
X107040000Y-74400000D03*
%TD*%
D11*
%TO.C,JKA1*%
X144460700Y-94351500D03*
D12*
X147000700Y-94351500D03*
%TD*%
D11*
%TO.C,JE1*%
X99450000Y-59350000D03*
D12*
X99450000Y-56810000D03*
%TD*%
D11*
%TO.C,J3*%
X107362600Y-58394600D03*
D12*
X107362600Y-60934600D03*
X107362600Y-63474600D03*
%TD*%
D11*
%TO.C,J8*%
X146900000Y-59329400D03*
D12*
X149440000Y-59329400D03*
X146900000Y-61869400D03*
X149440000Y-61869400D03*
%TD*%
D19*
%TO.C,P3*%
X196706500Y-88456600D03*
D14*
X196706500Y-85956600D03*
X196706500Y-83956600D03*
X196706500Y-81456600D03*
D20*
X199416500Y-91526600D03*
X199416500Y-78386600D03*
%TD*%
D17*
%TO.C,L3*%
X196484900Y-64039700D03*
D18*
X196484900Y-66579700D03*
%TD*%
D11*
%TO.C,JC1*%
X104500000Y-79629000D03*
D12*
X107040000Y-79629000D03*
%TD*%
D11*
%TO.C,JD1*%
X99450000Y-64470000D03*
D12*
X99450000Y-61930000D03*
%TD*%
D11*
%TO.C,JB1*%
X104497000Y-82397600D03*
D12*
X107037000Y-82397600D03*
%TD*%
D21*
%TO.C,Y1*%
X153838300Y-73662100D03*
X153838300Y-68762100D03*
%TD*%
D11*
%TO.C,J4*%
X107362600Y-66209600D03*
D12*
X107362600Y-68749600D03*
%TD*%
D17*
%TO.C,L4*%
X196399200Y-61409500D03*
D18*
X196399200Y-58869500D03*
%TD*%
D13*
%TO.C,C19*%
X125871500Y-67687800D03*
D14*
X123371500Y-67687800D03*
%TD*%
D11*
%TO.C,MO1*%
X99450000Y-72000000D03*
D12*
X99450000Y-69460000D03*
X99450000Y-66920000D03*
%TD*%
M02*
