M48
METRIC
T1C0.300
T2C0.800
T3C0.900
T4C0.950
T5C1.000
T6C1.050
T7C1.350
T8C2.300
T9C3.200
%
G90
G05
T1
X97.093Y-88.61
X98.874Y-76.298
X99.617Y-90.61
X100.224Y-87.61
X101.981Y-56.642
X102.662Y-83.61
X102.685Y-97.531
X103.242Y-102.314
X103.305Y-89.61
X105.537Y-94.175
X106.35Y-92.304
X107.467Y-95.326
X108.102Y-86.512
X109.919Y-81.243
X110.096Y-99.61
X110.134Y-84.734
X110.169Y-66.611
X110.363Y-87.833
X110.392Y-95.329
X110.59Y-100.891
X110.59Y-103.61
X111.843Y-101.504
X112.265Y-94.913
X112.414Y-66.64
X112.627Y-73.977
X112.697Y-76.816
X113.106Y-84.43
X113.706Y-78.188
X114.259Y-69.475
X114.3Y-101.397
X114.476Y-80.593
X114.892Y-95.35
X115.951Y-89.256
X116.113Y-71.434
X116.615Y-82.407
X116.865Y-67.132
X116.942Y-94.056
X118.428Y-69.964
X119.545Y-68.675
X120.094Y-88.614
X120.394Y-101.932
X120.726Y-67.494
X121.109Y-100.047
X121.834Y-88.871
X122.428Y-90.059
X122.58Y-80.645
X122.736Y-76.638
X122.796Y-82.321
X122.873Y-96.389
X123.514Y-74.292
X124.876Y-89.046
X127.052Y-99.51
X128.375Y-97.606
X128.574Y-88.974
X128.762Y-75.905
X129.052Y-105.622
X129.591Y-88.316
X130.899Y-86.411
X130.909Y-95.967
X134.347Y-91.405
X134.645Y-75.67
X138.125Y-78.654
X140.941Y-68.821
X141.049Y-70.066
X141.694Y-86.296
X142.072Y-83.404
X144.158Y-74.079
X144.158Y-81.397
X145.263Y-71.958
X147.491Y-78.184
X148.13Y-88.973
X148.859Y-99.172
X148.879Y-83.004
X149.203Y-80.972
X150.339Y-84.744
X151.206Y-91.056
X152.121Y-84.75
X154.226Y-89.081
X155.3Y-86.467
X155.3Y-89.838
X156.696Y-85.858
X158.112Y-82.617
X158.293Y-89.459
X160.249Y-68.021
X160.645Y-86.912
X161.163Y-82.982
X161.236Y-66.18
X162.931Y-68.339
X163.373Y-77.959
X163.678Y-79.654
X163.887Y-86.931
X164.941Y-88.284
X165.095Y-67.008
X165.176Y-75.387
X165.76Y-81.636
X166.181Y-74.485
X166.751Y-80.645
X166.98Y-76.886
X167.078Y-68.726
X167.221Y-90.576
X167.484Y-66.621
X167.665Y-87.62
X168.046Y-73.812
X168.251Y-70.287
X168.481Y-67.84
X168.634Y-90.862
X169.113Y-77.165
X169.266Y-75.667
X169.291Y-88.541
X169.802Y-69.329
X170.205Y-75.336
X170.936Y-87.914
X171.256Y-85.601
X173.122Y-84.43
X173.463Y-64.005
X174.295Y-79.223
X174.454Y-65.148
X174.498Y-93.249
X174.523Y-72.034
X174.574Y-82.474
X175.349Y-87.23
X175.793Y-66.475
X176.447Y-77.356
X177.155Y-79.61
X177.394Y-90.986
X178.102Y-78.13
X179.13Y-72.958
X179.638Y-76.26
X180.975Y-88.376
X181.813Y-83.388
X182.804Y-90.624
X184.848Y-77.019
X185.649Y-79.731
X188.204Y-78.495
X191.795Y-74.549
T2
X123.371Y-67.688
X125.871Y-67.688
X136.363Y-67.862
X138.863Y-67.862
X153.838Y-68.762
X153.838Y-73.662
X185.087Y-92.313
X187.587Y-92.313
T3
X196.399Y-58.869
X196.399Y-61.409
X196.472Y-66.58
X196.472Y-69.12
X196.485Y-64.04
X196.485Y-66.58
T4
X196.706Y-81.457
X196.706Y-83.957
X196.706Y-85.957
X196.706Y-88.457
T5
X99.45Y-56.81
X99.45Y-59.35
X99.45Y-61.93
X99.45Y-64.47
X99.45Y-66.92
X99.45Y-69.46
X99.45Y-72.0
X104.497Y-82.398
X104.5Y-74.4
X104.5Y-77.08
X104.5Y-79.629
X104.502Y-61.014
X104.502Y-63.553
X104.502Y-66.093
X104.502Y-68.633
X107.037Y-82.398
X107.04Y-74.4
X107.04Y-77.08
X107.04Y-79.629
X107.363Y-58.395
X107.363Y-60.935
X107.363Y-63.475
X107.363Y-66.21
X107.363Y-68.75
X144.361Y-97.291
X144.361Y-99.831
X144.461Y-94.352
X146.888Y-56.991
X146.9Y-59.329
X146.9Y-61.869
X146.901Y-97.291
X146.901Y-99.831
X147.001Y-94.352
X149.428Y-56.991
X149.44Y-59.329
X149.44Y-61.869
T6
X202.346Y-58.416
X202.346Y-62.916
X202.486Y-65.634
X202.486Y-70.134
T7
X199.846Y-57.166
X199.846Y-64.166
X199.986Y-64.384
X199.986Y-71.384
T8
X199.416Y-78.387
X199.416Y-91.527
T9
X118.491Y-60.642
X118.491Y-110.363
X139.573Y-60.642
X139.573Y-110.363
X189.357Y-60.642
M30
