%TF.GenerationSoftware,KiCad,Pcbnew,8.0.9*%
%TF.CreationDate,2025-03-06T10:33:29+00:00*%
%TF.ProjectId,Gotek,476f7465-6b2e-46b6-9963-61645f706362,rev?*%
%TF.SameCoordinates,Original*%
%TF.FileFunction,Copper,L2,Bot*%
%TF.FilePolarity,Positive*%
%FSLAX46Y46*%
G04 Gerber Fmt 4.6, Leading zero omitted, Abs format (unit mm)*
G04 Created by KiCad (PCBNEW 8.0.9) date 2025-03-06 10:33:29*
%MOMM*%
%LPD*%
G01*
G04 APERTURE LIST*
%TA.AperFunction,ComponentPad*%
%ADD10C,5.000000*%
%TD*%
%TA.AperFunction,ComponentPad*%
%ADD11C,3.570000*%
%TD*%
%TA.AperFunction,ViaPad*%
%ADD12C,0.600000*%
%TD*%
%TA.AperFunction,Conductor*%
%ADD13C,0.200000*%
%TD*%
%TA.AperFunction,Conductor*%
%ADD14C,0.500000*%
%TD*%
%TA.AperFunction,Conductor*%
%ADD15C,1.000000*%
%TD*%
G04 APERTURE END LIST*
D10*
%TO.P,H1,1,1*%
%TO.N,GND*%
X118491000Y-60642500D03*
%TD*%
%TO.P,H2,1,1*%
%TO.N,GND*%
X139573000Y-60642500D03*
%TD*%
%TO.P,H3,1,1*%
%TO.N,GND*%
X118491000Y-110363000D03*
%TD*%
%TO.P,H4,1,1*%
%TO.N,GND*%
X139573000Y-110363000D03*
%TD*%
%TO.P,H5,1,1*%
%TO.N,GND*%
X189357000Y-60642500D03*
%TD*%
D11*
%TO.P,P3,MH1,MH1*%
%TO.N,GND*%
X198424800Y-91463800D03*
%TO.P,P3,MH2,MH2*%
X198424800Y-78663800D03*
%TD*%
D12*
%TO.N,GND*%
X130225800Y-90474800D03*
X137163000Y-85169200D03*
X121920000Y-93954600D03*
X114503200Y-101269800D03*
X122478800Y-80264000D03*
X107619800Y-95351600D03*
X105841800Y-92760800D03*
X105740200Y-87299800D03*
X115671600Y-88976200D03*
X192887600Y-72593200D03*
X145262600Y-71958200D03*
X148005800Y-78841600D03*
X123371000Y-67687800D03*
X128762000Y-75904700D03*
X124876000Y-89046100D03*
X161163000Y-82981800D03*
X138125000Y-78654300D03*
X175349000Y-87229900D03*
X134347000Y-91405100D03*
X134645000Y-75669800D03*
X102037800Y-60706000D03*
X111287800Y-76352400D03*
X140941000Y-68821300D03*
X174498000Y-93248900D03*
X185064400Y-92329000D03*
X163372800Y-77958900D03*
X111353600Y-78867000D03*
X106343800Y-69271800D03*
X102037800Y-65786000D03*
X98874200Y-76297900D03*
X160249000Y-68021200D03*
X167665000Y-87620500D03*
X116113000Y-71434300D03*
X199986000Y-71475600D03*
X147955000Y-62687200D03*
X169291000Y-88541200D03*
X144158000Y-74079100D03*
X158292800Y-89458800D03*
%TO.N,NRST*%
X141049000Y-70065900D03*
X111252000Y-69215000D03*
%TO.N,+3.3V*%
X188204000Y-78495500D03*
X138897300Y-67828100D03*
X147370800Y-99339400D03*
X148130000Y-88973000D03*
X191795000Y-74549000D03*
X153720800Y-88973000D03*
X144195800Y-93802200D03*
X120726000Y-67494100D03*
X180975000Y-88376100D03*
X171256000Y-85601200D03*
X144754600Y-101549200D03*
%TO.N,J3_BOOT0*%
X114259000Y-69475400D03*
X123514000Y-74291800D03*
X161236000Y-66179700D03*
X111290100Y-59093100D03*
X113766600Y-66192400D03*
%TO.N,USART1_TX*%
X178102000Y-78130400D03*
X119545000Y-68675200D03*
%TO.N,USART1_RX*%
X118428000Y-69964300D03*
X176447000Y-77355700D03*
%TO.N,SWDIO*%
X106197400Y-61595000D03*
X179638000Y-76260300D03*
%TO.N,SWCLK*%
X175793000Y-66475000D03*
X106222800Y-64160400D03*
%TO.N,MTRON*%
X103305000Y-89610000D03*
X102069900Y-68313300D03*
%TO.N,ENC1*%
X174320200Y-63882600D03*
X184848000Y-77019100D03*
X164941000Y-88284100D03*
X147878800Y-60020200D03*
%TO.N,DIR*%
X110392000Y-95329400D03*
X151206200Y-91055800D03*
%TO.N,ENCSW*%
X147500850Y-57604150D03*
X179130000Y-72958300D03*
%TO.N,READY*%
X103242000Y-102314000D03*
X100224000Y-87610000D03*
%TO.N,JA*%
X165760400Y-81635600D03*
X114731800Y-75996800D03*
%TO.N,JB*%
X163677600Y-79654400D03*
X114476000Y-80592600D03*
%TO.N,JC*%
X166751000Y-80645000D03*
X113706000Y-78187600D03*
%TO.N,SPI2_MISO*%
X182804000Y-90624000D03*
X177393600Y-90986000D03*
%TO.N,Net-(RN4-Pad2)*%
X138500000Y-104171700D03*
X140398500Y-95313500D03*
%TO.N,ENC2*%
X151879300Y-60134500D03*
X174345600Y-65074800D03*
%TO.N,U3-40-PC9*%
X177155000Y-79609900D03*
X151765000Y-57556400D03*
%TO.N,JKA1-1*%
X150339000Y-84743900D03*
X169802000Y-69329300D03*
%TO.N,JKA1-2*%
X151358600Y-85115400D03*
X168251000Y-70286600D03*
%TO.N,WPROT_3V3*%
X141694000Y-86296500D03*
X167078000Y-68726100D03*
%TO.N,SEL*%
X158613400Y-82702400D03*
X128375000Y-97605900D03*
X101930200Y-70967600D03*
X105537000Y-94175200D03*
X112265000Y-94913400D03*
X196399200Y-61409500D03*
%TO.N,STEP*%
X158589700Y-85082100D03*
X114892000Y-95350000D03*
%TO.N,WGATE*%
X130909000Y-95967400D03*
X128574000Y-88974300D03*
X102685000Y-97531000D03*
X165176200Y-75387200D03*
X122873000Y-96389400D03*
%TO.N,INDEX*%
X105918000Y-84099400D03*
X122796000Y-82321400D03*
X116615000Y-82407100D03*
%TO.N,WPROT*%
X121834000Y-88871400D03*
X121109000Y-100047000D03*
X111843000Y-101504000D03*
%TO.N,RDATA*%
X120394000Y-101932000D03*
X110590000Y-103610000D03*
X127052000Y-99510500D03*
X110590000Y-100891000D03*
%TO.N,TRK0*%
X110096000Y-99610000D03*
X120094000Y-88614200D03*
%TO.N,SIDE1*%
X155300000Y-89838200D03*
X166180556Y-74484517D03*
X129052000Y-105622000D03*
X156115935Y-86850135D03*
%TO.N,WDATA*%
X129590800Y-88315800D03*
X116941600Y-94056200D03*
X169265600Y-75666600D03*
X122428000Y-90059000D03*
%TO.N,BUT_L*%
X160645000Y-86912400D03*
X203200000Y-66852800D03*
%TO.N,BUT_R*%
X163887000Y-86931500D03*
X203161900Y-59702700D03*
%TO.N,INDEX_3V3*%
X142072000Y-83404100D03*
X162931000Y-68338700D03*
%TO.N,TRK0_3V3*%
X144158000Y-81397400D03*
X167484000Y-66621000D03*
%TO.N,READY_3V3*%
X168481000Y-67840200D03*
X148879000Y-83004000D03*
%TO.N,CHNG*%
X130899000Y-86410800D03*
X122736000Y-76638000D03*
%TO.N,HDOUT*%
X109586201Y-88609999D03*
X97093200Y-88610000D03*
X101752400Y-58166000D03*
X115646200Y-83367800D03*
%TO.N,CHNG_3V3*%
X149203000Y-80971900D03*
X165095000Y-67008400D03*
%TO.N,DRVSEL*%
X102662000Y-83610000D03*
X102057200Y-73380600D03*
%TO.N,SPI2_SS*%
X173122000Y-84429700D03*
X170936000Y-87914000D03*
%TO.N,I2C2_DTA*%
X167221000Y-90576400D03*
X196545200Y-71424800D03*
%TO.N,I2C2_CLK*%
X196485000Y-64039800D03*
X168634000Y-90862100D03*
%TD*%
D13*
%TO.N,GND*%
X137163000Y-85169200D02*
X137020000Y-85312200D01*
%TO.N,HDOUT*%
X114828400Y-83367800D02*
X109586201Y-88609999D01*
X115646200Y-83367800D02*
X114828400Y-83367800D01*
%TO.N,GND*%
X124813182Y-66245800D02*
X123371182Y-67687800D01*
X134312000Y-91440000D02*
X127000000Y-91440000D01*
X123371182Y-67687800D02*
X123371000Y-67687800D01*
X169291000Y-88541200D02*
X168392000Y-88541200D01*
X137846000Y-78654300D02*
X134861000Y-75669800D01*
X199986000Y-71475600D02*
X199986000Y-71383600D01*
X111287800Y-78801200D02*
X111353600Y-78867000D01*
X102037800Y-60522200D02*
X102006400Y-60553600D01*
X103746800Y-67614800D02*
X103809800Y-67614800D01*
X124606000Y-89046100D02*
X124876000Y-89046100D01*
X199986000Y-75630400D02*
X199986000Y-73444100D01*
X199986000Y-73444100D02*
X199986000Y-71475600D01*
X111287800Y-76352400D02*
X111287800Y-78801200D01*
X186148500Y-93413100D02*
X185064400Y-92329000D01*
X138106000Y-78673300D02*
X138001000Y-78673300D01*
X162082900Y-93248900D02*
X158292800Y-89458800D01*
X119294000Y-66351100D02*
X122035000Y-66351100D01*
X124814000Y-66245800D02*
X125178600Y-65881200D01*
X167942000Y-88090400D02*
X167942000Y-87896700D01*
X198424800Y-91463800D02*
X196475500Y-93413100D01*
X174498000Y-93248900D02*
X162082900Y-93248900D01*
X137020000Y-79480300D02*
X137846000Y-78654300D01*
X138106000Y-78673300D02*
X138106000Y-84226200D01*
X111287800Y-76259500D02*
X116113000Y-71434300D01*
X161163000Y-81257200D02*
X163372800Y-79047400D01*
X199417000Y-78386600D02*
X199986000Y-77817600D01*
X199986000Y-75630800D02*
X199986000Y-75630400D01*
X99385400Y-64470000D02*
X100602000Y-64470000D01*
X138106000Y-84226200D02*
X137163000Y-85169200D01*
X134347000Y-91405100D02*
X134312000Y-91440000D01*
X163372800Y-79047400D02*
X163372800Y-77958900D01*
X116113000Y-71434300D02*
X116113000Y-69532500D01*
X101854000Y-60706000D02*
X102037800Y-60706000D01*
X139573000Y-60642500D02*
X118491000Y-60642500D01*
X174038000Y-88541200D02*
X169291000Y-88541200D01*
X100602000Y-61958000D02*
X101854000Y-60706000D01*
X145262600Y-75498300D02*
X145034000Y-75726900D01*
X138125000Y-78654300D02*
X137846000Y-78654300D01*
X199416500Y-78386600D02*
X199417000Y-78386600D01*
X138125000Y-78654300D02*
X138106000Y-78673300D01*
X129115000Y-75552300D02*
X134528000Y-75552300D01*
X127000000Y-91440000D02*
X124876000Y-89315900D01*
X140941000Y-67855200D02*
X140941000Y-68821300D01*
X145262600Y-71958200D02*
X145262600Y-75498300D01*
X106343800Y-69271800D02*
X102858000Y-65786000D01*
X144158000Y-74850600D02*
X145034000Y-75726900D01*
X156312000Y-71958200D02*
X145262600Y-71958200D01*
X104502000Y-68307000D02*
X105379000Y-68307000D01*
X147137200Y-61869400D02*
X140800000Y-61869400D01*
X160249000Y-68021200D02*
X156312000Y-71958200D01*
X140800000Y-61869400D02*
X139573000Y-60642500D01*
X138125000Y-78654300D02*
X141691000Y-75088800D01*
X100602000Y-64470000D02*
X103746800Y-67614800D01*
X123371000Y-67687800D02*
X124814000Y-66245800D01*
X103809800Y-67614800D02*
X104502000Y-68307000D01*
X199416000Y-78386600D02*
X199416500Y-78386600D01*
X144104000Y-74079100D02*
X144158000Y-74079100D01*
X98874200Y-76297900D02*
X97896600Y-75320300D01*
X125178600Y-65881200D02*
X138967000Y-65881200D01*
X102858000Y-65786000D02*
X102037800Y-65786000D01*
X138967000Y-65881200D02*
X140941000Y-67855200D01*
X122035000Y-66351100D02*
X123371000Y-67687800D01*
X199985600Y-71383600D02*
X199986000Y-71383600D01*
X134528000Y-75552300D02*
X134645000Y-75669800D01*
X198424800Y-78663800D02*
X198424800Y-91526800D01*
X145034000Y-75726900D02*
X148005800Y-78698700D01*
X100602000Y-64470000D02*
X100602000Y-61958000D01*
X102037800Y-60706000D02*
X102037800Y-60522200D01*
X128762000Y-75904700D02*
X129115000Y-75552300D01*
X141691000Y-75088800D02*
X143094000Y-75088800D01*
X148005800Y-78698700D02*
X148005800Y-78841600D01*
X168392000Y-88541200D02*
X167942000Y-88090400D01*
X118491000Y-110363000D02*
X139573000Y-110363000D01*
X196475500Y-93413100D02*
X186148500Y-93413100D01*
X143094000Y-75088800D02*
X144104000Y-74079100D01*
X134861000Y-75669800D02*
X134645000Y-75669800D01*
X147955000Y-62687200D02*
X147137200Y-61869400D01*
X175349000Y-87229900D02*
X174038000Y-88541200D01*
X97896600Y-65958800D02*
X99385400Y-64470000D01*
X199986000Y-75630800D02*
X199986000Y-75630400D01*
X111287800Y-76352400D02*
X111287800Y-76259500D01*
X167942000Y-87896700D02*
X167665000Y-87620500D01*
X124876000Y-89315900D02*
X124876000Y-89046100D01*
X116113000Y-69532500D02*
X119294000Y-66351100D01*
X137020000Y-85312200D02*
X137020000Y-79480300D01*
X161163000Y-82981800D02*
X161163000Y-81257200D01*
X199986000Y-75630400D02*
X199986000Y-73444100D01*
X124814000Y-66245800D02*
X124813182Y-66245800D01*
X144158000Y-74079100D02*
X144158000Y-74850600D01*
X97896600Y-75320300D02*
X97896600Y-65958800D01*
X199986000Y-77817600D02*
X199986000Y-75630800D01*
%TO.N,NRST*%
X141049000Y-70065900D02*
X141707000Y-69408700D01*
X138811400Y-64592200D02*
X116287900Y-64592200D01*
X141707000Y-67487800D02*
X138811400Y-64592200D01*
X141707000Y-69408700D02*
X141707000Y-67487800D01*
X111252000Y-69215000D02*
X111201200Y-69215000D01*
X111665100Y-69215000D02*
X111252000Y-69215000D01*
X116287900Y-64592200D02*
X111665100Y-69215000D01*
D14*
%TO.N,+3.3V*%
X144195800Y-100990400D02*
X144754600Y-101549200D01*
D13*
X154339050Y-90525600D02*
X155461129Y-90525600D01*
X156445000Y-89544100D02*
X156445000Y-89081000D01*
D14*
X123368000Y-70135800D02*
X136589600Y-70135800D01*
X120726000Y-67494100D02*
X123368000Y-70135800D01*
X159287000Y-86125100D02*
X170732000Y-86125100D01*
X156331000Y-89081000D02*
X159287000Y-86125100D01*
D13*
X147370800Y-99339400D02*
X147370800Y-97764600D01*
X156445000Y-89081000D02*
X156331000Y-89081000D01*
D14*
X153720800Y-88973000D02*
X148130000Y-88973000D01*
D13*
X149632051Y-95232599D02*
X154339050Y-90525600D01*
X147370800Y-99361600D02*
X147370800Y-99339400D01*
D14*
X153793800Y-88900000D02*
X156150000Y-88900000D01*
X144754600Y-101549200D02*
X144805400Y-101600000D01*
D13*
X180975000Y-87991900D02*
X180975000Y-88376100D01*
D14*
X170732000Y-86125100D02*
X171256000Y-85601200D01*
D15*
X180975000Y-87991900D02*
X180975000Y-86680700D01*
X180975000Y-86680700D02*
X188338000Y-79317900D01*
X188338000Y-79317900D02*
X188338000Y-78628900D01*
D13*
X149632051Y-95503349D02*
X149632051Y-95232599D01*
D14*
X144195800Y-93802200D02*
X144195800Y-100990400D01*
D15*
X191795000Y-74904600D02*
X191795000Y-74549000D01*
D13*
X188204000Y-78495500D02*
X188338000Y-78628900D01*
D14*
X153720800Y-88973000D02*
X153793800Y-88900000D01*
D13*
X147370800Y-97764600D02*
X149632051Y-95503349D01*
X155461129Y-90525600D02*
X156331000Y-89655729D01*
D14*
X156150000Y-88900000D02*
X156331000Y-89081000D01*
X136589600Y-70135800D02*
X138897300Y-67828100D01*
D15*
X188204000Y-78495500D02*
X191795000Y-74904600D01*
D13*
%TO.N,J3_BOOT0*%
X141602000Y-74295000D02*
X141453000Y-74295000D01*
X145690000Y-70206700D02*
X141602000Y-74295000D01*
X114259000Y-69475400D02*
X114097000Y-69475400D01*
X161214000Y-66157500D02*
X153562000Y-66157500D01*
X113766600Y-66192400D02*
X114173000Y-65786000D01*
X123168000Y-74291800D02*
X123514000Y-74291800D01*
X153562000Y-66157500D02*
X149513000Y-70206700D01*
X149513000Y-70206700D02*
X145690000Y-70206700D01*
X110534000Y-79469800D02*
X113277600Y-82213400D01*
X141453000Y-74295000D02*
X141449000Y-74291800D01*
X115141000Y-82318200D02*
X123168000Y-74291800D01*
X110534000Y-73037700D02*
X110534000Y-79469800D01*
X114173000Y-65786000D02*
X114173000Y-61976000D01*
X115037000Y-82213400D02*
X115141000Y-82318200D01*
X161236000Y-66179700D02*
X161214000Y-66157500D01*
X113277600Y-82213400D02*
X115037000Y-82213400D01*
X114173000Y-61976000D02*
X111290100Y-59093100D01*
X114097000Y-69475400D02*
X110534000Y-73037700D01*
X141449000Y-74291800D02*
X123514000Y-74291800D01*
%TO.N,USART1_TX*%
X177302000Y-74942700D02*
X177276000Y-74942700D01*
X169503600Y-63347600D02*
X152704800Y-63347600D01*
X121949000Y-71078700D02*
X119545000Y-68675200D01*
X176441000Y-70285000D02*
X169503600Y-63347600D01*
X177276000Y-74942700D02*
X176441000Y-74107700D01*
X149653600Y-66398800D02*
X145612000Y-66398800D01*
X140932000Y-71078700D02*
X121949000Y-71078700D01*
X176441000Y-74107700D02*
X176441000Y-70285000D01*
X177324000Y-77908100D02*
X177302000Y-77885900D01*
X178102000Y-78130400D02*
X177879000Y-77908100D01*
X145612000Y-66398800D02*
X140932000Y-71078700D01*
X177879000Y-77908100D02*
X177324000Y-77908100D01*
X152704800Y-63347600D02*
X149653600Y-66398800D01*
X177302000Y-77885900D02*
X177302000Y-74942700D01*
%TO.N,USART1_RX*%
X119993000Y-71529600D02*
X118428000Y-69964300D01*
X176447000Y-77355700D02*
X175819000Y-76727100D01*
X175819000Y-76727100D02*
X175819000Y-70228400D01*
X152933400Y-63855600D02*
X149939400Y-66849600D01*
X149939400Y-66849600D02*
X145850000Y-66849600D01*
X175819000Y-70228400D02*
X169446200Y-63855600D01*
X141170000Y-71529600D02*
X119993000Y-71529600D01*
X169446200Y-63855600D02*
X152933400Y-63855600D01*
X145850000Y-66849600D02*
X141170000Y-71529600D01*
%TO.N,SWDIO*%
X106197400Y-61595000D02*
X106248200Y-61595000D01*
X115242445Y-63871454D02*
X142484854Y-63871454D01*
X114703000Y-57216700D02*
X114703000Y-63332009D01*
X142484854Y-63871454D02*
X143812000Y-65198600D01*
X170049400Y-62839600D02*
X177209000Y-69999200D01*
X152495000Y-62839600D02*
X170049400Y-62839600D01*
X177209000Y-69999200D02*
X177209000Y-73831300D01*
X143812000Y-65198600D02*
X150136000Y-65198600D01*
X106248200Y-61595000D02*
X110626500Y-57216700D01*
X114703000Y-63332009D02*
X115242445Y-63871454D01*
X150136000Y-65198600D02*
X152495000Y-62839600D01*
X177209000Y-73831300D02*
X179638000Y-76260300D01*
X110626500Y-57216700D02*
X114703000Y-57216700D01*
%TO.N,SWCLK*%
X173629000Y-65852700D02*
X168815000Y-61039400D01*
X154536300Y-60020200D02*
X150031000Y-64525500D01*
X150031000Y-64525500D02*
X143796000Y-64525500D01*
X115103000Y-56606800D02*
X115033400Y-56537200D01*
X104394000Y-56537200D02*
X104216200Y-56715000D01*
X115103000Y-63166600D02*
X115103000Y-56606800D01*
X143796000Y-64525500D02*
X142742000Y-63471400D01*
X104216200Y-62153800D02*
X106222800Y-64160400D01*
X168694000Y-61039400D02*
X167674800Y-60020200D01*
X168815000Y-61039400D02*
X168694000Y-61039400D01*
X142742000Y-63471400D02*
X115408000Y-63471400D01*
X104216200Y-56715000D02*
X104216200Y-62153800D01*
X115408000Y-63471400D02*
X115103000Y-63166600D01*
X167674800Y-60020200D02*
X154536300Y-60020200D01*
X175793000Y-66475000D02*
X175171000Y-65852700D01*
X115033400Y-56537200D02*
X104394000Y-56537200D01*
X175171000Y-65852700D02*
X173629000Y-65852700D01*
%TO.N,MTRON*%
X104038400Y-70281800D02*
X104038400Y-88876600D01*
X102069900Y-68313300D02*
X104038400Y-70281800D01*
X102057200Y-68300600D02*
X102069900Y-68313300D01*
X104038400Y-88876600D02*
X103305000Y-89610000D01*
%TO.N,ENC1*%
X176476000Y-87903100D02*
X174904400Y-89474700D01*
X148894800Y-59004200D02*
X147878800Y-60020200D01*
X174904400Y-89474700D02*
X165729000Y-89474700D01*
X165729000Y-89474700D02*
X164941000Y-88687300D01*
X153136600Y-59004200D02*
X148894800Y-59004200D01*
X184499000Y-77054100D02*
X176476000Y-85077300D01*
X174320200Y-63677800D02*
X167690800Y-57048400D01*
X167690800Y-57048400D02*
X155092400Y-57048400D01*
X174320200Y-63882600D02*
X174320200Y-63677800D01*
X176476000Y-85077300D02*
X176476000Y-87903100D01*
X155092400Y-57048400D02*
X153136600Y-59004200D01*
X184814000Y-77054100D02*
X184499000Y-77054100D01*
X184848000Y-77019100D02*
X184814000Y-77054100D01*
X164941000Y-88687300D02*
X164941000Y-88284100D01*
%TO.N,DIR*%
X113313000Y-98907600D02*
X110392000Y-95986600D01*
X134947000Y-98907600D02*
X113313000Y-98907600D01*
X142799000Y-91055800D02*
X134947000Y-98907600D01*
X110392000Y-95986600D02*
X110392000Y-95329400D01*
X151206200Y-91055800D02*
X142799000Y-91055800D01*
%TO.N,ENCSW*%
X154940000Y-56565800D02*
X152984200Y-58521600D01*
X148418300Y-58521600D02*
X147500850Y-57604150D01*
X177660000Y-71488300D02*
X177660000Y-65497100D01*
X171561000Y-59216800D02*
X168910000Y-56565800D01*
X168910000Y-56565800D02*
X154940000Y-56565800D01*
X152984200Y-58521600D02*
X148418300Y-58521600D01*
X147500850Y-57604150D02*
X147463000Y-57566300D01*
X171561000Y-59398100D02*
X171561000Y-59216800D01*
X177660000Y-65497100D02*
X171561000Y-59398100D01*
X179130000Y-72958300D02*
X177660000Y-71488300D01*
%TO.N,READY*%
X100224000Y-99296300D02*
X100224000Y-87610000D01*
X103242000Y-102314000D02*
X100224000Y-99296300D01*
%TO.N,JA*%
X150182000Y-67297300D02*
X146349000Y-67297300D01*
X172152000Y-67126900D02*
X169363300Y-64338200D01*
X167373000Y-82299200D02*
X172152000Y-77520800D01*
X166424000Y-82299200D02*
X167373000Y-82299200D01*
X117059000Y-72075700D02*
X114731800Y-74402900D01*
X165760400Y-81635600D02*
X166424000Y-82299200D01*
X141571000Y-72075700D02*
X117059000Y-72075700D01*
X114731800Y-74402900D02*
X114731800Y-75996800D01*
X153141100Y-64338200D02*
X150182000Y-67297300D01*
X169363300Y-64338200D02*
X153141100Y-64338200D01*
X146349000Y-67297300D02*
X141571000Y-72075700D01*
X172152000Y-77520800D02*
X172152000Y-67126900D01*
%TO.N,JB*%
X117415000Y-73399600D02*
X116052600Y-74762000D01*
X116052600Y-74762000D02*
X116052600Y-78229400D01*
X114476000Y-79806000D02*
X114476000Y-80592600D01*
X116052600Y-78229400D02*
X114476000Y-79806000D01*
X171298000Y-76971500D02*
X171298000Y-67686300D01*
X141529000Y-73399600D02*
X117415000Y-73399600D01*
X171298000Y-67686300D02*
X169042100Y-65430400D01*
X150601000Y-68319600D02*
X146609000Y-68319600D01*
X153490200Y-65430400D02*
X150601000Y-68319600D01*
X168396000Y-79873500D02*
X171298000Y-76971500D01*
X163677600Y-79654400D02*
X163896700Y-79873500D01*
X169042100Y-65430400D02*
X153490200Y-65430400D01*
X163896700Y-79873500D02*
X168396000Y-79873500D01*
X146609000Y-68319600D02*
X141529000Y-73399600D01*
%TO.N,JC*%
X168332500Y-80645000D02*
X171698000Y-77279500D01*
X169189400Y-64846200D02*
X169164000Y-64820800D01*
X171698000Y-77279500D02*
X171698000Y-67238600D01*
X150293000Y-67751300D02*
X146612000Y-67751300D01*
X115519200Y-74279100D02*
X115519200Y-76374400D01*
X166751000Y-80645000D02*
X168332500Y-80645000D01*
X117094000Y-72704300D02*
X115519200Y-74279100D01*
X169164000Y-64820800D02*
X153223500Y-64820800D01*
X153223500Y-64820800D02*
X150293000Y-67751300D01*
X146612000Y-67751300D02*
X141659000Y-72704300D01*
X171698000Y-67238600D02*
X169305600Y-64846200D01*
X169305600Y-64846200D02*
X169189400Y-64846200D01*
X141659000Y-72704300D02*
X117094000Y-72704300D01*
X115519200Y-76374400D02*
X113706000Y-78187600D01*
%TO.N,SPI2_MISO*%
X177393600Y-90986000D02*
X182442000Y-90986000D01*
X182442000Y-90986000D02*
X182804000Y-90624000D01*
%TO.N,Net-(RN4-Pad2)*%
X140398500Y-102273200D02*
X140398500Y-95313500D01*
X138500000Y-104171700D02*
X140398500Y-102273200D01*
%TO.N,ENC2*%
X152857200Y-60147200D02*
X151892000Y-60147200D01*
X151879300Y-60134500D02*
X151790400Y-60045600D01*
X166751000Y-57480200D02*
X155524200Y-57480200D01*
X174345600Y-65074800D02*
X166751000Y-57480200D01*
X155524200Y-57480200D02*
X152857200Y-60147200D01*
X151892000Y-60147200D02*
X151879300Y-60134500D01*
%TO.N,U3-40-PC9*%
X179905000Y-72167800D02*
X179889000Y-72167800D01*
X180102000Y-76949300D02*
X180238000Y-76812900D01*
X180238000Y-72501100D02*
X179905000Y-72167800D01*
X179889000Y-72167800D02*
X178286000Y-70564400D01*
X177471000Y-79609900D02*
X180102000Y-76978700D01*
X178286000Y-70564400D02*
X178286000Y-65214000D01*
X153314400Y-57556400D02*
X151765000Y-57556400D01*
X154762200Y-56108600D02*
X153314400Y-57556400D01*
X180238000Y-76812900D02*
X180238000Y-72501100D01*
X178286000Y-65214000D02*
X169180600Y-56108600D01*
X180102000Y-76978700D02*
X180102000Y-76949300D01*
X169180600Y-56108600D02*
X154762200Y-56108600D01*
X177155000Y-79609900D02*
X177471000Y-79609900D01*
%TO.N,JKA1-1*%
X150339000Y-84588633D02*
X150339000Y-84743900D01*
X155162206Y-81260994D02*
X153666639Y-81260994D01*
X167323300Y-69329300D02*
X163449000Y-73203600D01*
X163219600Y-73203600D02*
X155162206Y-81260994D01*
X163449000Y-73203600D02*
X163219600Y-73203600D01*
X169800500Y-69330800D02*
X169802000Y-69329300D01*
X169802000Y-69329300D02*
X167323300Y-69329300D01*
X153666639Y-81260994D02*
X150339000Y-84588633D01*
%TO.N,JKA1-2*%
X163230000Y-74079100D02*
X167022000Y-70286600D01*
X162953700Y-74079100D02*
X163230000Y-74079100D01*
X167022000Y-70286600D02*
X168251000Y-70286600D01*
X151358600Y-85115400D02*
X151358600Y-84134719D01*
X152898081Y-84134719D02*
X162953700Y-74079100D01*
X151358600Y-84134719D02*
X152898081Y-84134719D01*
%TO.N,WPROT_3V3*%
X141694000Y-86296500D02*
X142919000Y-85070900D01*
X165522000Y-68691100D02*
X164684000Y-68691100D01*
X142919000Y-85070900D02*
X148304000Y-85070900D01*
X148908000Y-84467700D02*
X149184000Y-84191500D01*
X164684000Y-68691100D02*
X149184000Y-84190800D01*
X167078000Y-68726100D02*
X165557000Y-68726100D01*
X149184000Y-84190800D02*
X149184000Y-84191500D01*
X165557000Y-68726100D02*
X165522000Y-68691100D01*
X148304000Y-85070900D02*
X148908000Y-84467700D01*
%TO.N,SEL*%
X158613400Y-82702400D02*
X159207200Y-83296200D01*
X159207200Y-83296200D02*
X159207200Y-85366500D01*
X175260000Y-83820000D02*
X182880000Y-76200000D01*
X158613400Y-82702400D02*
X160020000Y-82702400D01*
X195130500Y-61409500D02*
X196399200Y-61409500D01*
X161137600Y-83820000D02*
X175260000Y-83820000D01*
X98298300Y-72975000D02*
X101875000Y-76551500D01*
X144161000Y-88303100D02*
X134763000Y-97701100D01*
X159207200Y-85366500D02*
X156550000Y-88023700D01*
X98302300Y-70967600D02*
X98298300Y-70971600D01*
X144551000Y-88023700D02*
X144272000Y-88303100D01*
X128470000Y-97701100D02*
X128375000Y-97605900D01*
X182880000Y-76200000D02*
X182880000Y-73660000D01*
X128283000Y-97697900D02*
X114078000Y-97697900D01*
X112265000Y-95885000D02*
X112265000Y-94913400D01*
X101875000Y-76551500D02*
X101875000Y-90538800D01*
X144272000Y-88303100D02*
X144161000Y-88303100D01*
X182880000Y-73660000D02*
X195130500Y-61409500D01*
X114078000Y-97697900D02*
X112265000Y-95885000D01*
X98298300Y-70971600D02*
X98298300Y-72975000D01*
X160020000Y-82702400D02*
X161137600Y-83820000D01*
X101875000Y-90538800D02*
X105511000Y-94175200D01*
X128375000Y-97605900D02*
X128283000Y-97697900D01*
X156550000Y-88023700D02*
X144551000Y-88023700D01*
X101930200Y-70967600D02*
X98302300Y-70967600D01*
X134763000Y-97701100D02*
X128470000Y-97701100D01*
%TO.N,STEP*%
X144104000Y-87576000D02*
X136330000Y-95350000D01*
X156238600Y-87576000D02*
X144104000Y-87576000D01*
X158589700Y-85224900D02*
X156238600Y-87576000D01*
X136330000Y-95350000D02*
X114892000Y-95350000D01*
X158589700Y-85082100D02*
X158589700Y-85224900D01*
%TO.N,WGATE*%
X112538000Y-88401400D02*
X112538000Y-86874400D01*
X155515935Y-86601606D02*
X155515935Y-86622265D01*
X143415000Y-86658500D02*
X141099200Y-88974300D01*
X130909000Y-95967400D02*
X130909000Y-95967500D01*
X125145000Y-85545300D02*
X128574000Y-88974300D01*
X102685000Y-97531000D02*
X103408400Y-97531000D01*
X157613400Y-80812700D02*
X157613400Y-84524800D01*
X157613400Y-84524800D02*
X155888065Y-86250135D01*
X155867406Y-86250135D02*
X155515935Y-86601606D01*
X164490400Y-75387200D02*
X164173000Y-75704600D01*
X112538000Y-86874400D02*
X113867000Y-85545300D01*
X155515935Y-86622265D02*
X155479700Y-86658500D01*
X113867000Y-85545300D02*
X125145000Y-85545300D01*
X164109000Y-75774600D02*
X163338000Y-76546100D01*
X155888065Y-86250135D02*
X155867406Y-86250135D01*
X130909000Y-95967500D02*
X123295000Y-95967500D01*
X155479700Y-86658500D02*
X143415000Y-86658500D01*
X123295000Y-95967500D02*
X122873000Y-96389400D01*
X141099200Y-88974300D02*
X128574000Y-88974300D01*
X103408400Y-97531000D02*
X112538000Y-88401400D01*
X163338000Y-76546100D02*
X161880000Y-76546100D01*
X165176200Y-75387200D02*
X164490400Y-75387200D01*
X161880000Y-76546100D02*
X157613400Y-80812700D01*
%TO.N,INDEX*%
X116615000Y-82407100D02*
X122711000Y-82407100D01*
X116254300Y-82767800D02*
X116615000Y-82407100D01*
X105994200Y-84023200D02*
X113607314Y-84023200D01*
X114862714Y-82767800D02*
X116254300Y-82767800D01*
X122711000Y-82407100D02*
X122796000Y-82321400D01*
X113607314Y-84023200D02*
X114862714Y-82767800D01*
X105918000Y-84099400D02*
X105994200Y-84023200D01*
%TO.N,WPROT*%
X111001000Y-92521200D02*
X118384770Y-92521200D01*
X118384770Y-92521200D02*
X118737185Y-92168785D01*
X111843000Y-100047000D02*
X121109000Y-100047000D01*
X111843000Y-100047000D02*
X111843000Y-101504000D01*
X111843000Y-100047000D02*
X110951000Y-99154500D01*
X110951000Y-98586600D02*
X109374000Y-97009600D01*
X109374000Y-97009600D02*
X109374000Y-94148100D01*
X121834000Y-88871400D02*
X121834000Y-89071400D01*
X110951000Y-99154500D02*
X110951000Y-98586600D01*
X121834000Y-89071400D02*
X118577000Y-92329000D01*
X109374000Y-94148100D02*
X111001000Y-92521200D01*
%TO.N,RDATA*%
X127052000Y-99510500D02*
X124631000Y-101932000D01*
X124631000Y-101932000D02*
X120394000Y-101932000D01*
X110590000Y-100891000D02*
X110590000Y-103610000D01*
%TO.N,TRK0*%
X120094000Y-88614200D02*
X120094000Y-88550800D01*
X108918000Y-98431400D02*
X108918000Y-93998500D01*
X110096000Y-99610000D02*
X108918000Y-98431400D01*
X108918000Y-93998500D02*
X110825000Y-92090900D01*
X116618000Y-92090900D02*
X120094000Y-88614200D01*
X110825000Y-92090900D02*
X116618000Y-92090900D01*
%TO.N,SIDE1*%
X158013400Y-84809871D02*
X158013400Y-80978500D01*
X150266400Y-93040200D02*
X153468400Y-89838200D01*
X161633000Y-77358900D02*
X164182000Y-77358900D01*
X141633800Y-93040200D02*
X150266400Y-93040200D01*
X164182000Y-77358900D02*
X166180556Y-75360344D01*
X158013400Y-80978500D02*
X161633000Y-77358900D01*
X157989700Y-84976370D02*
X157989700Y-84833571D01*
X156115935Y-86850135D02*
X157989700Y-84976370D01*
X157989700Y-84833571D02*
X158013400Y-84809871D01*
X129052000Y-105622000D02*
X141633800Y-93040200D01*
X153468400Y-89838200D02*
X155300000Y-89838200D01*
X166180556Y-75360344D02*
X166180556Y-74484517D01*
%TO.N,WDATA*%
X165001600Y-73561600D02*
X164998400Y-73558400D01*
X116687600Y-94056200D02*
X116941600Y-94056200D01*
X163097000Y-74571200D02*
X157175200Y-80493000D01*
X157175200Y-84397314D02*
X155722379Y-85850135D01*
X169008400Y-75923800D02*
X168469000Y-75923800D01*
X157175200Y-80493000D02*
X157175200Y-84397314D01*
X168469000Y-75923800D02*
X166106000Y-73561600D01*
X122428000Y-90059000D02*
X118430800Y-94056200D01*
X155722379Y-85850135D02*
X155701720Y-85850135D01*
X163985600Y-74571200D02*
X163097000Y-74571200D01*
X166106000Y-73561600D02*
X165001600Y-73561600D01*
X164998400Y-73558400D02*
X163985600Y-74571200D01*
X129581600Y-88315800D02*
X129590800Y-88315800D01*
X118430800Y-94056200D02*
X116941600Y-94056200D01*
X141153700Y-88315800D02*
X129590800Y-88315800D01*
X155293355Y-86258500D02*
X143211000Y-86258500D01*
X169265600Y-75666600D02*
X169008400Y-75923800D01*
X143211000Y-86258500D02*
X141153700Y-88315800D01*
X155701720Y-85850135D02*
X155293355Y-86258500D01*
%TO.N,BUT_L*%
X166246000Y-92513100D02*
X174872700Y-92513100D01*
X202234800Y-66852800D02*
X203200000Y-66852800D01*
X181143000Y-90189100D02*
X198475600Y-72856500D01*
X198475600Y-72856500D02*
X198475600Y-70612000D01*
X198475600Y-70612000D02*
X202234800Y-66852800D01*
X174872700Y-92513100D02*
X177196700Y-90189100D01*
X177196700Y-90189100D02*
X181143000Y-90189100D01*
X160645000Y-86912400D02*
X166246000Y-92513100D01*
%TO.N,BUT_R*%
X167801000Y-92113100D02*
X174459900Y-92113100D01*
X201244200Y-61620400D02*
X203161900Y-59702700D01*
X201244200Y-65557200D02*
X201244200Y-64135000D01*
X176834800Y-89738200D02*
X180727000Y-89738200D01*
X163887000Y-88198900D02*
X167801000Y-92113100D01*
X197672000Y-72793400D02*
X197672000Y-69129400D01*
X201244200Y-64287400D02*
X201244200Y-61620400D01*
X174459900Y-92113100D02*
X176834800Y-89738200D01*
X203161900Y-59702700D02*
X203200000Y-59664600D01*
X180727000Y-89738200D02*
X197672000Y-72793400D01*
X163887000Y-86931500D02*
X163887000Y-88198900D01*
X197672000Y-69129400D02*
X201244200Y-65557200D01*
%TO.N,INDEX_3V3*%
X151086000Y-80333900D02*
X162931000Y-68487900D01*
X162931000Y-68487900D02*
X162931000Y-68338700D01*
X148387000Y-80333900D02*
X151086000Y-80333900D01*
X145386000Y-83404100D02*
X145386000Y-83334200D01*
X142072000Y-83404100D02*
X145386000Y-83404100D01*
X145386000Y-83334200D02*
X148387000Y-80333900D01*
%TO.N,TRK0_3V3*%
X146415000Y-81397400D02*
X148142000Y-79670300D01*
X144158000Y-81397400D02*
X146415000Y-81397400D01*
X163379000Y-65852700D02*
X166697000Y-65852700D01*
X161785000Y-68922900D02*
X161785000Y-67446500D01*
X161785000Y-67446500D02*
X163379000Y-65852700D01*
X151038000Y-79670300D02*
X161785000Y-68922900D01*
X166697000Y-65852700D02*
X167465000Y-66621000D01*
X167465000Y-66621000D02*
X167484000Y-66621000D01*
X148142000Y-79670300D02*
X151038000Y-79670300D01*
%TO.N,READY_3V3*%
X168481000Y-67840200D02*
X168446000Y-67875100D01*
X164932000Y-67875100D02*
X149803000Y-83004000D01*
X149803000Y-83004000D02*
X148879000Y-83004000D01*
X168446000Y-67875100D02*
X164932000Y-67875100D01*
%TO.N,CHNG*%
X122736000Y-78247900D02*
X130899000Y-86410800D01*
X122736000Y-76638000D02*
X122736000Y-78247900D01*
%TO.N,HDOUT*%
X101752400Y-58166000D02*
X101548100Y-57961700D01*
X97093200Y-59526700D02*
X97093200Y-88610000D01*
X98658200Y-57961700D02*
X97093200Y-59526700D01*
X101548100Y-57961700D02*
X98658200Y-57961700D01*
%TO.N,CHNG_3V3*%
X151270000Y-80971900D02*
X165095000Y-67147100D01*
X149203000Y-80971900D02*
X151270000Y-80971900D01*
X165095000Y-67147100D02*
X165095000Y-67008400D01*
%TO.N,DRVSEL*%
X102662000Y-73985400D02*
X102662000Y-83610000D01*
X102057200Y-73380600D02*
X102662000Y-73985400D01*
%TO.N,SPI2_SS*%
X170936000Y-87914000D02*
X173122000Y-85728700D01*
X173122000Y-85728700D02*
X173122000Y-84429700D01*
%TO.N,I2C2_DTA*%
X186433000Y-77200100D02*
X186433000Y-74701400D01*
X189709600Y-71424800D02*
X196545200Y-71424800D01*
X167221000Y-90576400D02*
X167221000Y-90728800D01*
X167221000Y-90728800D02*
X168205000Y-91713100D01*
X177933000Y-85699600D02*
X186433000Y-77200100D01*
X177933000Y-87852600D02*
X177933000Y-85699600D01*
X168205000Y-91713100D02*
X174072500Y-91713100D01*
X186433000Y-74701400D02*
X189709600Y-71424800D01*
X174072500Y-91713100D02*
X177933000Y-87852600D01*
%TO.N,I2C2_CLK*%
X195180000Y-64039800D02*
X195199000Y-64039800D01*
X196484900Y-64039700D02*
X195199000Y-64039700D01*
X195199000Y-64039700D02*
X195199000Y-64039800D01*
X196485000Y-64039700D02*
X196484900Y-64039700D01*
X174282100Y-90766900D02*
X177387000Y-87662000D01*
X195199000Y-64039800D02*
X196485000Y-64039800D01*
X185448000Y-73809100D02*
X185430000Y-73790200D01*
X185430000Y-73790200D02*
X195180000Y-64039800D01*
X168729000Y-90766900D02*
X174282100Y-90766900D01*
X177387000Y-85328900D02*
X185448000Y-77267700D01*
X185448000Y-77267700D02*
X185448000Y-73809100D01*
X177387000Y-87662000D02*
X177387000Y-85328900D01*
X168634000Y-90862100D02*
X168729000Y-90766900D01*
%TD*%
%TA.AperFunction,Conductor*%
%TO.N,GND*%
G36*
X103969141Y-55900185D02*
G01*
X104014896Y-55952989D01*
X104024840Y-56022147D01*
X103995815Y-56085703D01*
X103989783Y-56092181D01*
X103735681Y-56346282D01*
X103735677Y-56346287D01*
X103728120Y-56359378D01*
X103719092Y-56375016D01*
X103656623Y-56483215D01*
X103615699Y-56635943D01*
X103615699Y-56635945D01*
X103615699Y-56804046D01*
X103615700Y-56804059D01*
X103615700Y-62067130D01*
X103615699Y-62067148D01*
X103615699Y-62232854D01*
X103615698Y-62232854D01*
X103627285Y-62276097D01*
X103656623Y-62385585D01*
X103670670Y-62409914D01*
X103714010Y-62484982D01*
X103735679Y-62522515D01*
X103854549Y-62641385D01*
X103854555Y-62641390D01*
X105392098Y-64178933D01*
X105425583Y-64240256D01*
X105427637Y-64252730D01*
X105437430Y-64339649D01*
X105497010Y-64509921D01*
X105536355Y-64572538D01*
X105592984Y-64662662D01*
X105720538Y-64790216D01*
X105873278Y-64886189D01*
X105931987Y-64906732D01*
X106043545Y-64945768D01*
X106043550Y-64945769D01*
X106222796Y-64965965D01*
X106222800Y-64965965D01*
X106222804Y-64965965D01*
X106402049Y-64945769D01*
X106402052Y-64945768D01*
X106402055Y-64945768D01*
X106572322Y-64886189D01*
X106725062Y-64790216D01*
X106852616Y-64662662D01*
X106948589Y-64509922D01*
X107008168Y-64339655D01*
X107018073Y-64251745D01*
X107028365Y-64160403D01*
X107028365Y-64160396D01*
X107008169Y-63981150D01*
X107008168Y-63981145D01*
X106975812Y-63888677D01*
X106948589Y-63810878D01*
X106852616Y-63658138D01*
X106725062Y-63530584D01*
X106617686Y-63463115D01*
X106572321Y-63434610D01*
X106402049Y-63375030D01*
X106315130Y-63365237D01*
X106250716Y-63338170D01*
X106241333Y-63329698D01*
X104853019Y-61941384D01*
X104819534Y-61880061D01*
X104816700Y-61853703D01*
X104816700Y-57261700D01*
X104836385Y-57194661D01*
X104889189Y-57148906D01*
X104940700Y-57137700D01*
X109556903Y-57137700D01*
X109623942Y-57157385D01*
X109669697Y-57210189D01*
X109679641Y-57279347D01*
X109650616Y-57342903D01*
X109644584Y-57349381D01*
X106236115Y-60757848D01*
X106174792Y-60791333D01*
X106162318Y-60793387D01*
X106018149Y-60809630D01*
X106018145Y-60809631D01*
X105847876Y-60869211D01*
X105695137Y-60965184D01*
X105567584Y-61092737D01*
X105471611Y-61245476D01*
X105412031Y-61415745D01*
X105412030Y-61415750D01*
X105391835Y-61594996D01*
X105391835Y-61595003D01*
X105412030Y-61774249D01*
X105412031Y-61774254D01*
X105471611Y-61944523D01*
X105550537Y-62070132D01*
X105567584Y-62097262D01*
X105695138Y-62224816D01*
X105717871Y-62239100D01*
X105834434Y-62312342D01*
X105847878Y-62320789D01*
X106018145Y-62380368D01*
X106018150Y-62380369D01*
X106197396Y-62400565D01*
X106197400Y-62400565D01*
X106197404Y-62400565D01*
X106376649Y-62380369D01*
X106376652Y-62380368D01*
X106376655Y-62380368D01*
X106546922Y-62320789D01*
X106699662Y-62224816D01*
X106827216Y-62097262D01*
X106923189Y-61944522D01*
X106982768Y-61774255D01*
X106986111Y-61744580D01*
X107013175Y-61680169D01*
X107021640Y-61670793D01*
X110838916Y-57853519D01*
X110900239Y-57820034D01*
X110926597Y-57817200D01*
X113978500Y-57817200D01*
X114045539Y-57836885D01*
X114091294Y-57889689D01*
X114102500Y-57941200D01*
X114102500Y-60756903D01*
X114082815Y-60823942D01*
X114030011Y-60869697D01*
X113960853Y-60879641D01*
X113897297Y-60850616D01*
X113890819Y-60844584D01*
X112120800Y-59074565D01*
X112087315Y-59013242D01*
X112085263Y-59000786D01*
X112075468Y-58913845D01*
X112015889Y-58743578D01*
X111919916Y-58590838D01*
X111792362Y-58463284D01*
X111747110Y-58434850D01*
X111639623Y-58367311D01*
X111469354Y-58307731D01*
X111469349Y-58307730D01*
X111290104Y-58287535D01*
X111290096Y-58287535D01*
X111110850Y-58307730D01*
X111110845Y-58307731D01*
X110940576Y-58367311D01*
X110787837Y-58463284D01*
X110660284Y-58590837D01*
X110564311Y-58743576D01*
X110504731Y-58913845D01*
X110504730Y-58913850D01*
X110484535Y-59093096D01*
X110484535Y-59093103D01*
X110504730Y-59272349D01*
X110504731Y-59272354D01*
X110564311Y-59442623D01*
X110660284Y-59595362D01*
X110787838Y-59722916D01*
X110940578Y-59818889D01*
X111110845Y-59878468D01*
X111197769Y-59888261D01*
X111262180Y-59915326D01*
X111271565Y-59923800D01*
X113536181Y-62188416D01*
X113569666Y-62249739D01*
X113572500Y-62276097D01*
X113572500Y-65324243D01*
X113552815Y-65391282D01*
X113500011Y-65437037D01*
X113489456Y-65441284D01*
X113417076Y-65466611D01*
X113417075Y-65466612D01*
X113264337Y-65562584D01*
X113136784Y-65690137D01*
X113040811Y-65842876D01*
X112981231Y-66013145D01*
X112981230Y-66013150D01*
X112961035Y-66192396D01*
X112961035Y-66192403D01*
X112981230Y-66371649D01*
X112981231Y-66371654D01*
X113040811Y-66541923D01*
X113136784Y-66694662D01*
X113148812Y-66706690D01*
X113182297Y-66768013D01*
X113177313Y-66837705D01*
X113148812Y-66882052D01*
X111612265Y-68418598D01*
X111550942Y-68452083D01*
X111483629Y-68447958D01*
X111431254Y-68429631D01*
X111252004Y-68409435D01*
X111251996Y-68409435D01*
X111072750Y-68429630D01*
X111072745Y-68429631D01*
X110902476Y-68489211D01*
X110749737Y-68585184D01*
X110622184Y-68712737D01*
X110526211Y-68865476D01*
X110466631Y-69035745D01*
X110466630Y-69035750D01*
X110446435Y-69214996D01*
X110446435Y-69215003D01*
X110466630Y-69394249D01*
X110466631Y-69394254D01*
X110526211Y-69564523D01*
X110621536Y-69716231D01*
X110622184Y-69717262D01*
X110749738Y-69844816D01*
X110902478Y-69940789D01*
X111007855Y-69977662D01*
X111072745Y-70000368D01*
X111072750Y-70000369D01*
X111251996Y-70020565D01*
X111252000Y-70020565D01*
X111252004Y-70020565D01*
X111431249Y-70000369D01*
X111431252Y-70000368D01*
X111431255Y-70000368D01*
X111601522Y-69940789D01*
X111754262Y-69844816D01*
X111774511Y-69824565D01*
X111830098Y-69792472D01*
X111896885Y-69774577D01*
X111969830Y-69732462D01*
X112033816Y-69695520D01*
X112145620Y-69583716D01*
X112145620Y-69583714D01*
X112155824Y-69573511D01*
X112155827Y-69573506D01*
X116500316Y-65229019D01*
X116561639Y-65195534D01*
X116587997Y-65192700D01*
X138511303Y-65192700D01*
X138578342Y-65212385D01*
X138598984Y-65229019D01*
X141070181Y-67700216D01*
X141103666Y-67761539D01*
X141106500Y-67787897D01*
X141106500Y-69108342D01*
X141086815Y-69175381D01*
X141070127Y-69196077D01*
X141030966Y-69235190D01*
X140969623Y-69268637D01*
X140957222Y-69270675D01*
X140869750Y-69280530D01*
X140699478Y-69340110D01*
X140546737Y-69436084D01*
X140419184Y-69563637D01*
X140323211Y-69716376D01*
X140263631Y-69886645D01*
X140263630Y-69886650D01*
X140243435Y-70065896D01*
X140243435Y-70065903D01*
X140263630Y-70245149D01*
X140263633Y-70245162D01*
X140287457Y-70313245D01*
X140291019Y-70383024D01*
X140256291Y-70443651D01*
X140194297Y-70475879D01*
X140170416Y-70478200D01*
X137607930Y-70478200D01*
X137540891Y-70458515D01*
X137495136Y-70405711D01*
X137485192Y-70336553D01*
X137514217Y-70272997D01*
X137520249Y-70266519D01*
X138357270Y-69429497D01*
X139205359Y-68581406D01*
X139241432Y-68558757D01*
X139240544Y-68556913D01*
X139246815Y-68553892D01*
X139246816Y-68553890D01*
X139246822Y-68553889D01*
X139399562Y-68457916D01*
X139527116Y-68330362D01*
X139623089Y-68177622D01*
X139682668Y-68007355D01*
X139683907Y-67996362D01*
X139702865Y-67828103D01*
X139702865Y-67828096D01*
X139682669Y-67648850D01*
X139682668Y-67648845D01*
X139657475Y-67576847D01*
X139623089Y-67478578D01*
X139608986Y-67456134D01*
X139553234Y-67367405D01*
X139527116Y-67325838D01*
X139399562Y-67198284D01*
X139380020Y-67186005D01*
X139246823Y-67102311D01*
X139076554Y-67042731D01*
X139076549Y-67042730D01*
X138897304Y-67022535D01*
X138897296Y-67022535D01*
X138718050Y-67042730D01*
X138718045Y-67042731D01*
X138547776Y-67102311D01*
X138395037Y-67198284D01*
X138267484Y-67325837D01*
X138171508Y-67478583D01*
X138168486Y-67484858D01*
X138166661Y-67483978D01*
X138143992Y-67520039D01*
X136315051Y-69348981D01*
X136253728Y-69382466D01*
X136227370Y-69385300D01*
X123730200Y-69385300D01*
X123663161Y-69365615D01*
X123642524Y-69348986D01*
X122916264Y-68622808D01*
X121479297Y-67186004D01*
X121456656Y-67149962D01*
X121454810Y-67150852D01*
X121451791Y-67144585D01*
X121451789Y-67144578D01*
X121355816Y-66991838D01*
X121228262Y-66864284D01*
X121164983Y-66824523D01*
X121075523Y-66768311D01*
X120905254Y-66708731D01*
X120905249Y-66708730D01*
X120726004Y-66688535D01*
X120725996Y-66688535D01*
X120546750Y-66708730D01*
X120546745Y-66708731D01*
X120376476Y-66768311D01*
X120223737Y-66864284D01*
X120096184Y-66991837D01*
X120000211Y-67144576D01*
X119940631Y-67314845D01*
X119940630Y-67314850D01*
X119920435Y-67494096D01*
X119920435Y-67494103D01*
X119940630Y-67673349D01*
X119940632Y-67673357D01*
X119972095Y-67763273D01*
X119975656Y-67833052D01*
X119940927Y-67893679D01*
X119878934Y-67925906D01*
X119814099Y-67921269D01*
X119724257Y-67889832D01*
X119724249Y-67889830D01*
X119545004Y-67869635D01*
X119544996Y-67869635D01*
X119365750Y-67889830D01*
X119365745Y-67889831D01*
X119195476Y-67949411D01*
X119042737Y-68045384D01*
X118915184Y-68172937D01*
X118819211Y-68325676D01*
X118759631Y-68495945D01*
X118759630Y-68495950D01*
X118739435Y-68675196D01*
X118739435Y-68675203D01*
X118759630Y-68854449D01*
X118759631Y-68854454D01*
X118819211Y-69024722D01*
X118821590Y-69029662D01*
X118832942Y-69098603D01*
X118805221Y-69162738D01*
X118747226Y-69201704D01*
X118677371Y-69203130D01*
X118668917Y-69200507D01*
X118607260Y-69178933D01*
X118607249Y-69178930D01*
X118428004Y-69158735D01*
X118427996Y-69158735D01*
X118248750Y-69178930D01*
X118248745Y-69178931D01*
X118078476Y-69238511D01*
X117925737Y-69334484D01*
X117798184Y-69462037D01*
X117702211Y-69614776D01*
X117642631Y-69785045D01*
X117642630Y-69785050D01*
X117622435Y-69964296D01*
X117622435Y-69964303D01*
X117642630Y-70143549D01*
X117642631Y-70143554D01*
X117702211Y-70313823D01*
X117783788Y-70443651D01*
X117798184Y-70466562D01*
X117925738Y-70594116D01*
X117965715Y-70619235D01*
X118073951Y-70687245D01*
X118078478Y-70690089D01*
X118248745Y-70749668D01*
X118335580Y-70759451D01*
X118399991Y-70786516D01*
X118409385Y-70794998D01*
X118877824Y-71263527D01*
X118911303Y-71324854D01*
X118906312Y-71394545D01*
X118864435Y-71450474D01*
X118798968Y-71474885D01*
X118790134Y-71475200D01*
X117145670Y-71475200D01*
X117145654Y-71475199D01*
X117138058Y-71475199D01*
X116979943Y-71475199D01*
X116827215Y-71516123D01*
X116690328Y-71595155D01*
X116690281Y-71595182D01*
X114251279Y-74034184D01*
X114229107Y-74072589D01*
X114218662Y-74090681D01*
X114172223Y-74171115D01*
X114131299Y-74323843D01*
X114131299Y-74323845D01*
X114131299Y-74491946D01*
X114131300Y-74491959D01*
X114131300Y-75414387D01*
X114111615Y-75481426D01*
X114104250Y-75491696D01*
X114101986Y-75494534D01*
X114006011Y-75647276D01*
X113946431Y-75817545D01*
X113946430Y-75817550D01*
X113926235Y-75996796D01*
X113926235Y-75996803D01*
X113946430Y-76176049D01*
X113946431Y-76176054D01*
X114006011Y-76346323D01*
X114101984Y-76499062D01*
X114234462Y-76631540D01*
X114232627Y-76633374D01*
X114265914Y-76680828D01*
X114268743Y-76750641D01*
X114236130Y-76808233D01*
X113687465Y-77356898D01*
X113626142Y-77390383D01*
X113613668Y-77392437D01*
X113526750Y-77402230D01*
X113356478Y-77461810D01*
X113203737Y-77557784D01*
X113076184Y-77685337D01*
X112980211Y-77838076D01*
X112920631Y-78008345D01*
X112920630Y-78008350D01*
X112900435Y-78187596D01*
X112900435Y-78187603D01*
X112920630Y-78366849D01*
X112920631Y-78366854D01*
X112980211Y-78537123D01*
X113059808Y-78663800D01*
X113076184Y-78689862D01*
X113203738Y-78817416D01*
X113356478Y-78913389D01*
X113497372Y-78962690D01*
X113526745Y-78972968D01*
X113526750Y-78972969D01*
X113705996Y-78993165D01*
X113706000Y-78993165D01*
X113706004Y-78993165D01*
X113885249Y-78972969D01*
X113885252Y-78972968D01*
X113885255Y-78972968D01*
X114055522Y-78913389D01*
X114208262Y-78817416D01*
X114335816Y-78689862D01*
X114431789Y-78537122D01*
X114491368Y-78366855D01*
X114501161Y-78279929D01*
X114528226Y-78215518D01*
X114536690Y-78206143D01*
X115240420Y-77502414D01*
X115301742Y-77468930D01*
X115371434Y-77473914D01*
X115427367Y-77515786D01*
X115451784Y-77581250D01*
X115452100Y-77590096D01*
X115452100Y-77929302D01*
X115432415Y-77996341D01*
X115415781Y-78016983D01*
X113995481Y-79437282D01*
X113995475Y-79437290D01*
X113956509Y-79504783D01*
X113956509Y-79504784D01*
X113916423Y-79574215D01*
X113875499Y-79726943D01*
X113875499Y-79726945D01*
X113875499Y-79895046D01*
X113875500Y-79895059D01*
X113875500Y-80010187D01*
X113855815Y-80077226D01*
X113848450Y-80087496D01*
X113846186Y-80090334D01*
X113750211Y-80243076D01*
X113690631Y-80413345D01*
X113690630Y-80413350D01*
X113670435Y-80592596D01*
X113670435Y-80592603D01*
X113690630Y-80771849D01*
X113690631Y-80771854D01*
X113750211Y-80942123D01*
X113816661Y-81047876D01*
X113846184Y-81094862D01*
X113973738Y-81222416D01*
X114010476Y-81245500D01*
X114122115Y-81315648D01*
X114126478Y-81318389D01*
X114250311Y-81361720D01*
X114279284Y-81371858D01*
X114336060Y-81412580D01*
X114361807Y-81477533D01*
X114348351Y-81546094D01*
X114299964Y-81596497D01*
X114238329Y-81612900D01*
X113577697Y-81612900D01*
X113510658Y-81593215D01*
X113490016Y-81576581D01*
X111170819Y-79257384D01*
X111137334Y-79196061D01*
X111134500Y-79169703D01*
X111134500Y-73337840D01*
X111154185Y-73270801D01*
X111170827Y-73250150D01*
X111195767Y-73225215D01*
X114110364Y-70311189D01*
X114171690Y-70277711D01*
X114211918Y-70275660D01*
X114248873Y-70279823D01*
X114258999Y-70280965D01*
X114259000Y-70280965D01*
X114259004Y-70280965D01*
X114438249Y-70260769D01*
X114438252Y-70260768D01*
X114438255Y-70260768D01*
X114608522Y-70201189D01*
X114761262Y-70105216D01*
X114888816Y-69977662D01*
X114984789Y-69824922D01*
X115044368Y-69654655D01*
X115048861Y-69614778D01*
X115064565Y-69475403D01*
X115064565Y-69475396D01*
X115044369Y-69296150D01*
X115044368Y-69296145D01*
X115035456Y-69270675D01*
X114984789Y-69125878D01*
X114973770Y-69108342D01*
X114919138Y-69021395D01*
X114888816Y-68973138D01*
X114761262Y-68845584D01*
X114608523Y-68749611D01*
X114438254Y-68690031D01*
X114438249Y-68690030D01*
X114259004Y-68669835D01*
X114258996Y-68669835D01*
X114079750Y-68690030D01*
X114079745Y-68690031D01*
X113909476Y-68749611D01*
X113756737Y-68845584D01*
X113629184Y-68973137D01*
X113533212Y-69125875D01*
X113533211Y-69125876D01*
X113508090Y-69197668D01*
X113478722Y-69244402D01*
X110170589Y-72551886D01*
X110170491Y-72551973D01*
X110104484Y-72617979D01*
X110104477Y-72617985D01*
X110053495Y-72668956D01*
X110012882Y-72739301D01*
X110012877Y-72739309D01*
X109974431Y-72805884D01*
X109955018Y-72878338D01*
X109955014Y-72878351D01*
X109933500Y-72958607D01*
X109933500Y-73030896D01*
X109933491Y-73124979D01*
X109933500Y-73125112D01*
X109933500Y-79383130D01*
X109933499Y-79383148D01*
X109933499Y-79548854D01*
X109933498Y-79548854D01*
X109974423Y-79701586D01*
X109974424Y-79701587D01*
X110002011Y-79749369D01*
X110045387Y-79824499D01*
X110053481Y-79838517D01*
X110172349Y-79957385D01*
X110172355Y-79957390D01*
X112792739Y-82577774D01*
X112792749Y-82577785D01*
X112797079Y-82582115D01*
X112797080Y-82582116D01*
X112908884Y-82693920D01*
X112908886Y-82693921D01*
X112908890Y-82693924D01*
X113035969Y-82767292D01*
X113045816Y-82772977D01*
X113141838Y-82798706D01*
X113141837Y-82798706D01*
X113149537Y-82800769D01*
X113198542Y-82813900D01*
X113198543Y-82813900D01*
X113668016Y-82813900D01*
X113735055Y-82833585D01*
X113780810Y-82886389D01*
X113790754Y-82955547D01*
X113761729Y-83019103D01*
X113755697Y-83025581D01*
X113394898Y-83386381D01*
X113333575Y-83419866D01*
X113307217Y-83422700D01*
X106381371Y-83422700D01*
X106315399Y-83403694D01*
X106267522Y-83373610D01*
X106267518Y-83373609D01*
X106097262Y-83314033D01*
X106097249Y-83314030D01*
X105918004Y-83293835D01*
X105917996Y-83293835D01*
X105738750Y-83314030D01*
X105738745Y-83314031D01*
X105568476Y-83373611D01*
X105415737Y-83469584D01*
X105288184Y-83597137D01*
X105192211Y-83749876D01*
X105132631Y-83920145D01*
X105132630Y-83920150D01*
X105112435Y-84099396D01*
X105112435Y-84099403D01*
X105132630Y-84278649D01*
X105132631Y-84278654D01*
X105192211Y-84448923D01*
X105255876Y-84550244D01*
X105288184Y-84601662D01*
X105415738Y-84729216D01*
X105568478Y-84825189D01*
X105703145Y-84872311D01*
X105738745Y-84884768D01*
X105738750Y-84884769D01*
X105917996Y-84904965D01*
X105918000Y-84904965D01*
X105918004Y-84904965D01*
X106097249Y-84884769D01*
X106097252Y-84884768D01*
X106097255Y-84884768D01*
X106267522Y-84825189D01*
X106420262Y-84729216D01*
X106489459Y-84660019D01*
X106550782Y-84626534D01*
X106577140Y-84623700D01*
X112423903Y-84623700D01*
X112490942Y-84643385D01*
X112536697Y-84696189D01*
X112546641Y-84765347D01*
X112517616Y-84828903D01*
X112511584Y-84835381D01*
X109567666Y-87779297D01*
X109506343Y-87812782D01*
X109493869Y-87814836D01*
X109406951Y-87824629D01*
X109236679Y-87884209D01*
X109083938Y-87980183D01*
X108956385Y-88107736D01*
X108860412Y-88260475D01*
X108800832Y-88430744D01*
X108800831Y-88430749D01*
X108780636Y-88609995D01*
X108780636Y-88610002D01*
X108800831Y-88789248D01*
X108800832Y-88789253D01*
X108860412Y-88959522D01*
X108922857Y-89058902D01*
X108956385Y-89112261D01*
X109083939Y-89239815D01*
X109170238Y-89294040D01*
X109232577Y-89333211D01*
X109236679Y-89335788D01*
X109396049Y-89391554D01*
X109406946Y-89395367D01*
X109406951Y-89395368D01*
X109586197Y-89415564D01*
X109586201Y-89415564D01*
X109586205Y-89415564D01*
X109765450Y-89395368D01*
X109765453Y-89395367D01*
X109765456Y-89395367D01*
X109935723Y-89335788D01*
X110088463Y-89239815D01*
X110216017Y-89112261D01*
X110311990Y-88959521D01*
X110371569Y-88789254D01*
X110381362Y-88702328D01*
X110408427Y-88637917D01*
X110416891Y-88628542D01*
X111725820Y-87319613D01*
X111787142Y-87286130D01*
X111856834Y-87291114D01*
X111912767Y-87332986D01*
X111937184Y-87398450D01*
X111937500Y-87407296D01*
X111937500Y-88101302D01*
X111917815Y-88168341D01*
X111901181Y-88188983D01*
X106373392Y-93716771D01*
X106312069Y-93750256D01*
X106242377Y-93745272D01*
X106186444Y-93703400D01*
X106180717Y-93695062D01*
X106175955Y-93687484D01*
X106166816Y-93672938D01*
X106039262Y-93545384D01*
X105944852Y-93486062D01*
X105886523Y-93449411D01*
X105716254Y-93389831D01*
X105716249Y-93389830D01*
X105600080Y-93376742D01*
X105535666Y-93349676D01*
X105526277Y-93341198D01*
X105515491Y-93330411D01*
X102511814Y-90326402D01*
X102478332Y-90265077D01*
X102475500Y-90238726D01*
X102475500Y-90211940D01*
X102495185Y-90144901D01*
X102547989Y-90099146D01*
X102617147Y-90089202D01*
X102680703Y-90118227D01*
X102687181Y-90124259D01*
X102802738Y-90239816D01*
X102851463Y-90270432D01*
X102940538Y-90326402D01*
X102955478Y-90335789D01*
X103055960Y-90370949D01*
X103125745Y-90395368D01*
X103125750Y-90395369D01*
X103304996Y-90415565D01*
X103305000Y-90415565D01*
X103305004Y-90415565D01*
X103484249Y-90395369D01*
X103484252Y-90395368D01*
X103484255Y-90395368D01*
X103654522Y-90335789D01*
X103807262Y-90239816D01*
X103934816Y-90112262D01*
X104030789Y-89959522D01*
X104090368Y-89789255D01*
X104100161Y-89702329D01*
X104127226Y-89637918D01*
X104135690Y-89628543D01*
X104396906Y-89367328D01*
X104396911Y-89367324D01*
X104407114Y-89357120D01*
X104407116Y-89357120D01*
X104518920Y-89245316D01*
X104584852Y-89131118D01*
X104597977Y-89108385D01*
X104638900Y-88955658D01*
X104638900Y-88797543D01*
X104638900Y-70202743D01*
X104636992Y-70195624D01*
X104627934Y-70161819D01*
X104597977Y-70050016D01*
X104556204Y-69977662D01*
X104518924Y-69913090D01*
X104518921Y-69913086D01*
X104518920Y-69913084D01*
X104407116Y-69801280D01*
X104407115Y-69801279D01*
X104402785Y-69796949D01*
X104402774Y-69796939D01*
X102900600Y-68294765D01*
X102867115Y-68233442D01*
X102865063Y-68220986D01*
X102855268Y-68134045D01*
X102795689Y-67963778D01*
X102699716Y-67811038D01*
X102572162Y-67683484D01*
X102556032Y-67673349D01*
X102419423Y-67587511D01*
X102249154Y-67527931D01*
X102249149Y-67527930D01*
X102069904Y-67507735D01*
X102069896Y-67507735D01*
X101890650Y-67527930D01*
X101890645Y-67527931D01*
X101720376Y-67587511D01*
X101567637Y-67683484D01*
X101440084Y-67811037D01*
X101344111Y-67963776D01*
X101284531Y-68134045D01*
X101284530Y-68134050D01*
X101264335Y-68313296D01*
X101264335Y-68313303D01*
X101284530Y-68492549D01*
X101284531Y-68492554D01*
X101344111Y-68662823D01*
X101410288Y-68768142D01*
X101440084Y-68815562D01*
X101567638Y-68943116D01*
X101720378Y-69039089D01*
X101890645Y-69098668D01*
X101977569Y-69108461D01*
X102041980Y-69135526D01*
X102051365Y-69144000D01*
X103401581Y-70494216D01*
X103435066Y-70555539D01*
X103437900Y-70581897D01*
X103437900Y-73665523D01*
X103418215Y-73732562D01*
X103365411Y-73778317D01*
X103296253Y-73788261D01*
X103232697Y-73759236D01*
X103206513Y-73727523D01*
X103142522Y-73616687D01*
X103142521Y-73616686D01*
X103142520Y-73616684D01*
X103030716Y-73504880D01*
X103030715Y-73504879D01*
X103026385Y-73500549D01*
X103026374Y-73500539D01*
X102887900Y-73362065D01*
X102854415Y-73300742D01*
X102852363Y-73288286D01*
X102842568Y-73201345D01*
X102782989Y-73031078D01*
X102687016Y-72878338D01*
X102559462Y-72750784D01*
X102541187Y-72739301D01*
X102406723Y-72654811D01*
X102236454Y-72595231D01*
X102236449Y-72595230D01*
X102057204Y-72575035D01*
X102057196Y-72575035D01*
X101877950Y-72595230D01*
X101877945Y-72595231D01*
X101707676Y-72654811D01*
X101554937Y-72750784D01*
X101427384Y-72878337D01*
X101331411Y-73031076D01*
X101271831Y-73201345D01*
X101271830Y-73201350D01*
X101251635Y-73380596D01*
X101251635Y-73380603D01*
X101271830Y-73559849D01*
X101271831Y-73559854D01*
X101331411Y-73730123D01*
X101418843Y-73869269D01*
X101427384Y-73882862D01*
X101554938Y-74010416D01*
X101707678Y-74106389D01*
X101877945Y-74165968D01*
X101951384Y-74174242D01*
X102015796Y-74201307D01*
X102055352Y-74258902D01*
X102061500Y-74297462D01*
X102061500Y-75589426D01*
X102041815Y-75656465D01*
X101989011Y-75702220D01*
X101919853Y-75712164D01*
X101856297Y-75683139D01*
X101849821Y-75677110D01*
X98935121Y-72762573D01*
X98901635Y-72701250D01*
X98898800Y-72674889D01*
X98898800Y-71692100D01*
X98918485Y-71625061D01*
X98971289Y-71579306D01*
X99022800Y-71568100D01*
X101347788Y-71568100D01*
X101414827Y-71587785D01*
X101425103Y-71595155D01*
X101427936Y-71597414D01*
X101427938Y-71597416D01*
X101536212Y-71665449D01*
X101578626Y-71692100D01*
X101580678Y-71693389D01*
X101719649Y-71742017D01*
X101750945Y-71752968D01*
X101750950Y-71752969D01*
X101930196Y-71773165D01*
X101930200Y-71773165D01*
X101930204Y-71773165D01*
X102109449Y-71752969D01*
X102109452Y-71752968D01*
X102109455Y-71752968D01*
X102279722Y-71693389D01*
X102432462Y-71597416D01*
X102560016Y-71469862D01*
X102655989Y-71317122D01*
X102715568Y-71146855D01*
X102725795Y-71056086D01*
X102735765Y-70967603D01*
X102735765Y-70967596D01*
X102715569Y-70788350D01*
X102715568Y-70788345D01*
X102696666Y-70734327D01*
X102655989Y-70618078D01*
X102560016Y-70465338D01*
X102432462Y-70337784D01*
X102416628Y-70327835D01*
X102279723Y-70241811D01*
X102109454Y-70182231D01*
X102109449Y-70182230D01*
X101930204Y-70162035D01*
X101930196Y-70162035D01*
X101750950Y-70182230D01*
X101750945Y-70182231D01*
X101580676Y-70241811D01*
X101427936Y-70337785D01*
X101425103Y-70340045D01*
X101422924Y-70340934D01*
X101422042Y-70341489D01*
X101421944Y-70341334D01*
X101360417Y-70366455D01*
X101347788Y-70367100D01*
X98388969Y-70367100D01*
X98388953Y-70367099D01*
X98381357Y-70367099D01*
X98223243Y-70367099D01*
X98109686Y-70397527D01*
X98070514Y-70408023D01*
X98057702Y-70415421D01*
X98057700Y-70415422D01*
X97933587Y-70487077D01*
X97933582Y-70487081D01*
X97905381Y-70515283D01*
X97844058Y-70548768D01*
X97774366Y-70543784D01*
X97718433Y-70501912D01*
X97694016Y-70436448D01*
X97693700Y-70427602D01*
X97693700Y-59826797D01*
X97713385Y-59759758D01*
X97730019Y-59739116D01*
X98870616Y-58598519D01*
X98931939Y-58565034D01*
X98958297Y-58562200D01*
X100987408Y-58562200D01*
X101054447Y-58581885D01*
X101092401Y-58620227D01*
X101122582Y-58668260D01*
X101122584Y-58668262D01*
X101250138Y-58795816D01*
X101273245Y-58810335D01*
X101400533Y-58890316D01*
X101402878Y-58891789D01*
X101465925Y-58913850D01*
X101573145Y-58951368D01*
X101573150Y-58951369D01*
X101752396Y-58971565D01*
X101752400Y-58971565D01*
X101752404Y-58971565D01*
X101931649Y-58951369D01*
X101931652Y-58951368D01*
X101931655Y-58951368D01*
X102101922Y-58891789D01*
X102254662Y-58795816D01*
X102382216Y-58668262D01*
X102478189Y-58515522D01*
X102537768Y-58345255D01*
X102539494Y-58329939D01*
X102557965Y-58166003D01*
X102557965Y-58165996D01*
X102537769Y-57986750D01*
X102537768Y-57986745D01*
X102526195Y-57953672D01*
X102478189Y-57816478D01*
X102382216Y-57663738D01*
X102254662Y-57536184D01*
X102215881Y-57511816D01*
X102101923Y-57440211D01*
X101931654Y-57380631D01*
X101931649Y-57380630D01*
X101752404Y-57360435D01*
X101752397Y-57360435D01*
X101685538Y-57367968D01*
X101639563Y-57364523D01*
X101627158Y-57361199D01*
X101627157Y-57361199D01*
X101469043Y-57361199D01*
X101461447Y-57361199D01*
X101461431Y-57361200D01*
X98737257Y-57361200D01*
X98579142Y-57361200D01*
X98426415Y-57402123D01*
X98400447Y-57417116D01*
X98386965Y-57424900D01*
X98289485Y-57481179D01*
X98289482Y-57481181D01*
X96612681Y-59157982D01*
X96612680Y-59157984D01*
X96575616Y-59222181D01*
X96546649Y-59272354D01*
X96533915Y-59294410D01*
X96533623Y-59294915D01*
X96492699Y-59447643D01*
X96492699Y-59447645D01*
X96492699Y-59615746D01*
X96492700Y-59615759D01*
X96492700Y-88027587D01*
X96473015Y-88094626D01*
X96465650Y-88104896D01*
X96463386Y-88107734D01*
X96367411Y-88260476D01*
X96307831Y-88430745D01*
X96307830Y-88430750D01*
X96287635Y-88609996D01*
X96287635Y-88610003D01*
X96307830Y-88789249D01*
X96307831Y-88789254D01*
X96367411Y-88959523D01*
X96453003Y-89095741D01*
X96463384Y-89112262D01*
X96590938Y-89239816D01*
X96631260Y-89265152D01*
X96743674Y-89335787D01*
X96743678Y-89335789D01*
X96848801Y-89372573D01*
X96913945Y-89395368D01*
X96913950Y-89395369D01*
X97093196Y-89415565D01*
X97093200Y-89415565D01*
X97093204Y-89415565D01*
X97272449Y-89395369D01*
X97272452Y-89395368D01*
X97272455Y-89395368D01*
X97442722Y-89335789D01*
X97595462Y-89239816D01*
X97723016Y-89112262D01*
X97818989Y-88959522D01*
X97878568Y-88789255D01*
X97879221Y-88783463D01*
X97898765Y-88610003D01*
X97898765Y-88609996D01*
X97878569Y-88430750D01*
X97878568Y-88430745D01*
X97844408Y-88333121D01*
X97818989Y-88260478D01*
X97794382Y-88221317D01*
X97753365Y-88156038D01*
X97723016Y-88107738D01*
X97723014Y-88107736D01*
X97723013Y-88107734D01*
X97720750Y-88104896D01*
X97719859Y-88102715D01*
X97719311Y-88101842D01*
X97719464Y-88101745D01*
X97694344Y-88040209D01*
X97693700Y-88027587D01*
X97693700Y-87609996D01*
X99418435Y-87609996D01*
X99418435Y-87610003D01*
X99438630Y-87789249D01*
X99438631Y-87789254D01*
X99498211Y-87959523D01*
X99527715Y-88006478D01*
X99593980Y-88111938D01*
X99594185Y-88112263D01*
X99596445Y-88115097D01*
X99597334Y-88117275D01*
X99597889Y-88118158D01*
X99597734Y-88118255D01*
X99622855Y-88179783D01*
X99623500Y-88192412D01*
X99623500Y-99209155D01*
X99623496Y-99209217D01*
X99623500Y-99305478D01*
X99623500Y-99375375D01*
X99623502Y-99375385D01*
X99623503Y-99375387D01*
X99626916Y-99388120D01*
X99644351Y-99453175D01*
X99644351Y-99453182D01*
X99644353Y-99453182D01*
X99661896Y-99518655D01*
X99664428Y-99528102D01*
X99694735Y-99580589D01*
X99699813Y-99589383D01*
X99743480Y-99665016D01*
X99743481Y-99665017D01*
X99743483Y-99665020D01*
X99743496Y-99665038D01*
X99792530Y-99714067D01*
X99792545Y-99714081D01*
X99861095Y-99782631D01*
X99861148Y-99782678D01*
X102411299Y-102332574D01*
X102444787Y-102393896D01*
X102446842Y-102406376D01*
X102456630Y-102493249D01*
X102516210Y-102663521D01*
X102550045Y-102717369D01*
X102612184Y-102816262D01*
X102739738Y-102943816D01*
X102830080Y-103000582D01*
X102873058Y-103027587D01*
X102892478Y-103039789D01*
X103002885Y-103078422D01*
X103062745Y-103099368D01*
X103062750Y-103099369D01*
X103241996Y-103119565D01*
X103242000Y-103119565D01*
X103242004Y-103119565D01*
X103421249Y-103099369D01*
X103421252Y-103099368D01*
X103421255Y-103099368D01*
X103591522Y-103039789D01*
X103744262Y-102943816D01*
X103871816Y-102816262D01*
X103967789Y-102663522D01*
X104027368Y-102493255D01*
X104027558Y-102491568D01*
X104047565Y-102314003D01*
X104047565Y-102313996D01*
X104027369Y-102134750D01*
X104027368Y-102134745D01*
X104007658Y-102078416D01*
X103967789Y-101964478D01*
X103962141Y-101955490D01*
X103898071Y-101853523D01*
X103871816Y-101811738D01*
X103744262Y-101684184D01*
X103727922Y-101673917D01*
X103591521Y-101588210D01*
X103421249Y-101528630D01*
X103334286Y-101518832D01*
X103269872Y-101491765D01*
X103260493Y-101483298D01*
X100860823Y-99083865D01*
X100827335Y-99022543D01*
X100824500Y-98996179D01*
X100824500Y-88192412D01*
X100844185Y-88125373D01*
X100851555Y-88115097D01*
X100853810Y-88112267D01*
X100853816Y-88112262D01*
X100949789Y-87959522D01*
X101009368Y-87789255D01*
X101010490Y-87779297D01*
X101027280Y-87630284D01*
X101033916Y-87614490D01*
X101031523Y-87610767D01*
X101027280Y-87589715D01*
X101009369Y-87430750D01*
X101009368Y-87430745D01*
X100978008Y-87341123D01*
X100949789Y-87260478D01*
X100853816Y-87107738D01*
X100726262Y-86980184D01*
X100640532Y-86926316D01*
X100573523Y-86884211D01*
X100403254Y-86824631D01*
X100403249Y-86824630D01*
X100224004Y-86804435D01*
X100223996Y-86804435D01*
X100044750Y-86824630D01*
X100044745Y-86824631D01*
X99874476Y-86884211D01*
X99721737Y-86980184D01*
X99594184Y-87107737D01*
X99498211Y-87260476D01*
X99438631Y-87430745D01*
X99438630Y-87430750D01*
X99418435Y-87609996D01*
X97693700Y-87609996D01*
X97693700Y-73518998D01*
X97713385Y-73451959D01*
X97766189Y-73406204D01*
X97835347Y-73396260D01*
X97898903Y-73425285D01*
X97905368Y-73431304D01*
X97926023Y-73451959D01*
X97935676Y-73461612D01*
X97935709Y-73461641D01*
X101238179Y-76763926D01*
X101271665Y-76825249D01*
X101274500Y-76851610D01*
X101274500Y-87575832D01*
X101265160Y-87607638D01*
X101272640Y-87622773D01*
X101274500Y-87644167D01*
X101274500Y-90529988D01*
X101274495Y-90617831D01*
X101274498Y-90617854D01*
X101274536Y-90617992D01*
X101294640Y-90693022D01*
X101294641Y-90693027D01*
X101315411Y-90770559D01*
X101315420Y-90770581D01*
X101344047Y-90820163D01*
X101358018Y-90844361D01*
X101358020Y-90844368D01*
X101358022Y-90844368D01*
X101394462Y-90907493D01*
X101394479Y-90907515D01*
X101457986Y-90971022D01*
X104709599Y-94222994D01*
X104743081Y-94284319D01*
X104745133Y-94296785D01*
X104751630Y-94354449D01*
X104811210Y-94524721D01*
X104850242Y-94586839D01*
X104907184Y-94677462D01*
X105034738Y-94805016D01*
X105056862Y-94818918D01*
X105103153Y-94871251D01*
X105113802Y-94940305D01*
X105085427Y-95004153D01*
X105078571Y-95011592D01*
X103258240Y-96831923D01*
X103196917Y-96865408D01*
X103127225Y-96860424D01*
X103104586Y-96849235D01*
X103034524Y-96805211D01*
X102864254Y-96745631D01*
X102864249Y-96745630D01*
X102685004Y-96725435D01*
X102684996Y-96725435D01*
X102505750Y-96745630D01*
X102505745Y-96745631D01*
X102335476Y-96805211D01*
X102182737Y-96901184D01*
X102055184Y-97028737D01*
X101959211Y-97181476D01*
X101899631Y-97351745D01*
X101899630Y-97351750D01*
X101879435Y-97530996D01*
X101879435Y-97531003D01*
X101899630Y-97710249D01*
X101899631Y-97710254D01*
X101959211Y-97880523D01*
X102042663Y-98013335D01*
X102055184Y-98033262D01*
X102182738Y-98160816D01*
X102205708Y-98175249D01*
X102295625Y-98231748D01*
X102335478Y-98256789D01*
X102479259Y-98307100D01*
X102505745Y-98316368D01*
X102505750Y-98316369D01*
X102684996Y-98336565D01*
X102685000Y-98336565D01*
X102685004Y-98336565D01*
X102864249Y-98316369D01*
X102864252Y-98316368D01*
X102864255Y-98316368D01*
X103034522Y-98256789D01*
X103187262Y-98160816D01*
X103187267Y-98160810D01*
X103190097Y-98158555D01*
X103192275Y-98157665D01*
X103193158Y-98157111D01*
X103193255Y-98157265D01*
X103254783Y-98132145D01*
X103267412Y-98131500D01*
X103321731Y-98131500D01*
X103321747Y-98131501D01*
X103329343Y-98131501D01*
X103487454Y-98131501D01*
X103487457Y-98131501D01*
X103640185Y-98090577D01*
X103690304Y-98061639D01*
X103777116Y-98011520D01*
X103888920Y-97899716D01*
X103888920Y-97899714D01*
X103899128Y-97889507D01*
X103899130Y-97889504D01*
X108155526Y-93633107D01*
X108216847Y-93599624D01*
X108286539Y-93604608D01*
X108342472Y-93646480D01*
X108366889Y-93711944D01*
X108359013Y-93759116D01*
X108360495Y-93759545D01*
X108360135Y-93760789D01*
X108359514Y-93762592D01*
X108354224Y-93782347D01*
X108337524Y-93844708D01*
X108337524Y-93844709D01*
X108317498Y-93919447D01*
X108317487Y-93919532D01*
X108317500Y-94001757D01*
X108317500Y-98429350D01*
X108317479Y-98510303D01*
X108317498Y-98510450D01*
X108337436Y-98584862D01*
X108337439Y-98584892D01*
X108337444Y-98584891D01*
X108358363Y-98663040D01*
X108358402Y-98663133D01*
X108358423Y-98663185D01*
X108359851Y-98665658D01*
X108398223Y-98732121D01*
X108398231Y-98732152D01*
X108398239Y-98732148D01*
X108437389Y-98799998D01*
X108437481Y-98800117D01*
X108494294Y-98856930D01*
X108494310Y-98856959D01*
X108494317Y-98856953D01*
X109260005Y-99623032D01*
X109265295Y-99628324D01*
X109298764Y-99689656D01*
X109300811Y-99702099D01*
X109310630Y-99789249D01*
X109370210Y-99959521D01*
X109425177Y-100047000D01*
X109466184Y-100112262D01*
X109593738Y-100239816D01*
X109600677Y-100244176D01*
X109746479Y-100335790D01*
X109802172Y-100355277D01*
X109858949Y-100395998D01*
X109884697Y-100460950D01*
X109871241Y-100529512D01*
X109866217Y-100538284D01*
X109864210Y-100541477D01*
X109864210Y-100541478D01*
X109804633Y-100711737D01*
X109804630Y-100711750D01*
X109784435Y-100890996D01*
X109784435Y-100891003D01*
X109804630Y-101070249D01*
X109804631Y-101070254D01*
X109864211Y-101240523D01*
X109909007Y-101311815D01*
X109959632Y-101392384D01*
X109960185Y-101393263D01*
X109962445Y-101396097D01*
X109963334Y-101398275D01*
X109963889Y-101399158D01*
X109963734Y-101399255D01*
X109988855Y-101460783D01*
X109989500Y-101473412D01*
X109989500Y-103027587D01*
X109969815Y-103094626D01*
X109962450Y-103104896D01*
X109960186Y-103107734D01*
X109864211Y-103260476D01*
X109804631Y-103430745D01*
X109804630Y-103430750D01*
X109784435Y-103609996D01*
X109784435Y-103610003D01*
X109804630Y-103789249D01*
X109804631Y-103789254D01*
X109864211Y-103959523D01*
X109884901Y-103992450D01*
X109960184Y-104112262D01*
X110087738Y-104239816D01*
X110240478Y-104335789D01*
X110410745Y-104395368D01*
X110410750Y-104395369D01*
X110589996Y-104415565D01*
X110590000Y-104415565D01*
X110590004Y-104415565D01*
X110769249Y-104395369D01*
X110769252Y-104395368D01*
X110769255Y-104395368D01*
X110939522Y-104335789D01*
X111092262Y-104239816D01*
X111219816Y-104112262D01*
X111315789Y-103959522D01*
X111375368Y-103789255D01*
X111395565Y-103610000D01*
X111387890Y-103541884D01*
X111375369Y-103430750D01*
X111375368Y-103430745D01*
X111359827Y-103386332D01*
X111315789Y-103260478D01*
X111219816Y-103107738D01*
X111219814Y-103107736D01*
X111219813Y-103107734D01*
X111217550Y-103104896D01*
X111216659Y-103102715D01*
X111216111Y-103101842D01*
X111216264Y-103101745D01*
X111191144Y-103040209D01*
X111190500Y-103027587D01*
X111190500Y-102263776D01*
X111210185Y-102196737D01*
X111262989Y-102150982D01*
X111332147Y-102141038D01*
X111380473Y-102158783D01*
X111493475Y-102229788D01*
X111663745Y-102289368D01*
X111663750Y-102289369D01*
X111842996Y-102309565D01*
X111843000Y-102309565D01*
X111843004Y-102309565D01*
X112022249Y-102289369D01*
X112022252Y-102289368D01*
X112022255Y-102289368D01*
X112192522Y-102229789D01*
X112345262Y-102133816D01*
X112472816Y-102006262D01*
X112568789Y-101853522D01*
X112628368Y-101683255D01*
X112639077Y-101588210D01*
X112648565Y-101504003D01*
X112648565Y-101503996D01*
X112628369Y-101324750D01*
X112628368Y-101324745D01*
X112587978Y-101209317D01*
X112568789Y-101154478D01*
X112563858Y-101146631D01*
X112512139Y-101064320D01*
X112472816Y-101001738D01*
X112472814Y-101001736D01*
X112472813Y-101001734D01*
X112470550Y-100998896D01*
X112469659Y-100996715D01*
X112469111Y-100995842D01*
X112469264Y-100995745D01*
X112444144Y-100934209D01*
X112443500Y-100921587D01*
X112443500Y-100771500D01*
X112463185Y-100704461D01*
X112515989Y-100658706D01*
X112567500Y-100647500D01*
X120526588Y-100647500D01*
X120593627Y-100667185D01*
X120603903Y-100674555D01*
X120606736Y-100676814D01*
X120606738Y-100676816D01*
X120668862Y-100715851D01*
X120757426Y-100771500D01*
X120759478Y-100772789D01*
X120904139Y-100823408D01*
X120929745Y-100832368D01*
X120929750Y-100832369D01*
X121108996Y-100852565D01*
X121109000Y-100852565D01*
X121109004Y-100852565D01*
X121288249Y-100832369D01*
X121288252Y-100832368D01*
X121288255Y-100832368D01*
X121458522Y-100772789D01*
X121611262Y-100676816D01*
X121738816Y-100549262D01*
X121834789Y-100396522D01*
X121894368Y-100226255D01*
X121907959Y-100105632D01*
X121914565Y-100047003D01*
X121914565Y-100046996D01*
X121894369Y-99867750D01*
X121894368Y-99867745D01*
X121842590Y-99719772D01*
X121834789Y-99697478D01*
X121834788Y-99697477D01*
X121834786Y-99697470D01*
X121831769Y-99691205D01*
X121833047Y-99690589D01*
X121816164Y-99630827D01*
X121836535Y-99563993D01*
X121889806Y-99518783D01*
X121940157Y-99508100D01*
X125905934Y-99508100D01*
X125972973Y-99527785D01*
X126018728Y-99580589D01*
X126028672Y-99649747D01*
X125999647Y-99713303D01*
X125993627Y-99719768D01*
X125648279Y-100065188D01*
X124418549Y-101295172D01*
X124357230Y-101328663D01*
X124330859Y-101331500D01*
X120976412Y-101331500D01*
X120909373Y-101311815D01*
X120899097Y-101304445D01*
X120896263Y-101302185D01*
X120896262Y-101302184D01*
X120833389Y-101262678D01*
X120743523Y-101206211D01*
X120573254Y-101146631D01*
X120573249Y-101146630D01*
X120394004Y-101126435D01*
X120393996Y-101126435D01*
X120214750Y-101146630D01*
X120214745Y-101146631D01*
X120044476Y-101206211D01*
X119891737Y-101302184D01*
X119764184Y-101429737D01*
X119668211Y-101582476D01*
X119608631Y-101752745D01*
X119608630Y-101752750D01*
X119588435Y-101931996D01*
X119588435Y-101932003D01*
X119608630Y-102111249D01*
X119608631Y-102111254D01*
X119668211Y-102281523D01*
X119764184Y-102434262D01*
X119891738Y-102561816D01*
X120044478Y-102657789D01*
X120214745Y-102717368D01*
X120214750Y-102717369D01*
X120393996Y-102737565D01*
X120394000Y-102737565D01*
X120394004Y-102737565D01*
X120573249Y-102717369D01*
X120573252Y-102717368D01*
X120573255Y-102717368D01*
X120743522Y-102657789D01*
X120896262Y-102561816D01*
X120896267Y-102561810D01*
X120899097Y-102559555D01*
X120901275Y-102558665D01*
X120902158Y-102558111D01*
X120902255Y-102558265D01*
X120963783Y-102533145D01*
X120976412Y-102532500D01*
X124543905Y-102532500D01*
X124544059Y-102532509D01*
X124552002Y-102532508D01*
X124552005Y-102532509D01*
X124635712Y-102532500D01*
X124710057Y-102532500D01*
X124710062Y-102532500D01*
X124710113Y-102532493D01*
X124710117Y-102532492D01*
X124710119Y-102532492D01*
X124787157Y-102511841D01*
X124787167Y-102511841D01*
X124787167Y-102511838D01*
X124787168Y-102511838D01*
X124862784Y-102491577D01*
X124862790Y-102491573D01*
X124862810Y-102491568D01*
X124862819Y-102491565D01*
X124862837Y-102491554D01*
X124862842Y-102491553D01*
X124927143Y-102454419D01*
X124927155Y-102454416D01*
X124927154Y-102454413D01*
X124998630Y-102413147D01*
X124999713Y-102412541D01*
X124999724Y-102412532D01*
X125000301Y-102411945D01*
X125005869Y-102406376D01*
X125048275Y-102363959D01*
X125048287Y-102363953D01*
X125048285Y-102363951D01*
X125081372Y-102330862D01*
X125111520Y-102300716D01*
X125111521Y-102300713D01*
X125117687Y-102294548D01*
X125117776Y-102294444D01*
X127070620Y-100341196D01*
X127131937Y-100307707D01*
X127144400Y-100305653D01*
X127231255Y-100295868D01*
X127401522Y-100236289D01*
X127554262Y-100140316D01*
X127681816Y-100012762D01*
X127777789Y-99860022D01*
X127837368Y-99689755D01*
X127840155Y-99665020D01*
X127845429Y-99618217D01*
X127872495Y-99553803D01*
X127930090Y-99514247D01*
X127968649Y-99508100D01*
X134017303Y-99508100D01*
X134084342Y-99527785D01*
X134130097Y-99580589D01*
X134140041Y-99649747D01*
X134111016Y-99713303D01*
X134104984Y-99719781D01*
X129033465Y-104791298D01*
X128972142Y-104824783D01*
X128959668Y-104826837D01*
X128872750Y-104836630D01*
X128702478Y-104896210D01*
X128549737Y-104992184D01*
X128422184Y-105119737D01*
X128326211Y-105272476D01*
X128266631Y-105442745D01*
X128266630Y-105442750D01*
X128246435Y-105621996D01*
X128246435Y-105622003D01*
X128266630Y-105801249D01*
X128266631Y-105801254D01*
X128326211Y-105971523D01*
X128422184Y-106124262D01*
X128549738Y-106251816D01*
X128702478Y-106347789D01*
X128872745Y-106407368D01*
X128872750Y-106407369D01*
X129051996Y-106427565D01*
X129052000Y-106427565D01*
X129052004Y-106427565D01*
X129231249Y-106407369D01*
X129231252Y-106407368D01*
X129231255Y-106407368D01*
X129401522Y-106347789D01*
X129554262Y-106251816D01*
X129681816Y-106124262D01*
X129777789Y-105971522D01*
X129837368Y-105801255D01*
X129847161Y-105714329D01*
X129874226Y-105649918D01*
X129882690Y-105640543D01*
X139586319Y-95936915D01*
X139647642Y-95903430D01*
X139717334Y-95908414D01*
X139773267Y-95950286D01*
X139797684Y-96015750D01*
X139798000Y-96024596D01*
X139798000Y-101973102D01*
X139778315Y-102040141D01*
X139761681Y-102060783D01*
X138481465Y-103340998D01*
X138420142Y-103374483D01*
X138407668Y-103376537D01*
X138320750Y-103386330D01*
X138150478Y-103445910D01*
X137997737Y-103541884D01*
X137870184Y-103669437D01*
X137774211Y-103822176D01*
X137714631Y-103992445D01*
X137714630Y-103992450D01*
X137694435Y-104171696D01*
X137694435Y-104171703D01*
X137714630Y-104350949D01*
X137714631Y-104350954D01*
X137774211Y-104521223D01*
X137870184Y-104673962D01*
X137997738Y-104801516D01*
X138150478Y-104897489D01*
X138320745Y-104957068D01*
X138320750Y-104957069D01*
X138499996Y-104977265D01*
X138500000Y-104977265D01*
X138500004Y-104977265D01*
X138679249Y-104957069D01*
X138679252Y-104957068D01*
X138679255Y-104957068D01*
X138849522Y-104897489D01*
X139002262Y-104801516D01*
X139129816Y-104673962D01*
X139225789Y-104521222D01*
X139285368Y-104350955D01*
X139295161Y-104264029D01*
X139322226Y-104199618D01*
X139330690Y-104190243D01*
X140757006Y-102763928D01*
X140757011Y-102763924D01*
X140767214Y-102753720D01*
X140767216Y-102753720D01*
X140879020Y-102641916D01*
X140958077Y-102504984D01*
X140999000Y-102352257D01*
X140999000Y-95895912D01*
X141018685Y-95828873D01*
X141026055Y-95818597D01*
X141028310Y-95815767D01*
X141028316Y-95815762D01*
X141124289Y-95663022D01*
X141183868Y-95492755D01*
X141183869Y-95492749D01*
X141204065Y-95313503D01*
X141204065Y-95313496D01*
X141183869Y-95134250D01*
X141183868Y-95134245D01*
X141137060Y-95000476D01*
X141124289Y-94963978D01*
X141028316Y-94811238D01*
X140957836Y-94740758D01*
X140924352Y-94679434D01*
X140929337Y-94609743D01*
X140957835Y-94565399D01*
X141846216Y-93677019D01*
X141907539Y-93643534D01*
X141933897Y-93640700D01*
X143269676Y-93640700D01*
X143336715Y-93660385D01*
X143382470Y-93713189D01*
X143392896Y-93778585D01*
X143390235Y-93802199D01*
X143390235Y-93802203D01*
X143410430Y-93981449D01*
X143410431Y-93981454D01*
X143438342Y-94061217D01*
X143445300Y-94102172D01*
X143445300Y-101064318D01*
X143445300Y-101064320D01*
X143445299Y-101064320D01*
X143474140Y-101209307D01*
X143474143Y-101209317D01*
X143530713Y-101345890D01*
X143530714Y-101345892D01*
X143530715Y-101345894D01*
X143530716Y-101345895D01*
X143561778Y-101392382D01*
X143581954Y-101422578D01*
X143612848Y-101468816D01*
X144001292Y-101857260D01*
X144023956Y-101893323D01*
X144025786Y-101892442D01*
X144028808Y-101898716D01*
X144028810Y-101898719D01*
X144028811Y-101898722D01*
X144124784Y-102051462D01*
X144252338Y-102179016D01*
X144280541Y-102196737D01*
X144389309Y-102265081D01*
X144405078Y-102274989D01*
X144575345Y-102334568D01*
X144575350Y-102334569D01*
X144754596Y-102354765D01*
X144754600Y-102354765D01*
X144754602Y-102354765D01*
X144785531Y-102351280D01*
X144799415Y-102350500D01*
X144879319Y-102350500D01*
X144976861Y-102331096D01*
X145024312Y-102321658D01*
X145160894Y-102265084D01*
X145283816Y-102182952D01*
X145388352Y-102078416D01*
X145470484Y-101955494D01*
X145527058Y-101818912D01*
X145555900Y-101673917D01*
X145555900Y-101594014D01*
X145556680Y-101580129D01*
X145560165Y-101549201D01*
X145560165Y-101549196D01*
X145539969Y-101369950D01*
X145539968Y-101369945D01*
X145534123Y-101353240D01*
X145480389Y-101199678D01*
X145456580Y-101161787D01*
X145395338Y-101064320D01*
X145384416Y-101046938D01*
X145256862Y-100919384D01*
X145104122Y-100823411D01*
X145104119Y-100823410D01*
X145104116Y-100823408D01*
X145097842Y-100820386D01*
X145098723Y-100818556D01*
X145062660Y-100795892D01*
X144982619Y-100715851D01*
X144949134Y-100654528D01*
X144946300Y-100628170D01*
X144946300Y-94102172D01*
X144953258Y-94061217D01*
X144981168Y-93981454D01*
X144981169Y-93981449D01*
X145001365Y-93802203D01*
X145001365Y-93802199D01*
X144998704Y-93778585D01*
X145010758Y-93709763D01*
X145058106Y-93658383D01*
X145121924Y-93640700D01*
X150075352Y-93640700D01*
X150142391Y-93660385D01*
X150188146Y-93713189D01*
X150198090Y-93782347D01*
X150169065Y-93845903D01*
X150163033Y-93852381D01*
X149151532Y-94863881D01*
X149151526Y-94863889D01*
X149104823Y-94944783D01*
X149104823Y-94944784D01*
X149072474Y-95000814D01*
X149031550Y-95153542D01*
X149031550Y-95153544D01*
X149031550Y-95203252D01*
X149011865Y-95270291D01*
X148995231Y-95290933D01*
X146890281Y-97395882D01*
X146890280Y-97395884D01*
X146847545Y-97469904D01*
X146811223Y-97532815D01*
X146770299Y-97685543D01*
X146770299Y-97685545D01*
X146770299Y-97853646D01*
X146770300Y-97853659D01*
X146770300Y-98756987D01*
X146750615Y-98824026D01*
X146743250Y-98834296D01*
X146740986Y-98837134D01*
X146645011Y-98989876D01*
X146585431Y-99160145D01*
X146585430Y-99160150D01*
X146565235Y-99339396D01*
X146565235Y-99339403D01*
X146585430Y-99518649D01*
X146585431Y-99518654D01*
X146645011Y-99688923D01*
X146708054Y-99789255D01*
X146740984Y-99841662D01*
X146868538Y-99969216D01*
X147021278Y-100065189D01*
X147155805Y-100112262D01*
X147191545Y-100124768D01*
X147191550Y-100124769D01*
X147370796Y-100144965D01*
X147370800Y-100144965D01*
X147370804Y-100144965D01*
X147550049Y-100124769D01*
X147550052Y-100124768D01*
X147550055Y-100124768D01*
X147720322Y-100065189D01*
X147873062Y-99969216D01*
X147955414Y-99886863D01*
X148016733Y-99853381D01*
X148086425Y-99858365D01*
X148142359Y-99900236D01*
X148166776Y-99965700D01*
X148161023Y-100012864D01*
X148140952Y-100074637D01*
X148114100Y-100244176D01*
X148114100Y-100415823D01*
X148140952Y-100585360D01*
X148193992Y-100748604D01*
X148193993Y-100748607D01*
X148271921Y-100901547D01*
X148372813Y-101040413D01*
X148494187Y-101161787D01*
X148633053Y-101262679D01*
X148668700Y-101280842D01*
X148785992Y-101340606D01*
X148785995Y-101340607D01*
X148867617Y-101367127D01*
X148949241Y-101393648D01*
X149118776Y-101420500D01*
X149118777Y-101420500D01*
X149290423Y-101420500D01*
X149290424Y-101420500D01*
X149459959Y-101393648D01*
X149578183Y-101355234D01*
X149648023Y-101353240D01*
X149707856Y-101389320D01*
X149738684Y-101452021D01*
X149740500Y-101473166D01*
X149740500Y-113531907D01*
X149739903Y-113544062D01*
X149726911Y-113675967D01*
X149722169Y-113699807D01*
X149685469Y-113820790D01*
X149676166Y-113843248D01*
X149616573Y-113954738D01*
X149603069Y-113974949D01*
X149522867Y-114072677D01*
X149505677Y-114089867D01*
X149407949Y-114170069D01*
X149387738Y-114183573D01*
X149276248Y-114243166D01*
X149253790Y-114252469D01*
X149132807Y-114289169D01*
X149108967Y-114293911D01*
X149011698Y-114303491D01*
X148977060Y-114306903D01*
X148964907Y-114307500D01*
X96526093Y-114307500D01*
X96513939Y-114306903D01*
X96382033Y-114293911D01*
X96358192Y-114289169D01*
X96237209Y-114252469D01*
X96214751Y-114243166D01*
X96103261Y-114183573D01*
X96083050Y-114170069D01*
X95985322Y-114089867D01*
X95968132Y-114072677D01*
X95887930Y-113974949D01*
X95874426Y-113954738D01*
X95814833Y-113843248D01*
X95805530Y-113820790D01*
X95768828Y-113699801D01*
X95764089Y-113675973D01*
X95751097Y-113544061D01*
X95750500Y-113531907D01*
X95750500Y-56715784D01*
X95750811Y-56710860D01*
X95750787Y-56705665D01*
X95750789Y-56705661D01*
X95750522Y-56645919D01*
X95751075Y-56633664D01*
X95763473Y-56503092D01*
X95768200Y-56479010D01*
X95804284Y-56359372D01*
X95813657Y-56336701D01*
X95872604Y-56226504D01*
X95886259Y-56206125D01*
X95965752Y-56109702D01*
X95983152Y-56092412D01*
X96080083Y-56013532D01*
X96100552Y-56000005D01*
X96211114Y-55941765D01*
X96233848Y-55932534D01*
X96353718Y-55897212D01*
X96377825Y-55892640D01*
X96509074Y-55881019D01*
X96521339Y-55880544D01*
X96580471Y-55881184D01*
X96580471Y-55881183D01*
X96581951Y-55881200D01*
X96593596Y-55880500D01*
X103902102Y-55880500D01*
X103969141Y-55900185D01*
G37*
%TD.AperFunction*%
%TA.AperFunction,Conductor*%
G36*
X124911942Y-86165485D02*
G01*
X124932584Y-86182119D01*
X127743298Y-88992833D01*
X127776783Y-89054156D01*
X127778837Y-89066630D01*
X127788630Y-89153549D01*
X127848210Y-89323821D01*
X127905856Y-89415564D01*
X127944184Y-89476562D01*
X128071738Y-89604116D01*
X128224478Y-89700089D01*
X128391030Y-89758368D01*
X128394745Y-89759668D01*
X128394750Y-89759669D01*
X128573996Y-89779865D01*
X128574000Y-89779865D01*
X128574004Y-89779865D01*
X128753249Y-89759669D01*
X128753252Y-89759668D01*
X128753255Y-89759668D01*
X128923522Y-89700089D01*
X129076262Y-89604116D01*
X129076267Y-89604110D01*
X129079097Y-89601855D01*
X129081275Y-89600965D01*
X129082158Y-89600411D01*
X129082255Y-89600565D01*
X129143783Y-89575445D01*
X129156412Y-89574800D01*
X140956602Y-89574800D01*
X141023641Y-89594485D01*
X141069396Y-89647289D01*
X141079340Y-89716447D01*
X141050315Y-89780003D01*
X141044283Y-89786481D01*
X136117584Y-94713181D01*
X136056261Y-94746666D01*
X136029903Y-94749500D01*
X118886099Y-94749500D01*
X118819060Y-94729815D01*
X118773305Y-94677011D01*
X118763361Y-94607853D01*
X118792386Y-94544297D01*
X118798417Y-94537819D01*
X118859720Y-94476516D01*
X118911320Y-94424916D01*
X118911320Y-94424914D01*
X118921528Y-94414707D01*
X118921530Y-94414704D01*
X122446535Y-90889698D01*
X122507856Y-90856215D01*
X122520311Y-90854163D01*
X122607255Y-90844368D01*
X122777522Y-90784789D01*
X122930262Y-90688816D01*
X123057816Y-90561262D01*
X123153789Y-90408522D01*
X123213368Y-90238255D01*
X123221464Y-90166400D01*
X123233565Y-90059003D01*
X123233565Y-90058996D01*
X123213369Y-89879750D01*
X123213368Y-89879745D01*
X123191915Y-89818435D01*
X123153789Y-89709478D01*
X123149299Y-89702333D01*
X123091283Y-89610000D01*
X123057816Y-89556738D01*
X122930262Y-89429184D01*
X122901970Y-89411407D01*
X122777521Y-89333210D01*
X122719283Y-89312832D01*
X122665574Y-89294038D01*
X122608800Y-89253319D01*
X122583052Y-89188366D01*
X122589488Y-89136045D01*
X122619368Y-89050655D01*
X122623728Y-89011959D01*
X122639565Y-88871403D01*
X122639565Y-88871396D01*
X122619369Y-88692150D01*
X122619368Y-88692145D01*
X122578155Y-88574366D01*
X122559789Y-88521878D01*
X122535701Y-88483543D01*
X122502488Y-88430684D01*
X122463816Y-88369138D01*
X122336262Y-88241584D01*
X122277258Y-88204509D01*
X122183523Y-88145611D01*
X122013254Y-88086031D01*
X122013249Y-88086030D01*
X121834004Y-88065835D01*
X121833996Y-88065835D01*
X121654750Y-88086030D01*
X121654745Y-88086031D01*
X121484476Y-88145611D01*
X121331737Y-88241584D01*
X121204182Y-88369139D01*
X121111006Y-88517428D01*
X121058672Y-88563718D01*
X120989618Y-88574366D01*
X120925770Y-88545991D01*
X120887398Y-88487601D01*
X120882793Y-88465338D01*
X120879369Y-88434950D01*
X120879368Y-88434945D01*
X120826585Y-88284100D01*
X120819789Y-88264678D01*
X120819063Y-88263523D01*
X120742440Y-88141578D01*
X120723816Y-88111938D01*
X120596262Y-87984384D01*
X120589576Y-87980183D01*
X120443523Y-87888411D01*
X120273254Y-87828831D01*
X120273249Y-87828830D01*
X120094004Y-87808635D01*
X120093996Y-87808635D01*
X119914750Y-87828830D01*
X119914745Y-87828831D01*
X119744476Y-87888411D01*
X119591737Y-87984384D01*
X119464184Y-88111937D01*
X119368210Y-88264678D01*
X119308630Y-88434950D01*
X119298827Y-88521960D01*
X119271760Y-88586374D01*
X119263297Y-88595748D01*
X118431340Y-89427873D01*
X116412781Y-91446840D01*
X116405550Y-91454072D01*
X116344230Y-91487564D01*
X116317860Y-91490400D01*
X110912106Y-91490400D01*
X110911891Y-91490386D01*
X110903963Y-91490387D01*
X110821798Y-91490399D01*
X110821742Y-91490400D01*
X110745892Y-91490400D01*
X110666452Y-91511699D01*
X110666434Y-91511704D01*
X110587252Y-91532921D01*
X110586275Y-91533254D01*
X110585663Y-91533424D01*
X110585076Y-91531310D01*
X110526764Y-91537814D01*
X110464161Y-91506787D01*
X110428271Y-91446840D01*
X110430488Y-91377005D01*
X110460614Y-91328019D01*
X112896506Y-88892128D01*
X112896511Y-88892124D01*
X112906714Y-88881920D01*
X112906716Y-88881920D01*
X113018520Y-88770116D01*
X113070883Y-88679420D01*
X113075274Y-88671816D01*
X113097574Y-88633190D01*
X113097573Y-88633190D01*
X113097577Y-88633185D01*
X113138500Y-88480457D01*
X113138500Y-88322343D01*
X113138500Y-87174481D01*
X113158185Y-87107442D01*
X113174816Y-87086803D01*
X114079430Y-86182122D01*
X114140751Y-86148635D01*
X114167114Y-86145800D01*
X124844903Y-86145800D01*
X124911942Y-86165485D01*
G37*
%TD.AperFunction*%
%TA.AperFunction,Conductor*%
G36*
X205586061Y-55881097D02*
G01*
X205587107Y-55881200D01*
X205717973Y-55894089D01*
X205741801Y-55898828D01*
X205862793Y-55935531D01*
X205885245Y-55944832D01*
X205940993Y-55974629D01*
X205996738Y-56004426D01*
X206016949Y-56017930D01*
X206064167Y-56056680D01*
X206107425Y-56092181D01*
X206114677Y-56098132D01*
X206131867Y-56115322D01*
X206212069Y-56213050D01*
X206225573Y-56233261D01*
X206285166Y-56344751D01*
X206294469Y-56367209D01*
X206331169Y-56488192D01*
X206335911Y-56512032D01*
X206337480Y-56527959D01*
X206348115Y-56635943D01*
X206348903Y-56643937D01*
X206349500Y-56656092D01*
X206349500Y-93473907D01*
X206348903Y-93486062D01*
X206335911Y-93617967D01*
X206331169Y-93641807D01*
X206294469Y-93762790D01*
X206285166Y-93785248D01*
X206225573Y-93896738D01*
X206212069Y-93916949D01*
X206131867Y-94014677D01*
X206114677Y-94031867D01*
X206016949Y-94112069D01*
X205996738Y-94125573D01*
X205885248Y-94185166D01*
X205862790Y-94194469D01*
X205741807Y-94231169D01*
X205717967Y-94235911D01*
X205620698Y-94245491D01*
X205586060Y-94248903D01*
X205573907Y-94249500D01*
X151763747Y-94249500D01*
X151696708Y-94229815D01*
X151650953Y-94177011D01*
X151641009Y-94107853D01*
X151670034Y-94044297D01*
X151676066Y-94037819D01*
X154551466Y-91162419D01*
X154612789Y-91128934D01*
X154639147Y-91126100D01*
X155374460Y-91126100D01*
X155374476Y-91126101D01*
X155382072Y-91126101D01*
X155540183Y-91126101D01*
X155540186Y-91126101D01*
X155692914Y-91085177D01*
X155692916Y-91085175D01*
X155692918Y-91085175D01*
X155692919Y-91085174D01*
X155743795Y-91055801D01*
X155743796Y-91055800D01*
X155829845Y-91006120D01*
X155941649Y-90894316D01*
X155941649Y-90894314D01*
X155951853Y-90884111D01*
X155951857Y-90884106D01*
X156797777Y-90038185D01*
X156809971Y-90027493D01*
X156813710Y-90024623D01*
X156813716Y-90024620D01*
X156925520Y-89912816D01*
X157004577Y-89775884D01*
X157045500Y-89623157D01*
X157045500Y-89479237D01*
X157065185Y-89412198D01*
X157081820Y-89391554D01*
X157125170Y-89348206D01*
X158378792Y-88094626D01*
X159561542Y-86911917D01*
X159622866Y-86878433D01*
X159649222Y-86875600D01*
X159724475Y-86875600D01*
X159791514Y-86895285D01*
X159837269Y-86948089D01*
X159847695Y-86985716D01*
X159859630Y-87091650D01*
X159859631Y-87091654D01*
X159919211Y-87261923D01*
X159974534Y-87349968D01*
X160015184Y-87414662D01*
X160142738Y-87542216D01*
X160168353Y-87558311D01*
X160270943Y-87622773D01*
X160295478Y-87638189D01*
X160386509Y-87670042D01*
X160465745Y-87697768D01*
X160465750Y-87697769D01*
X160552690Y-87707564D01*
X160617104Y-87734630D01*
X160626483Y-87743096D01*
X165802619Y-92918955D01*
X165877284Y-92993620D01*
X165877286Y-92993621D01*
X165877295Y-92993630D01*
X165877325Y-92993654D01*
X165878109Y-92994098D01*
X165934503Y-93026655D01*
X166012422Y-93071641D01*
X166014712Y-93073017D01*
X166015066Y-93073158D01*
X166019972Y-93074221D01*
X166111360Y-93098706D01*
X166166943Y-93113600D01*
X166166944Y-93113600D01*
X166166952Y-93113602D01*
X166166955Y-93113601D01*
X166166959Y-93113603D01*
X166261827Y-93113600D01*
X174786031Y-93113600D01*
X174786047Y-93113601D01*
X174793643Y-93113601D01*
X174951754Y-93113601D01*
X174951757Y-93113601D01*
X175104485Y-93072677D01*
X175154604Y-93043739D01*
X175241416Y-92993620D01*
X175353220Y-92881816D01*
X175353220Y-92881814D01*
X175363428Y-92871607D01*
X175363430Y-92871604D01*
X176667597Y-91567437D01*
X176728920Y-91533952D01*
X176798612Y-91538936D01*
X176842959Y-91567437D01*
X176891338Y-91615816D01*
X176955768Y-91656300D01*
X177044066Y-91711782D01*
X177044078Y-91711789D01*
X177214345Y-91771368D01*
X177214350Y-91771369D01*
X177393596Y-91791565D01*
X177393600Y-91791565D01*
X177393604Y-91791565D01*
X177572849Y-91771369D01*
X177572852Y-91771368D01*
X177572855Y-91771368D01*
X177743122Y-91711789D01*
X177895862Y-91615816D01*
X177895867Y-91615810D01*
X177898697Y-91613555D01*
X177900875Y-91612665D01*
X177901758Y-91612111D01*
X177901855Y-91612265D01*
X177963383Y-91587145D01*
X177976012Y-91586500D01*
X182355331Y-91586500D01*
X182355347Y-91586501D01*
X182362943Y-91586501D01*
X182521054Y-91586501D01*
X182521057Y-91586501D01*
X182673785Y-91545577D01*
X182769333Y-91490412D01*
X182810716Y-91466520D01*
X182813436Y-91463800D01*
X196134897Y-91463800D01*
X196154487Y-91762690D01*
X196154488Y-91762699D01*
X196212922Y-92056463D01*
X196212923Y-92056468D01*
X196309206Y-92340111D01*
X196441683Y-92608748D01*
X196608101Y-92857810D01*
X196608102Y-92857811D01*
X196640401Y-92894641D01*
X196640403Y-92894642D01*
X197424075Y-92110970D01*
X197517119Y-92239033D01*
X197649567Y-92371481D01*
X197777628Y-92464524D01*
X196993957Y-93248195D01*
X196993957Y-93248196D01*
X197030793Y-93280500D01*
X197279851Y-93446916D01*
X197548488Y-93579393D01*
X197832131Y-93675676D01*
X197832136Y-93675677D01*
X198125900Y-93734111D01*
X198125909Y-93734112D01*
X198424800Y-93753702D01*
X198723690Y-93734112D01*
X198723699Y-93734111D01*
X199017463Y-93675677D01*
X199017468Y-93675676D01*
X199301111Y-93579393D01*
X199569748Y-93446916D01*
X199818804Y-93280502D01*
X199818808Y-93280499D01*
X199855641Y-93248196D01*
X199855641Y-93248195D01*
X199071970Y-92464524D01*
X199200033Y-92371481D01*
X199332481Y-92239033D01*
X199425524Y-92110970D01*
X200209195Y-92894641D01*
X200209196Y-92894641D01*
X200241499Y-92857808D01*
X200241502Y-92857804D01*
X200407916Y-92608748D01*
X200540393Y-92340111D01*
X200636676Y-92056468D01*
X200636677Y-92056463D01*
X200695111Y-91762699D01*
X200695112Y-91762690D01*
X200714702Y-91463800D01*
X200695112Y-91164909D01*
X200695111Y-91164900D01*
X200636677Y-90871136D01*
X200636676Y-90871131D01*
X200540393Y-90587488D01*
X200407919Y-90318858D01*
X200407910Y-90318843D01*
X200241500Y-90069793D01*
X200209196Y-90032957D01*
X200209195Y-90032957D01*
X199425523Y-90816628D01*
X199332481Y-90688567D01*
X199200033Y-90556119D01*
X199071970Y-90463075D01*
X199855642Y-89679403D01*
X199855641Y-89679401D01*
X199818811Y-89647102D01*
X199818810Y-89647101D01*
X199569748Y-89480683D01*
X199301111Y-89348206D01*
X199017468Y-89251923D01*
X199017463Y-89251922D01*
X198723699Y-89193488D01*
X198723690Y-89193487D01*
X198424800Y-89173897D01*
X198125909Y-89193487D01*
X198125900Y-89193488D01*
X197832136Y-89251922D01*
X197832131Y-89251923D01*
X197548488Y-89348206D01*
X197279858Y-89480680D01*
X197279843Y-89480689D01*
X197030789Y-89647102D01*
X196993957Y-89679402D01*
X196993957Y-89679404D01*
X197777629Y-90463075D01*
X197649567Y-90556119D01*
X197517119Y-90688567D01*
X197424075Y-90816628D01*
X196640404Y-90032957D01*
X196640402Y-90032957D01*
X196608102Y-90069789D01*
X196441689Y-90318843D01*
X196441680Y-90318858D01*
X196309206Y-90587488D01*
X196212923Y-90871131D01*
X196212922Y-90871136D01*
X196154488Y-91164900D01*
X196154487Y-91164909D01*
X196134897Y-91463800D01*
X182813436Y-91463800D01*
X182822534Y-91454701D01*
X182883855Y-91421216D01*
X182896316Y-91419162D01*
X182983255Y-91409368D01*
X183153522Y-91349789D01*
X183306262Y-91253816D01*
X183433816Y-91126262D01*
X183529789Y-90973522D01*
X183589368Y-90803255D01*
X183593049Y-90770584D01*
X183609565Y-90624003D01*
X183609565Y-90623996D01*
X183589369Y-90444750D01*
X183589368Y-90444745D01*
X183559658Y-90359838D01*
X183529789Y-90274478D01*
X183527245Y-90270430D01*
X183433815Y-90121737D01*
X183306262Y-89994184D01*
X183153523Y-89898211D01*
X182983254Y-89838631D01*
X182983249Y-89838630D01*
X182804004Y-89818435D01*
X182803996Y-89818435D01*
X182659031Y-89834768D01*
X182590209Y-89822713D01*
X182538830Y-89775364D01*
X182521206Y-89707754D01*
X182542933Y-89641348D01*
X182557462Y-89623872D01*
X193517533Y-78663800D01*
X196134897Y-78663800D01*
X196154487Y-78962690D01*
X196154488Y-78962699D01*
X196212922Y-79256463D01*
X196212923Y-79256468D01*
X196309206Y-79540111D01*
X196441683Y-79808748D01*
X196608101Y-80057810D01*
X196608102Y-80057811D01*
X196640401Y-80094641D01*
X196640403Y-80094642D01*
X197424075Y-79310970D01*
X197517119Y-79439033D01*
X197649567Y-79571481D01*
X197777628Y-79664524D01*
X196993957Y-80448195D01*
X196993957Y-80448196D01*
X197030793Y-80480500D01*
X197279851Y-80646916D01*
X197548488Y-80779393D01*
X197832131Y-80875676D01*
X197832136Y-80875677D01*
X198125900Y-80934111D01*
X198125909Y-80934112D01*
X198424800Y-80953702D01*
X198723690Y-80934112D01*
X198723699Y-80934111D01*
X199017463Y-80875677D01*
X199017468Y-80875676D01*
X199301111Y-80779393D01*
X199569748Y-80646916D01*
X199818804Y-80480502D01*
X199818808Y-80480499D01*
X199855641Y-80448196D01*
X199855641Y-80448195D01*
X199071970Y-79664524D01*
X199200033Y-79571481D01*
X199332481Y-79439033D01*
X199425524Y-79310970D01*
X200209195Y-80094641D01*
X200209196Y-80094641D01*
X200241499Y-80057808D01*
X200241502Y-80057804D01*
X200407916Y-79808748D01*
X200540393Y-79540111D01*
X200636676Y-79256468D01*
X200636677Y-79256463D01*
X200695111Y-78962699D01*
X200695112Y-78962690D01*
X200714702Y-78663800D01*
X200695112Y-78364909D01*
X200695111Y-78364900D01*
X200636677Y-78071136D01*
X200636676Y-78071131D01*
X200540393Y-77787488D01*
X200407919Y-77518858D01*
X200407910Y-77518843D01*
X200241500Y-77269793D01*
X200209196Y-77232957D01*
X200209195Y-77232957D01*
X199425523Y-78016628D01*
X199332481Y-77888567D01*
X199200033Y-77756119D01*
X199071970Y-77663075D01*
X199855642Y-76879403D01*
X199855641Y-76879401D01*
X199818811Y-76847102D01*
X199818810Y-76847101D01*
X199569748Y-76680683D01*
X199301111Y-76548206D01*
X199017468Y-76451923D01*
X199017463Y-76451922D01*
X198723699Y-76393488D01*
X198723690Y-76393487D01*
X198424800Y-76373897D01*
X198125909Y-76393487D01*
X198125900Y-76393488D01*
X197832136Y-76451922D01*
X197832131Y-76451923D01*
X197548488Y-76548206D01*
X197279858Y-76680680D01*
X197279843Y-76680689D01*
X197030789Y-76847102D01*
X196993957Y-76879402D01*
X196993957Y-76879404D01*
X197777629Y-77663075D01*
X197649567Y-77756119D01*
X197517119Y-77888567D01*
X197424075Y-78016628D01*
X196640404Y-77232957D01*
X196640402Y-77232957D01*
X196608102Y-77269789D01*
X196441689Y-77518843D01*
X196441680Y-77518858D01*
X196309206Y-77787488D01*
X196212923Y-78071131D01*
X196212922Y-78071136D01*
X196154488Y-78364900D01*
X196154487Y-78364909D01*
X196134897Y-78663800D01*
X193517533Y-78663800D01*
X198834106Y-73347227D01*
X198834111Y-73347224D01*
X198844314Y-73337020D01*
X198844316Y-73337020D01*
X198956120Y-73225216D01*
X199014243Y-73124543D01*
X199035177Y-73088285D01*
X199076101Y-72935557D01*
X199076101Y-72777443D01*
X199076101Y-72769848D01*
X199076100Y-72769830D01*
X199076100Y-70912097D01*
X199095785Y-70845058D01*
X199112419Y-70824416D01*
X200915441Y-69021395D01*
X203546499Y-69021395D01*
X203573418Y-69156722D01*
X203573421Y-69156732D01*
X203626221Y-69284204D01*
X203626228Y-69284217D01*
X203702885Y-69398941D01*
X203702888Y-69398945D01*
X203800454Y-69496511D01*
X203800458Y-69496514D01*
X203915182Y-69573171D01*
X203915195Y-69573178D01*
X204015635Y-69614781D01*
X204042672Y-69625980D01*
X204042676Y-69625980D01*
X204042677Y-69625981D01*
X204178004Y-69652900D01*
X204178007Y-69652900D01*
X204315995Y-69652900D01*
X204407041Y-69634789D01*
X204451328Y-69625980D01*
X204578811Y-69573175D01*
X204693542Y-69496514D01*
X204791114Y-69398942D01*
X204867775Y-69284211D01*
X204920580Y-69156728D01*
X204941741Y-69050345D01*
X204947500Y-69021395D01*
X204947500Y-68883404D01*
X204920581Y-68748077D01*
X204920580Y-68748076D01*
X204920580Y-68748072D01*
X204900455Y-68699485D01*
X204867778Y-68620595D01*
X204867771Y-68620582D01*
X204791114Y-68505858D01*
X204791111Y-68505854D01*
X204693545Y-68408288D01*
X204693541Y-68408285D01*
X204578817Y-68331628D01*
X204578804Y-68331621D01*
X204451332Y-68278821D01*
X204451322Y-68278818D01*
X204315995Y-68251900D01*
X204315993Y-68251900D01*
X204178007Y-68251900D01*
X204178005Y-68251900D01*
X204042677Y-68278818D01*
X204042667Y-68278821D01*
X203915195Y-68331621D01*
X203915182Y-68331628D01*
X203800458Y-68408285D01*
X203800454Y-68408288D01*
X203702888Y-68505854D01*
X203702885Y-68505858D01*
X203626228Y-68620582D01*
X203626221Y-68620595D01*
X203573421Y-68748067D01*
X203573418Y-68748077D01*
X203546500Y-68883404D01*
X203546500Y-68883407D01*
X203546500Y-69021393D01*
X203546500Y-69021395D01*
X203546499Y-69021395D01*
X200915441Y-69021395D01*
X202447217Y-67489619D01*
X202508540Y-67456134D01*
X202534898Y-67453300D01*
X202617588Y-67453300D01*
X202684627Y-67472985D01*
X202694903Y-67480355D01*
X202697736Y-67482614D01*
X202697738Y-67482616D01*
X202792459Y-67542133D01*
X202847705Y-67576847D01*
X202850478Y-67578589D01*
X202875976Y-67587511D01*
X203020745Y-67638168D01*
X203020750Y-67638169D01*
X203199996Y-67658365D01*
X203200000Y-67658365D01*
X203200004Y-67658365D01*
X203379249Y-67638169D01*
X203379252Y-67638168D01*
X203379255Y-67638168D01*
X203549522Y-67578589D01*
X203702262Y-67482616D01*
X203829816Y-67355062D01*
X203925789Y-67202322D01*
X203985368Y-67032055D01*
X203988033Y-67008402D01*
X204005565Y-66852803D01*
X204005565Y-66852796D01*
X203985369Y-66673550D01*
X203985368Y-66673545D01*
X203927827Y-66509102D01*
X203925789Y-66503278D01*
X203917154Y-66489536D01*
X203843474Y-66372275D01*
X203829816Y-66350538D01*
X203702262Y-66222984D01*
X203633376Y-66179700D01*
X203549523Y-66127011D01*
X203379254Y-66067431D01*
X203379249Y-66067430D01*
X203200004Y-66047235D01*
X203199996Y-66047235D01*
X203020750Y-66067430D01*
X203020745Y-66067431D01*
X202850476Y-66127011D01*
X202697736Y-66222985D01*
X202694903Y-66225245D01*
X202692724Y-66226134D01*
X202691842Y-66226689D01*
X202691744Y-66226534D01*
X202630217Y-66251655D01*
X202617588Y-66252300D01*
X202321470Y-66252300D01*
X202321454Y-66252299D01*
X202313858Y-66252299D01*
X202155743Y-66252299D01*
X202084179Y-66271475D01*
X202003014Y-66293223D01*
X202003009Y-66293226D01*
X201866090Y-66372275D01*
X201866082Y-66372281D01*
X198484181Y-69754183D01*
X198422858Y-69787668D01*
X198353166Y-69782684D01*
X198297233Y-69740812D01*
X198272816Y-69675348D01*
X198272500Y-69666502D01*
X198272500Y-69429497D01*
X198292185Y-69362458D01*
X198308819Y-69341816D01*
X199992270Y-67658365D01*
X201724720Y-65925916D01*
X201803777Y-65788984D01*
X201844701Y-65636257D01*
X201844701Y-65478142D01*
X201844701Y-65470547D01*
X201844700Y-65470529D01*
X201844700Y-64771395D01*
X203546499Y-64771395D01*
X203573418Y-64906722D01*
X203573421Y-64906732D01*
X203626221Y-65034204D01*
X203626228Y-65034217D01*
X203702885Y-65148941D01*
X203702888Y-65148945D01*
X203800454Y-65246511D01*
X203800458Y-65246514D01*
X203915182Y-65323171D01*
X203915195Y-65323178D01*
X204033498Y-65372180D01*
X204042672Y-65375980D01*
X204042676Y-65375980D01*
X204042677Y-65375981D01*
X204178004Y-65402900D01*
X204178007Y-65402900D01*
X204315995Y-65402900D01*
X204407041Y-65384789D01*
X204451328Y-65375980D01*
X204578811Y-65323175D01*
X204693542Y-65246514D01*
X204791114Y-65148942D01*
X204867775Y-65034211D01*
X204920580Y-64906728D01*
X204936803Y-64825169D01*
X204947500Y-64771395D01*
X204947500Y-64633404D01*
X204920581Y-64498077D01*
X204920580Y-64498076D01*
X204920580Y-64498072D01*
X204917915Y-64491639D01*
X204867778Y-64370595D01*
X204867771Y-64370582D01*
X204791114Y-64255858D01*
X204791111Y-64255854D01*
X204693545Y-64158288D01*
X204693541Y-64158285D01*
X204578817Y-64081628D01*
X204578804Y-64081621D01*
X204451332Y-64028821D01*
X204451322Y-64028818D01*
X204315995Y-64001900D01*
X204315993Y-64001900D01*
X204178007Y-64001900D01*
X204178005Y-64001900D01*
X204042677Y-64028818D01*
X204042667Y-64028821D01*
X203915195Y-64081621D01*
X203915182Y-64081628D01*
X203800458Y-64158285D01*
X203800454Y-64158288D01*
X203702888Y-64255854D01*
X203702885Y-64255858D01*
X203626228Y-64370582D01*
X203626221Y-64370595D01*
X203573421Y-64498067D01*
X203573418Y-64498077D01*
X203546500Y-64633404D01*
X203546500Y-64633407D01*
X203546500Y-64771393D01*
X203546500Y-64771395D01*
X203546499Y-64771395D01*
X201844700Y-64771395D01*
X201844700Y-61934795D01*
X203546499Y-61934795D01*
X203573418Y-62070122D01*
X203573421Y-62070132D01*
X203626221Y-62197604D01*
X203626228Y-62197617D01*
X203702885Y-62312341D01*
X203702888Y-62312345D01*
X203800454Y-62409911D01*
X203800458Y-62409914D01*
X203915182Y-62486571D01*
X203915195Y-62486578D01*
X204042667Y-62539378D01*
X204042672Y-62539380D01*
X204042676Y-62539380D01*
X204042677Y-62539381D01*
X204178004Y-62566300D01*
X204178007Y-62566300D01*
X204315995Y-62566300D01*
X204407041Y-62548189D01*
X204451328Y-62539380D01*
X204578811Y-62486575D01*
X204693542Y-62409914D01*
X204791114Y-62312342D01*
X204867775Y-62197611D01*
X204920580Y-62070128D01*
X204947500Y-61934793D01*
X204947500Y-61796807D01*
X204947500Y-61796804D01*
X204920581Y-61661477D01*
X204920580Y-61661476D01*
X204920580Y-61661472D01*
X204913997Y-61645578D01*
X204867778Y-61533995D01*
X204867771Y-61533982D01*
X204791114Y-61419258D01*
X204791111Y-61419254D01*
X204693545Y-61321688D01*
X204693540Y-61321684D01*
X204578817Y-61245028D01*
X204578804Y-61245021D01*
X204451332Y-61192221D01*
X204451322Y-61192218D01*
X204315995Y-61165300D01*
X204315993Y-61165300D01*
X204178007Y-61165300D01*
X204178005Y-61165300D01*
X204042677Y-61192218D01*
X204042667Y-61192221D01*
X203915195Y-61245021D01*
X203915182Y-61245028D01*
X203800460Y-61321684D01*
X203800454Y-61321688D01*
X203702888Y-61419254D01*
X203702885Y-61419258D01*
X203626228Y-61533982D01*
X203626221Y-61533995D01*
X203573421Y-61661467D01*
X203573418Y-61661477D01*
X203546500Y-61796804D01*
X203546500Y-61796807D01*
X203546500Y-61934793D01*
X203546500Y-61934795D01*
X203546499Y-61934795D01*
X201844700Y-61934795D01*
X201844700Y-61920496D01*
X201864385Y-61853457D01*
X201881014Y-61832820D01*
X203180435Y-60533398D01*
X203241756Y-60499915D01*
X203254211Y-60497863D01*
X203341155Y-60488068D01*
X203511422Y-60428489D01*
X203664162Y-60332516D01*
X203791716Y-60204962D01*
X203887689Y-60052222D01*
X203947268Y-59881955D01*
X203958195Y-59784974D01*
X203967465Y-59702703D01*
X203967465Y-59702696D01*
X203947269Y-59523450D01*
X203947268Y-59523445D01*
X203927004Y-59465534D01*
X203887689Y-59353178D01*
X203791716Y-59200438D01*
X203664162Y-59072884D01*
X203637863Y-59056359D01*
X203511423Y-58976911D01*
X203341154Y-58917331D01*
X203341149Y-58917330D01*
X203161904Y-58897135D01*
X203161896Y-58897135D01*
X202982650Y-58917330D01*
X202982645Y-58917331D01*
X202812376Y-58976911D01*
X202659637Y-59072884D01*
X202532084Y-59200437D01*
X202436110Y-59353178D01*
X202376530Y-59523450D01*
X202366737Y-59610368D01*
X202339670Y-59674782D01*
X202331198Y-59684165D01*
X200875486Y-61139878D01*
X200763681Y-61251682D01*
X200763675Y-61251690D01*
X200723265Y-61321684D01*
X200723265Y-61321686D01*
X200684623Y-61388614D01*
X200679028Y-61409496D01*
X200643699Y-61541343D01*
X200643699Y-61541345D01*
X200643699Y-61709446D01*
X200643700Y-61709459D01*
X200643700Y-65257102D01*
X200624015Y-65324141D01*
X200607381Y-65344783D01*
X197191482Y-68760681D01*
X197191478Y-68760687D01*
X197142463Y-68845584D01*
X197112424Y-68897612D01*
X197112423Y-68897613D01*
X197100231Y-68943115D01*
X197071499Y-69050343D01*
X197071499Y-69050345D01*
X197071499Y-69218446D01*
X197071500Y-69218459D01*
X197071500Y-70586797D01*
X197051815Y-70653836D01*
X196999011Y-70699591D01*
X196929853Y-70709535D01*
X196901446Y-70700878D01*
X196901295Y-70701311D01*
X196724454Y-70639431D01*
X196724449Y-70639430D01*
X196545204Y-70619235D01*
X196545196Y-70619235D01*
X196365950Y-70639430D01*
X196365945Y-70639431D01*
X196195676Y-70699011D01*
X196042936Y-70794985D01*
X196040103Y-70797245D01*
X196037924Y-70798134D01*
X196037042Y-70798689D01*
X196036944Y-70798534D01*
X195975417Y-70823655D01*
X195962788Y-70824300D01*
X189630543Y-70824300D01*
X189550870Y-70845648D01*
X189481020Y-70843985D01*
X189423158Y-70804822D01*
X189395654Y-70740593D01*
X189407241Y-70671691D01*
X189431092Y-70638195D01*
X195392424Y-64676620D01*
X195453745Y-64643134D01*
X195480106Y-64640300D01*
X195902588Y-64640300D01*
X195969627Y-64659985D01*
X195979903Y-64667355D01*
X195982736Y-64669614D01*
X195982738Y-64669616D01*
X196135478Y-64765589D01*
X196205858Y-64790216D01*
X196305745Y-64825168D01*
X196305750Y-64825169D01*
X196484996Y-64845365D01*
X196485000Y-64845365D01*
X196485004Y-64845365D01*
X196664249Y-64825169D01*
X196664252Y-64825168D01*
X196664255Y-64825168D01*
X196834522Y-64765589D01*
X196987262Y-64669616D01*
X197114816Y-64542062D01*
X197210789Y-64389322D01*
X197270368Y-64219055D01*
X197274889Y-64178933D01*
X197290565Y-64039803D01*
X197290565Y-64039796D01*
X197270369Y-63860550D01*
X197270368Y-63860545D01*
X197210788Y-63690276D01*
X197128482Y-63559288D01*
X197114816Y-63537538D01*
X196987262Y-63409984D01*
X196834523Y-63314011D01*
X196664254Y-63254431D01*
X196664249Y-63254430D01*
X196485004Y-63234235D01*
X196484996Y-63234235D01*
X196305750Y-63254430D01*
X196305745Y-63254431D01*
X196135476Y-63314011D01*
X195982737Y-63409984D01*
X195980026Y-63412147D01*
X195977942Y-63412997D01*
X195976842Y-63413689D01*
X195976720Y-63413496D01*
X195915339Y-63438556D01*
X195902713Y-63439200D01*
X195112577Y-63439200D01*
X195111052Y-63439300D01*
X195100931Y-63439300D01*
X195100927Y-63439301D01*
X195012065Y-63463114D01*
X194975201Y-63472992D01*
X194948211Y-63480224D01*
X194948204Y-63480227D01*
X194948204Y-63480228D01*
X194896813Y-63509900D01*
X194811287Y-63559277D01*
X194811281Y-63559282D01*
X194811270Y-63559291D01*
X194771827Y-63598736D01*
X194771822Y-63598742D01*
X194712427Y-63658137D01*
X194695149Y-63675415D01*
X194695136Y-63675429D01*
X185011651Y-73359312D01*
X185009487Y-73361425D01*
X184958613Y-73409877D01*
X184953980Y-73415619D01*
X184949470Y-73421497D01*
X184914387Y-73482266D01*
X184912844Y-73484866D01*
X184876241Y-73544840D01*
X184873245Y-73551599D01*
X184870419Y-73558423D01*
X184852254Y-73626221D01*
X184851436Y-73629130D01*
X184831606Y-73696521D01*
X184830461Y-73703834D01*
X184829498Y-73711155D01*
X184829498Y-73781374D01*
X184829461Y-73784396D01*
X184828994Y-73803572D01*
X184827750Y-73854592D01*
X184827751Y-73854596D01*
X184828539Y-73861973D01*
X184829500Y-73869269D01*
X184843274Y-73920666D01*
X184847500Y-73952763D01*
X184847500Y-76102777D01*
X184827815Y-76169816D01*
X184775011Y-76215571D01*
X184737384Y-76225997D01*
X184668750Y-76233730D01*
X184498478Y-76293310D01*
X184345739Y-76389283D01*
X184215546Y-76519475D01*
X184189866Y-76539180D01*
X184130284Y-76573580D01*
X184130279Y-76573583D01*
X184130279Y-76573584D01*
X184130278Y-76573585D01*
X184106564Y-76597300D01*
X184043253Y-76660611D01*
X184015368Y-76688496D01*
X184015355Y-76688509D01*
X176324483Y-84379575D01*
X176095109Y-84608955D01*
X176060679Y-84643385D01*
X175995478Y-84708585D01*
X175994494Y-84710177D01*
X175993615Y-84711812D01*
X175953107Y-84781974D01*
X175953107Y-84781976D01*
X175920333Y-84838745D01*
X175916420Y-84845520D01*
X175875498Y-84998247D01*
X175875498Y-84998248D01*
X175875500Y-85122840D01*
X175875500Y-87603003D01*
X175855815Y-87670042D01*
X175839181Y-87690684D01*
X174691984Y-88837881D01*
X174630661Y-88871366D01*
X174604303Y-88874200D01*
X171342043Y-88874200D01*
X171275004Y-88854515D01*
X171229249Y-88801711D01*
X171219305Y-88732553D01*
X171248330Y-88668997D01*
X171280293Y-88644556D01*
X171279626Y-88643494D01*
X171320987Y-88617505D01*
X171438262Y-88543816D01*
X171565816Y-88416262D01*
X171661789Y-88263522D01*
X171721368Y-88093255D01*
X171722368Y-88084385D01*
X171731145Y-88006478D01*
X171758210Y-87942064D01*
X171766690Y-87932673D01*
X173484534Y-86215379D01*
X173484696Y-86215239D01*
X173490713Y-86209221D01*
X173490716Y-86209220D01*
X173549385Y-86150550D01*
X173602460Y-86097493D01*
X173602462Y-86097488D01*
X173602485Y-86097466D01*
X173602505Y-86097440D01*
X173602517Y-86097418D01*
X173602520Y-86097416D01*
X173642756Y-86027724D01*
X173681135Y-85961274D01*
X173681567Y-85960545D01*
X173681746Y-85959852D01*
X173684193Y-85950722D01*
X173701368Y-85886619D01*
X173701372Y-85886620D01*
X173701372Y-85886601D01*
X173722488Y-85807853D01*
X173722488Y-85807842D01*
X173722500Y-85807755D01*
X173722500Y-85731959D01*
X173722507Y-85685010D01*
X173722513Y-85649739D01*
X173722511Y-85649734D01*
X173722513Y-85641811D01*
X173722500Y-85641595D01*
X173722500Y-85012112D01*
X173742185Y-84945073D01*
X173749555Y-84934797D01*
X173751810Y-84931967D01*
X173751816Y-84931962D01*
X173847789Y-84779222D01*
X173907368Y-84608955D01*
X173909455Y-84590435D01*
X173916195Y-84530617D01*
X173943261Y-84466203D01*
X174000856Y-84426648D01*
X174039415Y-84420500D01*
X175173331Y-84420500D01*
X175173347Y-84420501D01*
X175180943Y-84420501D01*
X175339054Y-84420501D01*
X175339057Y-84420501D01*
X175491785Y-84379577D01*
X175541904Y-84350639D01*
X175628716Y-84300520D01*
X175740520Y-84188716D01*
X175740520Y-84188714D01*
X175750728Y-84178507D01*
X175750730Y-84178504D01*
X183238506Y-76690728D01*
X183238511Y-76690724D01*
X183248714Y-76680520D01*
X183248716Y-76680520D01*
X183360520Y-76568716D01*
X183439577Y-76431784D01*
X183476894Y-76292516D01*
X183480500Y-76279058D01*
X183480500Y-76120943D01*
X183480500Y-73960097D01*
X183500185Y-73893058D01*
X183516819Y-73872416D01*
X195342916Y-62046319D01*
X195404239Y-62012834D01*
X195430597Y-62010000D01*
X195816788Y-62010000D01*
X195883827Y-62029685D01*
X195894103Y-62037055D01*
X195896936Y-62039314D01*
X195896938Y-62039316D01*
X196049678Y-62135289D01*
X196156841Y-62172787D01*
X196219945Y-62194868D01*
X196219950Y-62194869D01*
X196399196Y-62215065D01*
X196399200Y-62215065D01*
X196399204Y-62215065D01*
X196578449Y-62194869D01*
X196578452Y-62194868D01*
X196578455Y-62194868D01*
X196748722Y-62135289D01*
X196901462Y-62039316D01*
X197029016Y-61911762D01*
X197124989Y-61759022D01*
X197184568Y-61588755D01*
X197190739Y-61533989D01*
X197204765Y-61409503D01*
X197204765Y-61409496D01*
X197184569Y-61230250D01*
X197184568Y-61230245D01*
X197124988Y-61059976D01*
X197065426Y-60965184D01*
X197029016Y-60907238D01*
X196901462Y-60779684D01*
X196748723Y-60683711D01*
X196578454Y-60624131D01*
X196578449Y-60624130D01*
X196399204Y-60603935D01*
X196399196Y-60603935D01*
X196219950Y-60624130D01*
X196219945Y-60624131D01*
X196049676Y-60683711D01*
X195896936Y-60779685D01*
X195894103Y-60781945D01*
X195891924Y-60782834D01*
X195891042Y-60783389D01*
X195890944Y-60783234D01*
X195829417Y-60808355D01*
X195816788Y-60809000D01*
X195051442Y-60809000D01*
X194898715Y-60849923D01*
X194880761Y-60860289D01*
X194880760Y-60860289D01*
X194761790Y-60928975D01*
X194761782Y-60928981D01*
X182399479Y-73291284D01*
X182376329Y-73331384D01*
X182365130Y-73350781D01*
X182348427Y-73379712D01*
X182320423Y-73428214D01*
X182311474Y-73461612D01*
X182279499Y-73580943D01*
X182279499Y-73580945D01*
X182279499Y-73749046D01*
X182279500Y-73749059D01*
X182279500Y-75899903D01*
X182259815Y-75966942D01*
X182243181Y-75987584D01*
X180933037Y-77297727D01*
X180871714Y-77331212D01*
X180802022Y-77326228D01*
X180746089Y-77284356D01*
X180721672Y-77218892D01*
X180736524Y-77150619D01*
X180737841Y-77148267D01*
X180758024Y-77113190D01*
X180758103Y-77113055D01*
X180774122Y-77085308D01*
X180797577Y-77044684D01*
X180797579Y-77044676D01*
X180797732Y-77044307D01*
X180797783Y-77044183D01*
X180797912Y-77043869D01*
X180797916Y-77043863D01*
X180818176Y-76967804D01*
X180818218Y-76967815D01*
X180818222Y-76967629D01*
X180838500Y-76891957D01*
X180838500Y-76891948D01*
X180838598Y-76891204D01*
X180838614Y-76891083D01*
X180838616Y-76891076D01*
X180838500Y-76812018D01*
X180838500Y-72502483D01*
X180838536Y-72422313D01*
X180838535Y-72422311D01*
X180838501Y-72422051D01*
X180838500Y-72422047D01*
X180838500Y-72422043D01*
X180818219Y-72346356D01*
X180818219Y-72346355D01*
X180818222Y-72346353D01*
X180818206Y-72346307D01*
X180797681Y-72269567D01*
X180797680Y-72269565D01*
X180797622Y-72269425D01*
X180797575Y-72269311D01*
X180757881Y-72200560D01*
X180757853Y-72200512D01*
X180718685Y-72132600D01*
X180718682Y-72132597D01*
X180718680Y-72132593D01*
X180718520Y-72132384D01*
X180661475Y-72075339D01*
X180661447Y-72075288D01*
X180661436Y-72075300D01*
X180391384Y-71805004D01*
X180390990Y-71804554D01*
X180328453Y-71742017D01*
X180328425Y-71741966D01*
X180328414Y-71741978D01*
X180273932Y-71687447D01*
X180273931Y-71687446D01*
X180273927Y-71687442D01*
X180273712Y-71687277D01*
X180250045Y-71673613D01*
X180224353Y-71653896D01*
X178922808Y-70352025D01*
X178889330Y-70290698D01*
X178886500Y-70264355D01*
X178886500Y-65134944D01*
X178886499Y-65134940D01*
X178882374Y-65119543D01*
X178845577Y-64982215D01*
X178798027Y-64899857D01*
X178795540Y-64895550D01*
X178766521Y-64845286D01*
X178766520Y-64845284D01*
X178654716Y-64733480D01*
X178654715Y-64733479D01*
X178650385Y-64729149D01*
X178650374Y-64729139D01*
X171606030Y-57684795D01*
X203546499Y-57684795D01*
X203573418Y-57820122D01*
X203573421Y-57820132D01*
X203626221Y-57947604D01*
X203626228Y-57947617D01*
X203702885Y-58062341D01*
X203702888Y-58062345D01*
X203800454Y-58159911D01*
X203800458Y-58159914D01*
X203915182Y-58236571D01*
X203915195Y-58236578D01*
X203974144Y-58260995D01*
X204042672Y-58289380D01*
X204042676Y-58289380D01*
X204042677Y-58289381D01*
X204178004Y-58316300D01*
X204178007Y-58316300D01*
X204315995Y-58316300D01*
X204407041Y-58298189D01*
X204451328Y-58289380D01*
X204578811Y-58236575D01*
X204693542Y-58159914D01*
X204791114Y-58062342D01*
X204867775Y-57947611D01*
X204920580Y-57820128D01*
X204947500Y-57684793D01*
X204947500Y-57546807D01*
X204947500Y-57546804D01*
X204920581Y-57411477D01*
X204920580Y-57411476D01*
X204920580Y-57411472D01*
X204907805Y-57380630D01*
X204867778Y-57283995D01*
X204867771Y-57283982D01*
X204791114Y-57169258D01*
X204791111Y-57169254D01*
X204693545Y-57071688D01*
X204693541Y-57071685D01*
X204578817Y-56995028D01*
X204578804Y-56995021D01*
X204451332Y-56942221D01*
X204451322Y-56942218D01*
X204315995Y-56915300D01*
X204315993Y-56915300D01*
X204178007Y-56915300D01*
X204178005Y-56915300D01*
X204042677Y-56942218D01*
X204042667Y-56942221D01*
X203915195Y-56995021D01*
X203915182Y-56995028D01*
X203800458Y-57071685D01*
X203800454Y-57071688D01*
X203702888Y-57169254D01*
X203702885Y-57169258D01*
X203626228Y-57283982D01*
X203626221Y-57283995D01*
X203573421Y-57411467D01*
X203573418Y-57411477D01*
X203546500Y-57546804D01*
X203546500Y-57546807D01*
X203546500Y-57684793D01*
X203546500Y-57684795D01*
X203546499Y-57684795D01*
X171606030Y-57684795D01*
X170013416Y-56092181D01*
X169979931Y-56030858D01*
X169984915Y-55961166D01*
X170026787Y-55905233D01*
X170092251Y-55880816D01*
X170101097Y-55880500D01*
X205514108Y-55880500D01*
X205573907Y-55880500D01*
X205586061Y-55881097D01*
G37*
%TD.AperFunction*%
%TA.AperFunction,Conductor*%
G36*
X196029827Y-72044985D02*
G01*
X196040103Y-72052355D01*
X196042936Y-72054614D01*
X196042938Y-72054616D01*
X196156470Y-72125952D01*
X196192017Y-72148289D01*
X196195678Y-72150589D01*
X196338350Y-72200512D01*
X196365945Y-72210168D01*
X196365950Y-72210169D01*
X196545196Y-72230365D01*
X196545200Y-72230365D01*
X196545204Y-72230365D01*
X196724449Y-72210169D01*
X196724452Y-72210168D01*
X196724455Y-72210168D01*
X196894722Y-72150589D01*
X196894722Y-72150588D01*
X196901295Y-72148289D01*
X196901806Y-72149749D01*
X196962626Y-72139728D01*
X197026763Y-72167443D01*
X197065736Y-72225434D01*
X197071500Y-72262802D01*
X197071500Y-72493299D01*
X197051815Y-72560338D01*
X197035181Y-72580981D01*
X182187181Y-87428805D01*
X182125857Y-87462289D01*
X182056166Y-87457305D01*
X182000232Y-87415433D01*
X181975816Y-87349968D01*
X181975500Y-87341123D01*
X181975500Y-87146490D01*
X181995185Y-87079451D01*
X182011815Y-87058813D01*
X188968709Y-80102108D01*
X188968719Y-80102100D01*
X188975778Y-80095041D01*
X188975782Y-80095039D01*
X189058341Y-80012480D01*
X189108918Y-79961903D01*
X189110752Y-79960315D01*
X189113939Y-79956949D01*
X189115567Y-79955274D01*
X189117532Y-79952100D01*
X189118721Y-79950321D01*
X189183523Y-79853338D01*
X189220519Y-79797969D01*
X189222261Y-79795673D01*
X189223365Y-79793876D01*
X189224530Y-79792057D01*
X189224629Y-79791816D01*
X189224632Y-79791814D01*
X189226444Y-79787438D01*
X189229257Y-79780659D01*
X189229267Y-79780622D01*
X189267227Y-79688980D01*
X189296550Y-79618190D01*
X189297563Y-79616179D01*
X189299488Y-79611194D01*
X189300249Y-79609287D01*
X189300559Y-79607930D01*
X189301082Y-79604554D01*
X189316728Y-79525894D01*
X189316728Y-79525891D01*
X189338499Y-79416454D01*
X189338499Y-79416452D01*
X189338500Y-79416444D01*
X189338500Y-79325480D01*
X189338500Y-79301584D01*
X189338502Y-79219373D01*
X189338500Y-79219367D01*
X189338501Y-79213819D01*
X189338500Y-79213773D01*
X189338500Y-78827294D01*
X189358185Y-78760255D01*
X189374815Y-78739617D01*
X192426663Y-75687853D01*
X192426685Y-75687835D01*
X192432779Y-75681740D01*
X192432782Y-75681739D01*
X192552251Y-75562270D01*
X192568789Y-75545732D01*
X192571499Y-75543223D01*
X192571886Y-75542812D01*
X192573458Y-75540548D01*
X192575047Y-75538343D01*
X192576441Y-75535943D01*
X192644013Y-75434815D01*
X192678004Y-75383945D01*
X192679792Y-75381553D01*
X192680149Y-75380964D01*
X192681645Y-75378610D01*
X192682710Y-75376183D01*
X192683367Y-75374764D01*
X192684333Y-75371992D01*
X192718261Y-75290082D01*
X192721905Y-75281287D01*
X192753546Y-75204901D01*
X192754558Y-75202891D01*
X192756477Y-75197920D01*
X192757249Y-75195988D01*
X192757559Y-75194627D01*
X192758081Y-75191256D01*
X192774836Y-75107023D01*
X192795499Y-75003154D01*
X192795500Y-75003148D01*
X192795500Y-74851895D01*
X192795501Y-74806074D01*
X192795500Y-74806068D01*
X192795500Y-74450459D01*
X192795500Y-74450456D01*
X192757052Y-74257170D01*
X192757051Y-74257169D01*
X192757051Y-74257165D01*
X192747512Y-74234135D01*
X192681635Y-74075092D01*
X192681628Y-74075079D01*
X192572139Y-73911218D01*
X192572136Y-73911214D01*
X192432785Y-73771863D01*
X192432781Y-73771860D01*
X192268920Y-73662371D01*
X192268907Y-73662364D01*
X192086839Y-73586950D01*
X192086829Y-73586947D01*
X191893543Y-73548500D01*
X191893541Y-73548500D01*
X191696459Y-73548500D01*
X191696457Y-73548500D01*
X191503170Y-73586947D01*
X191503160Y-73586950D01*
X191321092Y-73662364D01*
X191321079Y-73662371D01*
X191157218Y-73771860D01*
X191157214Y-73771863D01*
X191017863Y-73911214D01*
X191017860Y-73911218D01*
X190908371Y-74075079D01*
X190908364Y-74075092D01*
X190832950Y-74257160D01*
X190832947Y-74257170D01*
X190793311Y-74456434D01*
X190792148Y-74456202D01*
X190768345Y-74515145D01*
X190758787Y-74525881D01*
X187426873Y-77857703D01*
X187426868Y-77857710D01*
X187317380Y-78021564D01*
X187317371Y-78021580D01*
X187241955Y-78203643D01*
X187241954Y-78203647D01*
X187203500Y-78396945D01*
X187203499Y-78495498D01*
X187203498Y-78594026D01*
X187211183Y-78632662D01*
X187241945Y-78787323D01*
X187241948Y-78787330D01*
X187272243Y-78860473D01*
X187279710Y-78929942D01*
X187248434Y-78992421D01*
X187245361Y-78995605D01*
X180339662Y-85901117D01*
X180339624Y-85901153D01*
X180284023Y-85956756D01*
X180284021Y-85956758D01*
X180197871Y-86042905D01*
X180197869Y-86042907D01*
X180197867Y-86042910D01*
X180197864Y-86042914D01*
X180197861Y-86042918D01*
X180145631Y-86121086D01*
X180145630Y-86121085D01*
X180088368Y-86206783D01*
X180051209Y-86296497D01*
X180051208Y-86296500D01*
X180012952Y-86388849D01*
X180012948Y-86388863D01*
X179996271Y-86472706D01*
X179996271Y-86472708D01*
X179974505Y-86582119D01*
X179974500Y-86582151D01*
X179974500Y-86618349D01*
X179974498Y-86785329D01*
X179974500Y-86785370D01*
X179974500Y-88090441D01*
X179974500Y-88090443D01*
X179974499Y-88090443D01*
X180012947Y-88283729D01*
X180012950Y-88283739D01*
X180088364Y-88465807D01*
X180088371Y-88465820D01*
X180197860Y-88629681D01*
X180197863Y-88629685D01*
X180205196Y-88637018D01*
X180234556Y-88683742D01*
X180249212Y-88725624D01*
X180345184Y-88878362D01*
X180392841Y-88926019D01*
X180426326Y-88987342D01*
X180421342Y-89057034D01*
X180379470Y-89112967D01*
X180314006Y-89137384D01*
X180305160Y-89137700D01*
X177796497Y-89137700D01*
X177729458Y-89118015D01*
X177683703Y-89065211D01*
X177673759Y-88996053D01*
X177702784Y-88932497D01*
X177708816Y-88926019D01*
X177851480Y-88783355D01*
X178291506Y-88343327D01*
X178291511Y-88343324D01*
X178301714Y-88333120D01*
X178301716Y-88333120D01*
X178413520Y-88221316D01*
X178492577Y-88084384D01*
X178528505Y-87950300D01*
X178533500Y-87931658D01*
X178533500Y-87773543D01*
X178533500Y-85999710D01*
X178553185Y-85932671D01*
X178569821Y-85912026D01*
X178573310Y-85908537D01*
X186793639Y-77688690D01*
X186793663Y-77688672D01*
X186801714Y-77680620D01*
X186801716Y-77680620D01*
X186868659Y-77613677D01*
X186910183Y-77572155D01*
X186913482Y-77569100D01*
X186913508Y-77569066D01*
X186915327Y-77565685D01*
X186953745Y-77499143D01*
X186989601Y-77437042D01*
X186992358Y-77432759D01*
X186992618Y-77432263D01*
X186993596Y-77428080D01*
X186999912Y-77404511D01*
X187012225Y-77358557D01*
X187033319Y-77279840D01*
X187033493Y-77279211D01*
X187033500Y-77279166D01*
X187033500Y-77200443D01*
X187033500Y-77197564D01*
X187033503Y-77121060D01*
X187033501Y-77121055D01*
X187033502Y-77113485D01*
X187033500Y-77113435D01*
X187033500Y-75001497D01*
X187053185Y-74934458D01*
X187069819Y-74913816D01*
X189922016Y-72061619D01*
X189983339Y-72028134D01*
X190009697Y-72025300D01*
X195962788Y-72025300D01*
X196029827Y-72044985D01*
G37*
%TD.AperFunction*%
%TA.AperFunction,Conductor*%
G36*
X170794393Y-86875606D02*
G01*
X170861430Y-86895297D01*
X170907180Y-86948105D01*
X170917117Y-87017265D01*
X170888086Y-87080818D01*
X170829304Y-87118586D01*
X170808265Y-87122826D01*
X170756750Y-87128630D01*
X170586478Y-87188210D01*
X170433737Y-87284184D01*
X170306184Y-87411737D01*
X170210211Y-87564476D01*
X170150631Y-87734745D01*
X170150630Y-87734750D01*
X170130435Y-87913996D01*
X170130435Y-87914003D01*
X170150630Y-88093249D01*
X170150631Y-88093254D01*
X170210211Y-88263523D01*
X170304570Y-88413694D01*
X170306184Y-88416262D01*
X170433738Y-88543816D01*
X170494122Y-88581758D01*
X170592374Y-88643494D01*
X170591265Y-88645257D01*
X170635618Y-88685302D01*
X170653931Y-88752729D01*
X170632883Y-88819353D01*
X170579157Y-88864022D01*
X170529957Y-88874200D01*
X166028937Y-88874200D01*
X165961898Y-88854515D01*
X165941289Y-88837915D01*
X165918193Y-88814837D01*
X165740073Y-88636853D01*
X165706566Y-88575543D01*
X165710680Y-88508185D01*
X165726368Y-88463355D01*
X165726369Y-88463349D01*
X165746565Y-88284103D01*
X165746565Y-88284096D01*
X165726369Y-88104850D01*
X165726368Y-88104845D01*
X165722310Y-88093249D01*
X165666789Y-87934578D01*
X165653856Y-87913996D01*
X165600343Y-87828830D01*
X165570816Y-87781838D01*
X165443262Y-87654284D01*
X165427161Y-87644167D01*
X165290523Y-87558311D01*
X165120254Y-87498731D01*
X165120249Y-87498730D01*
X164941004Y-87478535D01*
X164940996Y-87478535D01*
X164761750Y-87498730D01*
X164761742Y-87498732D01*
X164729944Y-87509859D01*
X164660165Y-87513420D01*
X164599538Y-87478691D01*
X164567311Y-87416697D01*
X164573717Y-87347122D01*
X164583997Y-87326844D01*
X164612788Y-87281024D01*
X164619472Y-87261922D01*
X164672368Y-87110755D01*
X164672708Y-87107737D01*
X164686457Y-86985716D01*
X164713523Y-86921303D01*
X164771118Y-86881747D01*
X164809677Y-86875600D01*
X170731928Y-86875600D01*
X170794393Y-86875606D01*
G37*
%TD.AperFunction*%
%TA.AperFunction,Conductor*%
G36*
X160697899Y-66777685D02*
G01*
X160718541Y-66794319D01*
X160733738Y-66809516D01*
X160886478Y-66905489D01*
X160927854Y-66919967D01*
X161056745Y-66965068D01*
X161056750Y-66965069D01*
X161162251Y-66976956D01*
X161226665Y-67004022D01*
X161266220Y-67061617D01*
X161268358Y-67131454D01*
X161255752Y-67162182D01*
X161225427Y-67214698D01*
X161213190Y-67260368D01*
X161206440Y-67285560D01*
X161189515Y-67348711D01*
X161184500Y-67367421D01*
X161184500Y-67367443D01*
X161184500Y-67437678D01*
X161184496Y-67520039D01*
X161184495Y-67533890D01*
X161184500Y-67533963D01*
X161184500Y-68622808D01*
X161164815Y-68689847D01*
X161148183Y-68710488D01*
X156079170Y-73779691D01*
X150834473Y-79024584D01*
X150825577Y-79033480D01*
X150764254Y-79066966D01*
X150737894Y-79069800D01*
X148229326Y-79069800D01*
X148229281Y-79069797D01*
X148221040Y-79069797D01*
X148102454Y-79069800D01*
X148062943Y-79069800D01*
X148062939Y-79069800D01*
X148062926Y-79069801D01*
X148062922Y-79069801D01*
X148062921Y-79069802D01*
X147972435Y-79094051D01*
X147972432Y-79094052D01*
X147910207Y-79110725D01*
X147893101Y-79120602D01*
X147849114Y-79146000D01*
X147838483Y-79152138D01*
X147773283Y-79189780D01*
X147773274Y-79189787D01*
X147748092Y-79214972D01*
X147743691Y-79219373D01*
X147709749Y-79253315D01*
X147655387Y-79307676D01*
X147655358Y-79307709D01*
X146202574Y-80760579D01*
X146141252Y-80794065D01*
X146114890Y-80796900D01*
X144740412Y-80796900D01*
X144673373Y-80777215D01*
X144663097Y-80769845D01*
X144660263Y-80767585D01*
X144660262Y-80767584D01*
X144551140Y-80699018D01*
X144507523Y-80671611D01*
X144337254Y-80612031D01*
X144337249Y-80612030D01*
X144158004Y-80591835D01*
X144157996Y-80591835D01*
X143978750Y-80612030D01*
X143978745Y-80612031D01*
X143808476Y-80671611D01*
X143655737Y-80767584D01*
X143528184Y-80895137D01*
X143432211Y-81047876D01*
X143372631Y-81218145D01*
X143372630Y-81218150D01*
X143352435Y-81397396D01*
X143352435Y-81397403D01*
X143372630Y-81576649D01*
X143372631Y-81576654D01*
X143432211Y-81746923D01*
X143477587Y-81819138D01*
X143528184Y-81899662D01*
X143655738Y-82027216D01*
X143808478Y-82123189D01*
X143922583Y-82163116D01*
X143978745Y-82182768D01*
X143978750Y-82182769D01*
X144157996Y-82202965D01*
X144158000Y-82202965D01*
X144158004Y-82202965D01*
X144337249Y-82182769D01*
X144337252Y-82182768D01*
X144337255Y-82182768D01*
X144507522Y-82123189D01*
X144660262Y-82027216D01*
X144660267Y-82027210D01*
X144663097Y-82024955D01*
X144665275Y-82024065D01*
X144666158Y-82023511D01*
X144666255Y-82023665D01*
X144727783Y-81998545D01*
X144740412Y-81997900D01*
X145573867Y-81997900D01*
X145640906Y-82017585D01*
X145686661Y-82070389D01*
X145696605Y-82139547D01*
X145667580Y-82203103D01*
X145661556Y-82209571D01*
X145103705Y-82767292D01*
X145042380Y-82800769D01*
X145016036Y-82803600D01*
X142654412Y-82803600D01*
X142587373Y-82783915D01*
X142577097Y-82776545D01*
X142574263Y-82774285D01*
X142574262Y-82774284D01*
X142494078Y-82723901D01*
X142421523Y-82678311D01*
X142251254Y-82618731D01*
X142251249Y-82618730D01*
X142072004Y-82598535D01*
X142071996Y-82598535D01*
X141892750Y-82618730D01*
X141892745Y-82618731D01*
X141722476Y-82678311D01*
X141569737Y-82774284D01*
X141442184Y-82901837D01*
X141346211Y-83054576D01*
X141286631Y-83224845D01*
X141286630Y-83224850D01*
X141266435Y-83404096D01*
X141266435Y-83404103D01*
X141286630Y-83583349D01*
X141286631Y-83583354D01*
X141346211Y-83753623D01*
X141428525Y-83884624D01*
X141442184Y-83906362D01*
X141569738Y-84033916D01*
X141722478Y-84129889D01*
X141861403Y-84178501D01*
X141892745Y-84189468D01*
X141892750Y-84189469D01*
X142071996Y-84209665D01*
X142072000Y-84209665D01*
X142072004Y-84209665D01*
X142251249Y-84189469D01*
X142251252Y-84189468D01*
X142251255Y-84189468D01*
X142421522Y-84129889D01*
X142574262Y-84033916D01*
X142574267Y-84033910D01*
X142577097Y-84031655D01*
X142579275Y-84030765D01*
X142580158Y-84030211D01*
X142580255Y-84030365D01*
X142641783Y-84005245D01*
X142654412Y-84004600D01*
X145465055Y-84004600D01*
X145465057Y-84004600D01*
X145617784Y-83963677D01*
X145754716Y-83884620D01*
X145866520Y-83772816D01*
X145945577Y-83635884D01*
X145945577Y-83635882D01*
X145949641Y-83628844D01*
X145950530Y-83629357D01*
X145971503Y-83597967D01*
X148279334Y-81290675D01*
X148340660Y-81257198D01*
X148410351Y-81262190D01*
X148466280Y-81304068D01*
X148473310Y-81315648D01*
X148473506Y-81315526D01*
X148477211Y-81321422D01*
X148573184Y-81474162D01*
X148700738Y-81601716D01*
X148791080Y-81658482D01*
X148827412Y-81681311D01*
X148853478Y-81697689D01*
X148994178Y-81746922D01*
X149023745Y-81757268D01*
X149023750Y-81757269D01*
X149202996Y-81777465D01*
X149203000Y-81777465D01*
X149203004Y-81777465D01*
X149382249Y-81757269D01*
X149382252Y-81757268D01*
X149382255Y-81757268D01*
X149552522Y-81697689D01*
X149705262Y-81601716D01*
X149705267Y-81601710D01*
X149708097Y-81599455D01*
X149710275Y-81598565D01*
X149711158Y-81598011D01*
X149711255Y-81598165D01*
X149772783Y-81573045D01*
X149785412Y-81572400D01*
X150086008Y-81572400D01*
X150153047Y-81592085D01*
X150198802Y-81644889D01*
X150208746Y-81714047D01*
X150179721Y-81777603D01*
X150173692Y-81784078D01*
X149954628Y-82003141D01*
X149590585Y-82367182D01*
X149529262Y-82400666D01*
X149502904Y-82403500D01*
X149461412Y-82403500D01*
X149394373Y-82383815D01*
X149384097Y-82376445D01*
X149381263Y-82374185D01*
X149381262Y-82374184D01*
X149297257Y-82321400D01*
X149228523Y-82278211D01*
X149058254Y-82218631D01*
X149058249Y-82218630D01*
X148879004Y-82198435D01*
X148878996Y-82198435D01*
X148699750Y-82218630D01*
X148699745Y-82218631D01*
X148529476Y-82278211D01*
X148376737Y-82374184D01*
X148249184Y-82501737D01*
X148153211Y-82654476D01*
X148093631Y-82824745D01*
X148093630Y-82824750D01*
X148073435Y-83003996D01*
X148073435Y-83004003D01*
X148093630Y-83183249D01*
X148093631Y-83183254D01*
X148153211Y-83353523D01*
X148226138Y-83469584D01*
X148249184Y-83506262D01*
X148376738Y-83633816D01*
X148529478Y-83729789D01*
X148541086Y-83733851D01*
X148597862Y-83774572D01*
X148623610Y-83839525D01*
X148610154Y-83908087D01*
X148587846Y-83938540D01*
X148483305Y-84043159D01*
X148091807Y-84434139D01*
X148030462Y-84467584D01*
X148004184Y-84470400D01*
X143006145Y-84470400D01*
X143005808Y-84470378D01*
X142916826Y-84470400D01*
X142839893Y-84470400D01*
X142839842Y-84470406D01*
X142762745Y-84491084D01*
X142762719Y-84491091D01*
X142687199Y-84511327D01*
X142687092Y-84511371D01*
X142649120Y-84533307D01*
X142619775Y-84550259D01*
X142551585Y-84589628D01*
X142550258Y-84590395D01*
X142550187Y-84590450D01*
X142497021Y-84643641D01*
X142497002Y-84643661D01*
X142433195Y-84707468D01*
X142432971Y-84707722D01*
X141675262Y-85465802D01*
X141613947Y-85499302D01*
X141601444Y-85501362D01*
X141514750Y-85511130D01*
X141344478Y-85570710D01*
X141191737Y-85666684D01*
X141064184Y-85794237D01*
X140968211Y-85946976D01*
X140908631Y-86117245D01*
X140908630Y-86117250D01*
X140888435Y-86296496D01*
X140888435Y-86296500D01*
X140908630Y-86475749D01*
X140908631Y-86475754D01*
X140968211Y-86646023D01*
X141040031Y-86760323D01*
X141064184Y-86798762D01*
X141191738Y-86926316D01*
X141248504Y-86961984D01*
X141344477Y-87022289D01*
X141345984Y-87022816D01*
X141346830Y-87023422D01*
X141350753Y-87025312D01*
X141350422Y-87025998D01*
X141402764Y-87063532D01*
X141428517Y-87128483D01*
X141415067Y-87197046D01*
X141392721Y-87227542D01*
X140941284Y-87678981D01*
X140879961Y-87712466D01*
X140853603Y-87715300D01*
X130173212Y-87715300D01*
X130106173Y-87695615D01*
X130095897Y-87688245D01*
X130093063Y-87685985D01*
X130093062Y-87685984D01*
X129993849Y-87623644D01*
X129940323Y-87590011D01*
X129770054Y-87530431D01*
X129770049Y-87530430D01*
X129590804Y-87510235D01*
X129590796Y-87510235D01*
X129411550Y-87530430D01*
X129411545Y-87530431D01*
X129241276Y-87590011D01*
X129088537Y-87685984D01*
X128960984Y-87813537D01*
X128865010Y-87966278D01*
X128860145Y-87980183D01*
X128821565Y-88090441D01*
X128818478Y-88099262D01*
X128777756Y-88156038D01*
X128712804Y-88181786D01*
X128687553Y-88181528D01*
X128666331Y-88179137D01*
X128601917Y-88152071D01*
X128592533Y-88143598D01*
X125632590Y-85183655D01*
X125632588Y-85183652D01*
X125513717Y-85064781D01*
X125513716Y-85064780D01*
X125426904Y-85014660D01*
X125426904Y-85014659D01*
X125426900Y-85014658D01*
X125376785Y-84985723D01*
X125224057Y-84944799D01*
X125065943Y-84944799D01*
X125058347Y-84944799D01*
X125058331Y-84944800D01*
X114399997Y-84944800D01*
X114332958Y-84925115D01*
X114287203Y-84872311D01*
X114277259Y-84803153D01*
X114306284Y-84739597D01*
X114312316Y-84733119D01*
X114652603Y-84392832D01*
X115014987Y-84030447D01*
X115076308Y-83996964D01*
X115145999Y-84001948D01*
X115168637Y-84013135D01*
X115296678Y-84093589D01*
X115441813Y-84144374D01*
X115466945Y-84153168D01*
X115466950Y-84153169D01*
X115646196Y-84173365D01*
X115646200Y-84173365D01*
X115646204Y-84173365D01*
X115825449Y-84153169D01*
X115825452Y-84153168D01*
X115825455Y-84153168D01*
X115995722Y-84093589D01*
X116148462Y-83997616D01*
X116276016Y-83870062D01*
X116371989Y-83717322D01*
X116431568Y-83547055D01*
X116431802Y-83544984D01*
X116447240Y-83407962D01*
X116474306Y-83343548D01*
X116508456Y-83314460D01*
X116544181Y-83293835D01*
X116623016Y-83248320D01*
X116633534Y-83237801D01*
X116694855Y-83204316D01*
X116707316Y-83202262D01*
X116794255Y-83192468D01*
X116964522Y-83132889D01*
X117117262Y-83036916D01*
X117117267Y-83036910D01*
X117120097Y-83034655D01*
X117122275Y-83033765D01*
X117123158Y-83033211D01*
X117123255Y-83033365D01*
X117184783Y-83008245D01*
X117197412Y-83007600D01*
X122347748Y-83007600D01*
X122413720Y-83026606D01*
X122446476Y-83047188D01*
X122446478Y-83047189D01*
X122467595Y-83054578D01*
X122616745Y-83106768D01*
X122616750Y-83106769D01*
X122795996Y-83126965D01*
X122796000Y-83126965D01*
X122796004Y-83126965D01*
X122975249Y-83106769D01*
X122975252Y-83106768D01*
X122975255Y-83106768D01*
X123145522Y-83047189D01*
X123298262Y-82951216D01*
X123425816Y-82823662D01*
X123521789Y-82670922D01*
X123581368Y-82500655D01*
X123588696Y-82435619D01*
X123601565Y-82321403D01*
X123601565Y-82321396D01*
X123581369Y-82142150D01*
X123581368Y-82142145D01*
X123567285Y-82101899D01*
X123521789Y-81971878D01*
X123425816Y-81819138D01*
X123298262Y-81691584D01*
X123278259Y-81679015D01*
X123145523Y-81595611D01*
X122975254Y-81536031D01*
X122975249Y-81536030D01*
X122796004Y-81515835D01*
X122795996Y-81515835D01*
X122616750Y-81536030D01*
X122616745Y-81536031D01*
X122446476Y-81595611D01*
X122293737Y-81691584D01*
X122215041Y-81770281D01*
X122153718Y-81803766D01*
X122127360Y-81806600D01*
X117197412Y-81806600D01*
X117130373Y-81786915D01*
X117120097Y-81779545D01*
X117117263Y-81777285D01*
X117117262Y-81777284D01*
X117016621Y-81714047D01*
X116964521Y-81681310D01*
X116900924Y-81659057D01*
X116844148Y-81618335D01*
X116818400Y-81553383D01*
X116831856Y-81484821D01*
X116854198Y-81454332D01*
X121722085Y-76586808D01*
X121783408Y-76553328D01*
X121853100Y-76558315D01*
X121909032Y-76600188D01*
X121932982Y-76660611D01*
X121950630Y-76817250D01*
X121950631Y-76817254D01*
X122010211Y-76987523D01*
X122070515Y-77083496D01*
X122089327Y-77113435D01*
X122106185Y-77140263D01*
X122108445Y-77143097D01*
X122109334Y-77145275D01*
X122109889Y-77146158D01*
X122109734Y-77146255D01*
X122134855Y-77207783D01*
X122135500Y-77220412D01*
X122135500Y-78161234D01*
X122135499Y-78161252D01*
X122135499Y-78326961D01*
X122135500Y-78326964D01*
X122152467Y-78390281D01*
X122152467Y-78390283D01*
X122152468Y-78390283D01*
X122176423Y-78479685D01*
X122176464Y-78479808D01*
X122177356Y-78481301D01*
X122185553Y-78495498D01*
X122185554Y-78495500D01*
X122255477Y-78616612D01*
X122255481Y-78616617D01*
X122377487Y-78738623D01*
X122377495Y-78738629D01*
X123751045Y-80112162D01*
X130049761Y-86410803D01*
X130068299Y-86429340D01*
X130101784Y-86490663D01*
X130103838Y-86503138D01*
X130113630Y-86590049D01*
X130173210Y-86760321D01*
X130236563Y-86861146D01*
X130269184Y-86913062D01*
X130396738Y-87040616D01*
X130460719Y-87080818D01*
X130536814Y-87128632D01*
X130549478Y-87136589D01*
X130657767Y-87174481D01*
X130719745Y-87196168D01*
X130719750Y-87196169D01*
X130898996Y-87216365D01*
X130899000Y-87216365D01*
X130899004Y-87216365D01*
X131078249Y-87196169D01*
X131078252Y-87196168D01*
X131078255Y-87196168D01*
X131248522Y-87136589D01*
X131401262Y-87040616D01*
X131528816Y-86913062D01*
X131624789Y-86760322D01*
X131684368Y-86590055D01*
X131685258Y-86582159D01*
X131704565Y-86410803D01*
X131704565Y-86410796D01*
X131684369Y-86231550D01*
X131684368Y-86231545D01*
X131667073Y-86182119D01*
X131624789Y-86061278D01*
X131613246Y-86042908D01*
X131561494Y-85960545D01*
X131528816Y-85908538D01*
X131401262Y-85780984D01*
X131323604Y-85732188D01*
X131248521Y-85685010D01*
X131078249Y-85625430D01*
X130991325Y-85615636D01*
X130926912Y-85588569D01*
X130917529Y-85580098D01*
X123372819Y-78035480D01*
X123339334Y-77974157D01*
X123336500Y-77947798D01*
X123336500Y-77220412D01*
X123356185Y-77153373D01*
X123363555Y-77143097D01*
X123365810Y-77140267D01*
X123365816Y-77140262D01*
X123461789Y-76987522D01*
X123521368Y-76817255D01*
X123522385Y-76808233D01*
X123541565Y-76638003D01*
X123541565Y-76637996D01*
X123521369Y-76458750D01*
X123521368Y-76458745D01*
X123502346Y-76404384D01*
X123461789Y-76288478D01*
X123365816Y-76135738D01*
X123238262Y-76008184D01*
X123220149Y-75996803D01*
X123085523Y-75912211D01*
X122915254Y-75852631D01*
X122915250Y-75852630D01*
X122758676Y-75834989D01*
X122694262Y-75807922D01*
X122654707Y-75750327D01*
X122652570Y-75680490D01*
X122684880Y-75624086D01*
X123203423Y-75105581D01*
X123264746Y-75072101D01*
X123327883Y-75075969D01*
X123327963Y-75075620D01*
X123330085Y-75076104D01*
X123332049Y-75076224D01*
X123334745Y-75077168D01*
X123334749Y-75077168D01*
X123334751Y-75077169D01*
X123513996Y-75097365D01*
X123514000Y-75097365D01*
X123514004Y-75097365D01*
X123693249Y-75077169D01*
X123693252Y-75077168D01*
X123693255Y-75077168D01*
X123863522Y-75017589D01*
X124016262Y-74921616D01*
X124016267Y-74921610D01*
X124019097Y-74919355D01*
X124021275Y-74918465D01*
X124022158Y-74917911D01*
X124022255Y-74918065D01*
X124083783Y-74892945D01*
X124096412Y-74892300D01*
X141345677Y-74892300D01*
X141365821Y-74894951D01*
X141365889Y-74894439D01*
X141373940Y-74895499D01*
X141373943Y-74895500D01*
X141398144Y-74895500D01*
X141416815Y-74896913D01*
X141440740Y-74900558D01*
X141475922Y-74896648D01*
X141479441Y-74896258D01*
X141493133Y-74895500D01*
X141514680Y-74895500D01*
X141514724Y-74895502D01*
X141522960Y-74895501D01*
X141522965Y-74895503D01*
X141617833Y-74895500D01*
X141681057Y-74895500D01*
X141681073Y-74895500D01*
X141681107Y-74895495D01*
X141681642Y-74895347D01*
X141762924Y-74873563D01*
X141828957Y-74855870D01*
X141833936Y-74854753D01*
X141833967Y-74854739D01*
X141838420Y-74851903D01*
X141897351Y-74817876D01*
X141967581Y-74777329D01*
X141970773Y-74775612D01*
X141970786Y-74775602D01*
X141973231Y-74773007D01*
X142025100Y-74721135D01*
X142082520Y-74663716D01*
X142082521Y-74663713D01*
X142089569Y-74656666D01*
X142089593Y-74656637D01*
X145421132Y-71324854D01*
X145902429Y-70843522D01*
X145963750Y-70810035D01*
X145990113Y-70807200D01*
X149425304Y-70807200D01*
X149425332Y-70807201D01*
X149433953Y-70807200D01*
X149433957Y-70807202D01*
X149539367Y-70807200D01*
X149592057Y-70807200D01*
X149592252Y-70807200D01*
X149592632Y-70807143D01*
X149595565Y-70806262D01*
X149679604Y-70783741D01*
X149698310Y-70778729D01*
X149737630Y-70768194D01*
X149741928Y-70767314D01*
X149745134Y-70766332D01*
X149745663Y-70766055D01*
X149749946Y-70763298D01*
X149800126Y-70734325D01*
X149874054Y-70691643D01*
X149877651Y-70689897D01*
X149878604Y-70689269D01*
X149881881Y-70687245D01*
X149884612Y-70684325D01*
X149929504Y-70639432D01*
X149993520Y-70575416D01*
X149993520Y-70575414D01*
X150001574Y-70567361D01*
X150001593Y-70567337D01*
X153350066Y-67218700D01*
X153774424Y-66794321D01*
X153835746Y-66760834D01*
X153862107Y-66758000D01*
X160630860Y-66758000D01*
X160697899Y-66777685D01*
G37*
%TD.AperFunction*%
%TA.AperFunction,Conductor*%
G36*
X172957703Y-68216784D02*
G01*
X172964181Y-68222816D01*
X175182181Y-70440816D01*
X175215666Y-70502139D01*
X175218500Y-70528497D01*
X175218500Y-76725818D01*
X175218461Y-76805873D01*
X175218497Y-76806147D01*
X175238934Y-76882418D01*
X175238949Y-76882474D01*
X175259316Y-76958628D01*
X175259341Y-76958688D01*
X175259421Y-76958881D01*
X175299666Y-77028588D01*
X175299681Y-77028646D01*
X175299695Y-77028639D01*
X175338310Y-77095594D01*
X175338478Y-77095814D01*
X175338480Y-77095816D01*
X175395771Y-77153107D01*
X175616291Y-77373839D01*
X175649747Y-77435177D01*
X175651788Y-77447593D01*
X175661630Y-77534949D01*
X175721210Y-77705221D01*
X175772902Y-77787488D01*
X175817184Y-77857962D01*
X175944738Y-77985516D01*
X176097478Y-78081489D01*
X176246694Y-78133702D01*
X176267745Y-78141068D01*
X176267750Y-78141069D01*
X176446996Y-78161265D01*
X176447000Y-78161265D01*
X176447004Y-78161265D01*
X176626247Y-78141069D01*
X176626247Y-78141068D01*
X176626255Y-78141068D01*
X176637118Y-78137266D01*
X176706892Y-78133702D01*
X176767521Y-78168429D01*
X176785739Y-78192793D01*
X176819841Y-78252482D01*
X176820541Y-78253393D01*
X176820891Y-78253851D01*
X176821450Y-78254587D01*
X176837082Y-78270218D01*
X176838511Y-78271847D01*
X176898165Y-78331501D01*
X176898561Y-78331898D01*
X176953147Y-78386981D01*
X176953983Y-78387622D01*
X176954408Y-78387949D01*
X176955246Y-78388598D01*
X176955283Y-78388619D01*
X176955284Y-78388620D01*
X176958164Y-78390283D01*
X177022259Y-78427288D01*
X177022720Y-78427555D01*
X177080365Y-78461185D01*
X177089723Y-78466644D01*
X177090717Y-78467056D01*
X177091163Y-78467242D01*
X177092176Y-78467666D01*
X177092215Y-78467676D01*
X177092216Y-78467677D01*
X177137039Y-78479687D01*
X177167038Y-78487725D01*
X177167397Y-78487822D01*
X177224462Y-78503390D01*
X177242262Y-78508246D01*
X177243365Y-78508391D01*
X177243929Y-78508467D01*
X177244905Y-78508600D01*
X177244943Y-78508600D01*
X177322267Y-78508600D01*
X177322808Y-78508601D01*
X177323358Y-78508603D01*
X177326249Y-78508616D01*
X177393201Y-78528593D01*
X177430700Y-78566642D01*
X177468496Y-78626793D01*
X177487497Y-78694030D01*
X177467130Y-78760865D01*
X177451189Y-78780442D01*
X177441954Y-78789678D01*
X177380633Y-78823167D01*
X177340385Y-78825222D01*
X177155004Y-78804335D01*
X177154996Y-78804335D01*
X176975750Y-78824530D01*
X176975745Y-78824531D01*
X176805476Y-78884111D01*
X176652737Y-78980084D01*
X176525184Y-79107637D01*
X176429211Y-79260376D01*
X176369631Y-79430645D01*
X176369630Y-79430650D01*
X176349435Y-79609896D01*
X176349435Y-79609903D01*
X176369630Y-79789149D01*
X176369631Y-79789154D01*
X176429211Y-79959423D01*
X176514175Y-80094641D01*
X176525184Y-80112162D01*
X176652738Y-80239716D01*
X176805478Y-80335689D01*
X176932649Y-80380188D01*
X176975745Y-80395268D01*
X176975750Y-80395269D01*
X177154996Y-80415465D01*
X177155000Y-80415465D01*
X177155004Y-80415465D01*
X177334249Y-80395269D01*
X177334252Y-80395268D01*
X177334255Y-80395268D01*
X177504522Y-80335689D01*
X177623518Y-80260918D01*
X177690754Y-80241918D01*
X177757589Y-80262285D01*
X177802804Y-80315553D01*
X177812042Y-80384809D01*
X177782370Y-80448066D01*
X177777171Y-80453593D01*
X175047584Y-83183181D01*
X174986261Y-83216666D01*
X174959903Y-83219500D01*
X161437697Y-83219500D01*
X161370658Y-83199815D01*
X161350016Y-83183181D01*
X160507590Y-82340755D01*
X160507588Y-82340752D01*
X160388717Y-82221881D01*
X160388709Y-82221875D01*
X160286936Y-82163117D01*
X160286934Y-82163116D01*
X160251790Y-82142825D01*
X160251789Y-82142824D01*
X160239263Y-82139467D01*
X160099057Y-82101899D01*
X159940943Y-82101899D01*
X159933347Y-82101899D01*
X159933331Y-82101900D01*
X159195812Y-82101900D01*
X159128773Y-82082215D01*
X159118497Y-82074845D01*
X159115663Y-82072585D01*
X159115662Y-82072584D01*
X158997830Y-81998545D01*
X158962921Y-81976610D01*
X158792649Y-81917030D01*
X158724016Y-81909297D01*
X158659602Y-81882230D01*
X158620047Y-81824635D01*
X158613900Y-81786077D01*
X158613900Y-81278597D01*
X158633585Y-81211558D01*
X158650219Y-81190916D01*
X161845416Y-77995719D01*
X161906739Y-77962234D01*
X161933097Y-77959400D01*
X164095331Y-77959400D01*
X164095347Y-77959401D01*
X164102943Y-77959401D01*
X164261054Y-77959401D01*
X164261057Y-77959401D01*
X164413785Y-77918477D01*
X164475572Y-77882804D01*
X164550716Y-77839420D01*
X164662520Y-77727616D01*
X164662520Y-77727614D01*
X164672724Y-77717411D01*
X164672728Y-77717406D01*
X166539062Y-75851072D01*
X166539067Y-75851068D01*
X166549270Y-75840864D01*
X166549272Y-75840864D01*
X166661076Y-75729060D01*
X166720841Y-75625543D01*
X166740133Y-75592129D01*
X166781057Y-75439401D01*
X166781057Y-75384810D01*
X166800742Y-75317771D01*
X166853546Y-75272016D01*
X166922704Y-75262072D01*
X166986260Y-75291097D01*
X166992716Y-75297107D01*
X168044186Y-76348222D01*
X168100284Y-76404320D01*
X168100287Y-76404321D01*
X168100324Y-76404350D01*
X168100360Y-76404377D01*
X168100365Y-76404382D01*
X168168110Y-76443479D01*
X168237216Y-76483377D01*
X168237223Y-76483378D01*
X168237237Y-76483385D01*
X168237305Y-76483413D01*
X168237310Y-76483416D01*
X168315788Y-76504429D01*
X168315806Y-76504440D01*
X168315808Y-76504435D01*
X168389943Y-76524300D01*
X168389951Y-76524300D01*
X168390031Y-76524310D01*
X168390044Y-76524314D01*
X168472030Y-76524300D01*
X168921731Y-76524300D01*
X168921747Y-76524301D01*
X168929343Y-76524301D01*
X169087454Y-76524301D01*
X169087457Y-76524301D01*
X169240185Y-76483377D01*
X169240192Y-76483372D01*
X169247691Y-76480267D01*
X169248327Y-76481804D01*
X169283860Y-76470107D01*
X169359391Y-76461597D01*
X169444850Y-76451969D01*
X169444853Y-76451968D01*
X169444855Y-76451968D01*
X169615122Y-76392389D01*
X169767862Y-76296416D01*
X169895416Y-76168862D01*
X169991389Y-76016122D01*
X170050968Y-75845855D01*
X170050969Y-75845849D01*
X170071165Y-75666603D01*
X170071165Y-75666596D01*
X170050969Y-75487350D01*
X170050968Y-75487345D01*
X170014791Y-75383958D01*
X169991389Y-75317078D01*
X169968897Y-75281283D01*
X169925170Y-75211691D01*
X169895416Y-75164338D01*
X169767862Y-75036784D01*
X169767860Y-75036783D01*
X169615123Y-74940811D01*
X169444854Y-74881231D01*
X169444849Y-74881230D01*
X169265604Y-74861035D01*
X169265596Y-74861035D01*
X169086350Y-74881230D01*
X169086345Y-74881231D01*
X168916076Y-74940811D01*
X168763339Y-75036783D01*
X168684894Y-75115228D01*
X168623570Y-75148712D01*
X168553879Y-75143728D01*
X168509547Y-75115242D01*
X168501327Y-75107025D01*
X166530813Y-73137177D01*
X166474716Y-73081080D01*
X166474714Y-73081078D01*
X166474638Y-73081020D01*
X166406240Y-73041545D01*
X166406224Y-73041536D01*
X166365237Y-73017872D01*
X166337784Y-73002023D01*
X166337783Y-73002022D01*
X166337763Y-73002011D01*
X166337713Y-73001990D01*
X166259191Y-72980964D01*
X166259172Y-72980959D01*
X166185047Y-72961097D01*
X166184961Y-72961086D01*
X166184956Y-72961086D01*
X166102970Y-72961100D01*
X165496366Y-72961100D01*
X165429327Y-72941415D01*
X165383572Y-72888611D01*
X165373628Y-72819453D01*
X165402653Y-72755897D01*
X165408679Y-72749425D01*
X167234438Y-70923425D01*
X167295759Y-70889936D01*
X167322125Y-70887100D01*
X167668588Y-70887100D01*
X167735627Y-70906785D01*
X167745903Y-70914155D01*
X167748736Y-70916414D01*
X167748738Y-70916416D01*
X167901478Y-71012389D01*
X168026351Y-71056084D01*
X168071745Y-71071968D01*
X168071750Y-71071969D01*
X168250996Y-71092165D01*
X168251000Y-71092165D01*
X168251004Y-71092165D01*
X168430249Y-71071969D01*
X168430252Y-71071968D01*
X168430255Y-71071968D01*
X168600522Y-71012389D01*
X168753262Y-70916416D01*
X168880816Y-70788862D01*
X168976789Y-70636122D01*
X169036368Y-70465855D01*
X169036369Y-70465849D01*
X169056565Y-70286603D01*
X169056565Y-70286596D01*
X169036369Y-70107350D01*
X169036365Y-70107335D01*
X169031963Y-70094752D01*
X169028402Y-70024973D01*
X169063132Y-69964347D01*
X169125126Y-69932121D01*
X169149005Y-69929800D01*
X169219588Y-69929800D01*
X169286627Y-69949485D01*
X169296903Y-69956855D01*
X169299736Y-69959114D01*
X169299738Y-69959116D01*
X169452478Y-70055089D01*
X169601817Y-70107345D01*
X169622745Y-70114668D01*
X169622750Y-70114669D01*
X169801996Y-70134865D01*
X169802000Y-70134865D01*
X169802004Y-70134865D01*
X169981249Y-70114669D01*
X169981252Y-70114668D01*
X169981255Y-70114668D01*
X170151522Y-70055089D01*
X170304262Y-69959116D01*
X170431816Y-69831562D01*
X170468506Y-69773169D01*
X170520841Y-69726879D01*
X170589894Y-69716231D01*
X170653743Y-69744606D01*
X170692115Y-69802996D01*
X170697500Y-69839142D01*
X170697500Y-76671402D01*
X170677815Y-76738441D01*
X170661181Y-76759083D01*
X168183584Y-79236681D01*
X168122261Y-79270166D01*
X168095903Y-79273000D01*
X164451891Y-79273000D01*
X164384852Y-79253315D01*
X164346897Y-79214972D01*
X164335014Y-79196061D01*
X164307416Y-79152138D01*
X164179862Y-79024584D01*
X164168356Y-79017354D01*
X164027123Y-78928611D01*
X163856854Y-78869031D01*
X163856849Y-78869030D01*
X163677604Y-78848835D01*
X163677596Y-78848835D01*
X163498350Y-78869030D01*
X163498345Y-78869031D01*
X163328076Y-78928611D01*
X163175337Y-79024584D01*
X163047784Y-79152137D01*
X162951811Y-79304876D01*
X162892231Y-79475145D01*
X162892230Y-79475150D01*
X162872035Y-79654396D01*
X162872035Y-79654403D01*
X162892230Y-79833649D01*
X162892231Y-79833654D01*
X162951811Y-80003923D01*
X163013500Y-80102100D01*
X163047784Y-80156662D01*
X163175338Y-80284216D01*
X163328078Y-80380189D01*
X163422847Y-80413350D01*
X163498345Y-80439768D01*
X163498350Y-80439769D01*
X163677597Y-80459965D01*
X163677599Y-80459965D01*
X163677599Y-80459964D01*
X163677600Y-80459965D01*
X163715996Y-80455638D01*
X163761971Y-80459082D01*
X163817642Y-80474000D01*
X163817643Y-80474000D01*
X165825946Y-80474000D01*
X165892985Y-80493685D01*
X165938740Y-80546489D01*
X165949166Y-80611884D01*
X165949150Y-80612032D01*
X165945435Y-80645000D01*
X165947181Y-80660494D01*
X165951521Y-80699018D01*
X165939465Y-80767840D01*
X165892115Y-80819219D01*
X165824505Y-80836842D01*
X165814418Y-80836121D01*
X165788563Y-80833208D01*
X165760400Y-80830035D01*
X165760398Y-80830035D01*
X165760397Y-80830035D01*
X165760396Y-80830035D01*
X165581150Y-80850230D01*
X165581145Y-80850231D01*
X165410876Y-80909811D01*
X165258137Y-81005784D01*
X165130584Y-81133337D01*
X165034611Y-81286076D01*
X164975031Y-81456345D01*
X164975030Y-81456350D01*
X164954835Y-81635596D01*
X164954835Y-81635603D01*
X164975030Y-81814849D01*
X164975031Y-81814854D01*
X165034611Y-81985123D01*
X165121364Y-82123188D01*
X165130584Y-82137862D01*
X165258138Y-82265416D01*
X165410878Y-82361389D01*
X165581145Y-82420968D01*
X165668069Y-82430761D01*
X165732480Y-82457826D01*
X165741865Y-82466300D01*
X165939139Y-82663574D01*
X165939149Y-82663585D01*
X165943479Y-82667915D01*
X165943480Y-82667916D01*
X166055284Y-82779720D01*
X166133075Y-82824632D01*
X166192215Y-82858777D01*
X166344943Y-82899700D01*
X166503057Y-82899700D01*
X167364177Y-82899700D01*
X167364182Y-82899700D01*
X167452020Y-82899705D01*
X167452027Y-82899703D01*
X167452047Y-82899701D01*
X167452051Y-82899700D01*
X167452057Y-82899700D01*
X167530576Y-82878661D01*
X167601631Y-82859626D01*
X167604903Y-82858844D01*
X167604930Y-82858832D01*
X167608146Y-82856836D01*
X167672895Y-82819453D01*
X167672900Y-82819449D01*
X167672915Y-82819441D01*
X167739904Y-82780771D01*
X167741726Y-82779764D01*
X167743182Y-82778253D01*
X167797530Y-82723904D01*
X167797536Y-82723901D01*
X167797535Y-82723900D01*
X168117975Y-82403500D01*
X172514083Y-78007942D01*
X172514152Y-78007884D01*
X172547879Y-77974157D01*
X172586627Y-77935409D01*
X172586630Y-77935407D01*
X172610991Y-77911047D01*
X172631217Y-77890824D01*
X172632538Y-77889545D01*
X172632543Y-77889538D01*
X172633456Y-77887894D01*
X172636396Y-77882803D01*
X172674863Y-77816174D01*
X172674868Y-77816166D01*
X172686810Y-77795484D01*
X172711562Y-77752620D01*
X172711563Y-77752616D01*
X172711566Y-77752611D01*
X172711575Y-77752591D01*
X172733754Y-77669822D01*
X172733754Y-77669819D01*
X172752495Y-77599895D01*
X172752495Y-77599891D01*
X172752497Y-77599884D01*
X172752500Y-77599857D01*
X172752500Y-77515013D01*
X172752503Y-77468930D01*
X172752505Y-77441781D01*
X172752504Y-77441779D01*
X172752505Y-77433846D01*
X172752500Y-77433752D01*
X172752500Y-68310497D01*
X172772185Y-68243458D01*
X172824989Y-68197703D01*
X172894147Y-68187759D01*
X172957703Y-68216784D01*
G37*
%TD.AperFunction*%
%TA.AperFunction,Conductor*%
G36*
X153908742Y-55900185D02*
G01*
X153954497Y-55952989D01*
X153964441Y-56022147D01*
X153935416Y-56085703D01*
X153929384Y-56092181D01*
X153101984Y-56919581D01*
X153040661Y-56953066D01*
X153014303Y-56955900D01*
X152347412Y-56955900D01*
X152280373Y-56936215D01*
X152270097Y-56928845D01*
X152267263Y-56926585D01*
X152267262Y-56926584D01*
X152190516Y-56878361D01*
X152114523Y-56830611D01*
X151944254Y-56771031D01*
X151944249Y-56771030D01*
X151765004Y-56750835D01*
X151764996Y-56750835D01*
X151585750Y-56771030D01*
X151585745Y-56771031D01*
X151415476Y-56830611D01*
X151262737Y-56926584D01*
X151135184Y-57054137D01*
X151039211Y-57206876D01*
X150979631Y-57377145D01*
X150979630Y-57377150D01*
X150959435Y-57556396D01*
X150959435Y-57556403D01*
X150979630Y-57735649D01*
X150979632Y-57735659D01*
X150986801Y-57756144D01*
X150990364Y-57825923D01*
X150955635Y-57886551D01*
X150893642Y-57918778D01*
X150869760Y-57921100D01*
X148718397Y-57921100D01*
X148651358Y-57901415D01*
X148630716Y-57884781D01*
X148331550Y-57585615D01*
X148298065Y-57524292D01*
X148296013Y-57511836D01*
X148286218Y-57424895D01*
X148226639Y-57254628D01*
X148130666Y-57101888D01*
X148003112Y-56974334D01*
X147850373Y-56878361D01*
X147680104Y-56818781D01*
X147680099Y-56818780D01*
X147500854Y-56798585D01*
X147500846Y-56798585D01*
X147321600Y-56818780D01*
X147321595Y-56818781D01*
X147151326Y-56878361D01*
X146998587Y-56974334D01*
X146871034Y-57101887D01*
X146775061Y-57254626D01*
X146715481Y-57424895D01*
X146715480Y-57424900D01*
X146695285Y-57604146D01*
X146695285Y-57604153D01*
X146715480Y-57783399D01*
X146715481Y-57783404D01*
X146775061Y-57953673D01*
X146795842Y-57986745D01*
X146871034Y-58106412D01*
X146998588Y-58233966D01*
X147151328Y-58329939D01*
X147321595Y-58389518D01*
X147408519Y-58399311D01*
X147472930Y-58426376D01*
X147482315Y-58434850D01*
X147933439Y-58885974D01*
X147933460Y-58885997D01*
X147960932Y-58913469D01*
X147994417Y-58974792D01*
X147989433Y-59044484D01*
X147960932Y-59088831D01*
X147860265Y-59189498D01*
X147798942Y-59222983D01*
X147786468Y-59225037D01*
X147699550Y-59234830D01*
X147529278Y-59294410D01*
X147376537Y-59390384D01*
X147248984Y-59517937D01*
X147153011Y-59670676D01*
X147093431Y-59840945D01*
X147093430Y-59840950D01*
X147073235Y-60020196D01*
X147073235Y-60020203D01*
X147093430Y-60199449D01*
X147093431Y-60199454D01*
X147153011Y-60369723D01*
X147234817Y-60499915D01*
X147248984Y-60522462D01*
X147376538Y-60650016D01*
X147529278Y-60745989D01*
X147634575Y-60782834D01*
X147699545Y-60805568D01*
X147699550Y-60805569D01*
X147878796Y-60825765D01*
X147878800Y-60825765D01*
X147878804Y-60825765D01*
X148058049Y-60805569D01*
X148058052Y-60805568D01*
X148058055Y-60805568D01*
X148228322Y-60745989D01*
X148381062Y-60650016D01*
X148508616Y-60522462D01*
X148604589Y-60369722D01*
X148664168Y-60199455D01*
X148673961Y-60112529D01*
X148701026Y-60048118D01*
X148709490Y-60038743D01*
X149107216Y-59641019D01*
X149168539Y-59607534D01*
X149194897Y-59604700D01*
X151042983Y-59604700D01*
X151110022Y-59624385D01*
X151155777Y-59677189D01*
X151165721Y-59746347D01*
X151154702Y-59782504D01*
X151153512Y-59784974D01*
X151093931Y-59955245D01*
X151093930Y-59955250D01*
X151073735Y-60134496D01*
X151073735Y-60134503D01*
X151093930Y-60313749D01*
X151093931Y-60313754D01*
X151153511Y-60484023D01*
X151163497Y-60499915D01*
X151249484Y-60636762D01*
X151377038Y-60764316D01*
X151423304Y-60793387D01*
X151514383Y-60850616D01*
X151529778Y-60860289D01*
X151555276Y-60869211D01*
X151700045Y-60919868D01*
X151700050Y-60919869D01*
X151879296Y-60940065D01*
X151879300Y-60940065D01*
X151879304Y-60940065D01*
X152058549Y-60919869D01*
X152058552Y-60919868D01*
X152058555Y-60919868D01*
X152228822Y-60860289D01*
X152377758Y-60766705D01*
X152443730Y-60747700D01*
X152660202Y-60747700D01*
X152727241Y-60767385D01*
X152772996Y-60820189D01*
X152782940Y-60889347D01*
X152753915Y-60952903D01*
X152747883Y-60959381D01*
X149818584Y-63888681D01*
X149757261Y-63922166D01*
X149730903Y-63925000D01*
X144096117Y-63925000D01*
X144029078Y-63905315D01*
X144008432Y-63888677D01*
X143930640Y-63810878D01*
X143457978Y-63338170D01*
X143228935Y-63109105D01*
X143228893Y-63109057D01*
X143163252Y-63043416D01*
X143110739Y-62990898D01*
X143110738Y-62990897D01*
X143110735Y-62990894D01*
X143110714Y-62990878D01*
X143068235Y-62966354D01*
X143041303Y-62950804D01*
X143041297Y-62950798D01*
X143041296Y-62950801D01*
X142973816Y-62911836D01*
X142973797Y-62911828D01*
X142973785Y-62911823D01*
X142906440Y-62893778D01*
X142906440Y-62893776D01*
X142906433Y-62893776D01*
X142821076Y-62870900D01*
X142821057Y-62870900D01*
X142753322Y-62870900D01*
X142662971Y-62870896D01*
X142662969Y-62870896D01*
X142654916Y-62870896D01*
X142654854Y-62870900D01*
X115827500Y-62870900D01*
X115760461Y-62851215D01*
X115714706Y-62798411D01*
X115703500Y-62746900D01*
X115703500Y-56527743D01*
X115703499Y-56527739D01*
X115696034Y-56499878D01*
X115693072Y-56488823D01*
X115662577Y-56375015D01*
X115617712Y-56297307D01*
X115583520Y-56238084D01*
X115471716Y-56126280D01*
X115437617Y-56092181D01*
X115404132Y-56030858D01*
X115409116Y-55961166D01*
X115450988Y-55905233D01*
X115516452Y-55880816D01*
X115525298Y-55880500D01*
X153841703Y-55880500D01*
X153908742Y-55900185D01*
G37*
%TD.AperFunction*%
%TD*%
M02*
